<svg id="Layer_1" xmlns="http://www.w3.org/2000/svg" xmlns:xlink="http://www.w3.org/1999/xlink" viewBox="0 0 88 120"><style>.st0,.st1{clip-path:url(#SVGID_2_);fill:#fff}.st1{fill:none;stroke:#005089;stroke-width:1.5}.st2{stroke-dasharray:0,4.175}.st2,.st3{fill:none;stroke:#005089;stroke-width:2;stroke-linecap:round;stroke-linejoin:round}.st4,.st5{clip-path:url(#SVGID_4_);fill:#fff}.st5{fill:none;stroke:#005089;stroke-width:1.5}.st6{stroke-dasharray:0,3.926}.st6,.st7,.st8,.st9{fill:none;stroke:#005089;stroke-width:2;stroke-linecap:round;stroke-linejoin:round}.st7{stroke-dasharray:0,4.075}.st8{stroke-dasharray:0,4.04}.st9{stroke-dasharray:0,3.417}</style><defs><path id="SVGID_1_" d="M4 4.3h80.6V117H4z"/></defs><clipPath id="SVGID_2_"><use xlink:href="#SVGID_1_" overflow="visible"/></clipPath><path class="st0" d="M80.9 13.7c-2.4 1-5.1 0-6.1-2.3s.1-5 2.5-6 5.1 0 6.1 2.3c1.1 2.3-.1 5-2.5 6"/><ellipse transform="rotate(-23.494 79.143 9.56)" class="st1" cx="79.1" cy="9.6" rx="4.7" ry="4.5"/><path class="st0" d="M39.8 23.5c-2.4 1-5.1 0-6.1-2.3s.1-5 2.5-6 5.1 0 6.1 2.3c1.1 2.3-.1 5-2.5 6"/><ellipse transform="rotate(-23.494 38.034 19.357)" class="st1" cx="38" cy="19.4" rx="4.7" ry="4.5"/><path class="st0" d="M60.1 92.9c-2.4 1-5.1 0-6.1-2.3s.1-5 2.5-6 5.1 0 6.1 2.3-.1 5-2.5 6"/><ellipse transform="rotate(-23.494 58.276 88.777)" class="st1" cx="58.3" cy="88.8" rx="4.7" ry="4.5"/><path class="st0" d="M16.1 64.6c-4.2 1.8-8.9 0-10.7-4-1.7-4 .2-8.7 4.4-10.5s8.9 0 10.7 4c1.7 4-.3 8.7-4.4 10.5"/><ellipse transform="rotate(-23.494 12.921 57.42)" class="st1" cx="12.9" cy="57.4" rx="8.2" ry="7.9"/><path class="st0" d="M43.5 115.5c-4.2 1.8-8.9 0-10.7-4-1.7-4 .2-8.7 4.4-10.5 4.2-1.8 8.9 0 10.7 4 1.7 4-.2 8.7-4.4 10.5"/><ellipse transform="rotate(-23.494 40.367 108.323)" class="st1" cx="40.4" cy="108.3" rx="8.2" ry="7.9"/><path class="st2" d="M74.6 20.4l-7.1 17.4"/><defs><path id="SVGID_3_" d="M4 4.3h80.6V117H4z"/></defs><clipPath id="SVGID_4_"><use xlink:href="#SVGID_3_" overflow="visible"/></clipPath><path class="st4" d="M65.4 57.1c-4.2 1.8-8.9 0-10.7-4-1.7-4 .2-8.7 4.4-10.5s8.9 0 10.7 4c1.7 4-.3 8.7-4.4 10.5"/><ellipse transform="rotate(-23.494 62.239 49.845)" class="st5" cx="62.2" cy="49.8" rx="8.2" ry="7.9"/><path class="st6" d="M47.3 50.8L26 54.3"/><path class="st7" d="M23.7 67.3l25.4 16.9"/><path class="st8" d="M52.3 38.1l-9-10.8"/><path class="st9" d="M51 97.6l1.2-1.2"/></svg>