<svg xmlns="http://www.w3.org/2000/svg" xmlns:xlink="http://www.w3.org/1999/xlink" viewBox="0 0 144 144"><pattern width="28.8" height="28.8" patternUnits="userSpaceOnUse" id="c" viewBox="0 -28.8 28.8 28.8" overflow="visible"><path fill="none" d="M0-28.8h28.8V0H0z"/><path fill="#BFD730" d="M0-28.8h28.8V0H0z"/></pattern><pattern width="28.8" height="28.8" patternUnits="userSpaceOnUse" id="a" viewBox="0 -28.8 28.8 28.8" overflow="visible"><path fill="none" d="M0-28.8h28.8V0H0z"/><path fill="#1E8234" d="M0-28.8h28.8V0H0z"/></pattern><pattern width="28.8" height="28.8" patternUnits="userSpaceOnUse" id="i" viewBox="0 -28.8 28.8 28.8" overflow="visible"><path fill="none" d="M0-28.8h28.8V0H0z"/><path fill="#6D9D31" d="M0-28.8h28.8V0H0z"/></pattern><pattern width="28.8" height="28.8" patternUnits="userSpaceOnUse" id="f" viewBox="0 -28.8 28.8 28.8" overflow="visible"><path fill="none" d="M0-28.8h28.8V0H0z"/><path fill="#8DC63F" d="M0-28.8h28.8V0H0z"/></pattern><path fill="#FFF" d="M111.7 79.4c-29.3 1.2-54.1-21.5-55.3-50.8-.3-7.5.9-14.7 3.5-21.3-17.9 9.1-29.9 28-29 49.4.5 10.7 4.1 20.6 9.9 28.7 2 2.8 4.3 5.4 6.8 7.8 5.6 5.2 12.2 9.2 19.6 11.6 5.9 1.9 12.2 2.9 18.8 2.6 21.6-.9 39.6-14.6 47-33.5-6.5 3.3-13.7 5.2-21.3 5.5z"/><pattern id="b" xlink:href="#a" patternTransform="translate(4220.041 4115.272) scale(1.5167)"/><path fill="none" stroke="url(#b)" stroke-width="1.5" stroke-linecap="round" stroke-linejoin="round" stroke-miterlimit="10" d="M67.2 104.8c5.9 1.9 12.2 2.9 18.8 2.6 21.6-.9 39.6-14.6 47-33.5-6.5 3.2-13.7 5.1-21.3 5.5-29.3 1.2-54.1-21.5-55.3-50.8-.3-7.5.9-14.7 3.5-21.3-17.9 9.1-29.9 28-29 49.4.5 10.7 4.1 20.6 9.9 28.7"/><pattern id="d" xlink:href="#c" patternTransform="rotate(12.473 -28987.782 9336.8) scale(1.5168)"/><pattern id="e" xlink:href="#a" patternTransform="rotate(12.473 -28987.782 9336.8) scale(1.5168)"/><path fill="url(#d)" stroke="url(#e)" stroke-width="1.5" stroke-linecap="round" stroke-linejoin="round" stroke-miterlimit="10" d="M56.2 85.9l.7 7.7 7.6 1.7-7.1 3.1.7 7.7-5.1-5.8-7.1 3.1 3.9-6.7-5.2-5.8 7.6 1.7z"/><pattern id="g" xlink:href="#f" patternTransform="matrix(1.2074 -.918 .918 1.2074 9006.94 -5698.834)"/><pattern id="h" xlink:href="#a" patternTransform="matrix(1.2074 -.918 .918 1.2074 9006.94 -5698.834)"/><path fill="url(#g)" stroke="url(#h)" stroke-width="1.5" stroke-linecap="round" stroke-linejoin="round" stroke-miterlimit="10" d="M53.9 112.8l6.4 4.4 6.2-4.7-2.3 7.4 6.4 4.5-7.8.1-2.2 7.5-2.6-7.4-7.7.2 6.2-4.7z"/><pattern id="j" xlink:href="#i" patternTransform="translate(4182.677 4114.103) scale(1.5167)"/><pattern id="k" xlink:href="#a" patternTransform="translate(4182.677 4114.104) scale(1.5167)"/><path fill="url(#j)" stroke="url(#k)" stroke-width="1.5" stroke-linecap="round" stroke-linejoin="round" stroke-miterlimit="10" d="M27.5 91.2l2.4 7.4h7.8l-6.3 4.6 2.4 7.4-6.3-4.6-6.3 4.6 2.4-7.4-6.3-4.6h7.8z"/></svg>