<svg xmlns="http://www.w3.org/2000/svg" xmlns:xlink="http://www.w3.org/1999/xlink" viewBox="0 0 144 144"><pattern width="28.8" height="28.8" patternUnits="userSpaceOnUse" id="a" viewBox="0 -28.8 28.8 28.8" overflow="visible"><path fill="none" d="M0-28.8h28.8V0H0z"/><path fill="#F37021" d="M0-28.8h28.8V0H0z"/></pattern><pattern width="28.8" height="28.8" patternUnits="userSpaceOnUse" id="f" viewBox="0 -28.8 28.8 28.8" overflow="visible"><path fill="none" d="M0-28.8h28.8V0H0z"/><path fill="#FFD64F" d="M0-28.8h28.8V0H0z"/></pattern><pattern width="28.8" height="28.8" patternUnits="userSpaceOnUse" id="c" viewBox="0 -28.8 28.8 28.8" overflow="visible"><path fill="none" d="M0-28.8h28.8V0H0z"/><path fill="#FFEB95" d="M0-28.8h28.8V0H0z"/></pattern><pattern id="b" xlink:href="#a" patternTransform="translate(2988.632 2906.249) scale(1.3701)"/><path fill-rule="evenodd" clip-rule="evenodd" fill="#FEEC95" stroke="url(#b)" stroke-width="1.5" stroke-linecap="round" stroke-linejoin="round" stroke-miterlimit="10" d="M127.6 36.1c0-3.2-2.6-5.9-5.9-5.9H22.4c-3.2 0-5.9 2.6-5.9 5.9v68.2h111V36.1z"/><path fill="#FFF" d="M22.4 36.1h99.9v65.5H22.4z"/><pattern id="d" xlink:href="#c" patternTransform="translate(2951.913 2932.555) scale(1.3701)"/><path fill="url(#d)" d="M30.9 52.3h36.8v22.4H30.9z"/><pattern id="e" xlink:href="#c" patternTransform="translate(2951.913 2932.555) scale(1.3701)"/><path fill="url(#e)" d="M76.3 86H114v10.1H76.3z"/><pattern id="g" xlink:href="#f" patternTransform="translate(2951.913 2932.555) scale(1.3701)"/><path fill="url(#g)" d="M23 36.5h98.1v9.4H23z"/><pattern id="h" xlink:href="#a" patternTransform="translate(2988.632 2906.249) scale(1.3701)"/><path fill-rule="evenodd" clip-rule="evenodd" fill="#FEEC95" stroke="url(#h)" stroke-width="1.5" stroke-linecap="round" stroke-linejoin="round" stroke-miterlimit="10" d="M4.3 104.3v4.1c0 3.1 2.5 5.5 5.5 5.5h124.5c3.1 0 5.5-2.5 5.5-5.5v-4.1H4.3z"/><pattern id="i" xlink:href="#a" patternTransform="translate(2988.632 2906.249) scale(1.3701)"/><path clip-rule="evenodd" fill="none" stroke="url(#i)" stroke-width="1.5" stroke-linecap="round" stroke-linejoin="round" stroke-miterlimit="10" d="M22.4 36.1h99.3v65H22.4z"/><pattern id="j" xlink:href="#a" patternTransform="translate(2988.632 2906.249) scale(1.3701)"/><path fill="none" stroke="url(#j)" stroke-width="1.5" stroke-linecap="round" stroke-linejoin="round" stroke-miterlimit="10" d="M22.4 81.1h99.3v20H22.4z"/><pattern id="k" xlink:href="#a" patternTransform="translate(2988.632 2906.249) scale(1.3701)"/><path fill="none" stroke="url(#k)" stroke-width="1.5" stroke-linecap="round" stroke-linejoin="round" stroke-miterlimit="10" d="M22.4 46.1h99.3v35H22.4z"/><pattern id="l" xlink:href="#a" patternTransform="translate(2988.632 2906.249) scale(1.3701)"/><path fill="none" stroke="url(#l)" stroke-width="1.5" stroke-linecap="round" stroke-linejoin="round" stroke-miterlimit="10" d="M22.4 36.1h99.3v10H22.4z"/><pattern id="m" xlink:href="#a" patternTransform="translate(2988.632 2906.249) scale(1.3701)"/><path fill="none" stroke="url(#m)" stroke-width="1.5" stroke-linecap="round" stroke-linejoin="round" stroke-miterlimit="10" d="M112.7 86.1H77.2c-.6 0-1.2.5-1.2 1.2V95c0 .6.5 1.2 1.2 1.2h35.4c.6 0 1.2-.5 1.2-1.2v-7.7c0-.7-.5-1.2-1.1-1.2z"/><pattern id="n" xlink:href="#a" patternTransform="translate(2988.632 2906.249) scale(1.3701)"/><path fill="none" stroke="url(#n)" stroke-width="1.5" stroke-linecap="round" stroke-linejoin="round" stroke-miterlimit="10" d="M30.3 93.3h32.1V96H30.3z"/><pattern id="o" xlink:href="#a" patternTransform="translate(2988.632 2906.249) scale(1.3701)"/><path fill="none" stroke="url(#o)" stroke-width="1.5" stroke-linecap="round" stroke-linejoin="round" stroke-miterlimit="10" d="M30.3 86.2h37.8v4H30.3z"/><pattern id="p" xlink:href="#a" patternTransform="translate(2988.632 2906.249) scale(1.3701)"/><path fill="none" stroke="url(#p)" stroke-width="1.5" stroke-linecap="round" stroke-linejoin="round" stroke-miterlimit="10" d="M76.1 53.6h37.8v4H76.1z"/><pattern id="q" xlink:href="#a" patternTransform="translate(2988.632 2906.249) scale(1.3701)"/><path fill="none" stroke="url(#q)" stroke-width="1.5" stroke-linecap="round" stroke-linejoin="round" stroke-miterlimit="10" d="M76.1 62.7h37.8v4H76.1z"/><pattern id="r" xlink:href="#a" patternTransform="translate(2988.632 2906.249) scale(1.3701)"/><path fill="none" stroke="url(#r)" stroke-width="1.5" stroke-linecap="round" stroke-linejoin="round" stroke-miterlimit="10" d="M66.9 52.6H31.5c-.6 0-1.2.5-1.2 1.2v19.7c0 .6.5 1.2 1.2 1.2h35.4c.6 0 1.2-.5 1.2-1.2V53.8c0-.7-.5-1.2-1.2-1.2z"/><pattern id="s" xlink:href="#a" patternTransform="translate(2988.632 2906.249) scale(1.3701)"/><path fill-rule="evenodd" clip-rule="evenodd" fill="#FFF" stroke="url(#s)" stroke-width="1.5" stroke-linecap="round" stroke-linejoin="round" stroke-miterlimit="10" d="M78.2 109.2c0 .7-.6 1.3-1.3 1.3h-9.5c-.7 0-1.3-.6-1.3-1.3v-.1c0-.7.6-1.3 1.3-1.3h9.5c.7 0 1.3.6 1.3 1.3v.1z"/></svg>