<svg id="Layer_1" data-name="Layer 1" xmlns="http://www.w3.org/2000/svg" viewBox="0 0 512.99767 301.5"><defs><style>.cls-1,.cls-4{fill:none}.cls-2{fill:#f37021}.cls-3,.cls-8{fill:#fff}.cls-3,.cls-4,.cls-5,.cls-6{stroke-linecap:round;stroke-linejoin:round;stroke-width:1.5px;stroke:url(#New_Pattern_Swatch_14)}.cls-5{fill:#ffd54f}.cls-6,.cls-7{fill:#feec95}</style><pattern id="New_Pattern_Swatch_14" data-name="New Pattern Swatch 14" width="28.8" height="28.8" patternTransform="translate(-220.409 -638.022) scale(4.45101)" patternUnits="userSpaceOnUse" viewBox="0 0 28.8 28.8"><path class="cls-1" d="M0 0h28.8v28.8H0z"/><path class="cls-2" d="M0 0h28.8v28.8H0z"/></pattern></defs><title>icon-people</title><path class="cls-3" d="M.75 297.709a80.168 80.168 0 0 1 148.55-2.161m28.622 2.161a80.168 80.168 0 0 1 148.55-2.161m28.822 2.161a80.168 80.168 0 0 1 148.55-2.161"/><path class="cls-4" d="M268.281 143.884a80.168 80.168 0 0 1 148.551-2.16m-335.652 2.16a80.163 80.163 0 0 1 74.714-51.103c33.193 0 64.047 25.508 76.212 54.27"/><path class="cls-3" d="M163.374 182.006l-7.919 6.497-7.918-6.497V69.926h15.837v112.08z"/><circle class="cls-3" cx="75.691" cy="206.538" r="62.808"/><circle class="cls-5" cx="155.455" cy="69.926" r="62.808"/><circle class="cls-3" cx="342.557" cy="69.926" r="62.808"/><circle class="cls-3" cx="252.251" cy="206.538" r="62.808"/><path class="cls-6" d="M491.013 206.538a62.859 62.859 0 1 1-62.808-62.808 62.808 62.808 0 0 1 62.808 62.808z"/><path class="cls-4" d="M75.691 172.806v49.976m-10.61 0h21.22"/><path class="cls-3" d="M144.845 81.058h21.22"/><path class="cls-6" d="M180.549 180.007h60.455v34.111h-60.455zm82.841 0h60.455v34.111H263.39z"/><path class="cls-3" d="M241.004 197.063h22.386"/><path class="cls-4" d="M418.46 203.578a12.995 12.995 0 0 1-25.99 0"/><circle class="cls-5" cx="252.251" cy="256.024" r="28.879"/><path class="cls-4" d="M265.246 246.278a12.995 12.995 0 0 1-25.99 0m203.308-6.498a12.995 12.995 0 1 1-25.99 0m-327.888 0a12.995 12.995 0 0 1-25.99 0"/><path class="cls-3" d="M357.157 96.03a12.995 12.995 0 1 1-25.989 0"/><path class="cls-4" d="M168.45 96.03a12.995 12.995 0 1 1-25.99 0m321.48 107.548a12.995 12.995 0 0 1-25.989 0"/><path class="cls-6" d="M54.03 276l21.434 12.375L54.03 300.75V276zm43.323 24.75l-21.434-12.375L97.353 276v24.75z"/><path class="cls-3" d="M155.455 54.458v26.6m18.2-58.306A157.833 157.833 0 0 1 183.792 5.84m-21.839 16.912a160.5 160.5 0 0 1 12.42-20.164m-25.415 20.164A161.927 161.927 0 0 1 162.718.75m-26.755 22.002A161.495 161.495 0 0 1 149.31 1.313"/><ellipse class="cls-3" cx="131.719" cy="54.458" rx="17.239" ry="12.121"/><ellipse class="cls-3" cx="179.192" cy="54.458" rx="17.239" ry="12.121"/><path class="cls-3" d="M148.958 54.458h12.995"/><path class="cls-7" d="M26.266 170.066s39.651 8.012 56.123 1.37 29.289-16.578 26.519-18.212-23.8-8.791-23.8-8.791l-26.683 1.71-22.458 11.749-9.7 8.598z"/><path class="cls-4" d="M106.221 154.16c0 11.03-21.399 19.973-47.796 19.973S10.63 165.19 10.63 154.16"/><circle class="cls-4" cx="75.691" cy="206.538" r="62.808"/><path class="cls-7" d="M284.198 87.845l21.706-3.667 20.633-15.852 11.262-18.063 6.364-21.098-.148-14.869.148-7.178-20.574 3.962-18.992 8.807-13.385 13.857-9.318 19.861-2.145 16.321 4.449 17.919zm119.929 0l-21.047-5.483-21.292-14.036-11.262-18.063-6.363-21.098.148-14.869-.148-7.178 20.574 3.962 18.991 8.807 12.753 14.49 8.325 20.033 2.03 15.516-2.709 17.919z"/><path class="cls-4" d="M430.433 79.753a55.177 55.177 0 0 1-24.535 5.772c-32.76 0-59.56-29.06-61.61-65.778q-.125-2.246-.125-4.53"/><path class="cls-4" d="M257.893 83.675a55.177 55.177 0 0 0 24.535 5.771c34.095 0 61.735-31.477 61.735-70.306q0-4.089-.401-8.06"/><circle class="cls-4" cx="342.557" cy="69.926" r="62.808"/><path class="cls-8" d="M367.363 190.886l10.844 1.435 18.498-1.906 18.591-10.408 7.31-8.779 5.599-7.851 6.448 12.822 14.619 11.137 16.379 4.985 13.562-.228 9.352-2.97-4.475-11.274-6.837-10.543-8.858-9.035-8.981-6.247-12.985-4.973-12.182-3.032-16.597.596-14.68 4.394-10.5 5.874-9.703 8.293-9.569 13.023-4.331 7.076-1.504 7.611z"/><path class="cls-4" d="M482.609 175.61c-1.975.445 0 0-2.228.248a56.404 56.404 0 0 1-6.217.341c-21.534 0-40.222-11.995-45.208-28.389m-54.945 28.39c.983.05 7.236 0 8.235 0 18.577 0 34.58-9.04 41.825-22.046 1.258-2.257 2.686-3.874 3.384-6.344"/><path class="cls-4" d="M512.248 175.73s-9.425 13.76-31.867 16.249a56.404 56.404 0 0 1-6.217.342c-25.382 0-45.959-16.875-45.959-37.69a31.303 31.303 0 0 1 .75-6.82"/><path class="cls-4" d="M344.163 175.73s9.424 13.76 31.866 16.249a56.404 56.404 0 0 0 6.217.342c25.383 0 45.96-16.875 45.96-37.69a31.303 31.303 0 0 0-.751-6.82"/><path class="cls-4" d="M491.013 206.538a62.859 62.859 0 1 1-62.808-62.808 62.808 62.808 0 0 1 62.808 62.808z"/></svg>