<svg xmlns="http://www.w3.org/2000/svg" xmlns:xlink="http://www.w3.org/1999/xlink" viewBox="0 0 144 144"><pattern width="28.8" height="28.8" patternUnits="userSpaceOnUse" id="b" viewBox="0 -28.8 28.8 28.8" overflow="visible"><path fill="none" d="M0-28.8h28.8V0H0z"/><path fill="#005089" d="M0-28.8h28.8V0H0z"/></pattern><pattern width="28.8" height="28.8" patternUnits="userSpaceOnUse" id="a" viewBox="0 -28.8 28.8 28.8" overflow="visible"><path fill="none" d="M0-28.8h28.8V0H0z"/><path fill="#007BB4" d="M0-28.8h28.8V0H0z"/></pattern><pattern width="28.8" height="28.8" patternUnits="userSpaceOnUse" id="g" viewBox="0 -28.8 28.8 28.8" overflow="visible"><path fill="none" d="M0-28.8h28.8V0H0z"/><path fill="#53B7E8" d="M0-28.8h28.8V0H0z"/></pattern><pattern id="c" xlink:href="#a" patternTransform="rotate(-45 -10605.264 -1849.977) scale(.5532)"/><pattern id="d" xlink:href="#b" patternTransform="rotate(-45 -10605.266 -1849.975) scale(.5532)"/><path fill="url(#c)" stroke="url(#d)" stroke-width="1.5" stroke-linecap="round" stroke-linejoin="round" stroke-miterlimit="10" d="M102.2 30.2l2.7 9.9 12.5-12.5-2.6-9.9z"/><pattern id="e" xlink:href="#a" patternTransform="rotate(-45 -10605.264 -1849.977) scale(.5532)"/><pattern id="f" xlink:href="#b" patternTransform="rotate(-45 -10605.266 -1849.975) scale(.5532)"/><path fill="url(#e)" stroke="url(#f)" stroke-width="1.5" stroke-linecap="round" stroke-linejoin="round" stroke-miterlimit="10" d="M104.9 40.1l12.5-12.5 9.9 2.6-12.5 12.6z"/><pattern id="h" xlink:href="#g" patternTransform="rotate(-45 -10605.264 -1849.977) scale(.5532)"/><pattern id="i" xlink:href="#b" patternTransform="rotate(-45 -10605.266 -1849.975) scale(.5532)"/><path fill="url(#h)" stroke="url(#i)" stroke-width="1.5" stroke-linecap="round" stroke-linejoin="round" stroke-miterlimit="10" d="M23.5 58.9c17.3-17.3 45.3-17.3 62.6 0 17.3 17.3 17.3 45.3 0 62.6-17.3 17.3-45.3 17.3-62.6 0-17.3-17.3-17.3-45.3 0-62.6z"/><pattern id="j" xlink:href="#a" patternTransform="rotate(-45 -10605.264 -1849.977) scale(.5532)"/><pattern id="k" xlink:href="#b" patternTransform="rotate(-45 -10605.266 -1849.975) scale(.5532)"/><path fill="url(#j)" stroke="url(#k)" stroke-width="1.5" stroke-linecap="round" stroke-linejoin="round" stroke-miterlimit="10" d="M36 71.4C46.4 61 63.2 61 73.6 71.4 84 81.8 84 98.6 73.6 109s-27.2 10.4-37.6 0c-10.3-10.4-10.3-27.2 0-37.6zm-6.2-6.2C16 79 16 101.5 29.8 115.3s36.3 13.8 50.1 0 13.8-36.3 0-50.1-36.3-13.9-50.1 0z"/><pattern id="l" xlink:href="#a" patternTransform="rotate(-45 -10605.264 -1849.977) scale(.5532)"/><pattern id="m" xlink:href="#b" patternTransform="rotate(-45 -10605.266 -1849.975) scale(.5532)"/><path fill="url(#l)" stroke="url(#m)" stroke-width="1.5" stroke-linecap="round" stroke-linejoin="round" stroke-miterlimit="10" d="M48.5 83.9c3.5-3.5 9.1-3.5 12.5 0 3.5 3.5 3.5 9.1 0 12.5-3.5 3.5-9.1 3.5-12.5 0s-3.4-9 0-12.5zm-6.2-6.2c-6.9 6.9-6.9 18.1 0 25 6.9 6.9 18.1 6.9 25 0 6.9-6.9 6.9-18.1 0-25-6.9-6.9-18.1-6.9-25 0z"/><pattern id="n" xlink:href="#b" patternTransform="rotate(-45 -10604.854 -1855.78) scale(.5532)"/><path fill="#FFF" stroke="url(#n)" stroke-width="1.5" stroke-linecap="round" stroke-linejoin="round" stroke-miterlimit="10" d="M119 29.2L56.4 91.8c-.9.9-2.3.9-3.1 0s-.9-2.3 0-3.1L115.8 26c.9-.9 2.3-.9 3.1 0 .9.9.9 2.3.1 3.2z"/></svg>