<svg id="Layer_1" xmlns="http://www.w3.org/2000/svg" xmlns:xlink="http://www.w3.org/1999/xlink" viewBox="0 0 114 107"><style>.st0{fill:none}.st1{fill:#8bc53f}.st2{fill:#1d8134}.st3,.st4{clip-path:url(#SVGID_2_);fill:url(#SVGID_3_)}.st4{fill:none;stroke:url(#SVGID_4_);stroke-width:1.194;stroke-linecap:round;stroke-linejoin:round;stroke-miterlimit:10}.st5,.st6{clip-path:url(#SVGID_6_)}.st5{fill:none;stroke-linecap:round;stroke-linejoin:round;stroke-miterlimit:10;stroke:url(#SVGID_7_);stroke-width:1.194}.st6{stroke:url(#SVGID_8_);stroke-width:1.109}.st6,.st7,.st8{fill:none;stroke-linecap:round;stroke-linejoin:round;stroke-miterlimit:10}.st7{clip-path:url(#SVGID_6_);stroke:url(#SVGID_9_);stroke-width:1.194}.st8{stroke:url(#SVGID_10_);stroke-width:1.131}.st10,.st8,.st9{clip-path:url(#SVGID_6_)}.st9{stroke:url(#SVGID_11_);stroke-width:1.194;stroke-linecap:round;stroke-linejoin:round;stroke-miterlimit:10;fill:none}.st10{fill:#fff}.st11{clip-path:url(#SVGID_13_);fill:none;stroke:url(#SVGID_14_);stroke-width:1.194;stroke-linecap:round;stroke-linejoin:round;stroke-miterlimit:10}.st12{clip-path:url(#SVGID_16_);fill:#fff}.st13{clip-path:url(#SVGID_18_);fill:none;stroke:url(#SVGID_19_);stroke-width:1.194;stroke-linecap:round;stroke-linejoin:round;stroke-miterlimit:10}.st14{clip-path:url(#SVGID_21_);fill:#fff}.st15{clip-path:url(#SVGID_23_);fill:none;stroke:url(#SVGID_24_);stroke-width:1.194;stroke-linecap:round;stroke-linejoin:round;stroke-miterlimit:10}.st16{clip-path:url(#SVGID_26_);fill:#fff}.st17{clip-path:url(#SVGID_28_);fill:none;stroke:url(#SVGID_29_);stroke-width:1.194;stroke-linecap:round;stroke-linejoin:round;stroke-miterlimit:10}</style><pattern x="-231" y="-126.5" width="28.8" height="28.8" patternUnits="userSpaceOnUse" id="Unnamed_Pattern" viewBox="0 -28.8 28.8 28.8" overflow="visible"><path class="st0" d="M0-28.8h28.8V0H0z"/><path class="st1" d="M0-28.8h28.8V0H0z"/></pattern><pattern x="-231" y="-126.5" width="28.8" height="28.8" patternUnits="userSpaceOnUse" id="Unnamed_Pattern_11" viewBox="0 -28.8 28.8 28.8" overflow="visible"><path class="st0" d="M0-28.8h28.8V0H0z"/><path class="st2" d="M0-28.8h28.8V0H0z"/></pattern><defs><path id="SVGID_1_" d="M5 3.5h105v100H5z"/></defs><clipPath id="SVGID_2_"><use xlink:href="#SVGID_1_" overflow="visible"/></clipPath><pattern id="SVGID_3_" xlink:href="#Unnamed_Pattern" patternTransform="matrix(.9123 0 0 -.9123 313.605 737.908)"/><path class="st3" d="M87.7 20.8c-.3-.3-.7-.4-1-.2l-7.8 2.6c-1.5.5-2.9 1.4-4 2.5L58.5 42 13.2 30.7c-1.2-.3-2.4 0-3.2.9l-3.3 3.3c-.8.8-1.1 1.8-1 2.9.2 1.1.8 2 1.7 2.5l34.4 18.5-14.2 14.1H14.9c-.3 0-.5.1-.7.3l-3.3 3.3c-.2.2-.3.6-.3.9 0 .3.3.6.5.7L22.9 84s.1 0 .1.1l1.4 1.4s0 .1.1.1l5.9 11.8c.1.3.4.5.7.5h.2c.3 0 .5-.1.7-.3l3.3-3.3c.2-.2.3-.4.3-.7V80.9l14.2-14.2L68.3 101c1.5 2.5 4.3 2 5.4.8l3.3-3.3c.9-.9 1.2-2.1.9-3.2L66.5 50l16.4-16.4c1.1-1.1 2-2.5 2.5-4l2.6-7.8c.1-.3 0-.7-.3-1"/><pattern id="SVGID_4_" xlink:href="#Unnamed_Pattern_11" patternTransform="matrix(.9123 0 0 -.9123 312.692 751.957)"/><path class="st4" d="M87.7 20.8c-.3-.3-.7-.4-1-.2l-7.8 2.6c-1.5.5-2.9 1.4-4 2.5L58.5 42 13.2 30.7c-1.2-.3-2.4 0-3.2.9l-3.3 3.3c-.8.8-1.1 1.8-1 2.9.2 1.1.8 2 1.7 2.5l34.4 18.5-14.2 14.1H14.9c-.3 0-.5.1-.7.3l-3.3 3.3c-.2.2-.3.6-.3.9 0 .3.3.6.5.7L22.9 84s.1 0 .1.1l1.4 1.4s0 .1.1.1l5.9 11.8c.1.3.4.5.7.5h.2c.3 0 .5-.1.7-.3l3.3-3.3c.2-.2.3-.4.3-.7V80.9l14.2-14.2L68.3 101c1.5 2.5 4.3 2 5.4.8l3.3-3.3c.9-.9 1.2-2.1.9-3.2L66.5 50l16.4-16.4c1.1-1.1 2-2.5 2.5-4l2.6-7.8c.1-.3 0-.7-.3-1z"/><defs><path id="SVGID_5_" d="M5 3.5h105v100H5z"/></defs><clipPath id="SVGID_6_"><use xlink:href="#SVGID_5_" overflow="visible"/></clipPath><pattern id="SVGID_7_" xlink:href="#Unnamed_Pattern_11" patternTransform="scale(.9123 -.9123) rotate(45 1382.833 561.975)"/><path class="st5" d="M75.2 66.6l-9.9 9.9c-1.3 1.3-3.5 1.3-4.8 0l-2.2-2.2c-1.3-1.3-1.3-3.5 0-4.8l9.9-9.9c1.3-1.3 3.5-1.3 4.8 0l2.2 2.2c1.3 1.3 1.3 3.5 0 4.8z"/><pattern id="SVGID_8_" xlink:href="#Unnamed_Pattern_11" patternTransform="matrix(.5561 -.5561 -.6451 -.6451 727.995 728.93)"/><path class="st6" d="M79.1 82.8l-7.9 7.9c-1.3 1.3-3.5 1.3-4.8 0l-2.2-2.2c-1.3-1.3-1.3-3.5 0-4.8l7.9-7.9c1.3-1.3 3.5-1.3 4.8 0l2.2 2.2c1.3 1.4 1.3 3.5 0 4.8z"/><pattern id="SVGID_9_" xlink:href="#Unnamed_Pattern_11" patternTransform="scale(.9123 -.9123) rotate(45 1367.958 556.695)"/><path class="st7" d="M49.2 39.8l-9.9 9.9c-1.3 1.3-3.5 1.3-4.8 0l-2.2-2.2c-1.3-1.3-1.3-3.5 0-4.8l9.9-9.9c1.3-1.3 3.5-1.3 4.8 0l2.2 2.2c1.4 1.4 1.4 3.5 0 4.8z"/><pattern id="SVGID_10_" xlink:href="#Unnamed_Pattern_11" patternTransform="matrix(.578 -.578 -.6451 -.6451 734.846 741.02)"/><path class="st8" d="M32.8 36.6L24.4 45c-1.3 1.3-3.5 1.3-4.8 0l-2.2-2.2c-1.3-1.3-1.3-3.5 0-4.8l8.4-8.4c1.3-1.3 3.5-1.3 4.8 0l2.2 2.2c1.4 1.3 1.4 3.4 0 4.8z"/><pattern id="SVGID_11_" xlink:href="#Unnamed_Pattern_11" patternTransform="matrix(.9123 0 0 -.9123 298.718 749.091)"/><path class="st9" d="M30.9 77.5l-9.7 9.7"/><path class="st10" d="M13.2 30.7c-1.2-.3-2.4 0-3.2.9l-3.3 3.3c-.8.8-1.1 1.8-1 2.9.2 1.1.8 2 1.7 2.5l34.3 18.5L58.5 42 13.2 30.7z"/><defs><path id="SVGID_12_" d="M5 3.5h105v100H5z"/></defs><clipPath id="SVGID_13_"><use xlink:href="#SVGID_12_" overflow="visible"/></clipPath><pattern id="SVGID_14_" xlink:href="#Unnamed_Pattern_11" patternTransform="matrix(.9123 0 0 -.9123 289.703 748.673)"/><path class="st11" d="M13.2 30.7c-1.2-.3-2.4 0-3.2.9l-3.3 3.3c-.8.8-1.1 1.8-1 2.9.2 1.1.8 2 1.7 2.5l34.3 18.5L58.5 42 13.2 30.7z"/><defs><path id="SVGID_15_" d="M5 3.5h105v100H5z"/></defs><clipPath id="SVGID_16_"><use xlink:href="#SVGID_15_" overflow="visible"/></clipPath><path class="st12" d="M77.8 95.4L66.5 50.1 49.8 66.9l18.4 34.2c1.3 2.3 3.7 2 5 1.1l4.1-4.1c.6-.7.8-1.8.5-2.7"/><defs><path id="SVGID_17_" d="M5 3.5h105v100H5z"/></defs><clipPath id="SVGID_18_"><use xlink:href="#SVGID_17_" overflow="visible"/></clipPath><pattern id="SVGID_19_" xlink:href="#Unnamed_Pattern_11" patternTransform="matrix(.9123 0 0 -.9123 289.703 748.673)"/><path class="st13" d="M77.8 95.4L66.5 50.1 49.8 66.9l18.4 34.2c1.3 2.3 3.7 2 5 1.1l4.1-4.1c.6-.7.8-1.8.5-2.7z"/><defs><path id="SVGID_20_" d="M5 3.5h105v100H5z"/></defs><clipPath id="SVGID_21_"><use xlink:href="#SVGID_20_" overflow="visible"/></clipPath><path class="st14" d="M56.1 15.2H31.8c-1.3 0-2.3-1-2.3-2.3s1-2.3 2.3-2.3h3.7c0-2.6 2.3-4.7 5.1-4.7 1.2 0 2.4.4 3.3 1.1 1.2-1.7 3.4-2.8 5.8-2.8 3.7 0 6.7 2.5 6.7 5.6 0 .3 0 .6-.1.9 1.2.1 2 1.1 2 2.3.2 1.2-.9 2.2-2.2 2.2"/><defs><path id="SVGID_22_" d="M5 3.5h105v100H5z"/></defs><clipPath id="SVGID_23_"><use xlink:href="#SVGID_22_" overflow="visible"/></clipPath><pattern id="SVGID_24_" xlink:href="#Unnamed_Pattern_11" patternTransform="matrix(.9123 0 0 -.9123 307.733 751.062)"/><path class="st15" d="M56.1 15.2H31.8c-1.3 0-2.3-1-2.3-2.3s1-2.3 2.3-2.3h3.7c0-2.6 2.3-4.7 5.1-4.7 1.2 0 2.4.4 3.3 1.1 1.2-1.7 3.4-2.8 5.8-2.8 3.7 0 6.7 2.5 6.7 5.6 0 .3 0 .6-.1.9 1.2.1 2 1.1 2 2.3.2 1.2-.9 2.2-2.2 2.2z"/><defs><path id="SVGID_25_" d="M5 3.5h105v100H5z"/></defs><clipPath id="SVGID_26_"><use xlink:href="#SVGID_25_" overflow="visible"/></clipPath><path class="st16" d="M107.7 54.8H104v-.4c0-2.1-1.9-3.8-4.1-3.8-1.2 0-2.3.5-3 1.2-.9-1.6-2.8-2.7-5.1-2.7-3.1 0-5.6 2-5.6 4.6 0 .4.1.8.2 1.1h-.2c-.9 0-1.7.8-1.7 1.7 0 .9.8 1.7 1.7 1.7h21.5c.9 0 1.7-.8 1.7-1.7 0-.9-.8-1.7-1.7-1.7"/><defs><path id="SVGID_27_" d="M5 3.5h105v100H5z"/></defs><clipPath id="SVGID_28_"><use xlink:href="#SVGID_27_" overflow="visible"/></clipPath><pattern id="SVGID_29_" xlink:href="#Unnamed_Pattern_11" patternTransform="matrix(.9123 0 0 -.9123 297.934 759.953)"/><path class="st17" d="M107.7 54.8H104v-.4c0-2.1-1.9-3.8-4.1-3.8-1.2 0-2.3.5-3 1.2-.9-1.6-2.8-2.7-5.1-2.7-3.1 0-5.6 2-5.6 4.6 0 .4.1.8.2 1.1h-.2c-.9 0-1.7.8-1.7 1.7 0 .9.8 1.7 1.7 1.7h21.5c.9 0 1.7-.8 1.7-1.7 0-.9-.8-1.7-1.7-1.7z"/></svg>