<svg xmlns="http://www.w3.org/2000/svg" viewBox="0 0 273.4 103.2"><path fill="#FFF" d="M39.3 74.3c12.8 0 23.2-10.4 23.2-23.2S52.2 27.9 39.3 27.9 16.1 38.3 16.1 51.1s10.4 23.2 23.2 23.2"/><circle fill="none" stroke="#553C8B" stroke-width="1.5" cx="39.3" cy="51.1" r="23.2"/><path fill="#6850A0" d="M48.3 49.9c1.5 1.4 1.4 2.3-.2 3.3 1 1.3 1.1 1.5-.1 2.9-.3.4 0 .5.1.7.5 1.3-.2 2.3-1.6 2.3H36.4c-1.1 0-1.6-.4-1.5-1.5v-7.3c0-1.6.4-3.1 1.3-4.4.9-1.3 1.7-2.8 3-3.9.7-.6.6-1.4.6-2.2 0-.9 0-1.8 1.2-2 1.2-.2 1.7.6 2 1.6.4 1.4.4 2.8-.1 4.2-.3.8-.7 1.6-1.1 2.6h5.3c1.1 0 1.9.3 2.2 1.4.3.9 0 1.7-1 2.3m-14.9 4.8v4.6c0 1-.4 1.5-1.4 1.4h-3.2c-.9 0-1.4-.3-1.4-1.3V50c0-1 .4-1.4 1.4-1.4h3.3c1 0 1.4.5 1.3 1.4-.1 1.6 0 3.1 0 4.7"/><path fill="#FFF" d="M182.3 62.4c12.8 0 23.2-10.4 23.2-23.2S195.1 16 182.3 16c-12.8 0-23.2 10.4-23.2 23.2s10.4 23.2 23.2 23.2"/><circle fill="none" stroke="#553C8B" stroke-width="1.5" cx="182.3" cy="39.2" r="23.2"/><path fill="#6850A0" d="M182.3 34.1c1.5-2.8 3.6-3.9 6.3-3.4 3 .5 4.9 3.1 4.7 6.4-.1 2.3-1.2 4.2-2.6 5.9-2.2 2.7-4.9 4.7-7.9 6.5-.3.2-.6.3-1 .1-3.4-2-6.5-4.4-8.8-7.7-1.5-2.2-2.3-4.5-1.5-7.1.7-2.5 2.4-3.9 4.9-4.1 2.5-.2 4.5.9 5.6 3.2.2 0 .2.1.3.2"/><path fill="#FFF" d="M153 87.3c12.8 0 23.2-10.4 23.2-23.2S165.8 40.8 153 40.8c-12.8 0-23.2 10.4-23.2 23.2s10.4 23.3 23.2 23.3"/><circle fill="none" stroke="#553C8B" stroke-width="1.5" cx="153" cy="64" r="23.2"/><path fill="#BAB6DB" d="M164.1 70.3c-1.8 3.6-4.9 5.7-8.7 6.4-5.1.9-9.4-.7-12.7-4.9-.4-.5-.7-.9-.9-1.5.2-.6.8-.7 1.3-.9 4.1-1.5 8.3-1.8 12.5-1.5 2.4.2 4.7.5 7 1.4.6.2 1.2.4 1.5 1"/><path fill="#6850A0" d="M164.1 70.3c-2.7-1.4-5.6-1.9-8.5-2.1-4.1-.3-8.2 0-12.1 1.4-.5.2-1 .5-1.6.7-.8-1.4-1.1-2.8-1.3-4.4-.1-.7.1-.9.8-.8h23.1c.8 0 1 .2.9 1-.2 1.4-.5 2.9-1.3 4.2m-2.8-12.2c1.2.6 2.3 1.1 3.3 1.6.5.3.9.6.6 1.3-.3.6-.8.5-1.4.3-1.6-.8-3.1-1.5-4.7-2.2-.4-.2-.7-.4-.7-.9s.3-.8.7-1c1.6-.8 3.2-1.5 4.8-2.3.5-.3 1-.2 1.3.3.3.6 0 1-.5 1.2-1.1.5-2.1 1.1-3.4 1.7m-16.7 0c-1.2-.6-2.2-1.1-3.2-1.5-.6-.3-1-.7-.7-1.3.3-.6.9-.5 1.4-.2 1.5.7 3.1 1.5 4.6 2.2.4.2.8.4.8.9s-.4.7-.8.9c-1.6.7-3.1 1.5-4.7 2.2-.6.3-1.1.3-1.4-.4-.3-.6.1-1 .6-1.2 1.2-.6 2.3-1.1 3.4-1.6"/><path fill="#FFF" d="M234.1 74.3c12.8 0 23.2-10.4 23.2-23.2s-10.4-23.2-23.2-23.2c-12.8 0-23.2 10.4-23.2 23.2s10.3 23.2 23.2 23.2"/><circle fill="none" stroke="#553C8B" stroke-width="1.5" cx="234.1" cy="51" r="23.2"/><path fill="#BAB6DB" d="M246 44.3c-.8.4-1.7.6-2.6.7.9-.6 1.7-1.4 2-2.5-.9.5-1.8.9-2.9 1.1-.8-.9-2-1.4-3.3-1.4-2.5 0-4.5 2-4.5 4.5 0 .4 0 .7.1 1-3.8-.2-7.1-2-9.3-4.7-.4.7-.6 1.4-.6 2.3 0 1.6.8 3 2 3.8-.7 0-1.4-.2-2.1-.6v.1c0 2.2 1.6 4 3.6 4.4-.4.1-.8.2-1.2.2-.3 0-.6 0-.9-.1.6 1.8 2.2 3.1 4.2 3.1-1.6 1.2-3.5 1.9-5.6 1.9-.4 0-.7 0-1.1-.1 2 1.3 4.4 2 6.9 2 8.3 0 12.9-6.9 12.9-12.9v-.6c1-.5 1.8-1.3 2.4-2.2"/><path fill="#FFF" d="M95.1 65.1c12.8 0 23.2-10.4 23.2-23.2 0-12.8-10.4-23.2-23.2-23.2S71.9 29.1 71.9 41.9c0 12.8 10.4 23.2 23.2 23.2"/><circle fill="none" stroke="#553C8B" stroke-width="1.5" cx="95.1" cy="41.9" r="23.2"/><path fill="#BAB6DB" d="M106.1 46.3v-7.9s0-3.8-3.8-3.8H87.9s-3.8 0-3.8 3.8v7.9s0 3.8 3.8 3.8h14.5c-.1 0 3.7 0 3.7-3.8m-6.7-3.9l-7.2 4.2v-8.5l7.2 4.3z"/><path fill="none" stroke="#553C8B" stroke-width="1.5" d="M72.6 70.4h41.9M104 74.9h19.2m6.1-38.1h19.2m36.9 36.6h20.9m-7-4.6h10.8"/></svg>