<svg id="Layer_1" data-name="Layer 1" xmlns="http://www.w3.org/2000/svg" viewBox="0 0 300 300"><defs><style>.cls-1,.cls-10,.cls-11,.cls-12,.cls-5,.cls-6,.cls-7,.cls-8,.cls-9{fill:none}.cls-2{fill:#f37021}.cls-3{fill:#feec95}.cls-10,.cls-11,.cls-12,.cls-3,.cls-4,.cls-5,.cls-6,.cls-7,.cls-8,.cls-9{stroke-linecap:round;stroke-linejoin:round;stroke-width:1.5px}.cls-3,.cls-4{stroke:url(#New_Pattern_Swatch_14)}.cls-4{fill:#fff}.cls-5{stroke:url(#New_Pattern_Swatch_14-7)}.cls-6{stroke:url(#New_Pattern_Swatch_14-9)}.cls-7{stroke:url(#New_Pattern_Swatch_14-11)}.cls-8{stroke:url(#New_Pattern_Swatch_14-13)}.cls-9{stroke:url(#New_Pattern_Swatch_14-15)}.cls-10{stroke:url(#New_Pattern_Swatch_14-17)}.cls-11{stroke:url(#New_Pattern_Swatch_14-19)}.cls-12{stroke:url(#New_Pattern_Swatch_14-21)}</style><pattern id="New_Pattern_Swatch_14" data-name="New Pattern Swatch 14" width="28.8" height="28.8" patternTransform="translate(-251.408 -274.581) scale(4.67177)" patternUnits="userSpaceOnUse" viewBox="0 0 28.8 28.8"><path class="cls-1" d="M0 0h28.8v28.8H0z"/><path class="cls-2" d="M0 0h28.8v28.8H0z"/></pattern><pattern id="New_Pattern_Swatch_14-7" data-name="New Pattern Swatch 14" width="28.8" height="28.8" patternTransform="translate(-251.408 -305.294) scale(4.67177)" patternUnits="userSpaceOnUse" viewBox="0 0 28.8 28.8"><path class="cls-1" d="M0 0h28.8v28.8H0z"/><path class="cls-2" d="M0 0h28.8v28.8H0z"/></pattern><pattern id="New_Pattern_Swatch_14-9" data-name="New Pattern Swatch 14" width="28.8" height="28.8" patternTransform="translate(-251.408 -339.42) scale(4.67177)" patternUnits="userSpaceOnUse" viewBox="0 0 28.8 28.8"><path class="cls-1" d="M0 0h28.8v28.8H0z"/><path class="cls-2" d="M0 0h28.8v28.8H0z"/></pattern><pattern id="New_Pattern_Swatch_14-11" data-name="New Pattern Swatch 14" width="28.8" height="28.8" patternTransform="translate(-251.408 -373.545) scale(4.67177)" patternUnits="userSpaceOnUse" viewBox="0 0 28.8 28.8"><path class="cls-1" d="M0 0h28.8v28.8H0z"/><path class="cls-2" d="M0 0h28.8v28.8H0z"/></pattern><pattern id="New_Pattern_Swatch_14-13" data-name="New Pattern Swatch 14" width="28.8" height="28.8" patternTransform="translate(-251.408 -407.67) scale(4.67177)" patternUnits="userSpaceOnUse" viewBox="0 0 28.8 28.8"><path class="cls-1" d="M0 0h28.8v28.8H0z"/><path class="cls-2" d="M0 0h28.8v28.8H0z"/></pattern><pattern id="New_Pattern_Swatch_14-15" data-name="New Pattern Swatch 14" width="28.8" height="28.8" patternTransform="matrix(-4.67177 0 0 4.67177 216.824 -305.294)" patternUnits="userSpaceOnUse" viewBox="0 0 28.8 28.8"><path class="cls-1" d="M0 0h28.8v28.8H0z"/><path class="cls-2" d="M0 0h28.8v28.8H0z"/></pattern><pattern id="New_Pattern_Swatch_14-17" data-name="New Pattern Swatch 14" width="28.8" height="28.8" patternTransform="matrix(-4.67177 0 0 4.67177 216.824 -339.42)" patternUnits="userSpaceOnUse" viewBox="0 0 28.8 28.8"><path class="cls-1" d="M0 0h28.8v28.8H0z"/><path class="cls-2" d="M0 0h28.8v28.8H0z"/></pattern><pattern id="New_Pattern_Swatch_14-19" data-name="New Pattern Swatch 14" width="28.8" height="28.8" patternTransform="matrix(-4.67177 0 0 4.67177 216.824 -373.545)" patternUnits="userSpaceOnUse" viewBox="0 0 28.8 28.8"><path class="cls-1" d="M0 0h28.8v28.8H0z"/><path class="cls-2" d="M0 0h28.8v28.8H0z"/></pattern><pattern id="New_Pattern_Swatch_14-21" data-name="New Pattern Swatch 14" width="28.8" height="28.8" patternTransform="matrix(-4.67177 0 0 4.67177 216.824 -407.67)" patternUnits="userSpaceOnUse" viewBox="0 0 28.8 28.8"><path class="cls-1" d="M0 0h28.8v28.8H0z"/><path class="cls-2" d="M0 0h28.8v28.8H0z"/></pattern></defs><title>icon-book</title><path class="cls-3" d="M119.066 273.067H0V67.756h300v205.311H177.034"/><path class="cls-4" d="M149.754 271.299s-38.746-45.302-115.536-34.125c-1.592-27.61.397-181.112 0-210.001 79.177-3.581 115.536 34.125 115.536 34.125z"/><path class="cls-4" d="M149.639 272.467s38.746-45.301 115.536-34.125c1.592-27.609-.397-181.112 0-210C185.998 24.76 149.64 62.465 149.64 62.465z"/><path class="cls-5" d="M171.883 192.495s29.149-15.866 69.084-13.643"/><path class="cls-6" d="M171.883 158.37s29.149-15.867 69.084-13.643"/><path class="cls-7" d="M171.883 124.244s29.149-15.866 69.084-13.643"/><path class="cls-8" d="M171.883 90.118s29.149-15.865 69.084-13.642"/><path class="cls-9" d="M126.269 192.495s-29.148-15.866-69.084-13.643"/><path class="cls-10" d="M126.269 158.37s-29.148-15.867-69.084-13.643"/><path class="cls-11" d="M126.269 124.244S97.12 108.378 57.185 110.6"/><path class="cls-12" d="M126.269 90.118S97.12 74.253 57.185 76.476"/></svg>