<svg id="Layer_1" data-name="Layer 1" xmlns="http://www.w3.org/2000/svg" viewBox="0 0 300 300"><defs><style>.cls-1,.cls-5,.cls-6,.cls-7,.cls-8,.cls-9{fill:none}.cls-2{fill:#1e8234}.cls-3{fill:#8dc63f}.cls-10,.cls-11,.cls-12,.cls-4,.cls-5,.cls-6,.cls-7,.cls-8,.cls-9{stroke-linecap:round;stroke-linejoin:round}.cls-10,.cls-11,.cls-12,.cls-4,.cls-5,.cls-7,.cls-9{stroke-width:1.5px}.cls-4{fill:url(#New_Pattern_Swatch_9);stroke:url(#New_Pattern_Swatch_7)}.cls-5{stroke:url(#New_Pattern_Swatch_7-3)}.cls-6{stroke-width:1.3927px;stroke:url(#New_Pattern_Swatch_7-5)}.cls-7{stroke:url(#New_Pattern_Swatch_7-7)}.cls-8{stroke-width:1.4199px;stroke:url(#New_Pattern_Swatch_7-9)}.cls-9{stroke:url(#New_Pattern_Swatch_7-11)}.cls-10,.cls-11,.cls-12{fill:#fff}.cls-10{stroke:url(#New_Pattern_Swatch_7-13)}.cls-11{stroke:url(#New_Pattern_Swatch_7-17)}.cls-12{stroke:url(#New_Pattern_Swatch_7-19)}</style><pattern id="New_Pattern_Swatch_9" data-name="New Pattern Swatch 9" width="28.8" height="28.8" patternTransform="translate(-54.57 32.375) scale(2.63673)" patternUnits="userSpaceOnUse" viewBox="0 0 28.8 28.8"><path class="cls-1" d="M0 0h28.8v28.8H0z"/><path class="cls-3" d="M0 0h28.8v28.8H0z"/></pattern><pattern id="New_Pattern_Swatch_7" data-name="New Pattern Swatch 7" width="28.8" height="28.8" patternTransform="translate(-54.57 32.379) scale(2.63673)" patternUnits="userSpaceOnUse" viewBox="0 0 28.8 28.8"><path class="cls-1" d="M0 0h28.8v28.8H0z"/><path class="cls-2" d="M0 0h28.8v28.8H0z"/></pattern><pattern id="New_Pattern_Swatch_7-3" data-name="New Pattern Swatch 7" width="28.8" height="28.8" patternTransform="rotate(-45 104.443 121.014) scale(2.63673)" patternUnits="userSpaceOnUse" viewBox="0 0 28.8 28.8"><path class="cls-1" d="M0 0h28.8v28.8H0z"/><path class="cls-2" d="M0 0h28.8v28.8H0z"/></pattern><pattern id="New_Pattern_Swatch_7-5" data-name="New Pattern Swatch 7" width="28.8" height="28.8" patternTransform="matrix(1.60725 -1.60725 1.86446 1.86446 -76.079 188.632)" patternUnits="userSpaceOnUse" viewBox="0 0 28.8 28.8"><path class="cls-1" d="M0 0h28.8v28.8H0z"/><path class="cls-2" d="M0 0h28.8v28.8H0z"/></pattern><pattern id="New_Pattern_Swatch_7-7" data-name="New Pattern Swatch 7" width="28.8" height="28.8" patternTransform="rotate(-45 65.205 134.95) scale(2.63673)" patternUnits="userSpaceOnUse" viewBox="0 0 28.8 28.8"><path class="cls-1" d="M0 0h28.8v28.8H0z"/><path class="cls-2" d="M0 0h28.8v28.8H0z"/></pattern><pattern id="New_Pattern_Swatch_7-9" data-name="New Pattern Swatch 7" width="28.8" height="28.8" patternTransform="rotate(-45 56.773 251.692) scale(2.36264 2.63673)" patternUnits="userSpaceOnUse" viewBox="0 0 28.8 28.8"><path class="cls-1" d="M0 0h28.8v28.8H0z"/><path class="cls-2" d="M0 0h28.8v28.8H0z"/></pattern><pattern id="New_Pattern_Swatch_7-11" data-name="New Pattern Swatch 7" width="28.8" height="28.8" patternTransform="translate(-19.02 24.094) scale(2.63673)" patternUnits="userSpaceOnUse" viewBox="0 0 28.8 28.8"><path class="cls-1" d="M0 0h28.8v28.8H0z"/><path class="cls-2" d="M0 0h28.8v28.8H0z"/></pattern><pattern id="New_Pattern_Swatch_7-13" data-name="New Pattern Swatch 7" width="28.8" height="28.8" patternTransform="translate(-45.079 22.886) scale(2.63673)" patternUnits="userSpaceOnUse" viewBox="0 0 28.8 28.8"><path class="cls-1" d="M0 0h28.8v28.8H0z"/><path class="cls-2" d="M0 0h28.8v28.8H0z"/></pattern><pattern id="New_Pattern_Swatch_7-17" data-name="New Pattern Swatch 7" width="28.8" height="28.8" patternTransform="translate(-68.904 29.79) scale(2.63673)" patternUnits="userSpaceOnUse" viewBox="0 0 28.8 28.8"><path class="cls-1" d="M0 0h28.8v28.8H0z"/><path class="cls-2" d="M0 0h28.8v28.8H0z"/></pattern><pattern id="New_Pattern_Swatch_7-19" data-name="New Pattern Swatch 7" width="28.8" height="28.8" patternTransform="translate(-21.289 55.49) scale(2.63673)" patternUnits="userSpaceOnUse" viewBox="0 0 28.8 28.8"><path class="cls-1" d="M0 0h28.8v28.8H0z"/><path class="cls-2" d="M0 0h28.8v28.8H0z"/></pattern></defs><title>icon-airplane</title><path class="cls-4" d="M237.33 55.42a2.926 2.926 0 0 0-2.973-.703l-22.454 7.489a29.657 29.657 0 0 0-11.562 7.142L152.888 116.8 21.894 84.052a9.547 9.547 0 0 0-9.372 2.547l-9.667 9.662a9.778 9.778 0 0 0 2.287 15.51l99.286 53.489-40.927 40.927H26.8a2.903 2.903 0 0 0-2.053.85l-9.48 9.48a2.907 2.907 0 0 0 .755 4.652l33.959 16.974c.112.056.21.134.32.195l4.108 4.107c.06.11.139.209.195.321l16.974 33.959a2.899 2.899 0 0 0 2.133 1.566 2.568 2.568 0 0 0 .465.04 2.899 2.899 0 0 0 2.054-.852l9.48-9.48a2.903 2.903 0 0 0 .85-2.053v-36.699l40.928-40.926 53.49 99.273a9.745 9.745 0 0 0 15.51 2.298l9.656-9.661a9.584 9.584 0 0 0 2.575-9.298L175.95 139.86l47.452-47.452a29.701 29.701 0 0 0 7.148-11.562l7.483-22.454a2.91 2.91 0 0 0-.703-2.972z"/><path class="cls-5" d="M205.085 183.905l-36.59 36.59a4.26 4.26 0 0 1-6.024 0l-14.258-14.258a4.26 4.26 0 0 1 0-6.025l36.59-36.59a4.26 4.26 0 0 1 6.024 0l14.258 14.259a4.26 4.26 0 0 1 0 6.024z"/><path class="cls-6" d="M216.385 230.843l-30.712 30.711a4.26 4.26 0 0 1-6.024 0l-14.258-14.258a4.26 4.26 0 0 1 0-6.025l30.711-30.711a4.26 4.26 0 0 1 6.024 0l14.259 14.258a4.26 4.26 0 0 1 0 6.025z"/><path class="cls-7" d="M130.043 106.545l-36.59 36.59a4.26 4.26 0 0 1-6.024 0L73.17 128.877a4.26 4.26 0 0 1 0-6.025l36.59-36.59a4.26 4.26 0 0 1 6.025 0l14.258 14.259a4.26 4.26 0 0 1 0 6.024z"/><path class="cls-8" d="M82.67 97.129l-32.16 32.16a4.26 4.26 0 0 1-6.023 0L30.228 115.03a4.26 4.26 0 0 1 0-6.024l32.16-32.16a4.26 4.26 0 0 1 6.024 0l14.259 14.258a4.26 4.26 0 0 1 0 6.025z"/><path class="cls-9" d="M73.013 219.457l-28.032 28.032"/><path class="cls-10" d="M21.894 84.052a9.547 9.547 0 0 0-9.372 2.547l-9.667 9.662a9.778 9.778 0 0 0 2.287 15.51l99.234 53.46 48.448-48.447zM208.72 270.933l-32.664-130.646-48.38 48.38 53.303 98.927a9.713 9.713 0 0 0 14.386 3.258l11.73-11.73a9.487 9.487 0 0 0 1.625-8.19z"/><path class="cls-11" d="M146.063 39.357H75.866a6.76 6.76 0 1 1 0-13.52h10.75v-.132c0-7.529 6.583-13.653 14.676-13.653a15.166 15.166 0 0 1 9.57 3.305c3.427-4.97 9.886-8.114 16.882-8.114 10.71 0 19.423 7.203 19.423 16.057a13.56 13.56 0 0 1-.252 2.59 6.76 6.76 0 0 1-.852 13.467z"/><path class="cls-12" d="M295.033 153.687h-10.598a10.36 10.36 0 0 0 .062-1.135c0-6.113-5.36-11.069-11.974-11.069a12.415 12.415 0 0 0-8.7 3.468c-2.55-4.556-8.18-7.725-14.72-7.725-8.935 0-16.178 5.909-16.178 13.198a10.932 10.932 0 0 0 .5 3.263h-.542a4.967 4.967 0 0 0 0 9.934h62.15a4.967 4.967 0 1 0 0-9.934z"/></svg>