<svg id="Layer_1" xmlns="http://www.w3.org/2000/svg" xmlns:xlink="http://www.w3.org/1999/xlink" viewBox="0 0 206 131.3"><style>.st0{fill:none}.st1{fill:#005089}.st2{fill:#007bb4}.st3{fill:#53b7e8}.st4{fill:#fff}.st5{fill:url(#SVGID_1_)}.st6{fill:url(#SVGID_2_)}.st7{fill:url(#SVGID_3_)}.st8{stroke:url(#SVGID_4_);stroke-miterlimit:10}.st10,.st8,.st9{fill:none;stroke-width:1.5;stroke-linecap:round;stroke-linejoin:round}.st9{stroke-miterlimit:10;stroke:url(#SVGID_5_)}.st10{stroke:url(#SVGID_6_)}.st10,.st11,.st12{stroke-miterlimit:10}.st11{stroke-width:1.5;stroke-linecap:round;stroke-linejoin:round;fill:none;stroke:url(#SVGID_7_)}.st12{fill:#fff;stroke:url(#SVGID_8_)}.st13{font-family:&amp;apos;GothamRounded-Medium&amp;apos;}.st14{font-size:27.2139px}.st15{fill:none;stroke:url(#SVGID_10_);stroke-linecap:round;stroke-linejoin:round}.st15,.st16,.st17{stroke-width:1.5;stroke-miterlimit:10}.st16{fill:none;stroke-linecap:round;stroke-linejoin:round;stroke:url(#SVGID_11_)}.st17{stroke:url(#SVGID_12_)}.st17,.st18,.st19{fill:none;stroke-linecap:round;stroke-linejoin:round}.st18{stroke-width:1.5;stroke-miterlimit:10;stroke:url(#SVGID_13_)}.st19{stroke:url(#SVGID_14_)}.st19,.st20,.st21{stroke-width:1.5;stroke-miterlimit:10}.st20{stroke-linecap:round;stroke-linejoin:round;fill:none;stroke:url(#SVGID_15_)}.st21{fill:url(#SVGID_16_);stroke:url(#SVGID_17_)}</style><pattern x="31" y=".3" width="28.8" height="28.8" patternUnits="userSpaceOnUse" id="New_Pattern_Swatch_4" viewBox="0 -28.8 28.8 28.8" overflow="visible"><path class="st0" d="M0-28.8h28.8V0H0z"/><path class="st1" d="M0-28.8h28.8V0H0z"/></pattern><pattern x="31" y=".3" width="28.8" height="28.8" patternUnits="userSpaceOnUse" id="New_Pattern_Swatch_5" viewBox="0 -28.8 28.8 28.8" overflow="visible"><path class="st0" d="M0-28.8h28.8V0H0z"/><path class="st2" d="M0-28.8h28.8V0H0z"/></pattern><pattern x="31" y=".3" width="28.8" height="28.8" patternUnits="userSpaceOnUse" id="New_Pattern_Swatch_6" viewBox="0 -28.8 28.8 28.8" overflow="visible"><path class="st0" d="M0-28.8h28.8V0H0z"/><path class="st3" d="M0-28.8h28.8V0H0z"/></pattern><path class="st4" d="M198.8 68.3l-6.5-8-8.9-3.3s-7.9.6-8.5.8c-.6.2-8.3 4.1-8.3 4.1l-3.6 5.5-8.3-2.2-11.7-3.3-9-16.2-12.9-21.9-2.2.3-1.2 2.4L121 33l10 24.7-33-8.5-2.4 1.4.9 2.4 39.6 15.6 9 20-1.4.8-3.6 3.3-1.5 3.1-1.8 4.3-.7 5.3 1.7 6.9 4.4 6.7 6.2 3.9 7.7 1 7.9-3.9 4-5.7 1.7-8.1-1.8-7.3-4.1-6.8-6.9-4.7-7-.9-.4-4.4-1.2-9.4s8.5.1 8.7.1c.2.1 4.9.1 4.9.1l1.8 3.7 1 4.5 6.1 5.6s10.9 2.6 11 2.6c.2 0 7.9-1.5 7.9-1.5l7.9-6 1.8-7.7-.6-5.8zM150 91.9l6.6.8 3.8 2 4.7 9-.3 6.5-2.7 6-5.4 3.1s-6 .2-7.2-.3-7.6-6.9-7.6-6.9l-1.7-7.4s1.3-5.3 1.7-5.8c.3-.5 2.3-4 2.3-4l5.8-3zm44.6-13.4l-6.1 5.7s-7.6 1.3-7.9 1.3-8.3-2.7-8.5-2.8c-.2-.2-3.7-4.8-3.7-4.8l-1.3-8.2 4.6-6.1 8-2.8 5.8 1.2 6.5 3.9 3.4 5.6-.8 7z"/><pattern id="SVGID_1_" xlink:href="#New_Pattern_Swatch_5" patternTransform="translate(2004.046 1955.189) scale(1.2587)"/><path class="st5" d="M129.1 37.4l8-.5 16.2-2.2 9-3 4.5-3.7 1.5-6.7.1-4-2.8-6.9 3.3.1 4.9 1.9 3.8 2 3.6-3.4 4-4 1.6-.3 1.1 7.9s.3 13.1.3 13.3c0 .2-2.3 7.4-2.3 7.4l-4.2 5.1-6.9 3.6-10 1.8-10.9.8-11.3.4-6.7 1.6-6.8-11.2z"/><pattern id="SVGID_2_" xlink:href="#New_Pattern_Swatch_5" patternTransform="translate(2004.046 1955.189) scale(1.2587)"/><path class="st6" d="M123.7 39l5.4 13-3.2 2-10.8-10.7z"/><pattern id="SVGID_3_" xlink:href="#New_Pattern_Swatch_5" patternTransform="translate(2004.046 1955.189) scale(1.2587)"/><path class="st7" d="M74.3 93.4s10.9-3.5 16.4-11.2 8.8-15.7 8.8-15.7l5-11.2 4.1-6.8 5.3 1.2 7.2 3 3.2 2-4.5 7.5-4.1 8.9-4.4 15.5-6.7 11.3-5.3 7.9s-10 3.6-11 3.5c-1-.1-14.3-9.8-14.3-9.8l.3-6.1z"/><pattern id="SVGID_4_" xlink:href="#New_Pattern_Swatch_4" patternTransform="translate(2013.109 1959.72) scale(1.2587)"/><path class="st8" d="M149.1 91.7c3.1-.9 6.5-.3 9.5 1.6 3 1.9 5.2 5 6.3 8.7 1.4 5 .4 10.2-2.6 13.7-1.4 1.6-3.3 2.8-5.3 3.4-6.5 1.9-13.6-2.8-15.7-10.3-1.4-5-.4-10.2 2.6-13.7 1.3-1.6 3.2-2.8 5.2-3.4z"/><pattern id="SVGID_5_" xlink:href="#New_Pattern_Swatch_4" patternTransform="translate(2013.109 1959.72) scale(1.2587)"/><path class="st9" d="M98.9 106c5.6-6.1 10.5-15 12.2-19.8 1.1-3 1.9-6 2.7-9 1.4-5 2.8-10.2 5.4-14.8 1.5.6 13.7 5.5 17.1 6.9l8.4 19.5c-1.5.8-2.9 1.9-4 3.3-4 4.6-5.4 11.5-3.5 18 1.4 4.8 4.3 8.8 8.2 11.4 3.9 2.6 8.4 3.3 12.7 2.1 2.7-.8 5.2-2.3 7.1-4.5 4-4.6 5.4-11.5 3.5-18-1.4-4.8-4.3-8.8-8.2-11.4-3.3-2.1-6.9-3-10.4-2.6-.2-3.1-.7-9.2-1.9-14.2 5.1.5 11.2.2 14.3 0 0 3.6 1.4 7 4 10 3.1 3.5 7.5 5.9 12.4 6.6 6.7.9 13.3-1.3 17.3-5.9 1.9-2.2 3.1-4.8 3.5-7.6.6-4.4-.7-8.7-3.8-12.3-3.1-3.5-7.5-5.9-12.4-6.6-6.7-.9-13.3 1.3-17.3 5.9-1.2 1.3-2.1 2.8-2.7 4.4L143 61.6c-1.8-3.2-7.1-12.5-7.4-12.9 6.1-1.9 12.9-2.1 19.8-2.3 2.7-.1 5.6-.1 8.4-.3 6.3-.4 17.7-2.4 22.8-11.5 3.9-7 .4-27.6.3-27.7l-.2-.4-.4.1c-3.2.7-8.5 7.6-8.5 7.6s-8.2-4.4-11.5-3.9l-.9.1.4.8c3.8 6.8 3.2 15.6-1.4 19.2-5.6 4.4-16.7 5.2-24.8 5.8-1.9.1-3.8.3-5.4.4-1.7.2-3.4.5-5.1.9-3-5.3-5.6-9.8-6.9-12l-.5-.9c-.3-.5-.8-.9-1.4-.9-.7-.1-1.3.2-1.7.8-.6.9-.8 2.1-.3 3.1l5.1 11.8c-2.4.9-4.9 2.1-7.3 3.4l-1.1.7 11.2 10.2.5-.4c.7-.6 1.4-1 2.2-1.5l2.9 6.7-8.2-2.3c.8-.9.5-2.2-.6-2.7l-11.9-4.9c-1.1-.5-2.4-.2-3.2.7-.5.6-1 1.2-1.5 1.9 0 .1-.1.1-.1.2l-7.1-2c-1.1-.3-2.2 0-3 .7-.5.4-.7 1.1-.5 1.7.1.6.5 1.1 1.1 1.3l1 .4c1.3.5 3.4 1.4 6 2.4-.7 1.6-1.3 3.1-1.9 4.7l-.5 1.2c-2.6 6.9-6.4 15.7-12.8 22.6-3.3 3.6-7.7 6.4-11.7 8.3"/><pattern id="SVGID_6_" xlink:href="#New_Pattern_Swatch_4" patternTransform="translate(2013.109 1959.72) scale(1.2587)"/><path class="st10" d="M195.2 75.1c-.3 2.1-1.2 4.1-2.6 5.7-3 3.5-8.1 5.2-13.2 4.5-3.8-.5-7.2-2.3-9.5-5s-3.3-5.9-2.9-9.2c.3-2.1 1.2-4.1 2.6-5.7 3-3.5 8.1-5.2 13.2-4.5 7.8 1.2 13.4 7.5 12.4 14.2z"/><pattern id="SVGID_7_" xlink:href="#New_Pattern_Swatch_4" patternTransform="translate(2013.109 1959.72) scale(1.2587)"/><path class="st11" d="M141.1 66.6c-.5.5-1.3.6-1.8.1s-.6-1.3-.1-1.8 1.3-.6 1.8-.1.5 1.3.1 1.8z"/><pattern id="SVGID_8_" xlink:href="#New_Pattern_Swatch_4" patternTransform="translate(2013.109 1959.72) scale(1.2587)"/><pattern id="SVGID_10_" xlink:href="#New_Pattern_Swatch_4" patternTransform="translate(2013.109 1959.72) scale(1.2587)"/><path class="st15" d="M103.8 56.1l2.5-4.6"/><pattern id="SVGID_11_" xlink:href="#New_Pattern_Swatch_4" patternTransform="translate(2013.109 1959.72) scale(1.2587)"/><path class="st16" d="M119.3 62.3l4.3-6.1"/><pattern id="SVGID_12_" xlink:href="#New_Pattern_Swatch_4" patternTransform="translate(2013.109 1959.72) scale(1.2587)"/><path class="st17" d="M123.5 39.4l5.4 12.4"/><pattern id="SVGID_13_" xlink:href="#New_Pattern_Swatch_4" patternTransform="translate(2013.109 1959.72) scale(1.2587)"/><path class="st18" d="M129.3 37.6l6.3 11.1"/><pattern id="SVGID_14_" xlink:href="#New_Pattern_Swatch_4" patternTransform="translate(2013.109 1959.72) scale(1.2587)"/><path class="st19" d="M131.8 58.5l11.2 3.1"/><pattern id="SVGID_15_" xlink:href="#New_Pattern_Swatch_4" patternTransform="translate(2013.109 1959.72) scale(1.2587)"/><path class="st20" d="M136.4 69.2l11.8 3.6"/><pattern id="SVGID_16_" xlink:href="#New_Pattern_Swatch_6" patternTransform="translate(2004.046 1955.189) scale(1.2587)"/><pattern id="SVGID_17_" xlink:href="#New_Pattern_Swatch_4" patternTransform="translate(1168.389 1106.47) scale(1.1488)"/><path class="st21" d="M98.9 106S83.2 111.5 71 81.5 29.5 41.6 6.8 43.7c-.2 5 8.6 13 8.6 13-2.5 6.1-7.3 13.8-6.1 16.8 0 0 20.8-10.3 34 5.9s22.1 61.2 55.6 26.6z"/></svg>