<svg id="Layer_1" xmlns="http://www.w3.org/2000/svg" xmlns:xlink="http://www.w3.org/1999/xlink" viewBox="0 0 136 112"><style>.st0,.st1{clip-path:url(#SVGID_2_);fill:#fff}.st1{fill:none;stroke:#005089;stroke-width:1.5;stroke-linecap:round;stroke-linejoin:round;stroke-miterlimit:10}</style><defs><path id="SVGID_1_" d="M5 6.8h125V106H5z"/></defs><clipPath id="SVGID_2_"><use xlink:href="#SVGID_1_" overflow="visible"/></clipPath><path class="st0" d="M93.7 104.8c.2-1.9.5-5 .6-6.7.5-4.3.5-7.3.3-9.2-.4-4.6-2.8-8.1-4.5-10-1-1.2-5.2-5.5-6.9-8.6-.9-1.7-2.3-5.3-3.4-7.2-1.5-2.5-1-3.5.2-4.1 1-.5 4.4-.1 6.2 3.4 1.3 2.5 2.4 3.7 3.6 5.1.3.4 2 1.6 2.9-.5.7-1.7 1.4-3.5 2.1-5.3.9-2.1.6-4.5.6-4.5l-1.3-17.1c-.1-1.4.9-2.6 2.3-2.7 1.4-.1 2.6.9 2.7 2.3l1.4 19.4c.7-.1 1.4-.1 2-.1.1-2.4.4-6.4.6-10.4.3-4.9.6-9.8.7-11.5.1-1.4 1.3-2.5 2.7-2.4 1.4.1 2.5 1.3 2.4 2.6-.1 1-.2 3.1-.3 5.5-.3 5.5-.8 13.3-1 16.8.5.1 1 .3 1.5.5l7.3-19.8c.5-1.3 1.9-2 3.2-1.5 1.3.5 2 1.9 1.5 3.2l-7.5 20.4c.5.3.9.7 1.3 1l10.6-12.3c.9-1.1 2.5-1.2 3.6-.3 1.1.9 1.2 2.5.3 3.6l-11.1 12.9c-.1 5.8-3.5 12.9-5.7 17-2.2 3.4-1.1 12.9-1.1 12.9l.8 7.6m8.8-66.7zm-66.6 66.3c.5-6.1 2.4-29.8 2.6-33.5.5-4.3.5-7.3.3-9.2-.4-4.6-2.8-8-4.5-10-1-1.2-5.2-5.5-6.9-8.6-.9-1.7-2.3-5.3-3.4-7.2-1.5-2.5-1-3.5.2-4.1 1-.5 4.4-.1 6.2 3.4 1.3 2.5 2.4 3.7 3.6 5.1.3.4 2 1.6 2.9-.5.7-1.7 1.4-3.5 2.1-5.3.9-2.1.6-4.5.6-4.5L57 12.9c-.1-1.4.9-2.6 2.3-2.7 1.4-.1 2.6.9 2.7 2.3l1.4 19.4c.7-.1 1.4-.1 2-.1.1-2.4.4-6.4.6-10.4.3-4.9.6-9.8.7-11.5.1-1.4 1.3-2.5 2.7-2.4 1.4.1 2.5 1.3 2.4 2.6-.1 1-.2 3.1-.3 5.5-.3 5.5-.8 13.3-1 16.8.5.1 1 .3 1.5.5l7.3-19.8c.5-1.3 1.9-2 3.2-1.5 1.3.5 2 1.9 1.5 3.2l-7.5 20.4c.5.3.9.7 1.3 1l10.6-12.3c.9-1.1 2.5-1.2 3.6-.3 1.1.9 1.2 2.5.3 3.6L81.1 40.3c-.1 5.8-3.5 12.9-5.7 17-2.2 3.4-1.1 12.9-1.1 12.9l.9 34.1m-3.9-19.2zM19 105.3c.2-1.4.4-3.8.6-6.2.4-3.9.4-6.5.3-8.3-.3-4.1-2.5-7.2-4-9-.9-1.1-4.7-4.9-6.2-7.8-.8-1.5-2-4.8-3.1-6.5-1.4-2.3-.9-3.1.2-3.7.9-.5 3.9-.1 5.6 3.1 1.2 2.3 2.2 3.3 3.2 4.6.3.3 1.8 1.5 2.6-.5.6-1.5 1.3-3.2 1.9-4.8.8-1.9.5-4 .5-4l-1.1-15.4c-.1-1.2.8-2.3 2.1-2.4 1.3-.1 2.3.8 2.4 2.1l1.3 17.4c.6-.1 1.2-.1 1.8-.1.1-2.2.4-5.8.6-9.3.3-4.4.5-8.8.6-10.4.1-1.2 1.1-2.2 2.4-2.1 1.2.1 2.2 1.1 2.1 2.4 0 .9-.2 2.8-.3 5-.3 5-.7 12-.9 15.1.5.1.9.3 1.3.4l6.6-17.8c.4-1.2 1.7-1.8 2.9-1.3 1.2.4 1.8 1.7 1.3 2.9L37 67.1l1.2.9 9.5-11.1c.8-1 2.2-1.1 3.2-.2 1 .8 1.1 2.2.2 3.2l-10 11.6C41 76.7 38 83.1 36 86.7c-1.9 3-.9 11.6-.9 11.6l.7 6.7"/><path class="st1" d="M93.7 104.8c.2-1.9.5-5 .6-6.7.5-4.3.5-7.3.3-9.2-.4-4.6-2.8-8.1-4.5-10-1-1.2-5.2-5.5-6.9-8.6-.9-1.7-2.3-5.3-3.4-7.2-1.5-2.5-1-3.5.2-4.1 1-.5 4.4-.1 6.2 3.4 1.3 2.5 2.4 3.7 3.6 5.1.3.4 2 1.6 2.9-.5.7-1.7 1.4-3.5 2.1-5.3.9-2.1.6-4.5.6-4.5l-1.3-17.1c-.1-1.4.9-2.6 2.3-2.7 1.4-.1 2.6.9 2.7 2.3l1.4 19.4c.7-.1 1.4-.1 2-.1.1-2.4.4-6.4.6-10.4.3-4.9.6-9.8.7-11.5.1-1.4 1.3-2.5 2.7-2.4 1.4.1 2.5 1.3 2.4 2.6-.1 1-.2 3.1-.3 5.5-.3 5.5-.8 13.3-1 16.8.5.1 1 .3 1.5.5l7.3-19.8c.5-1.3 1.9-2 3.2-1.5 1.3.5 2 1.9 1.5 3.2l-7.5 20.4c.5.3.9.7 1.3 1l10.6-12.3c.9-1.1 2.5-1.2 3.6-.3 1.1.9 1.2 2.5.3 3.6l-11.1 12.9c-.1 5.8-3.5 12.9-5.7 17-2.2 3.4-1.1 12.9-1.1 12.9l.8 7.6m-57.8-.4c.5-6.1 2.4-29.8 2.6-33.5.5-4.3.5-7.3.3-9.2-.4-4.6-2.8-8-4.5-10-1-1.2-5.2-5.5-6.9-8.6-.9-1.7-2.3-5.3-3.4-7.2-1.5-2.5-1-3.5.2-4.1 1-.5 4.4-.1 6.2 3.4 1.3 2.5 2.4 3.7 3.6 5.1.3.4 2 1.6 2.9-.5.7-1.7 1.4-3.5 2.1-5.3.9-2.1.6-4.5.6-4.5L57 12.9c-.1-1.4.9-2.6 2.3-2.7 1.4-.1 2.6.9 2.7 2.3l1.4 19.4c.7-.1 1.4-.1 2-.1.1-2.4.4-6.4.6-10.4.3-4.9.6-9.8.7-11.5.1-1.4 1.3-2.5 2.7-2.4 1.4.1 2.5 1.3 2.4 2.6-.1 1-.2 3.1-.3 5.5-.3 5.5-.8 13.3-1 16.8.5.1 1 .3 1.5.5l7.3-19.8c.5-1.3 1.9-2 3.2-1.5 1.3.5 2 1.9 1.5 3.2l-7.5 20.4c.5.3.9.7 1.3 1l10.6-12.3c.9-1.1 2.5-1.2 3.6-.3 1.1.9 1.2 2.5.3 3.6L81.1 40.3c-.1 5.8-3.5 12.9-5.7 17-2.2 3.4-1.1 12.9-1.1 12.9l.9 34.1m-56.2 1c.2-1.4.4-3.8.6-6.2.4-3.9.4-6.5.3-8.3-.3-4.1-2.5-7.2-4-9-.9-1.1-4.7-4.9-6.2-7.8-.8-1.5-2-4.8-3.1-6.5-1.4-2.3-.9-3.1.2-3.7.9-.5 3.9-.1 5.6 3.1 1.2 2.3 2.2 3.3 3.2 4.6.3.3 1.8 1.5 2.6-.5.6-1.5 1.3-3.2 1.9-4.8.8-1.9.5-4 .5-4l-1.1-15.4c-.1-1.2.8-2.3 2.1-2.4 1.3-.1 2.3.8 2.4 2.1l1.3 17.4c.6-.1 1.2-.1 1.8-.1.1-2.2.4-5.8.6-9.3.3-4.4.5-8.8.6-10.4.1-1.2 1.1-2.2 2.4-2.1 1.2.1 2.2 1.1 2.1 2.4 0 .9-.2 2.8-.3 5-.3 5-.7 12-.9 15.1.5.1.9.3 1.3.4l6.6-17.8c.4-1.2 1.7-1.8 2.9-1.3 1.2.4 1.8 1.7 1.3 2.9L37 67.1l1.2.9 9.5-11.1c.8-1 2.2-1.1 3.2-.2 1 .8 1.1 2.2.2 3.2l-10 11.6C41 76.7 38 83.1 36 86.7c-1.9 3-.9 11.6-.9 11.6l.7 6.7"/></svg>