<svg id="Layer_1" data-name="Layer 1" xmlns="http://www.w3.org/2000/svg" viewBox="0 0 300 300"><defs><style>.cls-1{fill:none}.cls-2{fill:#005089}.cls-3{fill:#007bb4}.cls-4{fill:#53b7e8}.cls-5{fill:#005597}.cls-10,.cls-11,.cls-6,.cls-8,.cls-9{stroke-linecap:round;stroke-linejoin:round;stroke-width:1.5px}.cls-6{fill:url(#New_Pattern_Swatch_5)}.cls-11,.cls-6{stroke:url(#New_Pattern_Swatch_4)}.cls-7{fill:url(#New_Pattern_Swatch_4)}.cls-8{fill:url(#New_Pattern_Swatch_5-3);stroke:url(#New_Pattern_Swatch_4-5)}.cls-9{fill:#fff;stroke:url(#New_Pattern_Swatch_4-7)}.cls-10{fill:url(#New_Pattern_Swatch_5-5);stroke:url(#New_Pattern_Swatch_4-9)}.cls-11{fill:url(#New_Pattern_Swatch_6)}</style><pattern id="New_Pattern_Swatch_5" data-name="New Pattern Swatch 5" width="28.8" height="28.8" patternTransform="translate(-61.044 6.01) scale(1.91822)" patternUnits="userSpaceOnUse" viewBox="0 0 28.8 28.8"><path class="cls-1" d="M0 0h28.8v28.8H0z"/><path class="cls-3" d="M0 0h28.8v28.8H0z"/></pattern><pattern id="New_Pattern_Swatch_4" data-name="New Pattern Swatch 4" width="28.8" height="28.8" patternTransform="translate(-61.044 6.013) scale(1.91822)" patternUnits="userSpaceOnUse" viewBox="0 0 28.8 28.8"><path class="cls-1" d="M0 0h28.8v28.8H0z"/><path class="cls-2" d="M0 0h28.8v28.8H0z"/></pattern><pattern id="New_Pattern_Swatch_5-3" data-name="New Pattern Swatch 5" width="28.8" height="28.8" patternTransform="translate(-47.233 12.916) scale(1.91822)" patternUnits="userSpaceOnUse" viewBox="0 0 28.8 28.8"><path class="cls-1" d="M0 0h28.8v28.8H0z"/><path class="cls-3" d="M0 0h28.8v28.8H0z"/></pattern><pattern id="New_Pattern_Swatch_4-5" data-name="New Pattern Swatch 4" width="28.8" height="28.8" patternTransform="translate(-47.233 12.918) scale(1.91822)" patternUnits="userSpaceOnUse" viewBox="0 0 28.8 28.8"><path class="cls-1" d="M0 0h28.8v28.8H0z"/><path class="cls-2" d="M0 0h28.8v28.8H0z"/></pattern><pattern id="New_Pattern_Swatch_4-7" data-name="New Pattern Swatch 4" width="28.8" height="28.8" patternTransform="translate(37.693 80.424) scale(1.58078)" patternUnits="userSpaceOnUse" viewBox="0 0 28.8 28.8"><path class="cls-1" d="M0 0h28.8v28.8H0z"/><path class="cls-2" d="M0 0h28.8v28.8H0z"/></pattern><pattern id="New_Pattern_Swatch_5-5" data-name="New Pattern Swatch 5" width="28.8" height="28.8" patternTransform="translate(-30.754 24.955) scale(1.33612)" patternUnits="userSpaceOnUse" viewBox="0 0 28.8 28.8"><path class="cls-1" d="M0 0h28.8v28.8H0z"/><path class="cls-3" d="M0 0h28.8v28.8H0z"/></pattern><pattern id="New_Pattern_Swatch_4-9" data-name="New Pattern Swatch 4" width="28.8" height="28.8" patternTransform="translate(-30.754 24.956) scale(1.33612)" patternUnits="userSpaceOnUse" viewBox="0 0 28.8 28.8"><path class="cls-1" d="M0 0h28.8v28.8H0z"/><path class="cls-2" d="M0 0h28.8v28.8H0z"/></pattern><pattern id="New_Pattern_Swatch_6" data-name="New Pattern Swatch 6" width="28.8" height="28.8" patternTransform="translate(-61.044 6.01) scale(1.91822)" patternUnits="userSpaceOnUse" viewBox="0 0 28.8 28.8"><path class="cls-1" d="M0 0h28.8v28.8H0z"/><path class="cls-4" d="M0 0h28.8v28.8H0z"/></pattern></defs><title>icon-search</title><path class="cls-5" d="M101.207 6.172A101.207 101.207 0 1 0 202.413 107.38 101.318 101.318 0 0 0 101.207 6.172zm-5.684 5.119A128.175 128.175 0 0 0 62.42 57.276a123.041 123.041 0 0 1-31.4-15.686 96.022 96.022 0 0 1 64.504-30.3zM27.708 45.3a127.978 127.978 0 0 0 32.878 16.562 128.36 128.36 0 0 0-8.28 43.047H4.999a95.809 95.809 0 0 1 22.709-59.608zm0 124.155a95.809 95.809 0 0 1-22.709-59.609h47.307a128.356 128.356 0 0 0 8.28 43.046 128.024 128.024 0 0 0-32.878 16.563zm3.31 3.711a123.046 123.046 0 0 1 31.402-15.685 128.126 128.126 0 0 0 33.109 45.985 96.021 96.021 0 0 1-64.51-30.3zm67.72 26.548a123.174 123.174 0 0 1-31.572-43.701 123.339 123.339 0 0 1 31.572-4.759zm0-53.396a128.255 128.255 0 0 0-33.433 5.099 123.422 123.422 0 0 1-8.062-41.57h41.495zm0-41.409H57.243a123.419 123.419 0 0 1 8.062-41.572 128.27 128.27 0 0 0 33.433 5.096zm0-41.408a123.339 123.339 0 0 1-31.572-4.758 123.22 123.22 0 0 1 31.572-43.706zm75.967-18.2a95.809 95.809 0 0 1 22.709 59.608h-47.306a128.365 128.365 0 0 0-8.281-43.047 127.975 127.975 0 0 0 32.878-16.561zm-3.31-3.712a123.041 123.041 0 0 1-31.402 15.686 128.124 128.124 0 0 0-33.109-45.986 96.02 96.02 0 0 1 64.51 30.3zm-67.72-26.548a123.175 123.175 0 0 1 31.572 43.702 123.34 123.34 0 0 1-31.572 4.758zm0 53.392a128.27 128.27 0 0 0 33.433-5.096 123.422 123.422 0 0 1 8.062 41.572h-41.495zm0 41.413h41.495a123.417 123.417 0 0 1-8.062 41.57 128.243 128.243 0 0 0-33.433-5.098zm0 41.408a123.34 123.34 0 0 1 31.572 4.759 123.222 123.222 0 0 1-31.572 43.706zm3.215 52.212a128.176 128.176 0 0 0 33.103-45.985 123.037 123.037 0 0 1 31.401 15.685 96.02 96.02 0 0 1-64.504 30.3zm67.815-34.011a128.024 128.024 0 0 0-32.878-16.563 128.36 128.36 0 0 0 8.28-43.046h47.307a95.809 95.809 0 0 1-22.709 59.609z"/><path class="cls-6" d="M297.537 279.549l-37.345-37.345a8.33 8.33 0 0 0-5.896-2.44 8.093 8.093 0 0 0-4.239 1.165l-.307.163-2.486 2.489-.167.307a8.216 8.216 0 0 0-1.16 4.239 8.303 8.303 0 0 0 2.439 5.893l37.345 37.345a8.355 8.355 0 1 0 11.816-11.816z"/><path class="cls-7" d="M235.317 231.637l2.489-2.489 11.944 11.944-2.486 2.489-11.947-11.944z"/><path class="cls-8" d="M144.437 137.911a65.539 65.539 0 1 0 92.686 0 65.539 65.539 0 0 0-92.686 0z"/><path class="cls-9" d="M152.59 146.064a54.01 54.01 0 1 0 76.38 0 54.01 54.01 0 0 0-76.38 0z"/><path class="cls-10" d="M207.48 204.15l-.119-1.275a14.21 14.21 0 0 0-1.747-5.578l-1.39-2.518 2.84.452a11.213 11.213 0 0 0 1.764.14 12.081 12.081 0 0 0 7.238-2.512l.647-.492.749.317c4.903 2.071 8.107 5.657 8.79 9.835l.268 1.63z"/><path class="cls-11" d="M156.072 204.15l.162-1.55a16.675 16.675 0 0 1 3.963-8.972 24.931 24.931 0 0 1 9.74-6.844l.758-.308.642.508a17.554 17.554 0 0 0 22.304 0l.642-.508.758.308a25.374 25.374 0 0 1 9.094 6.113c.221.238.443.485.653.737a19.386 19.386 0 0 1 1.308 1.753 15.993 15.993 0 0 1 2.65 7.213l.162 1.55z"/><ellipse class="cls-11" cx="182.49" cy="167.936" rx="13.169" ry="16.461"/><ellipse class="cls-10" cx="208.828" cy="180.007" rx="8.78" ry="10.975"/></svg>