<svg id="Layer_1" data-name="Layer 1" xmlns="http://www.w3.org/2000/svg" viewBox="0 0 300 300"><defs><style>.cls-1,.cls-10{fill:none}.cls-2{fill:#bfd730}.cls-3{fill:#1e8234}.cls-4{fill:#6d9d31}.cls-5{fill:#8dc63f}.cls-10,.cls-11,.cls-6,.cls-8,.cls-9{stroke-linecap:round;stroke-linejoin:round;stroke-width:1.5px}.cls-6{fill:url(#New_Pattern_Swatch_10)}.cls-10,.cls-11,.cls-6{stroke:url(#New_Pattern_Swatch_7)}.cls-7{fill:#8cc640}.cls-8{fill:#fff;stroke:url(#New_Pattern_Swatch_7-13)}.cls-9{fill:url(#New_Pattern_Swatch_9);stroke:url(#New_Pattern_Swatch_7-15)}.cls-11{fill:url(#New_Pattern_Swatch_8)}</style><pattern id="New_Pattern_Swatch_10" data-name="New Pattern Swatch 10" width="28.8" height="28.8" patternTransform="translate(111.645 133.88) scale(3.15986)" patternUnits="userSpaceOnUse" viewBox="0 0 28.8 28.8"><path class="cls-1" d="M0 0h28.8v28.8H0z"/><path class="cls-2" d="M0 0h28.8v28.8H0z"/></pattern><pattern id="New_Pattern_Swatch_7" data-name="New Pattern Swatch 7" width="28.8" height="28.8" patternTransform="translate(111.645 133.88) scale(3.15986)" patternUnits="userSpaceOnUse" viewBox="0 0 28.8 28.8"><path class="cls-1" d="M0 0h28.8v28.8H0z"/><path class="cls-3" d="M0 0h28.8v28.8H0z"/></pattern><pattern id="New_Pattern_Swatch_7-13" data-name="New Pattern Swatch 7" width="28.8" height="28.8" patternTransform="translate(100.465 43.814) scale(2.38689)" patternUnits="userSpaceOnUse" viewBox="0 0 28.8 28.8"><path class="cls-1" d="M0 0h28.8v28.8H0z"/><path class="cls-3" d="M0 0h28.8v28.8H0z"/></pattern><pattern id="New_Pattern_Swatch_9" data-name="New Pattern Swatch 9" width="28.8" height="28.8" patternTransform="translate(91.872 52.404) scale(2.38689)" patternUnits="userSpaceOnUse" viewBox="0 0 28.8 28.8"><path class="cls-1" d="M0 0h28.8v28.8H0z"/><path class="cls-5" d="M0 0h28.8v28.8H0z"/></pattern><pattern id="New_Pattern_Swatch_7-15" data-name="New Pattern Swatch 7" width="28.8" height="28.8" patternTransform="translate(91.872 52.407) scale(2.38689)" patternUnits="userSpaceOnUse" viewBox="0 0 28.8 28.8"><path class="cls-1" d="M0 0h28.8v28.8H0z"/><path class="cls-3" d="M0 0h28.8v28.8H0z"/></pattern><pattern id="New_Pattern_Swatch_8" data-name="New Pattern Swatch 8" width="28.8" height="28.8" patternTransform="translate(111.645 133.876) scale(3.15986)" patternUnits="userSpaceOnUse" viewBox="0 0 28.8 28.8"><path class="cls-1" d="M0 0h28.8v28.8H0z"/><path class="cls-4" d="M0 0h28.8v28.8H0z"/></pattern></defs><title>icon-gov-building</title><path class="cls-6" d="M23.075 138.46h23.079v138.462H23.075zm46.155 0h23.075v138.462H69.23zm46.155 0h23.075v138.462h-23.075zm46.155 0h23.075v138.462H161.54zm46.151 0h23.079v138.462h-23.079zm46.154 0h23.075v138.462h-23.075z"/><path class="cls-7" d="M46.155 184.615l-23.08-23.075h23.08v23.075zm46.15 0L69.23 161.54h23.075v23.075zm46.155 0l-23.075-23.075h23.075v23.075zm46.155 0L161.54 161.54h23.075v23.075zm46.155 0l-23.079-23.075h23.079v23.075zm46.151 0l-23.076-23.075h23.076v23.075z"/><path class="cls-8" d="M150 0L11.54 138.46h276.92L150 0z"/><circle class="cls-9" cx="149.999" cy="80.769" r="23.077"/><path class="cls-10" d="M23.075 138.46h23.079v138.462H23.075zm46.155 0h23.075v138.462H69.23zm46.155 0h23.075v138.462h-23.075zm46.155 0h23.075v138.462H161.54zm46.151 0h23.079v138.462h-23.079zm46.154 0h23.075v138.462h-23.075z"/><path class="cls-11" d="M11.54 138.46v23.08h276.92v-23.08H11.54z"/><path class="cls-8" d="M11.54 276.923h276.921v23.078H11.54z"/></svg>