<svg id="Layer_1" xmlns="http://www.w3.org/2000/svg" xmlns:xlink="http://www.w3.org/1999/xlink" viewBox="0 0 83 97"><style>.st0,.st1,.st2{clip-path:url(#SVGID_2_)}.st0{stroke:#f26f21;stroke-width:1.41;stroke-linejoin:round;fill:none}.st1{fill:#fff}.st2{fill:none;stroke:#f26f21;stroke-width:1.41;stroke-miterlimit:10}</style><defs><path id="SVGID_1_" d="M4.5 8.4h73.9v81.1H4.5z"/></defs><clipPath id="SVGID_2_"><use xlink:href="#SVGID_1_" overflow="visible"/></clipPath><path class="st0" d="M15.8 26s2-.7 4.4 2.8c2.3 3.5 10.4 21.6 10.4 21.6m-18.7-25s1-2.3 2.9-.5c1.9 1.8 3.9 6.4 3.9 6.4M9.1 25s1.1-2 2.9.3c1.8 2.3 3.9 6.9 3.9 6.9m-2.4 57l11-26.3s-10.3-7.6-11-9.8c-.7-2.1-8.3-27.5-8.3-27.5s2.2-.9 3.8 1.1c1.6 2 5.8 11.3 5.8 11.3m19.5 51.2s4.7-27.1 3.1-31.5c-1.6-4.3-5.1-6.7-6.3-7.2-1.1-.4-3.1-1.2-3.1-1.2s-5.6-11.3-6.9-13c-1.3-1.7-5.1-4.3-4.7-1.1.4 3.3 4.2 10.6 4.2 10.6M67 26s-1.9-.7-4.3 2.8c-2.3 3.5-10.4 21.6-10.4 21.6m18.7-25s-1-2.3-2.9-.5c-1.9 1.8-3.9 6.4-3.9 6.4m9.6-6.3s-1.1-2-2.9.3c-1.8 2.3-3.9 6.9-3.9 6.9m2.5 57l-11-26.3s10.3-7.6 11-9.8 8.3-27.6 8.3-27.6-2.2-.9-3.8 1.1c-1.6 2-5.8 11.3-5.8 11.3M48.7 89.2S44 62.1 45.6 57.7c1.6-4.3 5.1-6.7 6.3-7.2 1.1-.4 3.1-1.3 3.1-1.3s5.6-11.3 6.9-13c1.3-1.7 5.1-4.3 4.7-1.1-.4 3.3-4.2 10.6-4.2 10.6"/><path class="st1" d="M57.7 16.4c-.5-3.4-2.4-6-5.7-7-5.8-1.8-9.8 3.5-10.5 4.3-.7-.8-4.7-6.1-10.5-4.3-3.3 1-5.3 3.6-5.7 7-.3 2.5.4 4.8 1.8 7s14.1 13.9 14.5 14.3c.4-.3 13.1-12.1 14.5-14.3 1.2-2.1 1.9-4.5 1.6-7"/><path class="st2" d="M57.7 16.4c-.5-3.4-2.4-6-5.7-7-5.8-1.8-9.8 3.5-10.5 4.3-.7-.8-4.7-6.1-10.5-4.3-3.3 1-5.3 3.6-5.7 7-.3 2.5.4 4.8 1.8 7s14.1 13.9 14.5 14.3c.4-.3 13.1-12.1 14.5-14.3 1.2-2.1 1.9-4.5 1.6-7z"/></svg>