<svg id="Layer_1" xmlns="http://www.w3.org/2000/svg" xmlns:xlink="http://www.w3.org/1999/xlink" viewBox="0 0 75.7 68"><style>.st0{fill:none}.st1{fill:#f26f21}.st2{fill:#ffeb94}.st3{clip-path:url(#SVGID_2_);fill:none;stroke:url(#SVGID_3_);stroke-width:1.5;stroke-linecap:round;stroke-linejoin:round;stroke-miterlimit:10}.st4{clip-path:url(#SVGID_5_);fill:#fff}.st5{clip-path:url(#SVGID_7_);fill:none;stroke:url(#SVGID_8_);stroke-width:1.5;stroke-linecap:round;stroke-linejoin:round;stroke-miterlimit:10}.st6{clip-path:url(#SVGID_10_);fill:#fff}.st10,.st11,.st12,.st13,.st14,.st15{fill:none;stroke-width:1.5;stroke-linecap:round;stroke-linejoin:round;stroke-miterlimit:10}.st7{clip-path:url(#SVGID_12_);stroke:url(#SVGID_13_)}.st7,.st8,.st9{fill:none;stroke-width:1.5;stroke-linecap:round;stroke-linejoin:round;stroke-miterlimit:10}.st10,.st11,.st12,.st13,.st14,.st15,.st8,.st9{clip-path:url(#SVGID_15_)}.st8{stroke:url(#SVGID_16_)}.st9{stroke:url(#SVGID_17_)}.st10{stroke:url(#SVGID_18_)}.st11{stroke:url(#SVGID_19_)}.st12{stroke:url(#SVGID_20_)}.st13{stroke:url(#SVGID_21_)}.st14{stroke:url(#SVGID_22_)}.st15{stroke:url(#SVGID_23_)}</style><pattern x="-233.6" y="-146" width="28.8" height="28.8" patternUnits="userSpaceOnUse" id="Unnamed_Pattern_11" viewBox="0 -28.8 28.8 28.8" overflow="visible"><path class="st0" d="M0-28.8h28.8V0H0z"/><path class="st1" d="M0-28.8h28.8V0H0z"/></pattern><path class="st2" d="M9.2 14.3v39h56.9v-39z"/><defs><path id="SVGID_1_" d="M8.4 5.8h58.4V54H8.4z"/></defs><clipPath id="SVGID_2_"><use xlink:href="#SVGID_1_" overflow="visible"/></clipPath><pattern id="SVGID_3_" xlink:href="#Unnamed_Pattern_11" patternTransform="matrix(.8867 0 0 -.8867 326.486 615.347)"/><path class="st3" d="M31.7 53.3H9.1v-39h57v39H42.8"/><defs><path id="SVGID_4_" d="M8.4 5.8h58.4V54H8.4z"/></defs><clipPath id="SVGID_5_"><use xlink:href="#SVGID_4_" overflow="visible"/></clipPath><path class="st4" d="M37.6 52.9s-7.4-8.6-21.9-6.5c-.3-5.2.1-34.4 0-39.9 15-.7 21.9 6.5 21.9 6.5v39.9z"/><defs><path id="SVGID_6_" d="M8.4 5.8h58.4V54H8.4z"/></defs><clipPath id="SVGID_7_"><use xlink:href="#SVGID_6_" overflow="visible"/></clipPath><pattern id="SVGID_8_" xlink:href="#Unnamed_Pattern_11" patternTransform="matrix(.8867 0 0 -.8867 326.486 615.347)"/><path class="st5" d="M37.6 52.9s-7.4-8.6-21.9-6.5c-.3-5.2.1-34.4 0-39.9 15-.7 21.9 6.5 21.9 6.5v39.9z"/><defs><path id="SVGID_9_" d="M8.4 5.8h58.4V54H8.4z"/></defs><clipPath id="SVGID_10_"><use xlink:href="#SVGID_9_" overflow="visible"/></clipPath><path class="st6" d="M37.6 53.1s7.4-8.6 21.9-6.5c.3-5.2-.1-34.4 0-39.9-15-.7-21.9 6.5-21.9 6.5v39.9z"/><defs><path id="SVGID_11_" d="M8.4 5.8h58.4V54H8.4z"/></defs><clipPath id="SVGID_12_"><use xlink:href="#SVGID_11_" overflow="visible"/></clipPath><pattern id="SVGID_13_" xlink:href="#Unnamed_Pattern_11" patternTransform="matrix(.8867 0 0 -.8867 326.486 615.347)"/><path class="st7" d="M37.6 53.1s7.4-8.6 21.9-6.5c.3-5.2-.1-34.4 0-39.9-15-.7-21.9 6.5-21.9 6.5v39.9z"/><defs><path id="SVGID_14_" d="M8.4 5.8h58.4V54H8.4z"/></defs><clipPath id="SVGID_15_"><use xlink:href="#SVGID_14_" overflow="visible"/></clipPath><pattern id="SVGID_16_" xlink:href="#Unnamed_Pattern_11" patternTransform="matrix(.8867 0 0 -.8867 326.486 609.52)"/><path class="st8" d="M41.8 38s5.5-3 13.1-2.6"/><pattern id="SVGID_17_" xlink:href="#Unnamed_Pattern_11" patternTransform="matrix(.8867 0 0 -.8867 326.486 603.039)"/><path class="st9" d="M41.8 31.5s5.5-3 13.1-2.6"/><pattern id="SVGID_18_" xlink:href="#Unnamed_Pattern_11" patternTransform="matrix(.8867 0 0 -.8867 326.486 622.097)"/><path class="st10" d="M41.8 25s5.5-3 13.1-2.6"/><pattern id="SVGID_19_" xlink:href="#Unnamed_Pattern_11" patternTransform="matrix(.8867 0 0 -.8867 326.486 615.628)"/><path class="st11" d="M41.8 18.5s5.5-3 13.1-2.6"/><pattern id="SVGID_20_" xlink:href="#Unnamed_Pattern_11" patternTransform="rotate(180 379.689 304.76) scale(.8867)"/><path class="st12" d="M33.1 38s-5.5-3-13.1-2.6"/><pattern id="SVGID_21_" xlink:href="#Unnamed_Pattern_11" patternTransform="rotate(180 379.689 301.52) scale(.8867)"/><path class="st13" d="M33.1 31.5s-5.5-3-13.1-2.6"/><pattern id="SVGID_22_" xlink:href="#Unnamed_Pattern_11" patternTransform="rotate(180 379.689 311.049) scale(.8867)"/><path class="st14" d="M33.1 25s-5.5-3-13.1-2.6"/><pattern id="SVGID_23_" xlink:href="#Unnamed_Pattern_11" patternTransform="rotate(180 379.689 307.814) scale(.8867)"/><path class="st15" d="M33.1 18.5s-5.5-3-13.1-2.6"/></svg>