<svg id="Layer_1" xmlns="http://www.w3.org/2000/svg" xmlns:xlink="http://www.w3.org/1999/xlink" viewBox="0 0 184 142"><style>.st0{fill:none}.st1{fill:#bed630}.st2{fill:#1d8134}.st3{fill:#8bc53f}.st4{fill:#6c9c31}.st5{fill:#d4df5b}.st6{fill:url(#SVGID_1_)}.st7{fill:#fff}.st8{fill:none;stroke:url(#SVGID_2_);stroke-width:1.5;stroke-miterlimit:10}.st9{fill:url(#SVGID_3_)}.st10{stroke:url(#SVGID_4_)}.st10,.st11,.st12,.st13{fill:none;stroke-width:1.5;stroke-miterlimit:10}.st11{stroke:url(#SVGID_5_)}.st12{stroke:url(#SVGID_6_)}.st13{clip-path:url(#SVGID_8_);stroke:url(#SVGID_9_)}.st14{fill:url(#SVGID_10_)}.st15,.st16,.st17{fill:none;stroke:url(#SVGID_11_);stroke-width:1.5;stroke-miterlimit:10}.st16,.st17{clip-path:url(#SVGID_13_);stroke:url(#SVGID_14_)}.st17{stroke:url(#SVGID_15_)}.st18{clip-path:url(#SVGID_17_);fill:url(#SVGID_18_)}.st19{fill:none;stroke:url(#SVGID_19_);stroke-width:1.5;stroke-miterlimit:10}.st19,.st20,.st21{clip-path:url(#SVGID_17_)}.st20{stroke:url(#SVGID_20_);stroke-width:1.5;stroke-miterlimit:10;fill:none}.st21{fill:url(#SVGID_21_)}.st22{fill:none;stroke:url(#SVGID_22_);stroke-width:1.5;stroke-miterlimit:10}.st22,.st23,.st24{clip-path:url(#SVGID_17_)}.st23{stroke:url(#SVGID_23_);stroke-width:1.5;stroke-miterlimit:10;fill:none}.st24{fill:url(#SVGID_24_)}.st25{stroke:url(#SVGID_25_)}.st25,.st26,.st27,.st28,.st29,.st30{clip-path:url(#SVGID_17_);fill:none;stroke-width:1.5;stroke-miterlimit:10}.st26{stroke:url(#SVGID_26_)}.st27{stroke:url(#SVGID_27_)}.st28{stroke:url(#SVGID_28_)}.st29{stroke:url(#SVGID_29_)}.st30{stroke:url(#SVGID_30_)}.st31{fill:url(#SVGID_31_)}.st31,.st32,.st33,.st34{clip-path:url(#SVGID_17_)}.st32{stroke:url(#SVGID_32_)}.st32,.st33,.st34{fill:none;stroke-width:1.5;stroke-miterlimit:10}.st33{stroke:url(#SVGID_33_)}.st34{stroke:url(#SVGID_34_)}.st35{stroke:url(#SVGID_35_)}.st35,.st36,.st37,.st38,.st39,.st40,.st41,.st42,.st43,.st44,.st45,.st46,.st47{clip-path:url(#SVGID_17_);fill:none;stroke-width:1.5;stroke-miterlimit:10}.st36{stroke:url(#SVGID_36_)}.st37{stroke:url(#SVGID_37_)}.st38{stroke:url(#SVGID_38_)}.st39{stroke:url(#SVGID_39_)}.st40{stroke:url(#SVGID_40_)}.st41{stroke:url(#SVGID_41_)}.st42{stroke:url(#SVGID_42_)}.st43{stroke:url(#SVGID_43_)}.st44{stroke:url(#SVGID_44_)}.st45{stroke:url(#SVGID_45_)}.st46{stroke:url(#SVGID_46_)}.st47{stroke:url(#SVGID_47_)}.st48{stroke:url(#SVGID_48_)}.st48,.st49,.st50,.st51,.st52,.st53,.st54,.st55,.st56,.st57,.st58,.st59,.st60{clip-path:url(#SVGID_17_);fill:none;stroke-width:1.5;stroke-miterlimit:10}.st49{stroke:url(#SVGID_49_)}.st50{stroke:url(#SVGID_50_)}.st51{stroke:url(#SVGID_51_)}.st52{stroke:url(#SVGID_52_)}.st53{stroke:url(#SVGID_53_)}.st54{stroke:url(#SVGID_54_)}.st55{stroke:url(#SVGID_55_)}.st56{stroke:url(#SVGID_56_)}.st57{stroke:url(#SVGID_57_)}.st58{stroke:url(#SVGID_58_)}.st59{stroke:url(#SVGID_59_)}.st60{stroke:url(#SVGID_60_)}.st61{fill:url(#SVGID_61_)}.st61,.st62,.st63,.st64{clip-path:url(#SVGID_17_)}.st62{stroke:url(#SVGID_62_);stroke-width:1.5;stroke-miterlimit:10;fill:none}.st63{fill:url(#SVGID_63_)}.st64{fill:none;stroke:url(#SVGID_64_);stroke-width:1.5;stroke-miterlimit:10}.st65{fill:url(#SVGID_65_)}.st65,.st66,.st67{clip-path:url(#SVGID_17_)}.st66{stroke:url(#SVGID_66_);stroke-width:1.5;stroke-miterlimit:10;fill:none}.st67{fill:url(#SVGID_67_)}.st68{fill:none;stroke:url(#SVGID_68_);stroke-width:1.5;stroke-miterlimit:10}.st68,.st69,.st70,.st71{clip-path:url(#SVGID_17_)}.st69{stroke:url(#SVGID_69_);stroke-width:1.5;stroke-miterlimit:10;fill:none}.st70{fill:url(#SVGID_70_)}.st71{fill:none;stroke:url(#SVGID_71_);stroke-width:1.5;stroke-miterlimit:10}.st72{fill:url(#SVGID_72_)}.st72,.st73,.st74{clip-path:url(#SVGID_17_)}.st73{fill:none;stroke-width:1.5;stroke-miterlimit:10;stroke:url(#SVGID_73_)}.st74{stroke:url(#SVGID_74_)}.st74,.st75,.st76{fill:none;stroke-width:1.5;stroke-miterlimit:10}.st75{clip-path:url(#SVGID_17_);stroke:url(#SVGID_75_)}.st76{stroke:url(#SVGID_76_)}.st76,.st77,.st78{clip-path:url(#SVGID_17_)}.st77{fill:none;stroke-width:1.5;stroke-miterlimit:10;stroke:url(#SVGID_77_)}.st78{stroke:url(#SVGID_78_)}.st78,.st79,.st80{fill:none;stroke-width:1.5;stroke-miterlimit:10}.st79{clip-path:url(#SVGID_17_);stroke:url(#SVGID_79_)}.st80{stroke:url(#SVGID_80_)}.st80,.st81,.st82{clip-path:url(#SVGID_17_)}.st81{fill:none;stroke-width:1.5;stroke-miterlimit:10;stroke:url(#SVGID_81_)}.st82{stroke:url(#SVGID_82_)}.st82,.st83,.st84{fill:none;stroke-width:1.5;stroke-miterlimit:10}.st83{clip-path:url(#SVGID_17_);stroke:url(#SVGID_83_)}.st84{stroke:url(#SVGID_84_)}.st84,.st85,.st86{clip-path:url(#SVGID_17_)}.st85{fill:none;stroke-width:1.5;stroke-miterlimit:10;stroke:url(#SVGID_85_)}.st86{stroke:url(#SVGID_86_)}.st86,.st87,.st88{fill:none;stroke-width:1.5;stroke-miterlimit:10}.st87{clip-path:url(#SVGID_17_);stroke:url(#SVGID_87_)}.st88{stroke:url(#SVGID_88_)}.st88,.st89,.st90{clip-path:url(#SVGID_17_)}.st89{fill:none;stroke-width:1.5;stroke-miterlimit:10;stroke:url(#SVGID_89_)}.st90{stroke:url(#SVGID_90_)}.st90,.st91,.st92{fill:none;stroke-width:1.5;stroke-miterlimit:10}.st91{clip-path:url(#SVGID_17_);stroke:url(#SVGID_91_)}.st92{stroke:url(#SVGID_92_)}.st92,.st93,.st94{clip-path:url(#SVGID_17_)}.st93{fill:none;stroke-width:1.5;stroke-miterlimit:10;stroke:url(#SVGID_93_)}.st94{stroke:url(#SVGID_94_)}.st94,.st95,.st96{fill:none;stroke-width:1.5;stroke-miterlimit:10}.st95{clip-path:url(#SVGID_17_);stroke:url(#SVGID_95_)}.st96{stroke:url(#SVGID_96_)}.st96,.st97,.st98{clip-path:url(#SVGID_17_)}.st97{stroke:url(#SVGID_97_);stroke-width:1.5;stroke-miterlimit:10;fill:none}.st98{fill:#fff}.st99{fill:none;stroke:url(#SVGID_98_);stroke-width:1.5;stroke-miterlimit:10}.st100,.st101,.st102,.st99{clip-path:url(#SVGID_17_)}.st100{stroke:url(#SVGID_99_);stroke-width:1.5;stroke-miterlimit:10;fill:none}.st101{fill:url(#SVGID_100_)}.st102{fill:none;stroke:url(#SVGID_101_);stroke-width:1.5;stroke-miterlimit:10}.st103{fill:url(#SVGID_102_)}.st103,.st104,.st105{clip-path:url(#SVGID_17_)}.st104{fill:none;stroke-width:1.5;stroke-miterlimit:10;stroke:url(#SVGID_103_)}.st105{stroke:url(#SVGID_104_)}.st105,.st106,.st107{fill:none;stroke-width:1.5;stroke-miterlimit:10}.st106{clip-path:url(#SVGID_17_);stroke:url(#SVGID_105_)}.st107{stroke:url(#SVGID_106_)}.st107,.st108,.st109{clip-path:url(#SVGID_17_)}.st108{fill:none;stroke-width:1.5;stroke-miterlimit:10;stroke:url(#SVGID_107_)}.st109{stroke:url(#SVGID_108_)}.st109,.st110,.st111{fill:none;stroke-width:1.5;stroke-miterlimit:10}.st110{clip-path:url(#SVGID_17_);stroke:url(#SVGID_109_)}.st111{stroke:url(#SVGID_110_)}.st111,.st112,.st113{clip-path:url(#SVGID_17_)}.st112{fill:none;stroke-width:1.5;stroke-miterlimit:10;stroke:url(#SVGID_111_)}.st113{stroke:url(#SVGID_112_)}.st113,.st114,.st115{fill:none;stroke-width:1.5;stroke-miterlimit:10}.st114{clip-path:url(#SVGID_17_);stroke:url(#SVGID_113_)}.st115{stroke:url(#SVGID_114_)}.st115,.st116,.st117{clip-path:url(#SVGID_17_)}.st116{stroke:url(#SVGID_115_);stroke-width:1.5;stroke-miterlimit:10;fill:none}.st117{fill:url(#SVGID_116_)}.st118{fill:none;stroke:url(#SVGID_119_);stroke-width:1.5;stroke-miterlimit:10}.st118,.st119{clip-path:url(#SVGID_118_)}.st119,.st120{fill:none;stroke-width:1.5;stroke-miterlimit:10}.st119{stroke:url(#SVGID_120_)}.st120{clip-path:url(#SVGID_122_);stroke:url(#SVGID_123_)}</style><pattern x="-196" y="-109" width="28.8" height="28.8" patternUnits="userSpaceOnUse" id="Unnamed_Pattern_110" viewBox="0 -28.8 28.8 28.8" overflow="visible"><path class="st0" d="M0-28.8h28.8V0H0z"/><path class="st1" d="M0-28.8h28.8V0H0z"/></pattern><pattern x="-196" y="-109" width="28.8" height="28.8" patternUnits="userSpaceOnUse" id="Unnamed_Pattern_113" viewBox="0 -28.8 28.8 28.8" overflow="visible"><path class="st0" d="M0-28.8h28.8V0H0z"/><path class="st2" d="M0-28.8h28.8V0H0z"/></pattern><pattern x="-196" y="-109" width="28.8" height="28.8" patternUnits="userSpaceOnUse" id="Unnamed_Pattern_18" viewBox="0 -28.8 28.8 28.8" overflow="visible"><path class="st0" d="M0-28.8h28.8V0H0z"/><path class="st3" d="M0-28.8h28.8V0H0z"/></pattern><pattern x="-196" y="-109" width="28.8" height="28.8" patternUnits="userSpaceOnUse" id="Unnamed_Pattern_8" viewBox="0 -28.8 28.8 28.8" overflow="visible"><path class="st0" d="M0-28.8h28.8V0H0z"/><path class="st4" d="M0-28.8h28.8V0H0z"/></pattern><pattern x="-196" y="-109" width="28.8" height="28.8" patternUnits="userSpaceOnUse" id="Unnamed_Pattern_96" viewBox="0 -28.8 28.8 28.8" overflow="visible"><path class="st0" d="M0-28.8h28.8V0H0z"/><path class="st5" d="M0-28.8h28.8V0H0z"/></pattern><pattern id="SVGID_1_" xlink:href="#Unnamed_Pattern_18" patternTransform="matrix(1 0 0 -.4902 326.796 459.488)"/><path class="st6" d="M88.1 57h58.1v12.7H88.1z"/><path class="st7" d="M152.9 57h5.6v20.5h-5.6z"/><pattern id="SVGID_2_" xlink:href="#Unnamed_Pattern_113" patternTransform="matrix(.6699 0 0 -.6699 363.79 557.65)"/><path class="st8" d="M152.9 57h5.6v20.5h-5.6z"/><path class="st7" d="M53.6 18.6h11.1v23H53.6z"/><pattern id="SVGID_3_" xlink:href="#Unnamed_Pattern_8" patternTransform="matrix(1 0 0 -1.0332 326.796 777.384)"/><path class="st9" d="M49.5 48.8l38.3-.2.3-19.3-38.5 13.9z"/><pattern id="SVGID_4_" xlink:href="#Unnamed_Pattern_113" patternTransform="matrix(.6699 0 0 -.6699 363.79 557.65)"/><path class="st10" d="M96.4 113.6l-7.7 9.7"/><pattern id="SVGID_5_" xlink:href="#Unnamed_Pattern_113" patternTransform="matrix(.6699 0 0 -.6699 363.79 557.65)"/><path class="st11" d="M106.2 113.6l-7.7 9.7"/><path class="st7" d="M131.5 89.9v23.8H69.9V89.9"/><pattern id="SVGID_6_" xlink:href="#Unnamed_Pattern_113" patternTransform="matrix(.6699 0 0 -.6699 363.79 557.65)"/><path class="st12" d="M131.5 89.9v23.8H69.9V89.9"/><defs><path id="SVGID_7_" d="M4 3h177.2v136H4z"/></defs><clipPath id="SVGID_8_"><use xlink:href="#SVGID_7_" overflow="visible"/></clipPath><pattern id="SVGID_9_" xlink:href="#Unnamed_Pattern_113" patternTransform="matrix(.6699 0 0 -.6699 363.79 557.65)"/><path class="st13" d="M59.2 11.1V3"/><pattern id="SVGID_10_" xlink:href="#Unnamed_Pattern_8" patternTransform="matrix(1 0 0 -.9759 326.796 755.9)"/><path class="st14" d="M92.5 113.3v-16h16.4v16"/><pattern id="SVGID_11_" xlink:href="#Unnamed_Pattern_113" patternTransform="matrix(.6699 0 0 -.6537 367.752 552.09)"/><path class="st15" d="M92.5 113.3v-16h16.4v16"/><defs><path id="SVGID_12_" d="M4 3h177.2v136H4z"/></defs><clipPath id="SVGID_13_"><use xlink:href="#SVGID_12_" overflow="visible"/></clipPath><pattern id="SVGID_14_" xlink:href="#Unnamed_Pattern_113" patternTransform="matrix(.6699 0 0 -.6699 363.79 557.65)"/><path class="st16" d="M141.5 82.4c-4.2-1.2-8.4-2.3-12.8-3.1"/><pattern id="SVGID_15_" xlink:href="#Unnamed_Pattern_113" patternTransform="matrix(.6699 0 0 -.6699 363.79 557.65)"/><path class="st17" d="M180.7 103.4c-7-6.1-15.2-11.3-24.3-15.4"/><defs><path id="SVGID_16_" d="M4 3h177.2v136H4z"/></defs><clipPath id="SVGID_17_"><use xlink:href="#SVGID_16_" overflow="visible"/></clipPath><pattern id="SVGID_18_" xlink:href="#Unnamed_Pattern_110" patternTransform="matrix(1 0 0 -1 326.796 735.197)"/><path class="st18" d="M42.7 76.6c0 2.6-2.1 4.8-4.8 4.8-2.6 0-4.8-2.1-4.8-4.8 0-2.6 2.1-4.8 4.8-4.8 2.7 0 4.8 2.1 4.8 4.8"/><pattern id="SVGID_19_" xlink:href="#Unnamed_Pattern_113" patternTransform="matrix(.6699 0 0 -.6699 367.752 555.15)"/><circle class="st19" cx="38" cy="76.6" r="4.8"/><pattern id="SVGID_20_" xlink:href="#Unnamed_Pattern_113" patternTransform="matrix(.6699 0 0 -.6699 363.79 557.65)"/><path class="st20" d="M38 81.4v23.8"/><pattern id="SVGID_21_" xlink:href="#Unnamed_Pattern_110" patternTransform="matrix(1 0 0 -1 326.796 735.197)"/><path class="st21" d="M173.7 75.9c0 1.8-1.5 3.3-3.3 3.3-1.8 0-3.3-1.5-3.3-3.3 0-1.8 1.5-3.3 3.3-3.3 1.8-.1 3.3 1.4 3.3 3.3"/><pattern id="SVGID_22_" xlink:href="#Unnamed_Pattern_113" patternTransform="matrix(.6699 0 0 -.6699 367.752 555.15)"/><circle class="st22" cx="170.3" cy="75.9" r="3.3"/><pattern id="SVGID_23_" xlink:href="#Unnamed_Pattern_113" patternTransform="matrix(.6699 0 0 -.6699 363.79 557.65)"/><path class="st23" d="M170.3 79.2v16.1"/><pattern id="SVGID_24_" xlink:href="#Unnamed_Pattern_18" patternTransform="matrix(1 0 0 -1 326.796 735.197)"/><path class="st24" d="M156.5 89.5c0 5.1-4.1 9.2-9.2 9.2s-9.2-4.1-9.2-9.2 4.1-9.2 9.2-9.2 9.2 4.1 9.2 9.2"/><pattern id="SVGID_25_" xlink:href="#Unnamed_Pattern_113" patternTransform="matrix(.6699 0 0 -.6699 367.752 555.15)"/><circle class="st25" cx="147.3" cy="89.5" r="9.2"/><pattern id="SVGID_26_" xlink:href="#Unnamed_Pattern_113" patternTransform="matrix(.6699 0 0 -.6699 363.79 557.65)"/><path class="st26" d="M149.6 92.6l4.4-9.4"/><pattern id="SVGID_27_" xlink:href="#Unnamed_Pattern_113" patternTransform="matrix(.6699 0 0 -.6699 363.79 557.65)"/><path class="st27" d="M138.1 88.5h8.1l3.8-7.8"/><pattern id="SVGID_28_" xlink:href="#Unnamed_Pattern_113" patternTransform="matrix(.6699 0 0 -.6699 363.79 557.65)"/><path class="st28" d="M150.8 94h-11.5"/><pattern id="SVGID_29_" xlink:href="#Unnamed_Pattern_113" patternTransform="matrix(.6699 0 0 -.6699 363.79 557.65)"/><path class="st29" d="M146.2 88.5l6.9 8.2"/><pattern id="SVGID_30_" xlink:href="#Unnamed_Pattern_113" patternTransform="matrix(.6699 0 0 -.6699 363.79 557.65)"/><path class="st30" d="M147.3 98.7v11.2"/><pattern id="SVGID_31_" xlink:href="#Unnamed_Pattern_110" patternTransform="matrix(1 0 0 -1 326.796 735.197)"/><path class="st31" d="M133 90H68.4l6.7-17.5h51.2z"/><pattern id="SVGID_32_" xlink:href="#Unnamed_Pattern_113" patternTransform="matrix(.6699 0 0 -.6699 367.752 555.15)"/><path class="st32" d="M133 90H68.4l6.7-17.5h51.2z"/><pattern id="SVGID_33_" xlink:href="#Unnamed_Pattern_113" patternTransform="matrix(.6699 0 0 -.6699 363.79 557.65)"/><path class="st33" d="M86.7 113.6l-7.7 9.7"/><pattern id="SVGID_34_" xlink:href="#Unnamed_Pattern_113" patternTransform="matrix(.6699 0 0 -.6699 363.79 557.65)"/><path class="st34" d="M76.9 113.6l-7.7 9.7"/><pattern id="SVGID_35_" xlink:href="#Unnamed_Pattern_113" patternTransform="matrix(.6699 0 0 -.6699 363.79 557.65)"/><path class="st35" d="M67.1 113.6l-7.7 9.7"/><pattern id="SVGID_36_" xlink:href="#Unnamed_Pattern_113" patternTransform="matrix(.6699 0 0 -.6699 363.79 557.65)"/><path class="st36" d="M116 113.6l-7.7 9.7"/><pattern id="SVGID_37_" xlink:href="#Unnamed_Pattern_113" patternTransform="matrix(.6699 0 0 -.6699 363.79 557.65)"/><path class="st37" d="M125.7 113.6l-7.7 9.7"/><pattern id="SVGID_38_" xlink:href="#Unnamed_Pattern_113" patternTransform="matrix(.6699 0 0 -.6699 363.79 557.65)"/><path class="st38" d="M135.5 113.6l-7.7 9.7"/><pattern id="SVGID_39_" xlink:href="#Unnamed_Pattern_113" patternTransform="matrix(.6699 0 0 -.6699 363.79 557.65)"/><path class="st39" d="M145.3 113.6l-7.7 9.7"/><pattern id="SVGID_40_" xlink:href="#Unnamed_Pattern_113" patternTransform="matrix(.6699 0 0 -.6699 363.79 557.65)"/><path class="st40" d="M150.1 123.3H46"/><pattern id="SVGID_41_" xlink:href="#Unnamed_Pattern_113" patternTransform="matrix(.6699 0 0 -.6699 363.79 557.65)"/><path class="st41" d="M73.2 89.9v23.8"/><pattern id="SVGID_42_" xlink:href="#Unnamed_Pattern_113" patternTransform="matrix(.6699 0 0 -.6699 363.79 557.65)"/><path class="st42" d="M79.9 89.9v23.8"/><pattern id="SVGID_43_" xlink:href="#Unnamed_Pattern_113" patternTransform="matrix(.6699 0 0 -.6699 363.79 557.65)"/><path class="st43" d="M83.3 89.9v23.8"/><pattern id="SVGID_44_" xlink:href="#Unnamed_Pattern_113" patternTransform="matrix(.6699 0 0 -.6699 363.79 557.65)"/><path class="st44" d="M128.2 89.9v23.8"/><pattern id="SVGID_45_" xlink:href="#Unnamed_Pattern_113" patternTransform="matrix(.6699 0 0 -.6699 363.79 557.65)"/><path class="st45" d="M121.5 89.9v23.8"/><pattern id="SVGID_46_" xlink:href="#Unnamed_Pattern_113" patternTransform="matrix(.6699 0 0 -.6699 363.79 557.65)"/><path class="st46" d="M118.1 89.9v23.8"/><pattern id="SVGID_47_" xlink:href="#Unnamed_Pattern_113" patternTransform="matrix(.6699 0 0 -.6699 363.79 557.65)"/><path class="st47" d="M100.7 97.3v16.4"/><pattern id="SVGID_48_" xlink:href="#Unnamed_Pattern_113" patternTransform="matrix(.6699 0 0 -.6699 363.79 557.65)"/><path class="st48" d="M76.9 72.5L71.6 90"/><pattern id="SVGID_49_" xlink:href="#Unnamed_Pattern_113" patternTransform="matrix(.6699 0 0 -.6699 363.79 557.65)"/><path class="st49" d="M79 90l.9-17.5"/><pattern id="SVGID_50_" xlink:href="#Unnamed_Pattern_113" patternTransform="matrix(.6699 0 0 -.6699 363.79 557.65)"/><path class="st50" d="M82.4 72.5v17.2"/><pattern id="SVGID_51_" xlink:href="#Unnamed_Pattern_113" patternTransform="matrix(.6699 0 0 -.6699 363.79 557.65)"/><path class="st51" d="M88.7 72.5l-1.2 17.4"/><pattern id="SVGID_52_" xlink:href="#Unnamed_Pattern_113" patternTransform="matrix(.6699 0 0 -.6699 363.79 557.65)"/><path class="st52" d="M91.6 72.5l.9 17.4"/><pattern id="SVGID_53_" xlink:href="#Unnamed_Pattern_113" patternTransform="matrix(.6699 0 0 -.6699 363.79 557.65)"/><path class="st53" d="M95.7 89.9l.7-17.4"/><pattern id="SVGID_54_" xlink:href="#Unnamed_Pattern_113" patternTransform="matrix(.6699 0 0 -.6699 363.79 557.65)"/><path class="st54" d="M105.4 89.9l-3-17.4"/><pattern id="SVGID_55_" xlink:href="#Unnamed_Pattern_113" patternTransform="matrix(.6699 0 0 -.6699 363.79 557.65)"/><path class="st55" d="M107.2 89.9l-1-17.4"/><pattern id="SVGID_56_" xlink:href="#Unnamed_Pattern_113" patternTransform="matrix(.6699 0 0 -.6699 363.79 557.65)"/><path class="st56" d="M113.3 89.7l-1.2-17.2"/><pattern id="SVGID_57_" xlink:href="#Unnamed_Pattern_113" patternTransform="matrix(.6699 0 0 -.6699 363.79 557.65)"/><path class="st57" d="M116 90l1.3-17.5"/><pattern id="SVGID_58_" xlink:href="#Unnamed_Pattern_113" patternTransform="matrix(.6699 0 0 -.6699 363.79 557.65)"/><path class="st58" d="M124.6 89.9l-2.7-17.4"/><pattern id="SVGID_59_" xlink:href="#Unnamed_Pattern_113" patternTransform="matrix(.6699 0 0 -.6699 363.79 557.65)"/><path class="st59" d="M124.6 72.5l2.2 17.4"/><pattern id="SVGID_60_" xlink:href="#Unnamed_Pattern_113" patternTransform="matrix(.6699 0 0 -.6699 363.79 557.65)"/><path class="st60" d="M88.1 72.5V29.3L49.6 42.7v46.8"/><pattern id="SVGID_61_" xlink:href="#Unnamed_Pattern_110" patternTransform="matrix(1 0 0 -1 326.796 735.197)"/><path class="st61" d="M58.5 65v-9.2c0-1.1-.9-2-2-2s-2 .9-2 2V65"/><pattern id="SVGID_62_" xlink:href="#Unnamed_Pattern_113" patternTransform="matrix(.6699 0 0 -.6699 367.752 555.15)"/><path class="st62" d="M58.5 65v-9.2c0-1.1-.9-2-2-2s-2 .9-2 2V65"/><pattern id="SVGID_63_" xlink:href="#Unnamed_Pattern_110" patternTransform="matrix(1 0 0 -1 326.796 735.197)"/><path class="st63" d="M66.8 65v-9.2c0-1.1-.9-2-2-2s-2 .9-2 2V65"/><pattern id="SVGID_64_" xlink:href="#Unnamed_Pattern_113" patternTransform="matrix(.6699 0 0 -.6699 367.752 555.15)"/><path class="st64" d="M66.8 65v-9.2c0-1.1-.9-2-2-2s-2 .9-2 2V65"/><pattern id="SVGID_65_" xlink:href="#Unnamed_Pattern_110" patternTransform="matrix(1 0 0 -1 326.796 735.197)"/><path class="st65" d="M75 65v-9.2c0-1.1-.9-2-2-2s-2 .9-2 2V65"/><pattern id="SVGID_66_" xlink:href="#Unnamed_Pattern_113" patternTransform="matrix(.6699 0 0 -.6699 367.752 555.15)"/><path class="st66" d="M75 65v-9.2c0-1.1-.9-2-2-2s-2 .9-2 2V65"/><pattern id="SVGID_67_" xlink:href="#Unnamed_Pattern_110" patternTransform="matrix(1 0 0 -1 326.796 735.197)"/><path class="st67" d="M83.2 65v-9.2c0-1.1-.9-2-2-2s-2 .9-2 2V65"/><pattern id="SVGID_68_" xlink:href="#Unnamed_Pattern_113" patternTransform="matrix(.6699 0 0 -.6699 367.752 555.15)"/><path class="st68" d="M83.2 65v-9.2c0-1.1-.9-2-2-2s-2 .9-2 2V65"/><pattern id="SVGID_69_" xlink:href="#Unnamed_Pattern_113" patternTransform="matrix(.6699 0 0 -.6699 363.79 557.65)"/><path class="st69" d="M49.6 65h38.5"/><pattern id="SVGID_70_" xlink:href="#Unnamed_Pattern_110" patternTransform="matrix(1 0 0 -1 326.796 735.197)"/><path class="st70" d="M58.5 83.1v-9.2c0-1.1-.9-2-2-2s-2 .9-2 2v9.2"/><pattern id="SVGID_71_" xlink:href="#Unnamed_Pattern_113" patternTransform="matrix(.6699 0 0 -.6699 367.752 555.15)"/><path class="st71" d="M58.5 83.1v-9.2c0-1.1-.9-2-2-2s-2 .9-2 2v9.2"/><pattern id="SVGID_72_" xlink:href="#Unnamed_Pattern_110" patternTransform="matrix(1 0 0 -1 326.796 735.197)"/><path class="st72" d="M66.8 82.7v-8.8c0-1.1-.9-2-2-2s-2 .9-2 2v9.2"/><pattern id="SVGID_73_" xlink:href="#Unnamed_Pattern_113" patternTransform="matrix(.6699 0 0 -.6699 367.752 555.15)"/><path class="st73" d="M66.8 82.7v-8.8c0-1.1-.9-2-2-2s-2 .9-2 2v9.2"/><pattern id="SVGID_74_" xlink:href="#Unnamed_Pattern_113" patternTransform="matrix(.6699 0 0 -.6699 363.79 557.65)"/><path class="st74" d="M49.6 83.1h15.8"/><pattern id="SVGID_75_" xlink:href="#Unnamed_Pattern_113" patternTransform="matrix(.6699 0 0 -.6699 363.79 557.65)"/><path class="st75" d="M49.6 48.9h38.5"/><pattern id="SVGID_76_" xlink:href="#Unnamed_Pattern_113" patternTransform="matrix(.6699 0 0 -.6699 363.79 557.65)"/><path class="st76" d="M56 48.9v-8.3"/><pattern id="SVGID_77_" xlink:href="#Unnamed_Pattern_113" patternTransform="matrix(.6699 0 0 -.6699 363.79 557.65)"/><path class="st77" d="M62.4 48.9V38.2"/><pattern id="SVGID_78_" xlink:href="#Unnamed_Pattern_113" patternTransform="matrix(.6699 0 0 -.6699 363.79 557.65)"/><path class="st78" d="M68.9 48.9V36"/><pattern id="SVGID_79_" xlink:href="#Unnamed_Pattern_113" patternTransform="matrix(.6699 0 0 -.6699 363.79 557.65)"/><path class="st79" d="M75.3 48.9V33.7"/><pattern id="SVGID_80_" xlink:href="#Unnamed_Pattern_113" patternTransform="matrix(.6699 0 0 -.6699 363.79 557.65)"/><path class="st80" d="M81.7 48.9V31.4"/><pattern id="SVGID_81_" xlink:href="#Unnamed_Pattern_113" patternTransform="matrix(.6699 0 0 -.6699 363.79 557.65)"/><path class="st81" d="M64.7 37.4V18.6H53.6v22.7"/><pattern id="SVGID_82_" xlink:href="#Unnamed_Pattern_113" patternTransform="matrix(.6699 0 0 -.6699 363.79 557.65)"/><path class="st82" d="M51.6 23.5h15.2"/><pattern id="SVGID_83_" xlink:href="#Unnamed_Pattern_113" patternTransform="matrix(.6699 0 0 -.6699 363.79 557.65)"/><path class="st83" d="M51.6 30.2h15.2"/><pattern id="SVGID_84_" xlink:href="#Unnamed_Pattern_113" patternTransform="matrix(.6699 0 0 -.6699 363.79 557.65)"/><path class="st84" d="M56.2 23.5v6.7"/><pattern id="SVGID_85_" xlink:href="#Unnamed_Pattern_113" patternTransform="matrix(.6699 0 0 -.6699 363.79 557.65)"/><path class="st85" d="M58.2 23.5v6.7"/><pattern id="SVGID_86_" xlink:href="#Unnamed_Pattern_113" patternTransform="matrix(.6699 0 0 -.6699 363.79 557.65)"/><path class="st86" d="M62.3 23.5v6.7"/><pattern id="SVGID_87_" xlink:href="#Unnamed_Pattern_113" patternTransform="matrix(.6699 0 0 -.6699 363.79 557.65)"/><path class="st87" d="M88.1 57h58.1v23.4"/><pattern id="SVGID_88_" xlink:href="#Unnamed_Pattern_113" patternTransform="matrix(.6699 0 0 -.6699 363.79 557.65)"/><path class="st88" d="M88.1 53.8h60.2"/><pattern id="SVGID_89_" xlink:href="#Unnamed_Pattern_113" patternTransform="matrix(.6699 0 0 -.6699 363.79 557.65)"/><path class="st89" d="M88.1 51.1h60.2"/><pattern id="SVGID_90_" xlink:href="#Unnamed_Pattern_113" patternTransform="matrix(.6699 0 0 -.6699 363.79 557.65)"/><path class="st90" d="M152.9 59.7h-6.7"/><pattern id="SVGID_91_" xlink:href="#Unnamed_Pattern_113" patternTransform="matrix(.6699 0 0 -.6699 363.79 557.65)"/><path class="st91" d="M152.9 74.8h-6.7"/><pattern id="SVGID_92_" xlink:href="#Unnamed_Pattern_113" patternTransform="matrix(.6699 0 0 -.6699 363.79 557.65)"/><path class="st92" d="M158.5 59l-5.6 4.2"/><pattern id="SVGID_93_" xlink:href="#Unnamed_Pattern_113" patternTransform="matrix(.6699 0 0 -.6699 363.79 557.65)"/><path class="st93" d="M158.5 63.1l-5.6 4.1"/><pattern id="SVGID_94_" xlink:href="#Unnamed_Pattern_113" patternTransform="matrix(.6699 0 0 -.6699 363.79 557.65)"/><path class="st94" d="M158.5 67.1l-5.6 4.1"/><pattern id="SVGID_95_" xlink:href="#Unnamed_Pattern_113" patternTransform="matrix(.6699 0 0 -.6699 363.79 557.65)"/><path class="st95" d="M158.5 71.1l-5.6 4.1"/><pattern id="SVGID_96_" xlink:href="#Unnamed_Pattern_113" patternTransform="matrix(.6699 0 0 -.6699 363.79 557.65)"/><path class="st96" d="M126.6 38.6l9.2-10.4 9.9 10.5"/><pattern id="SVGID_97_" xlink:href="#Unnamed_Pattern_113" patternTransform="matrix(.6699 0 0 -.6699 363.79 557.65)"/><path class="st97" d="M130.7 34.1v17h10.6v-17"/><path class="st98" d="M133.6 35.7h4.9v9.2h-4.9z"/><pattern id="SVGID_98_" xlink:href="#Unnamed_Pattern_113" patternTransform="matrix(.6699 0 0 -.6699 363.79 557.65)"/><path class="st99" d="M133.6 35.7h4.9v9.2h-4.9z"/><path class="st98" d="M121.5 37.5L98.1 24.2v26.9h23.4z"/><pattern id="SVGID_99_" xlink:href="#Unnamed_Pattern_113" patternTransform="matrix(.6699 0 0 -.6699 363.79 557.65)"/><path class="st100" d="M121.5 37.5L98.1 24.2v26.9h23.4z"/><pattern id="SVGID_100_" xlink:href="#Unnamed_Pattern_96" patternTransform="matrix(1 0 0 -1 326.796 735.197)"/><path class="st101" d="M116.6 40.5l-4.9-2.8v10.6h4.9z"/><pattern id="SVGID_101_" xlink:href="#Unnamed_Pattern_113" patternTransform="matrix(.6699 0 0 -.6699 367.752 555.15)"/><path class="st102" d="M116.6 40.5l-4.9-2.8v10.6h4.9z"/><pattern id="SVGID_102_" xlink:href="#Unnamed_Pattern_96" patternTransform="matrix(1 0 0 -1 326.796 735.197)"/><path class="st103" d="M103.2 32.8v15.5h4.9V35.6z"/><pattern id="SVGID_103_" xlink:href="#Unnamed_Pattern_113" patternTransform="matrix(.6699 0 0 -.6699 367.752 555.15)"/><path class="st104" d="M103.2 32.8v15.5h4.9V35.6z"/><pattern id="SVGID_104_" xlink:href="#Unnamed_Pattern_113" patternTransform="matrix(.6699 0 0 -.6699 363.79 557.65)"/><path class="st105" d="M91.7 57v12.6"/><pattern id="SVGID_105_" xlink:href="#Unnamed_Pattern_113" patternTransform="matrix(.6699 0 0 -.6699 363.79 557.65)"/><path class="st106" d="M97.4 57v12.6"/><pattern id="SVGID_106_" xlink:href="#Unnamed_Pattern_113" patternTransform="matrix(.6699 0 0 -.6699 363.79 557.65)"/><path class="st107" d="M103 57v12.6"/><pattern id="SVGID_107_" xlink:href="#Unnamed_Pattern_113" patternTransform="matrix(.6699 0 0 -.6699 363.79 557.65)"/><path class="st108" d="M108.7 57v12.6"/><pattern id="SVGID_108_" xlink:href="#Unnamed_Pattern_113" patternTransform="matrix(.6699 0 0 -.6699 363.79 557.65)"/><path class="st109" d="M114.3 57v12.6"/><pattern id="SVGID_109_" xlink:href="#Unnamed_Pattern_113" patternTransform="matrix(.6699 0 0 -.6699 363.79 557.65)"/><path class="st110" d="M120 57v12.6"/><pattern id="SVGID_110_" xlink:href="#Unnamed_Pattern_113" patternTransform="matrix(.6699 0 0 -.6699 363.79 557.65)"/><path class="st111" d="M125.6 57v12.6"/><pattern id="SVGID_111_" xlink:href="#Unnamed_Pattern_113" patternTransform="matrix(.6699 0 0 -.6699 363.79 557.65)"/><path class="st112" d="M131.3 57v12.6"/><pattern id="SVGID_112_" xlink:href="#Unnamed_Pattern_113" patternTransform="matrix(.6699 0 0 -.6699 363.79 557.65)"/><path class="st113" d="M136.9 57v12.6"/><pattern id="SVGID_113_" xlink:href="#Unnamed_Pattern_113" patternTransform="matrix(.6699 0 0 -.6699 363.79 557.65)"/><path class="st114" d="M142.6 57v12.6"/><pattern id="SVGID_114_" xlink:href="#Unnamed_Pattern_113" patternTransform="matrix(.6699 0 0 -.6699 363.79 557.65)"/><path class="st115" d="M46.1 123.3c-1-1.7-2.7-2.8-4.8-2.8-2 0-3.8 1.1-4.8 2.8-1-1.7-2.7-2.8-4.8-2.8s-3.8 1.1-4.8 2.8"/><pattern id="SVGID_115_" xlink:href="#Unnamed_Pattern_113" patternTransform="matrix(.6699 0 0 -.6699 363.79 557.65)"/><path class="st116" d="M146.2 69.6H88.1"/><pattern id="SVGID_116_" xlink:href="#Unnamed_Pattern_110" patternTransform="matrix(1 0 0 -1 326.796 735.197)"/><path class="st117" d="M53.4 16.8c0-3.2 2.6-5.8 5.8-5.8 3.2 0 5.7 2.6 5.7 5.8"/><defs><path id="SVGID_117_" d="M4 3h177.2v136H4z"/></defs><clipPath id="SVGID_118_"><use xlink:href="#SVGID_117_" overflow="visible"/></clipPath><pattern id="SVGID_119_" xlink:href="#Unnamed_Pattern_113" patternTransform="matrix(.6699 0 0 -.6699 367.752 555.15)"/><path class="st118" d="M53.4 16.8c0-3.2 2.6-5.8 5.8-5.8 3.2 0 5.7 2.6 5.7 5.8"/><pattern id="SVGID_120_" xlink:href="#Unnamed_Pattern_113" patternTransform="matrix(.6699 0 0 -.6699 363.79 557.65)"/><path class="st119" d="M71.8 81.3c-33.3 8.8-59 30.5-67.1 57.5"/><defs><path id="SVGID_121_" d="M4 3h177.2v136H4z"/></defs><clipPath id="SVGID_122_"><use xlink:href="#SVGID_121_" overflow="visible"/></clipPath><pattern id="SVGID_123_" xlink:href="#Unnamed_Pattern_113" patternTransform="matrix(.6699 0 0 -.6699 363.79 557.65)"/><path class="st120" d="M51.6 16.8h15.2"/></svg>