<svg id="Layer_1" xmlns="http://www.w3.org/2000/svg" xmlns:xlink="http://www.w3.org/1999/xlink" viewBox="0 0 190 118.8"><style>.st0{fill:none}.st1{fill:#f26f21}.st2{clip-path:url(#SVGID_2_);fill:#fff}.st3{clip-path:url(#SVGID_4_);fill:none;stroke:url(#SVGID_5_);stroke-width:1.698;stroke-linecap:round;stroke-linejoin:round;stroke-miterlimit:10}.st4{clip-path:url(#SVGID_7_);fill:#fff}.st5{clip-path:url(#SVGID_9_);fill:none;stroke:url(#SVGID_10_);stroke-width:1.698;stroke-linecap:round;stroke-linejoin:round;stroke-miterlimit:10}.st6{clip-path:url(#SVGID_12_);fill:#fff}.st7,.st8{fill:none;stroke-width:1.698;stroke-linecap:round;stroke-linejoin:round;stroke-miterlimit:10}.st7{clip-path:url(#SVGID_14_);stroke:url(#SVGID_15_)}.st8{stroke:url(#SVGID_18_)}.st10,.st11,.st8,.st9{clip-path:url(#SVGID_17_)}.st9{stroke:url(#SVGID_19_);stroke-width:1.698;stroke-linecap:round;stroke-linejoin:round;stroke-miterlimit:10;fill:none}.st10{fill:#fff}.st11,.st12{fill:none;stroke:url(#SVGID_20_);stroke-width:1.698;stroke-linecap:round;stroke-linejoin:round;stroke-miterlimit:10}.st12{clip-path:url(#SVGID_22_);stroke:url(#SVGID_23_)}.st13{clip-path:url(#SVGID_25_);fill:#ffd44e}.st14{clip-path:url(#SVGID_27_);fill:none;stroke:url(#SVGID_28_);stroke-width:1.698;stroke-linecap:round;stroke-linejoin:round;stroke-miterlimit:10}.st15{clip-path:url(#SVGID_30_);fill:#fff}.st16{clip-path:url(#SVGID_32_);fill:none;stroke:url(#SVGID_33_);stroke-width:1.698;stroke-linecap:round;stroke-linejoin:round;stroke-miterlimit:10}.st17{fill:#fff}.st17,.st18,.st19{clip-path:url(#SVGID_35_)}.st18{stroke:url(#SVGID_36_);stroke-width:1.698;stroke-linecap:round;stroke-linejoin:round;stroke-miterlimit:10;fill:none}.st19{fill:#ffeb94}.st20,.st21{fill:none;stroke-width:1.698;stroke-linecap:round;stroke-linejoin:round;stroke-miterlimit:10}.st20{clip-path:url(#SVGID_38_);stroke:url(#SVGID_39_)}.st21{stroke:url(#SVGID_42_)}.st21,.st22,.st23{clip-path:url(#SVGID_41_)}.st22{stroke:url(#SVGID_43_);stroke-width:1.698;stroke-linecap:round;stroke-linejoin:round;stroke-miterlimit:10;fill:none}.st23{fill:#fff}.st24{fill:none;stroke:url(#SVGID_44_);stroke-width:1.698;stroke-linecap:round;stroke-linejoin:round;stroke-miterlimit:10}.st24,.st25,.st26{clip-path:url(#SVGID_41_)}.st25{fill:#ffeb94}.st26{stroke:url(#SVGID_45_)}.st26,.st27,.st28{fill:none;stroke-width:1.698;stroke-linecap:round;stroke-linejoin:round;stroke-miterlimit:10}.st27{clip-path:url(#SVGID_41_);stroke:url(#SVGID_46_)}.st28{stroke:url(#SVGID_47_)}.st28,.st29,.st30{clip-path:url(#SVGID_41_)}.st29{stroke:url(#SVGID_48_);stroke-width:1.698;stroke-linecap:round;stroke-linejoin:round;stroke-miterlimit:10;fill:none}.st30{fill:#ffd44e}.st31{clip-path:url(#SVGID_50_);stroke:url(#SVGID_51_)}.st31,.st32,.st33{fill:none;stroke-width:1.698;stroke-linecap:round;stroke-linejoin:round;stroke-miterlimit:10}.st32{clip-path:url(#SVGID_53_);stroke:url(#SVGID_54_)}.st33{stroke:url(#SVGID_55_)}.st33,.st34,.st35{clip-path:url(#SVGID_53_)}.st34{stroke:url(#SVGID_56_);stroke-width:1.698;stroke-linecap:round;stroke-linejoin:round;stroke-miterlimit:10;fill:none}.st35{fill:#fff}.st36,.st37{fill:none;stroke-width:1.698;stroke-linecap:round;stroke-linejoin:round;stroke-miterlimit:10}.st36{clip-path:url(#SVGID_53_);stroke:url(#SVGID_57_)}.st37{stroke:url(#SVGID_58_)}.st37,.st38,.st39{clip-path:url(#SVGID_53_)}.st38{stroke:url(#SVGID_59_);stroke-width:1.698;stroke-linecap:round;stroke-linejoin:round;stroke-miterlimit:10;fill:none}.st39{fill:#ffeb94}.st40{clip-path:url(#SVGID_61_);fill:none;stroke:url(#SVGID_62_);stroke-width:1.698;stroke-linecap:round;stroke-linejoin:round;stroke-miterlimit:10}.st41{clip-path:url(#SVGID_64_);fill:#ffeb94}.st42{clip-path:url(#SVGID_66_);fill:none;stroke:url(#SVGID_67_);stroke-width:1.698;stroke-linecap:round;stroke-linejoin:round;stroke-miterlimit:10}.st43,.st44,.st45{clip-path:url(#SVGID_69_);fill:#fff}.st44,.st45{fill:none;stroke:url(#SVGID_70_);stroke-width:1.698;stroke-linecap:round;stroke-linejoin:round;stroke-miterlimit:10}.st45{clip-path:url(#SVGID_72_);stroke:url(#SVGID_73_)}.st46{clip-path:url(#SVGID_75_);fill:#fff}.st47{clip-path:url(#SVGID_77_);fill:none;stroke:url(#SVGID_78_);stroke-width:1.698;stroke-linecap:round;stroke-linejoin:round;stroke-miterlimit:10}.st48{clip-path:url(#SVGID_80_);fill:#fff}.st49{clip-path:url(#SVGID_82_);fill:none;stroke:url(#SVGID_83_);stroke-width:1.698;stroke-linecap:round;stroke-linejoin:round;stroke-miterlimit:10}.st50{clip-path:url(#SVGID_85_);fill:#fff}.st51{clip-path:url(#SVGID_87_);fill:none;stroke:url(#SVGID_88_);stroke-width:1.698;stroke-linecap:round;stroke-linejoin:round;stroke-miterlimit:10}.st52{clip-path:url(#SVGID_90_);fill:#fff}.st53,.st54{fill:none;stroke-width:1.698;stroke-linecap:round;stroke-linejoin:round;stroke-miterlimit:10}.st53{clip-path:url(#SVGID_90_);stroke:url(#SVGID_91_)}.st54{stroke:url(#SVGID_92_)}.st54,.st55,.st56{clip-path:url(#SVGID_90_)}.st55{stroke:url(#SVGID_93_);stroke-width:1.698;stroke-linecap:round;stroke-linejoin:round;stroke-miterlimit:10;fill:none}.st56{fill:#ffeb94}.st57,.st58{clip-path:url(#SVGID_95_);fill:none;stroke:url(#SVGID_96_);stroke-width:1.698;stroke-linecap:round;stroke-linejoin:round;stroke-miterlimit:10}.st58{stroke:url(#SVGID_97_)}.st59{clip-path:url(#SVGID_99_);fill:#ffeb94}.st60{stroke:url(#SVGID_102_)}.st60,.st61,.st62{clip-path:url(#SVGID_101_);fill:none;stroke-width:1.698;stroke-linecap:round;stroke-linejoin:round;stroke-miterlimit:10}.st61{stroke:url(#SVGID_103_)}.st62{stroke:url(#SVGID_104_)}.st63,.st64{clip-path:url(#SVGID_106_)}.st63{fill:#fff}.st64{stroke:url(#SVGID_107_)}.st64,.st65,.st66,.st67,.st68{fill:none;stroke-width:1.698;stroke-linecap:round;stroke-linejoin:round;stroke-miterlimit:10}.st65{stroke:url(#SVGID_110_)}.st65,.st66,.st67,.st68{clip-path:url(#SVGID_109_)}.st66{stroke:url(#SVGID_111_)}.st67{stroke:url(#SVGID_112_)}.st68{stroke:url(#SVGID_113_)}</style><pattern x="-193" y="-120.6" width="28.8" height="28.8" patternUnits="userSpaceOnUse" id="Unnamed_Pattern_45" viewBox="0 -28.8 28.8 28.8" overflow="visible"><path class="st0" d="M0-28.8h28.8V0H0z"/><path class="st1" d="M0-28.8h28.8V0H0z"/></pattern><defs><path id="SVGID_1_" d="M5 6.1h179.9v106.2H5z"/></defs><clipPath id="SVGID_2_"><use xlink:href="#SVGID_1_" overflow="visible"/></clipPath><path class="st2" d="M5.8 110.5C9.9 100 20 92.7 31.9 92.7c11.6 0 21.5 7 25.7 17.1"/><defs><path id="SVGID_3_" d="M5 6.1h179.9v106.2H5z"/></defs><clipPath id="SVGID_4_"><use xlink:href="#SVGID_3_" overflow="visible"/></clipPath><pattern id="SVGID_5_" xlink:href="#Unnamed_Pattern_45" patternTransform="matrix(1.5511 0 0 -1.5511 276.394 1011.769)"/><path class="st3" d="M5.8 110.5C9.9 100 20 92.7 31.9 92.7c11.6 0 21.5 7 25.7 17.1"/><defs><path id="SVGID_6_" d="M5 6.1h179.9v106.2H5z"/></defs><clipPath id="SVGID_7_"><use xlink:href="#SVGID_6_" overflow="visible"/></clipPath><path class="st4" d="M67.6 110.5c4.1-10.4 14.2-17.8 26-17.8 11.6 0 21.5 7 25.7 17.1"/><defs><path id="SVGID_8_" d="M5 6.1h179.9v106.2H5z"/></defs><clipPath id="SVGID_9_"><use xlink:href="#SVGID_8_" overflow="visible"/></clipPath><pattern id="SVGID_10_" xlink:href="#Unnamed_Pattern_45" patternTransform="matrix(1.5511 0 0 -1.5511 276.394 1011.769)"/><path class="st5" d="M67.6 110.5c4.1-10.4 14.2-17.8 26-17.8 11.6 0 21.5 7 25.7 17.1"/><defs><path id="SVGID_11_" d="M5 6.1h179.9v106.2H5z"/></defs><clipPath id="SVGID_12_"><use xlink:href="#SVGID_11_" overflow="visible"/></clipPath><path class="st6" d="M129.4 110.5c4.1-10.4 14.2-17.8 26-17.8 11.6 0 21.5 7 25.7 17.1"/><defs><path id="SVGID_13_" d="M5 6.1h179.9v106.2H5z"/></defs><clipPath id="SVGID_14_"><use xlink:href="#SVGID_13_" overflow="visible"/></clipPath><pattern id="SVGID_15_" xlink:href="#Unnamed_Pattern_45" patternTransform="matrix(1.5511 0 0 -1.5511 276.394 1011.769)"/><path class="st7" d="M129.4 110.5c4.1-10.4 14.2-17.8 26-17.8 11.6 0 21.5 7 25.7 17.1"/><defs><path id="SVGID_16_" d="M5 6.1h179.9v106.2H5z"/></defs><clipPath id="SVGID_17_"><use xlink:href="#SVGID_16_" overflow="visible"/></clipPath><pattern id="SVGID_18_" xlink:href="#Unnamed_Pattern_45" patternTransform="matrix(1.5511 0 0 -1.5511 276.394 1011.769)"/><path class="st8" d="M99.1 56.9c4.1-10.4 14.2-17.8 26-17.8 11.6 0 21.5 7 25.7 17.1"/><pattern id="SVGID_19_" xlink:href="#Unnamed_Pattern_45" patternTransform="matrix(1.5511 0 0 -1.5511 276.394 1011.769)"/><path class="st9" d="M33.9 56.9c4.1-10.4 14.2-17.8 26-17.8 11.6 0 22.3 8.9 26.6 18.9"/><path class="st10" d="M62.5 70.1l-2.7 2.3-2.8-2.3v-39h5.5z"/><pattern id="SVGID_20_" xlink:href="#Unnamed_Pattern_45" patternTransform="matrix(1.5511 0 0 -1.5511 276.394 1011.769)"/><path class="st11" d="M62.5 70.1l-2.7 2.3-2.8-2.3v-39h5.5z"/><path class="st10" d="M53.9 78.7c0 12.1-9.8 21.9-21.9 21.9-12.1 0-21.9-9.8-21.9-21.9 0-12.1 9.8-21.9 21.9-21.9 12.1 0 21.9 9.8 21.9 21.9"/><defs><path id="SVGID_21_" d="M5 6.1h179.9v106.2H5z"/></defs><clipPath id="SVGID_22_"><use xlink:href="#SVGID_21_" overflow="visible"/></clipPath><pattern id="SVGID_23_" xlink:href="#Unnamed_Pattern_45" patternTransform="matrix(1.5511 0 0 -1.5511 276.394 1011.769)"/><circle class="st12" cx="32" cy="78.7" r="21.9"/><defs><path id="SVGID_24_" d="M5 6.1h179.9v106.2H5z"/></defs><clipPath id="SVGID_25_"><use xlink:href="#SVGID_24_" overflow="visible"/></clipPath><path class="st13" d="M81.7 31.1c0 12.1-9.8 21.9-21.9 21.9s-21.9-9.8-21.9-21.9c0-12.1 9.8-21.9 21.9-21.9S81.7 19 81.7 31.1"/><defs><path id="SVGID_26_" d="M5 6.1h179.9v106.2H5z"/></defs><clipPath id="SVGID_27_"><use xlink:href="#SVGID_26_" overflow="visible"/></clipPath><pattern id="SVGID_28_" xlink:href="#Unnamed_Pattern_45" patternTransform="matrix(1.5511 0 0 -1.5511 276.394 1011.769)"/><circle class="st14" cx="59.8" cy="31.1" r="21.9"/><defs><path id="SVGID_29_" d="M5 6.1h179.9v106.2H5z"/></defs><clipPath id="SVGID_30_"><use xlink:href="#SVGID_29_" overflow="visible"/></clipPath><path class="st15" d="M146.9 31.1c0 12.1-9.8 21.9-21.9 21.9-12.1 0-21.9-9.8-21.9-21.9 0-12.1 9.8-21.9 21.9-21.9 12.1 0 21.9 9.8 21.9 21.9"/><defs><path id="SVGID_31_" d="M5 6.1h179.9v106.2H5z"/></defs><clipPath id="SVGID_32_"><use xlink:href="#SVGID_31_" overflow="visible"/></clipPath><pattern id="SVGID_33_" xlink:href="#Unnamed_Pattern_45" patternTransform="matrix(1.5511 0 0 -1.5511 276.394 1011.769)"/><circle class="st16" cx="125" cy="31.1" r="21.9"/><defs><path id="SVGID_34_" d="M5 6.1h179.9v106.2H5z"/></defs><clipPath id="SVGID_35_"><use xlink:href="#SVGID_34_" overflow="visible"/></clipPath><path class="st17" d="M115.4 78.7c0 12.1-9.8 21.9-21.9 21.9-12.1 0-21.9-9.8-21.9-21.9 0-12.1 9.8-21.9 21.9-21.9 12.1 0 21.9 9.8 21.9 21.9"/><pattern id="SVGID_36_" xlink:href="#Unnamed_Pattern_45" patternTransform="matrix(1.5511 0 0 -1.5511 276.394 1011.769)"/><circle class="st18" cx="93.5" cy="78.7" r="21.9"/><path class="st19" d="M176.7 78.7c0 12.1-9.8 21.9-21.9 21.9-12.1 0-21.9-9.8-21.9-21.9 0-11.1 8.3-20.3 19-21.7.9-.1 1.9-.2 2.9-.2 12.1 0 21.9 9.8 21.9 21.9"/><defs><path id="SVGID_37_" d="M5 6.1h179.9v106.2H5z"/></defs><clipPath id="SVGID_38_"><use xlink:href="#SVGID_37_" overflow="visible"/></clipPath><pattern id="SVGID_39_" xlink:href="#Unnamed_Pattern_45" patternTransform="matrix(1.5511 0 0 -1.5511 276.394 1011.769)"/><path class="st20" d="M176.7 78.7c0 12.1-9.8 21.9-21.9 21.9-12.1 0-21.9-9.8-21.9-21.9 0-11.1 8.3-20.3 19-21.7.9-.1 1.9-.2 2.9-.2 12.1 0 21.9 9.8 21.9 21.9z"/><defs><path id="SVGID_40_" d="M5 6.1h179.9v106.2H5z"/></defs><clipPath id="SVGID_41_"><use xlink:href="#SVGID_40_" overflow="visible"/></clipPath><pattern id="SVGID_42_" xlink:href="#Unnamed_Pattern_45" patternTransform="matrix(1.5511 0 0 -1.5511 276.394 1011.769)"/><path class="st21" d="M32 66.9v17.5"/><pattern id="SVGID_43_" xlink:href="#Unnamed_Pattern_45" patternTransform="matrix(1.5511 0 0 -1.5511 276.394 1011.769)"/><path class="st22" d="M28.3 84.4h7.4"/><path class="st23" d="M56.1 35h7.4"/><pattern id="SVGID_44_" xlink:href="#Unnamed_Pattern_45" patternTransform="matrix(1.5511 0 0 -1.5511 276.394 1011.769)"/><path class="st24" d="M56.1 35h7.4"/><path class="st25" d="M68.5 69.4h21.1v11.9H68.5z"/><pattern id="SVGID_45_" xlink:href="#Unnamed_Pattern_45" patternTransform="matrix(1.5511 0 0 -1.5511 276.394 1011.769)"/><path class="st26" d="M68.5 69.4h21.1v11.9H68.5z"/><path class="st25" d="M97.4 69.4h21.1v11.9H97.4z"/><pattern id="SVGID_46_" xlink:href="#Unnamed_Pattern_45" patternTransform="matrix(1.5511 0 0 -1.5511 276.394 1011.769)"/><path class="st27" d="M97.4 69.4h21.1v11.9H97.4z"/><path class="st23" d="M89.6 75.4h7.8"/><pattern id="SVGID_47_" xlink:href="#Unnamed_Pattern_45" patternTransform="matrix(1.5511 0 0 -1.5511 276.394 1011.769)"/><path class="st28" d="M89.6 75.4h7.8"/><pattern id="SVGID_48_" xlink:href="#Unnamed_Pattern_45" patternTransform="matrix(1.5511 0 0 -1.5511 276.394 1011.769)"/><path class="st29" d="M151.4 77.7c0 2.5-2 4.5-4.5 4.5s-4.5-2-4.5-4.5"/><path class="st30" d="M103.6 95.9c0 5.6-4.5 10.1-10.1 10.1s-10.1-4.5-10.1-10.1 4.5-10.1 10.1-10.1c5.6.1 10.1 4.6 10.1 10.1"/><defs><path id="SVGID_49_" d="M5 6.1h179.9v106.2H5z"/></defs><clipPath id="SVGID_50_"><use xlink:href="#SVGID_49_" overflow="visible"/></clipPath><pattern id="SVGID_51_" xlink:href="#Unnamed_Pattern_45" patternTransform="matrix(1.5511 0 0 -1.5511 276.394 1011.769)"/><circle class="st31" cx="93.5" cy="95.9" r="10.1"/><defs><path id="SVGID_52_" d="M5 6.1h179.9v106.2H5z"/></defs><clipPath id="SVGID_53_"><use xlink:href="#SVGID_52_" overflow="visible"/></clipPath><pattern id="SVGID_54_" xlink:href="#Unnamed_Pattern_45" patternTransform="matrix(1.5511 0 0 -1.5511 276.394 1011.769)"/><path class="st32" d="M98 92.5c0 2.5-2 4.5-4.5 4.5S89 95 89 92.5"/><pattern id="SVGID_55_" xlink:href="#Unnamed_Pattern_45" patternTransform="matrix(1.5511 0 0 -1.5511 276.394 1011.769)"/><path class="st33" d="M159.8 90.3c0 2.5-2 4.5-4.5 4.5s-4.5-2-4.5-4.5"/><pattern id="SVGID_56_" xlink:href="#Unnamed_Pattern_45" patternTransform="matrix(1.5511 0 0 -1.5511 276.394 1011.769)"/><path class="st34" d="M36.5 90.3c0 2.5-2 4.5-4.5 4.5s-4.5-2-4.5-4.5"/><path class="st35" d="M130.1 40.2c0 2.5-2 4.5-4.5 4.5s-4.5-2-4.5-4.5"/><pattern id="SVGID_57_" xlink:href="#Unnamed_Pattern_45" patternTransform="matrix(1.5511 0 0 -1.5511 276.394 1011.769)"/><path class="st36" d="M130.1 40.2c0 2.5-2 4.5-4.5 4.5s-4.5-2-4.5-4.5"/><pattern id="SVGID_58_" xlink:href="#Unnamed_Pattern_45" patternTransform="matrix(1.5511 0 0 -1.5511 276.394 1011.769)"/><path class="st37" d="M64.3 40.2c0 2.5-2 4.5-4.5 4.5s-4.5-2-4.5-4.5"/><pattern id="SVGID_59_" xlink:href="#Unnamed_Pattern_45" patternTransform="matrix(1.5511 0 0 -1.5511 276.394 1011.769)"/><path class="st38" d="M167.3 77.7c0 2.5-2 4.5-4.5 4.5s-4.5-2-4.5-4.5"/><path class="st39" d="M24.4 102.9l7.5 4.3-7.5 4.3z"/><defs><path id="SVGID_60_" d="M5 6.1h179.9v106.2H5z"/></defs><clipPath id="SVGID_61_"><use xlink:href="#SVGID_60_" overflow="visible"/></clipPath><pattern id="SVGID_62_" xlink:href="#Unnamed_Pattern_45" patternTransform="matrix(1.5511 0 0 -1.5511 276.394 1011.769)"/><path class="st40" d="M24.4 102.9l7.5 4.3-7.5 4.3z"/><defs><path id="SVGID_63_" d="M5 6.1h179.9v106.2H5z"/></defs><clipPath id="SVGID_64_"><use xlink:href="#SVGID_63_" overflow="visible"/></clipPath><path class="st41" d="M39.5 111.5l-7.5-4.3 7.5-4.3z"/><defs><path id="SVGID_65_" d="M5 6.1h179.9v106.2H5z"/></defs><clipPath id="SVGID_66_"><use xlink:href="#SVGID_65_" overflow="visible"/></clipPath><pattern id="SVGID_67_" xlink:href="#Unnamed_Pattern_45" patternTransform="matrix(1.5511 0 0 -1.5511 276.394 1011.769)"/><path class="st42" d="M39.5 111.5l-7.5-4.3 7.5-4.3z"/><defs><path id="SVGID_68_" d="M5 6.1h179.9v106.2H5z"/></defs><clipPath id="SVGID_69_"><use xlink:href="#SVGID_68_" overflow="visible"/></clipPath><path class="st43" d="M59.8 25.7V35"/><pattern id="SVGID_70_" xlink:href="#Unnamed_Pattern_45" patternTransform="matrix(1.5511 0 0 -1.5511 276.394 1011.769)"/><path class="st44" d="M59.8 25.7V35"/><path class="st43" d="M66.1 14.6c1-1.9 2.1-3.9 3.5-5.9"/><defs><path id="SVGID_71_" d="M5 6.1h179.9v106.2H5z"/></defs><clipPath id="SVGID_72_"><use xlink:href="#SVGID_71_" overflow="visible"/></clipPath><pattern id="SVGID_73_" xlink:href="#Unnamed_Pattern_45" patternTransform="matrix(1.5511 0 0 -1.5511 276.394 1011.769)"/><path class="st45" d="M66.1 14.6c1-1.9 2.1-3.9 3.5-5.9"/><defs><path id="SVGID_74_" d="M5 6.1h179.9v106.2H5z"/></defs><clipPath id="SVGID_75_"><use xlink:href="#SVGID_74_" overflow="visible"/></clipPath><path class="st46" d="M62 14.6c1.2-2.2 2.6-4.6 4.3-7"/><defs><path id="SVGID_76_" d="M5 6.1h179.9v106.2H5z"/></defs><clipPath id="SVGID_77_"><use xlink:href="#SVGID_76_" overflow="visible"/></clipPath><pattern id="SVGID_78_" xlink:href="#Unnamed_Pattern_45" patternTransform="matrix(1.5511 0 0 -1.5511 276.394 1011.769)"/><path class="st47" d="M62 14.6c1.2-2.2 2.6-4.6 4.3-7"/><defs><path id="SVGID_79_" d="M5 6.1h179.9v106.2H5z"/></defs><clipPath id="SVGID_80_"><use xlink:href="#SVGID_79_" overflow="visible"/></clipPath><path class="st48" d="M57.5 14.6c1.3-2.4 2.8-5 4.8-7.7"/><defs><path id="SVGID_81_" d="M5 6.1h179.9v106.2H5z"/></defs><clipPath id="SVGID_82_"><use xlink:href="#SVGID_81_" overflow="visible"/></clipPath><pattern id="SVGID_83_" xlink:href="#Unnamed_Pattern_45" patternTransform="matrix(1.5511 0 0 -1.5511 276.394 1011.769)"/><path class="st49" d="M57.5 14.6c1.3-2.4 2.8-5 4.8-7.7"/><defs><path id="SVGID_84_" d="M5 6.1h179.9v106.2H5z"/></defs><clipPath id="SVGID_85_"><use xlink:href="#SVGID_84_" overflow="visible"/></clipPath><path class="st50" d="M53 14.6c1.2-2.4 2.8-4.9 4.7-7.5"/><defs><path id="SVGID_86_" d="M5 6.1h179.9v106.2H5z"/></defs><clipPath id="SVGID_87_"><use xlink:href="#SVGID_86_" overflow="visible"/></clipPath><pattern id="SVGID_88_" xlink:href="#Unnamed_Pattern_45" patternTransform="matrix(1.5511 0 0 -1.5511 276.394 1011.769)"/><path class="st51" d="M53 14.6c1.2-2.4 2.8-4.9 4.7-7.5"/><defs><path id="SVGID_89_" d="M5 6.1h179.9v106.2H5z"/></defs><clipPath id="SVGID_90_"><use xlink:href="#SVGID_89_" overflow="visible"/></clipPath><path class="st52" d="M57.5 25.7c0 2.3-2.7 4.2-6 4.2s-6-1.9-6-4.2c0-2.3 2.7-4.2 6-4.2s6 1.9 6 4.2"/><pattern id="SVGID_91_" xlink:href="#Unnamed_Pattern_45" patternTransform="matrix(1.5511 0 0 -1.5511 276.394 1011.769)"/><ellipse class="st53" cx="51.5" cy="25.7" rx="6" ry="4.2"/><path class="st52" d="M74 25.7c0 2.3-2.7 4.2-6 4.2s-6-1.9-6-4.2c0-2.3 2.7-4.2 6-4.2 3.4 0 6 1.9 6 4.2"/><pattern id="SVGID_92_" xlink:href="#Unnamed_Pattern_45" patternTransform="matrix(1.5511 0 0 -1.5511 276.394 1011.769)"/><ellipse class="st54" cx="68" cy="25.7" rx="6" ry="4.2"/><path class="st52" d="M57.5 25.7H62"/><pattern id="SVGID_93_" xlink:href="#Unnamed_Pattern_45" patternTransform="matrix(1.5511 0 0 -1.5511 276.394 1011.769)"/><path class="st55" d="M57.5 25.7H62"/><path class="st56" d="M14.7 66s13.8 2.8 19.6.5c5.7-2.3 10.2-5.8 9.2-6.3-1-.6-8.3-3.1-8.3-3.1l-9.3.6-7.8 4.1-3.4 3V66z"/><defs><path id="SVGID_94_" d="M5 6.1h179.9v106.2H5z"/></defs><clipPath id="SVGID_95_"><use xlink:href="#SVGID_94_" overflow="visible"/></clipPath><pattern id="SVGID_96_" xlink:href="#Unnamed_Pattern_45" patternTransform="matrix(1.5511 0 0 -1.5511 276.394 1011.769)"/><path class="st57" d="M42.6 60.4c0 3.8-7.5 7-16.7 7s-16.7-3.1-16.7-7"/><pattern id="SVGID_97_" xlink:href="#Unnamed_Pattern_45" patternTransform="matrix(1.5511 0 0 -1.5511 276.394 1011.769)"/><circle class="st58" cx="32" cy="78.7" r="21.9"/><defs><path id="SVGID_98_" d="M5 6.1h179.9v106.2H5z"/></defs><clipPath id="SVGID_99_"><use xlink:href="#SVGID_98_" overflow="visible"/></clipPath><path class="st59" d="M104.6 37.3l7.6-1.2 7.2-5.6 3.9-6.3 2.2-7.3V9.2l-7.1 1.4-6.7 3-4.6 4.9-3.3 6.9-.7 5.7z"/><path class="st59" d="M146.4 37.3l-7.3-1.9-7.4-4.9-4-6.3-2.2-7.3.1-5.2-.1-2.5 7.2 1.4 6.6 3 4.5 5.1 2.9 7 .7 5.4z"/><defs><path id="SVGID_100_" d="M5 6.1h179.9v106.2H5z"/></defs><clipPath id="SVGID_101_"><use xlink:href="#SVGID_100_" overflow="visible"/></clipPath><pattern id="SVGID_102_" xlink:href="#Unnamed_Pattern_45" patternTransform="matrix(1.5511 0 0 -1.5511 276.394 1011.769)"/><path class="st60" d="M155.6 34.5c-2.6 1.3-5.5 2-8.6 2-11.4 0-20.8-10.1-21.5-22.9V12"/><pattern id="SVGID_103_" xlink:href="#Unnamed_Pattern_45" patternTransform="matrix(1.5511 0 0 -1.5511 276.394 1011.769)"/><path class="st61" d="M95.5 35.9c2.6 1.3 5.5 2 8.6 2 11.9 0 21.5-11 21.5-24.5 0-.9 0-1.9-.1-2.8"/><pattern id="SVGID_104_" xlink:href="#Unnamed_Pattern_45" patternTransform="matrix(1.5511 0 0 -1.5511 276.394 1011.769)"/><circle class="st62" cx="125" cy="31.1" r="21.9"/><g><defs><path id="SVGID_105_" d="M5 6.1h179.9v106.2H5z"/></defs><clipPath id="SVGID_106_"><use xlink:href="#SVGID_105_" overflow="visible"/></clipPath><path class="st63" d="M133.6 73.2l3.8.5 6.4-.6 6.5-3.7 2.6-3 1.9-2.7 2.3 4.4 5.1 3.9 5.7 1.7h4.7l3.2-1.1-1.5-3.9-2.4-3.7-3.1-3.1-3.1-2.2-4.5-1.7-4.3-1.1-5.8.2-5.1 1.5-3.6 2.1-3.4 2.9-3.4 4.5-1.5 2.5z"/><pattern id="SVGID_107_" xlink:href="#Unnamed_Pattern_45" patternTransform="matrix(1.5511 0 0 -1.5511 276.394 1011.769)"/><path class="st64" d="M173.8 67.9c-.7.2 0 0-.8.1-.7.1-1.4.1-2.2.1-7.5 0-14-4.2-15.8-9.9"/></g><g><defs><path id="SVGID_108_" d="M5 6.1h179.9v106.2H5z"/></defs><clipPath id="SVGID_109_"><use xlink:href="#SVGID_108_" overflow="visible"/></clipPath><pattern id="SVGID_110_" xlink:href="#Unnamed_Pattern_45" patternTransform="matrix(1.5511 0 0 -1.5511 276.394 1011.769)"/><path class="st65" d="M135.9 68.1h2.9c6.5 0 12.1-3.2 14.6-7.7.4-.8.9-1.3 1.2-2.2"/><pattern id="SVGID_111_" xlink:href="#Unnamed_Pattern_45" patternTransform="matrix(1.5511 0 0 -1.5511 276.394 1011.769)"/><path class="st66" d="M184.1 68s-3.3 4.8-11.1 5.7c-.7.1-1.4.1-2.2.1-8.8 0-16-5.9-16-13.1 0-.8.1-1.6.3-2.4"/><pattern id="SVGID_112_" xlink:href="#Unnamed_Pattern_45" patternTransform="matrix(1.5511 0 0 -1.5511 276.394 1011.769)"/><path class="st67" d="M125.5 68s3.3 4.8 11.1 5.7c.7.1 1.4.1 2.2.1 8.8 0 16-5.9 16-13.1 0-.8-.1-1.6-.3-2.4"/><pattern id="SVGID_113_" xlink:href="#Unnamed_Pattern_45" patternTransform="matrix(1.5511 0 0 -1.5511 276.394 1011.769)"/><path class="st68" d="M176.7 78.7c0 12.1-9.8 21.9-21.9 21.9-12.1 0-21.9-9.8-21.9-21.9 0-11.1 8.3-20.3 19-21.7.9-.1 1.9-.2 2.9-.2 12.1 0 21.9 9.8 21.9 21.9z"/></g></svg>