<svg id="Layer_1" data-name="Layer 1" xmlns="http://www.w3.org/2000/svg" viewBox="0 0 200 200"><defs><style>.cls-1{fill:none}.cls-2{clip-path:url(#clip-path)}.cls-3{fill:#543b8b}</style><clipPath id="clip-path"><path class="cls-1" d="M24.36 0h151.281v200H24.36z"/></clipPath></defs><title>icon-awards</title><g class="cls-2"><path class="cls-3" d="M100 37.447a36.479 36.479 0 1 0 35.367 27.488 36.448 36.448 0 0 0-35.368-27.488m0 81.177a44.69 44.69 0 1 1 44.688-44.685A44.735 44.735 0 0 1 100 118.624m-60.292-15.647l13.207 3.56a6.679 6.679 0 0 1 2.608 1.401 4.114 4.114 0 0 1 1.4 3.084v79.535l39.612-20.5a7.533 7.533 0 0 1 6.937 0l39.61 20.5v-79.535a4.111 4.111 0 0 1 1.396-3.084 6.695 6.695 0 0 1 2.587-1.396l13.231-3.562-5.442-12.548a6.508 6.508 0 0 1 1.724-7.54l10.343-8.953-10.35-8.956a6.506 6.506 0 0 1-1.717-7.533l5.442-12.548-13.21-3.56a6.493 6.493 0 0 1-4.82-6.064l-.544-13.656-13.448 2.506a6.518 6.518 0 0 1-6.968-3.36l-6.41-12.076-11.027 8.11a6.504 6.504 0 0 1-7.734.004L85.108 8.692 78.69 20.77a6.456 6.456 0 0 1-6.962 3.354L58.28 21.621l-.545 13.677a6.5 6.5 0 0 1-4.816 6.044l-13.213 3.556 5.442 12.548a6.517 6.517 0 0 1-1.724 7.54l-10.343 8.952 10.35 8.957a6.515 6.515 0 0 1 1.717 7.533zm15.283 97.02a6.291 6.291 0 0 1-6.264-6.278v-79.824l-12.284-3.312a7.18 7.18 0 0 1-4.717-9.796l5.415-12.494-10.3-8.917a7.2 7.2 0 0 1 0-10.873l10.3-8.917-5.418-12.5a7.182 7.182 0 0 1 4.72-9.793l13.16-3.544.538-13.613a7.186 7.186 0 0 1 8.499-6.781l13.388 2.49 6.396-12.03a7.18 7.18 0 0 1 10.605-2.413L100 9.477l10.978-8.075a7.173 7.173 0 0 1 10.6 2.413l6.395 12.034 13.39-2.494a7.178 7.178 0 0 1 8.497 6.781l.544 13.613 13.156 3.547a7.176 7.176 0 0 1 4.715 9.796l-5.413 12.494 10.298 8.917a7.195 7.195 0 0 1 0 10.873l-10.298 8.917 5.419 12.5a7.182 7.182 0 0 1-4.72 9.793l-12.287 3.309v79.824a6.267 6.267 0 0 1-9.149 5.568L100 177.487l-42.124 21.8a6.226 6.226 0 0 1-2.885.71"/><path class="cls-3" d="M99.403 87.773a8.144 8.144 0 0 1 3.441.761l7.985 3.704-.683-8.78a8.24 8.24 0 0 1 2.16-6.197l5.996-6.45-8.562-2.064a8.019 8.019 0 0 1-3.295-1.666 8.137 8.137 0 0 1-1.916-2.275l-4.3-7.716-4.608 7.5a8.064 8.064 0 0 1-3.264 2.99 7.933 7.933 0 0 1-2.14.755l-8.625 1.697 5.713 6.703h.006a8.195 8.195 0 0 1 1.887 6.288l-1.05 8.736 8.14-3.366a8.121 8.121 0 0 1 3.114-.62m13.71 13.926a6.254 6.254 0 0 1-2.614-.58l-11.102-5.154-11.29 4.675a6.186 6.186 0 0 1-8.505-6.462l1.462-12.136-7.927-9.305a6.177 6.177 0 0 1 3.516-10.082l12.001-2.361 6.393-10.419a5.882 5.882 0 0 1 5.397-2.945 6.124 6.124 0 0 1 5.274 3.174l5.954 10.692 11.887 2.855a6.186 6.186 0 0 1 3.083 10.223l-8.327 8.965.953 12.184a6.201 6.201 0 0 1-6.155 6.676"/></g></svg>