<svg id="Layer_1" data-name="Layer 1" xmlns="http://www.w3.org/2000/svg" viewBox="0 0 200 200"><defs><style>.cls-1{fill:none}.cls-2{clip-path:url(#clip-path)}.cls-3{fill:#007bb4}</style><clipPath id="clip-path"><path class="cls-1" d="M0 33.971h200v132.058H0z"/></clipPath></defs><title>icon-engage</title><g class="cls-2"><path class="cls-3" d="M164.142 166.029l-12.752-27.126a89.886 89.886 0 0 1-12.428.878c-33.657 0-61.043-18.351-61.043-40.908s27.386-40.903 61.043-40.903C172.613 57.97 200 76.316 200 98.873c0 11.078-6.362 21.359-17.944 29.055zm-8.01-36.15l8.01 17.045 11.55-24.578.992-.629c9.793-6.216 15.186-14.33 15.186-22.844 0-18.075-23.739-32.774-52.908-32.774-29.174 0-52.913 14.699-52.913 32.774s23.739 32.778 52.913 32.778a82.978 82.978 0 0 0 14.119-1.24z"/><path class="cls-3" d="M35.857 142.031l-17.918-38.1C6.363 96.233 0 85.952 0 74.874c0-22.557 27.386-40.903 61.037-40.903 33.657 0 61.043 18.346 61.043 40.903 0 25.289-34.751 45.39-73.47 40.03zm25.18-99.93c-29.169 0-52.907 14.7-52.907 32.774 0 8.515 5.387 16.628 15.18 22.844l.992.63 11.555 24.578 8.01-17.045 3.052.53a82.979 82.979 0 0 0 14.118 1.242c29.175 0 52.913-14.704 52.913-32.779S90.212 42.102 61.037 42.102"/></g></svg>