<?xml version="1.0" standalone="no"?>
<!DOCTYPE svg PUBLIC "-//W3C//DTD SVG 20010904//EN"
 "http://www.w3.org/TR/2001/REC-SVG-20010904/DTD/svg10.dtd">
<svg version="1.0" xmlns="http://www.w3.org/2000/svg"
 width="16.000000pt" height="16.000000pt" viewBox="0 0 16.000000 16.000000"
 preserveAspectRatio="xMidYMid meet">
<metadata>
Created by potrace 1.11, written by Peter Selinger 2001-2013
</metadata>
<g transform="translate(0.000000,16.000000) scale(0.002286,-0.002286)"
fill="#000000" stroke="none">
<path d="M4396 5113 c-1 -1 -40 -5 -86 -8 -47 -3 -103 -8 -125 -11 -22 -3 -49
-7 -60 -9 -11 -1 -33 -5 -50 -8 -16 -4 -45 -9 -63 -12 -292 -48 -774 -247
-1107 -459 -27 -17 -57 -35 -66 -41 -132 -77 -535 -383 -689 -525 -9 -8 -59
-53 -111 -100 -215 -193 -485 -477 -650 -686 -90 -114 -169 -212 -174 -218
-12 -12 -307 -385 -343 -433 -12 -16 -33 -43 -46 -59 -19 -23 -129 -164 -309
-394 -7 -9 -28 -36 -48 -60 -20 -25 -60 -76 -89 -115 -29 -38 -57 -75 -62 -82
-7 -9 181 -12 799 -12 l808 0 45 87 c56 109 184 334 220 387 15 22 29 47 32
55 16 44 385 572 477 683 10 12 64 76 118 142 238 286 504 542 768 740 107 79
277 195 289 195 3 0 22 11 43 25 32 23 130 72 268 136 41 18 147 59 220 84 67
23 236 63 315 74 131 20 172 23 305 22 192 0 290 -12 483 -57 75 -18 209 -61
234 -74 10 -6 22 -10 28 -10 10 0 115 -46 200 -88 222 -109 473 -279 699 -476
27 -23 22 -12 -23 54 -224 326 -519 621 -842 843 -45 30 -99 65 -120 76 -21
12 -64 36 -94 53 -207 118 -521 222 -790 262 -76 11 -396 26 -404 19z"/>
</g>
</svg>
