<svg id="Layer_1" data-name="Layer 1" xmlns="http://www.w3.org/2000/svg" viewBox="0 0 400.49763 225.83333"><defs><style>.cls-1{fill:none}.cls-2{clip-path:url(#clip-path)}.cls-3{fill:#0061a3}.cls-4{fill:#231f20}</style><clipPath id="clip-path"><path class="cls-1" d="M0 0h400.498v225.833H0z"/></clipPath></defs><title>logo_lcc</title><g class="cls-2"><path class="cls-3" d="M363.94 75.414S258.326-107.01 69.897 95.594h78.82c48.63-57.545 125.19-107.246 215.223-20.18M0 183.997h92.518s5.488-12.318 15.682-30.025H21.541Q10.918 168.18 0 183.997"/><path class="cls-4" d="M74.891 119.28a7.243 7.243 0 0 0 5.227-1.801h.09l-1.537 3.928H66.537v-.09c1.504-.53 1.327-2.718 1.327-4.042v-11.134c0-1.359.177-3.515-1.327-4.077v-.087h5.64v.087c-1.508.562-1.302 2.75-1.302 4.077v12.874zm17.48-17.804c-6.201-.148-11.072 4.549-11.072 10.156 0 6.053 4.93 10.25 10.778 10.25 5.876 0 10.863-4.375 10.863-10.395a10.19 10.19 0 0 0-10.569-10.01m-.206 2.127c4.664 0 7.411 4.16 7.411 8.473 0 4.4-2.863 7.677-7.353 7.677-4.636 0-7.56-4.252-7.56-8.387 0-4.458 2.924-7.763 7.502-7.763m26.131 15.854a7.354 7.354 0 0 1-5.788 2.42 7.242 7.242 0 0 1-5.343-2.065c-1.565-1.711-1.507-3.69-1.507-5.817v-7.883c0-1.33.206-3.487-1.298-4.048v-.087h5.61v.087c-1.475.561-1.3 2.718-1.3 4.048v7.883c0 3.928 1.652 5.759 4.693 5.759a5.223 5.223 0 0 0 4.313-2.07 3.894 3.894 0 0 0 .62-2.685v-8.887c0-1.33.177-3.487-1.301-4.048v-.087h5.614l.029.087c-1.508.561-1.33 2.718-1.33 4.077v11.134c0 1.323-.178 3.48 1.33 4.041v.09h-4.342zm7.792-2.304c0 1.743.181 3.16-1.297 4.164v.09h7.085c6.618 0 11.073-4.077 11.073-9.89 0-5.879-4.19-9.54-10.924-9.54h-7.234v.088c1.507.442 1.297 2.598 1.297 3.957zm3.015-12.725a11.68 11.68 0 0 1 2.657-.323c4.93 0 7.825 2.598 7.825 7.763 0 5.11-3.928 7.412-8.328 7.412a10.61 10.61 0 0 1-2.154-.206zm26.455-2.953c-6.202-.148-11.073 4.549-11.073 10.156 0 6.053 4.933 10.25 10.779 10.25 5.875 0 10.866-4.375 10.866-10.395a10.191 10.191 0 0 0-10.572-10.01m-.207 2.127c4.665 0 7.412 4.16 7.412 8.473 0 4.4-2.864 7.677-7.35 7.677-4.64 0-7.56-4.252-7.56-8.387 0-4.458 2.92-7.763 7.498-7.763m26.131 15.854a7.345 7.345 0 0 1-5.788 2.42 7.242 7.242 0 0 1-5.342-2.065c-1.566-1.711-1.508-3.69-1.508-5.817v-7.883c0-1.33.207-3.487-1.298-4.048v-.087h5.61v.087c-1.474.561-1.3 2.718-1.3 4.048v7.883c0 3.928 1.656 5.759 4.697 5.759a5.221 5.221 0 0 0 4.31-2.07 3.894 3.894 0 0 0 .62-2.685v-8.887c0-1.33.177-3.487-1.299-4.048v-.087h5.608l.032.087c-1.508.561-1.33 2.718-1.33 4.077v11.134c0 1.323-.178 3.48 1.33 4.041v.09h-4.342zm10.098-1.891c0 1.653-.03 2.835 1.537 3.752v.087h-5.23v-.087c1.569-.917 1.569-2.099 1.569-3.752v-11.779c0-1.653 0-2.838-1.537-3.722v-.087h4.31v.029a1.83 1.83 0 0 0 .445.74l.414.59 10.804 13.642v-11.192c0-1.653.032-2.838-1.533-3.722v-.087h5.197v.087c-1.537.884-1.537 2.07-1.537 3.722v16.564a8.189 8.189 0 0 1-4.312-3.367L191.58 106.14zm41.193-11.927a10.277 10.277 0 0 0-5.465-1.685c-4.074 0-6.909 2.983-6.909 7.267 0 4.335 2.95 8.206 7.503 8.206a13.038 13.038 0 0 0 6.288-1.86h.087l-1.504 3.425a10.5 10.5 0 0 1-4.461.888c-6.967 0-11.28-3.9-11.28-10.217 0-6.114 4.313-10.159 10.363-10.159a23.596 23.596 0 0 1 5.378.74zm13.136-4.164c-6.202-.148-11.073 4.549-11.073 10.156 0 6.053 4.93 10.25 10.779 10.25 5.875 0 10.866-4.375 10.866-10.395a10.191 10.191 0 0 0-10.572-10.01m-.207 2.127c4.668 0 7.412 4.16 7.412 8.473 0 4.4-2.867 7.677-7.354 7.677-4.635 0-7.557-4.252-7.557-8.387 0-4.458 2.922-7.763 7.5-7.763m26.131 15.854a7.345 7.345 0 0 1-5.788 2.42 7.237 7.237 0 0 1-5.342-2.065c-1.566-1.711-1.508-3.69-1.508-5.817v-7.883c0-1.33.207-3.487-1.3-4.048v-.087h5.613v.087c-1.475.561-1.301 2.718-1.301 4.048v7.883c0 3.928 1.653 5.759 4.694 5.759a5.227 5.227 0 0 0 4.312-2.07 3.894 3.894 0 0 0 .62-2.685v-8.887c0-1.33.178-3.487-1.298-4.048v-.087h5.61l.03.087c-1.508.561-1.33 2.718-1.33 4.077v11.134c0 1.323-.178 3.48 1.33 4.041v.09h-4.342zm10.098-1.891c0 1.653-.029 2.835 1.537 3.752v.087h-5.23v-.087c1.57-.917 1.57-2.099 1.57-3.752v-11.779c0-1.653 0-2.838-1.537-3.722v-.087h4.31v.029a1.83 1.83 0 0 0 .445.74l.413.59 10.804 13.642v-11.192c0-1.653.03-2.838-1.533-3.722v-.087h5.194v.087c-1.533.884-1.533 2.07-1.533 3.722v16.564a8.177 8.177 0 0 1-4.313-3.367l-10.127-12.845z"/><path class="cls-4" d="M306.647 117.567c0 1.686-.03 2.835 1.533 3.752v.087h-5.843v-.087c1.475-.562 1.298-2.719 1.298-4.045v-13.171h-2.599a5.14 5.14 0 0 0-3.515 1.181h-.087l1.033-3.512h.087a5.037 5.037 0 0 0 1.123.207h11.754a3.322 3.322 0 0 0 1.355-.207h.09l-.945 3.512h-.087c-.387-1.033-1.566-1.181-2.54-1.181h-2.657z"/><path class="cls-4" d="M321.881 117.567c0 1.773 0 2.657 1.504 3.752v.087h-5.755v-.087c1.45-.74 1.242-2.66 1.242-4.045v-4.371l-4.903-7.883a7.157 7.157 0 0 0-2.805-3.041h2.686a2.522 2.522 0 0 1 2.214.826l4.726 7.706 3.66-5.491c.501-.74 1.182-2.157-.474-2.954v-.087h5.168l-7.263 10.924zM40.256 133.07a10.257 10.257 0 0 0-5.462-1.686c-4.074 0-6.908 2.983-6.908 7.267 0 4.342 2.95 8.21 7.499 8.21a13.043 13.043 0 0 0 6.291-1.864h.084l-1.504 3.425a10.464 10.464 0 0 1-4.458.885c-6.966 0-11.28-3.896-11.28-10.214 0-6.114 4.314-10.159 10.366-10.159a23.565 23.565 0 0 1 5.372.74zm6.674 6.287v5.346c0 1.33-.178 3.483 1.3 4.048v.084h-5.61v-.084c1.475-.565 1.298-2.718 1.298-4.048V133.54c0-1.33.206-3.483-1.298-4.045v-.087h5.61v.087c-1.478.562-1.3 2.715-1.3 4.077v3.661h10.659v-3.66c0-1.363.206-3.516-1.298-4.078v-.087h5.64v.087c-1.508.562-1.33 2.715-1.33 4.045v11.163c0 1.33-.178 3.483 1.33 4.048v.084h-5.64v-.084c1.504-.565 1.298-2.718 1.298-4.048v-5.346zm29.94 2.186l1.594 4.164c.798 2.066 1.033 2.389-.413 3.044v.084h6.053v-.084c-1.682-.859-2.214-2.511-2.896-4.196l-6.14-15.147h-4.664v.087c1.417.446.855 1.685.442 2.744l-4.932 12.316c-.65 1.685-1.15 3.337-2.864 4.196v.084h5.433v-.084c-1.417-.536-1.21-1.391-.587-3.044l1.533-4.164zm-.856-2.186h-5.817l2.922-7.437zm26.661-8.091a5.2 5.2 0 0 0 .442-1.83v-.029h5.11v.087c-.71.207-.913 1.065-.913 1.743l1.946 14.498c.178 1.388.326 2.185 1.505 3.015v.087h-5.698v-.087c1.036-.326 1.21-1.214 1.21-2.218l-1.681-14.23-6.615 16.92a7.152 7.152 0 0 1-2.598-3.574l-5.61-13.32-1.683 12.697c-.238 1.804-.445 3.105.946 3.725v.087H84.22v-.087c1.243-1.094 1.42-2.544 1.653-4.135l1.685-12.377c.12-.823.442-2.005-.917-2.744v-.087h5.168v.029a3.446 3.446 0 0 0 .413 1.327l5.553 13.025zm13.523 5.969v-5.791l1.979-.207a3.112 3.112 0 0 1 3.66 2.925c0 2.42-2.743 3.073-4.664 3.073zm-3.012 7.437c0 1.36.178 3.513-1.298 4.078v.087h4.872c2.217 0 4.548.087 6.614-.917a5.937 5.937 0 0 0 3.545-5.165c0-2.896-2.157-4.668-4.813-5.23 1.681-.736 2.953-1.86 2.953-3.838 0-2.628-2.276-4.28-6.175-4.28h-6.996v.087c1.505.561 1.298 2.718 1.298 4.045zm3.012 1.802v-7.293l2.07-.12c2.598-.148 5.37 1.095 5.37 3.959 0 2.805-2.45 3.925-4.87 3.69zm17.244-.117l3.75.351a7.359 7.359 0 0 0 5.463-1.74h.087l-1.327 3.868h-12.312v-.087c1.504-.533 1.327-2.715 1.327-4.045v-11.13c0-1.363.177-3.516-1.327-4.078v-.087h9.449a3.06 3.06 0 0 0 1.388-.149h.087v3.454h-.087a4.146 4.146 0 0 0-3.483-1.181 16.636 16.636 0 0 0-3.015.207v5.494h3.515a2.955 2.955 0 0 0 1.298-.18h.09v3.13h-.09c-.471-.855-1.711-.826-2.628-.826h-2.185zm17.953-16.949c3.955 0 6.111 2.069 6.111 4.755 0 2.598-2.272 4.632-4.694 5.194l4.252 5.345a20.618 20.618 0 0 0 4.784 4.136h-2.718a3.874 3.874 0 0 1-3.425-1.479l-3.603-4.458-2.718-4.16c2.363-.36 5.11-1.45 5.11-4.223a3.393 3.393 0 0 0-3.809-3.28 15.265 15.265 0 0 0-2.008.239v13.225c0 1.36-.177 3.513 1.33 4.049v.087h-5.64v-.087c1.505-.536 1.298-2.719 1.298-4.049v-11.13c0-1.36.207-3.516-1.297-4.077v-.087zm27.785-.505c-6.202-.145-11.073 4.549-11.073 10.16 0 6.052 4.933 10.245 10.779 10.245 5.875 0 10.866-4.37 10.866-10.394a10.193 10.193 0 0 0-10.573-10.01m-.206 2.127c4.665 0 7.408 4.164 7.408 8.473 0 4.4-2.86 7.677-7.35 7.677-4.636 0-7.56-4.251-7.56-8.383 0-4.462 2.924-7.767 7.502-7.767m16.86 13.673c0 1.33-.236 3.483 1.24 4.045v.087h-5.582v-.087c1.507-.533 1.33-2.715 1.33-4.045v-11.13c0-1.363.177-3.516-1.33-4.078v-.087h9.452a3.046 3.046 0 0 0 1.385-.149h.09v3.425h-.09a4.212 4.212 0 0 0-3.483-1.152 16.62 16.62 0 0 0-3.012.207v5.494h3.544a2.901 2.901 0 0 0 1.269-.181h.087v3.131h-.087c-.471-.884-1.711-.826-2.631-.826h-2.182zm31.621-11.634a10.266 10.266 0 0 0-5.462-1.686c-4.073 0-6.908 2.983-6.908 7.267 0 4.342 2.95 8.21 7.5 8.21a13.043 13.043 0 0 0 6.29-1.864h.088l-1.508 3.425a10.473 10.473 0 0 1-4.458.885c-6.966 0-11.279-3.896-11.279-10.214 0-6.114 4.313-10.159 10.366-10.159a23.565 23.565 0 0 1 5.371.74zm13.142-4.167c-6.201-.145-11.076 4.549-11.076 10.16 0 6.052 4.933 10.245 10.779 10.245 5.875 0 10.866-4.37 10.866-10.394a10.19 10.19 0 0 0-10.57-10.01m-.206 2.127c4.662 0 7.412 4.164 7.412 8.473 0 4.4-2.867 7.677-7.354 7.677-4.635 0-7.56-4.251-7.56-8.383 0-4.462 2.925-7.767 7.502-7.767m29.998.235a5.207 5.207 0 0 0 .445-1.83v-.029h5.104v.087c-.707.207-.913 1.065-.913 1.743l1.95 14.498c.177 1.388.325 2.185 1.504 3.015v.087h-5.698v-.087c1.033-.326 1.21-1.214 1.21-2.218l-1.685-14.23-6.61 16.92a7.177 7.177 0 0 1-2.603-3.574l-5.607-13.32-1.685 12.697c-.232 1.804-.442 3.105.946 3.725v.087h-4.813v-.087c1.24-1.094 1.417-2.544 1.653-4.135l1.685-12.377c.116-.823.442-2.005-.914-2.744v-.087h5.165v.029a3.502 3.502 0 0 0 .413 1.327l5.553 13.025zm26.573 0a5.207 5.207 0 0 0 .445-1.83v-.029h5.107v.087c-.707.207-.917 1.065-.917 1.743l1.95 14.498c.178 1.388.323 2.185 1.504 3.015v.087h-5.697v-.087c1.033-.326 1.213-1.214 1.213-2.218l-1.688-14.23-6.611 16.92a7.152 7.152 0 0 1-2.599-3.574l-5.61-13.32-1.682 12.697c-.239 1.804-.442 3.105.946 3.725v.087h-4.813v-.087c1.236-1.094 1.417-2.544 1.652-4.135l1.682-12.377c.12-.823.446-2.005-.913-2.744v-.087h5.165v.029a3.502 3.502 0 0 0 .413 1.327l5.552 13.025zm13.643 15.091l3.75.351a7.367 7.367 0 0 0 5.463-1.74h.087l-1.327 3.868h-12.312v-.087c1.504-.533 1.327-2.715 1.327-4.045v-11.13c0-1.363.177-3.516-1.327-4.078v-.087h9.449a3.07 3.07 0 0 0 1.388-.149h.087v3.454h-.087c-.917-1.062-2.127-1.181-3.486-1.181a16.62 16.62 0 0 0-3.012.207v5.494h3.515a2.94 2.94 0 0 0 1.295-.18h.09v3.13h-.09c-.469-.855-1.708-.826-2.628-.826h-2.182zm17.952-16.949c3.958 0 6.11 2.069 6.11 4.755 0 2.598-2.272 4.632-4.693 5.194l4.252 5.345a20.684 20.684 0 0 0 4.784 4.136h-2.718a3.88 3.88 0 0 1-3.425-1.479l-3.603-4.458-2.718-4.16c2.363-.36 5.11-1.45 5.11-4.223a3.393 3.393 0 0 0-3.81-3.28 15.136 15.136 0 0 0-2.007.239v13.225c0 1.36-.174 3.513 1.327 4.049v.087h-5.637v-.087c1.505-.536 1.301-2.719 1.301-4.049v-11.13c0-1.36.204-3.516-1.3-4.077v-.087z"/><path class="cls-4" d="M352.648 133.07a10.275 10.275 0 0 0-5.462-1.686c-4.074 0-6.908 2.983-6.908 7.267 0 4.342 2.954 8.21 7.5 8.21a13.043 13.043 0 0 0 6.29-1.864h.088l-1.508 3.425a10.473 10.473 0 0 1-4.458.885c-6.966 0-11.279-3.896-11.279-10.214 0-6.114 4.313-10.159 10.363-10.159a23.568 23.568 0 0 1 5.374.74zm6.968 13.287l3.748.351a7.366 7.366 0 0 0 5.465-1.74h.087l-1.327 3.868h-12.315v-.087c1.51-.533 1.33-2.715 1.33-4.045v-11.13c0-1.363.18-3.516-1.33-4.078v-.087h9.449a3.05 3.05 0 0 0 1.388-.149h.09v3.454h-.09c-.914-1.062-2.124-1.181-3.483-1.181a16.62 16.62 0 0 0-3.012.207v5.494h3.515a2.962 2.962 0 0 0 1.298-.18h.087v3.13h-.087c-.471-.855-1.714-.826-2.628-.826h-2.185zm14.517-13.292h.76c.864 0 1.6-.316 1.6-1.13 0-.578-.42-1.152-1.6-1.152a5.125 5.125 0 0 0-.76.051zm0 3.648h-1.052v-6.589a11.99 11.99 0 0 1 1.863-.155 3.471 3.471 0 0 1 2.046.497 1.576 1.576 0 0 1 .604 1.366 1.643 1.643 0 0 1-1.285 1.601v.052c.578.103.972.63 1.101 1.6a5.542 5.542 0 0 0 .42 1.628h-1.101a4.82 4.82 0 0 1-.446-1.682 1.232 1.232 0 0 0-1.417-1.153h-.732zm1.101-8.426a5.006 5.006 0 0 0 .026 9.998 5.007 5.007 0 0 0 0-9.998zm.026-.916a5.866 5.866 0 1 1-.026 0z"/><path class="cls-3" d="M143.176 183.893c0-.404-.578-.868-1.562-1.333a18.102 18.102 0 0 0-4.978-1.098c-.517 0-.633.346-.865.868-.346.636-2.602 6.48-2.893 7.29-.229.636-.116.868.404.868a8.444 8.444 0 0 0 3.354-.752c1.682-.752 6.54-3.82 6.54-5.785zm-2.892 13.248c0-.694-.233-1.217-1.737-2.143a12.301 12.301 0 0 0-6.075-1.963.911.911 0 0 0-.924.575 21.106 21.106 0 0 0-1.678 5.265 3.115 3.115 0 0 0 .058 1.33 3.85 3.85 0 0 1 .058 1.388 2.486 2.486 0 0 1-.232.987c-.113.346.058.459.639.459a11.608 11.608 0 0 0 3.99-.923c2.253-.869 5.9-3.354 5.9-4.917zm6.246-13.248c0 1.504-1.791 3.354-3.354 4.513a41.316 41.316 0 0 1-5.036 2.947c-.403.232-.345.29.062.407a21.778 21.778 0 0 1 4.164 2.195 3.865 3.865 0 0 1 1.272 2.954c0 1.155-1.272 2.721-2.082 3.644a28.384 28.384 0 0 1-6.305 4.223 13.535 13.535 0 0 1-3.993 1.1 5.653 5.653 0 0 1-2.198-.984c-.23-.116-.462-.174-.982.29a1.155 1.155 0 0 1-.81.346c-.578 0-1.911-1.446-.694-6.25.981-3.816 4.626-13.707 6.188-17.354.29-.633.233-.924-1.042-.982-.575-.058-.81-.345-.404-.984a2.91 2.91 0 0 1 2.315-1.217c.29 0 .461-.23.636-.517.29-.697.868-1.562 1.562-1.562a2.42 2.42 0 0 1 1.446.694 1.1 1.1 0 0 1 .29 1.097c-.057.346.059.346.462.465a25.399 25.399 0 0 1 6.77 2.082 3.548 3.548 0 0 1 1.733 2.835zm6.075 10.702c2.776 0 5.44-2.256 5.498-4.57 0-1.392-.81-2.14-1.563-2.14-1.504 0-4.106 3.934-4.858 6.13-.178.406.113.58.865.58zm-5.785 5.495c0-2.544 1.447-6.421 3.587-9.659 1.097-1.682 4.338-5.785 6.42-5.785a1.182 1.182 0 0 1 1.276 1.04c0 .174.17.403.632.52a2.5 2.5 0 0 1 2.373 2.776 7.76 7.76 0 0 1-1.908 4.92 8.791 8.791 0 0 1-6.479 3.295 2.513 2.513 0 0 1-1.562-.52c-.232-.17-.407-.17-.578.23a7.802 7.802 0 0 0-.407 2.547c0 2.314 1.217 3.47 2.893 3.47 4.284 0 10.82-4.8 14.175-8.561.348-.349.635-.349.81.058a2.608 2.608 0 0 1-.64 1.85c-3.64 4.861-10.526 9.371-15.675 9.371-2.257 0-4.917-1.214-4.917-5.494zm46.046-8.62c.581 0 .581-.116.581-.52-.058-1.852-.232-3.24-.29-5.265-.055-.752-.23-.81-.866-.058-1.158 1.272-3.124 3.935-4.164 5.382-.348.52-.232.752.462.636 1.155-.117 2.892-.175 4.222-.175zm3.532-13.768c.403 0 .926.636 1.213 1.156a1.109 1.109 0 0 1-.287 1.333c-.81.694-1.214 1.04-1.275 1.617-.058.927.061 4.513.349 8.91.058.465.058.694.464.694 1.33 0 3.293.116 4.917.287 1.272.178.981.752-.232 1.16a21.982 21.982 0 0 1-4.455.81c-.407 0-.52.116-.462.577a47.326 47.326 0 0 0 .865 6.189c.29 1.042.752 1.1 1.795.871.694-.174.81.404.752.869a3.263 3.263 0 0 1-3.121 3.121c-.93 0-1.795-.578-2.257-2.834-.236-1.62-.752-4.975-.93-8.216-.058-.345-.17-.345-.69-.345a35.86 35.86 0 0 0-6.421.636 4.287 4.287 0 0 0-2.721 1.272c-.404.461-3.587 3.873-3.936 6.308a11.606 11.606 0 0 0 .059 1.33 1.476 1.476 0 0 1-.633 1.388 7.12 7.12 0 0 1-3.244 1.446 1.497 1.497 0 0 1-1.269-1.62c0-.695.516-1.912 2.256-4.168 1.676-2.253 2.777-3.525 4.165-5.262a1.267 1.267 0 0 0 .287-.868 1.666 1.666 0 0 1 .407-1.101 2.393 2.393 0 0 1 1.446-1.04c.578-.116.868-.461 1.333-1.04 4.51-5.67 8.093-10.297 9.194-11.685 1.333-1.62 1.91-1.795 2.373-1.795zm42.518 7.868c0 2.37-2.95 5.437-4.8 6.593a34.086 34.086 0 0 1-6.42 2.95 4.349 4.349 0 0 1-1.16.178c-.406 0-1.213-.178-1.213-.581a1.488 1.488 0 0 1 .461-.985 13.76 13.76 0 0 1 3.009-1.85c2.834-1.446 6.882-2.95 6.882-6.478 0-3.067-3.47-4.049-5.607-4.107a1.045 1.045 0 0 0-1.159.694c-.465.924-1.1 2.66-2.663 6.825-1.04 2.95-2.893 7.867-4.164 12.438-.29.868 0 1.097.752 1.333a27.797 27.797 0 0 0 4.048.458c.871.058.871.581.12 1.043-.698.578-2.315 1.043-4.572 1.043a2.572 2.572 0 0 0-1.678.403 2.438 2.438 0 0 1-1.505.581 3.158 3.158 0 0 1-2.718-1.62c-.406-.752-.116-1.334 1.446-1.853.52-.171.869-.578 1.156-1.446 1.446-4.626 4.051-12.09 6.134-18.569.17-.636.058-.752-.407-.461-2.082 1.21-2.947 1.733-3.296 1.733a1.237 1.237 0 0 1-1.043-.523c-.29-.345-.29-.865.407-1.446a16.705 16.705 0 0 1 4.684-2.544c.407-.174.581-.29.694-.578.29-.636.926-1.794 1.62-1.794.52 0 1.101.464 1.737 1.446.23.29.288.348.869.348 2.082 0 5.959 1.447 7.289 3.241a5.2 5.2 0 0 1 1.097 3.47zm9.487 2.315c-.81 0-2.024 1.04-3.587 2.947a26.225 26.225 0 0 0-4.974 9.258c-.349 1.098-.116 1.966.639 1.966a5.751 5.751 0 0 0 2.427-1.62 49.444 49.444 0 0 0 4.34-5.262c.693-.985 1.907-3.474 2.14-3.88a4.316 4.316 0 0 0 .287-2.137c-.113-.694-.462-1.272-1.214-1.272zm1.678-3.125c.578 0 1.156.694 1.505 1.156.058.232.29.29.52.116a.884.884 0 0 1 1.1-.058 1.12 1.12 0 0 1 .52 1.678c-1.737 3.82-2.834 7.173-2.834 10.472 0 2.602.345 4.51 1.736 4.51 2.428 0 6.94-5.207 9.717-9.023.349-.577.868-.52.868-.058a5.504 5.504 0 0 1-.52 2.024c-2.14 4.226-8.215 10.066-11.224 10.066-1.388 0-3.066-1.795-3.299-4.165a46.935 46.935 0 0 1-.17-3.47c0-.403-.117-.462-.462-.116a57.197 57.197 0 0 1-5.614 6.014 5.58 5.58 0 0 1-3.354 1.737 2.803 2.803 0 0 1-2.43-2.835c0-.981.348-2.834 2.198-6.304a32.559 32.559 0 0 1 7.06-9.317c2.372-2.137 3.99-2.427 4.625-2.427z"/><path class="cls-3" d="M275.363 184.645a1.655 1.655 0 0 1 1.678 2.024 4.573 4.573 0 0 1-1.1 2.082c-.462.523-.982.578-1.33.287a2.51 2.51 0 0 0-1.33-.516c-.81 0-1.97 1.269-3.296 2.831a57.524 57.524 0 0 0-7.812 13.077c-.346.81-.81 1.098-1.33 1.098a1.675 1.675 0 0 1-1.33-.81c-.407-.52-.349-1.156 0-2.025 1.042-2.547 2.485-10.297 2.95-13.073.287-2.024.52-2.893 1.04-3.413.464-.523 1.388-1.504 1.969-1.504.807 0 1.33 1.156 1.272 1.85a3.325 3.325 0 0 1-.52 1.504 30.675 30.675 0 0 0-2.027 6.94c-.117.81.116.81.636.117a54.476 54.476 0 0 1 6.424-8.038c1.562-1.566 2.834-2.431 4.048-2.431zm8.794 17.934c2.544 0 6.246-2.43 7.576-3.3.814-.577 1.043.291.462.927a23.628 23.628 0 0 1-8.27 5.033 5.374 5.374 0 0 1-2.083.403c-1.213 0-3.24-1.042-3.24-3.008a8.571 8.571 0 0 1 .693-2.831c.578-1.624 2.49-7.7 3.009-8.855.174-.517.116-.636-.404-.575-.694.058-2.027.23-2.605.288a1.594 1.594 0 0 1-1.21-.349.953.953 0 0 1 .113-1.388 2.38 2.38 0 0 1 1.562-.807 32.067 32.067 0 0 1 3.009-.465 1.149 1.149 0 0 0 .981-.752c.349-.81 2.144-6.072 2.718-7.347a2.97 2.97 0 0 1 2.26-1.792.967.967 0 0 1 .923.633 1.944 1.944 0 0 1 0 2.027c-1.562 3.067-2.544 5.843-2.776 6.363-.174.465.116.465.578.465 1.737-.062 6.537-.407 9.778-.407 1.214 0 .578 1.042-.407 1.275a90.136 90.136 0 0 1-10.41 1.733c-.64.117-.81.175-1.043.753a61.386 61.386 0 0 0-2.835 9.08c-.345 2.028.175 2.896 1.563 2.896zm37.833-20.942c-1.158 0-3.818 1.734-6.71 5.669-3.874 5.494-4.397 9.487-4.397 11.279 0 2.372.926 4.513 3.412 4.513 1.388 0 4.222-1.101 6.711-3.238 3.761-3.354 7.751-10.182 7.751-15.737a3.82 3.82 0 0 0-1.443-3.067c-.81-.578-1.217-.517-1.1-.055a1.391 1.391 0 0 1-.291 1.272 2.521 2.521 0 0 1-1.734.868.83.83 0 0 1-.868-.697 1.423 1.423 0 0 0-1.272-.807zm2.835-3.819a6.888 6.888 0 0 1 5.556 3.009 8.836 8.836 0 0 1 1.155 4.916c0 6.134-4.28 12.267-7.637 15.389-3.874 3.47-7.577 4.513-9.778 4.513a7.504 7.504 0 0 1-5.03-2.199c-1.275-1.217-1.736-3.528-1.736-5.207 0-4.164 3.008-11.224 8.328-15.795a14.053 14.053 0 0 1 6.54-3.296c.346 0 .578-.232.865-.578a2.954 2.954 0 0 1 1.679-.752zm26.897-6.71a2.457 2.457 0 0 1 1.62.461c.407.407.407 1.043-.057 1.737a2.24 2.24 0 0 1-1.734 1.043c-4.8-.059-8.619 4.338-10.82 12.089-.117.52 0 .578.406.52a45.272 45.272 0 0 0 9.313-1.679c1.272-.403 1.101.465.233 1.043-3.125 1.91-9.313 3.183-10.356 3.354-.52.116-.578.348-.752.926-.288 1.217-1.792 6.42-2.37 8.735a104.483 104.483 0 0 1-5.555 17.242c-1.563 3.528-3.993 7.806-7.58 9.023a4.175 4.175 0 0 1-1.446.232 1.644 1.644 0 0 1-1.098-.29c-.348-.407-.29-1.04.346-1.854.926-1.271 1.45-1.617 2.082-1.791 3.299-1.04 5.094-3.354 7.638-11.918.868-2.718 3.528-13.42 4.8-19.437.116-.578-.058-.636-.465-.636-1.443-.116-1.963-.81-1.963-1.217a1.397 1.397 0 0 1 .807-1.04 5.173 5.173 0 0 1 2.144-.461c.29 0 .403-.174.578-.636 1.907-5.614 4.338-9.545 7.867-12.325 2.543-2.024 4.916-3.121 6.307-3.121zm17.875 6.306a1.84 1.84 0 0 1 1.563 1.504.52.52 0 0 0 .52.52 31.695 31.695 0 0 1 3.531.694c.287.058.462.229.462.406 0 .636-1.563.924-2.082.924h-2.719c-.406 0-.577.232-.926.926-2.198 4.8-6.828 15.505-7.405 19.091-.117.52-.117.752.348.752 1.908 0 3.642-.116 4.28-.116a4.937 4.937 0 0 1 1.676.116c.64.233.52.636-.461 1.098a19.285 19.285 0 0 1-6.073 1.272c-.406 0-.813.64-1.449.868a1.132 1.132 0 0 1-.578.116 1.288 1.288 0 0 1-.868-.577.82.82 0 0 0-.81-.407 9.628 9.628 0 0 0-2.14.523c-.404.116-.637.058-1.04-.407a1.011 1.011 0 0 1 .055-1.562 4.661 4.661 0 0 1 3.531-1.098c.288 0 .404-.058.52-.52.926-4.57 3.3-10.759 6.653-19.207.233-.523.116-.694-.461-.636a15.034 15.034 0 0 0-2.431.23c-.636.119-.927 0-1.156-.462a1.126 1.126 0 0 1 .346-1.62 2.257 2.257 0 0 1 1.213-.462c.81-.117 2.547-.233 3.241-.233a1.019 1.019 0 0 0 .869-.287c.406-.752.752-1.446 1.736-1.446z"/><path class="cls-3" d="M377.988 202.579c2.544 0 6.25-2.43 7.58-3.3.81-.577 1.039.291.461.927a23.688 23.688 0 0 1-8.274 5.033 5.374 5.374 0 0 1-2.082.403c-1.213 0-3.237-1.042-3.237-3.008a8.571 8.571 0 0 1 .694-2.831c.577-1.624 2.485-7.7 3.005-8.855.174-.517.116-.636-.404-.575-.694.058-2.024.23-2.601.288a1.61 1.61 0 0 1-1.217-.349.957.957 0 0 1 .116-1.388 2.388 2.388 0 0 1 1.562-.807 32.235 32.235 0 0 1 3.009-.465 1.158 1.158 0 0 0 .984-.752c.346-.81 2.14-6.072 2.718-7.347a2.97 2.97 0 0 1 2.257-1.792.968.968 0 0 1 .926.633 1.958 1.958 0 0 1 0 2.027c-1.562 3.067-2.547 5.843-2.78 6.363-.173.465.117.465.579.465 1.736-.062 6.537-.407 9.778-.407 1.217 0 .578 1.042-.404 1.275a90.243 90.243 0 0 1-10.414 1.733c-.636.117-.81.175-1.042.753a61.773 61.773 0 0 0-2.835 9.08c-.345 2.028.175 2.896 1.563 2.896zm20.419-23.663c1.101 0 1.737 1.504 2.028 2.547a2.188 2.188 0 0 1-.581 2.14 6.724 6.724 0 0 0-1.85 2.835c-.81 1.733-1.966 4.341-3.703 9.08-.465 1.217-1.155 1.505-1.562 1.505-.52 0-.865-.636-.233-3.412.29-1.272 2.431-7.984 4.168-13.249.345-1.04.923-1.446 1.679-1.446zm-7.23 21.925c1.387 0 2.082 1.966 2.082 2.896a2.483 2.483 0 0 1-2.486 2.37c-1.388 0-2.082-1.618-2.082-2.606a3.016 3.016 0 0 1 2.43-2.66z"/></g></svg>