<svg id="Layer_1" data-name="Layer 1" xmlns="http://www.w3.org/2000/svg" xmlns:xlink="http://www.w3.org/1999/xlink" viewBox="0 0 400.49763 225.83333"><defs><style>.cls-1{fill:none;}.cls-2{clip-path:url(#clip-path);}.cls-3{fill:#0061a3;}.cls-4{fill:#231f20;}</style><clipPath id="clip-path"><rect class="cls-1" width="400.49763" height="225.83333"/></clipPath></defs><title>logo_lcc</title><g class="cls-2"><path class="cls-3" d="M363.94038,75.41422s-105.61465-182.4247-294.04366,20.179H148.7179c48.62851-57.5446,125.19-107.24485,215.22247-20.179"/><path class="cls-3" d="M0,183.99713H92.51813s5.48782-12.31853,15.68225-30.02481H21.54129Q10.91753,168.17931,0,183.99713"/><path class="cls-4" d="M74.89126,119.27995a7.24348,7.24348,0,0,0,5.22634-1.80129H80.208l-1.53659,3.92863H66.53687v-.09039c1.50431-.52941,1.32676-2.71808,1.32676-4.04161V106.14147c0-1.359.17754-3.51542-1.32676-4.07713v-.08715H72.1764v.08715c-1.50753.56171-1.30093,2.75037-1.30093,4.07713v12.87378Z"/><path class="cls-4" d="M92.37125,101.4762c-6.20123-.1485-11.07248,4.54842-11.07248,10.15569,0,6.05274,4.92935,10.2493,10.77872,10.2493,5.87519,0,10.86265-4.37411,10.86265-10.39457A10.19009,10.19009,0,0,0,92.37125,101.4762m-.2066,2.12732c4.66464,0,7.41178,4.16106,7.41178,8.47383,0,4.39995-2.86335,7.67649-7.35367,7.67649-4.63559,0-7.56028-4.25145-7.56028-8.38667,0-4.458,2.92468-7.76365,7.50217-7.76365"/><path class="cls-4" d="M118.2957,119.45782a7.35415,7.35415,0,0,1-5.788,2.4211,7.24232,7.24232,0,0,1-5.34255-2.066c-1.56564-1.7109-1.50753-3.68974-1.50753-5.81708v-7.88309c0-1.33.2066-3.48637-1.29771-4.04806v-.08716h5.61048v.08716c-1.47526.56169-1.30093,2.71808-1.30093,4.04806v7.88309c0,3.92863,1.6528,5.759,4.69369,5.759a5.223,5.223,0,0,0,4.31279-2.06924,3.8936,3.8936,0,0,0,.6198-2.68579v-8.887c0-1.33.17754-3.48637-1.30095-4.04806v-.08716h5.61372l.029.08716c-1.50753.56169-1.33,2.71808-1.33,4.07711v11.13382c0,1.32353-.17755,3.47992,1.33,4.04161v.09039H118.2957Z"/><path class="cls-4" d="M126.08839,117.15392c0,1.74319.18077,3.16034-1.29771,4.16429v.09039h7.08574c6.61766,0,11.07248-4.07713,11.07248-9.891,0-5.87843-4.19011-9.53912-10.924-9.53912h-7.23424v.08716c1.50753.44226,1.29771,2.59864,1.29771,3.95769Zm3.01508-12.72528a11.67915,11.67915,0,0,1,2.65674-.32281c4.92935,0,7.825,2.59864,7.825,7.76364,0,5.11013-3.92863,7.41179-8.32856,7.41179a10.61009,10.61009,0,0,1-2.15316-.2066Z"/><path class="cls-4" d="M155.55764,101.4762c-6.20124-.1485-11.07248,4.54842-11.07248,10.15569,0,6.05274,4.93258,10.2493,10.77872,10.2493,5.87519,0,10.86587-4.37411,10.86587-10.39457a10.191,10.191,0,0,0-10.57211-10.01042m-.2066,2.12732c4.66464,0,7.41177,4.16106,7.41177,8.47383,0,4.39995-2.86335,7.67649-7.35045,7.67649-4.63882,0-7.56027-4.25145-7.56027-8.38667,0-4.458,2.92145-7.76365,7.49895-7.76365"/><path class="cls-4" d="M181.4821,119.45782a7.34524,7.34524,0,0,1-5.788,2.4211,7.24232,7.24232,0,0,1-5.34255-2.066c-1.56564-1.7109-1.50753-3.68974-1.50753-5.81708v-7.88309c0-1.33.2066-3.48637-1.29771-4.04806v-.08716h5.61048v.08716c-1.47526.56169-1.30094,2.71808-1.30094,4.04806v7.88309c0,3.92863,1.656,5.759,4.69693,5.759a5.22117,5.22117,0,0,0,4.30955-2.06924,3.8936,3.8936,0,0,0,.6198-2.68579v-8.887c0-1.33.17754-3.48637-1.29771-4.04806v-.08716h5.60726l.03228.08716c-1.50753.56169-1.33,2.71808-1.33,4.07711v11.13382c0,1.32353-.17755,3.47992,1.33,4.04161v.09039H181.4821Z"/><path class="cls-4" d="M191.58,117.56743c0,1.6528-.02906,2.8343,1.53658,3.75109v.08716H187.887v-.08716c1.56887-.91679,1.56887-2.09829,1.56887-3.75109V105.788c0-1.6528,0-2.83753-1.53659-3.722v-.08716h4.30955v.029a1.82934,1.82934,0,0,0,.44548.73924l.41321.59076,10.80454,13.64206V105.788c0-1.6528.03228-2.83753-1.53337-3.722v-.08716H207.556v.08716c-1.53658.8845-1.53658,2.06923-1.53658,3.722v16.56352a8.189,8.189,0,0,1-4.31279-3.36693L191.58,106.13987Z"/><path class="cls-4" d="M232.77283,105.64046a10.27706,10.27706,0,0,0-5.46522-1.68508c-4.0739,0-6.90819,2.98279-6.90819,7.26651,0,4.33538,2.95049,8.2059,7.50216,8.2059A13.038,13.038,0,0,0,234.19,117.5684h.08716l-1.50429,3.425a10.5004,10.5004,0,0,1-4.46128.88774c-6.96629,0-11.27909-3.89958-11.27909-10.217,0-6.11408,4.3128-10.15891,10.36231-10.15891a23.59617,23.59617,0,0,1,5.37806.73924Z"/><path class="cls-4" d="M245.90872,101.4762c-6.20122-.1485-11.07248,4.54842-11.07248,10.15569,0,6.05274,4.92935,10.2493,10.77873,10.2493,5.87519,0,10.86587-4.37411,10.86587-10.39457a10.191,10.191,0,0,0-10.57212-10.01042m-.20659,2.12732c4.66787,0,7.41177,4.16106,7.41177,8.47383,0,4.39995-2.86658,7.67649-7.35367,7.67649-4.63561,0-7.55706-4.25145-7.55706-8.38667,0-4.458,2.92145-7.76365,7.499-7.76365"/><path class="cls-4" d="M271.83415,119.45782a7.34525,7.34525,0,0,1-5.78805,2.4211,7.23739,7.23739,0,0,1-5.34255-2.066c-1.56564-1.7109-1.50752-3.68974-1.50752-5.81708v-7.88309c0-1.33.20659-3.48637-1.30093-4.04806v-.08716h5.61371v.08716c-1.47526.56169-1.30093,2.71808-1.30093,4.04806v7.88309c0,3.92863,1.6528,5.759,4.69368,5.759a5.22721,5.22721,0,0,0,4.3128-2.06924,3.89367,3.89367,0,0,0,.6198-2.68579v-8.887c0-1.33.17752-3.48637-1.29771-4.04806v-.08716h5.61048l.029.08716c-1.50752.56169-1.33,2.71808-1.33,4.07711v11.13382c0,1.32353-.17755,3.47992,1.33,4.04161v.09039h-4.34181Z"/><path class="cls-4" d="M281.93237,117.56743c0,1.6528-.02906,2.8343,1.53658,3.75109v.08716h-5.22958v-.08716c1.56887-.91679,1.56887-2.09829,1.56887-3.75109V105.788c0-1.6528,0-2.83753-1.53658-3.722v-.08716h4.30955v.029a1.82921,1.82921,0,0,0,.44548.73924l.41319.59076,10.80454,13.64206V105.788c0-1.6528.02906-2.83753-1.53336-3.722v-.08716h5.19406v.08716c-1.53336.8845-1.53336,2.06923-1.53336,3.722v16.56352a8.17681,8.17681,0,0,1-4.3128-3.36693l-10.12661-12.84472Z"/><path class="cls-4" d="M306.64661,117.56743c0,1.68509-.02906,2.8343,1.53336,3.75109v.08716H302.337v-.08716c1.47526-.56169,1.29771-2.71808,1.29771-4.04485V104.10292H301.0361a5.13959,5.13959,0,0,0-3.51542,1.1815h-.08716l1.033-3.51221h.08716a5.03666,5.03666,0,0,0,1.12339.2066h11.75361a3.32172,3.32172,0,0,0,1.35581-.2066h.09039l-.94584,3.51221h-.08716c-.38736-1.033-1.56562-1.1815-2.54052-1.1815h-2.65674Z"/><path class="cls-4" d="M321.88111,117.56743c0,1.77225,0,2.65675,1.50429,3.75109v.08716h-5.75574v-.08716c1.44942-.73924,1.24281-2.66,1.24281-4.04485v-4.37088l-4.90352-7.88308a7.15711,7.15711,0,0,0-2.80525-3.0409h2.6858a2.52187,2.52187,0,0,1,2.21451.8264l4.726,7.70554,3.66071-5.491c.50036-.73924,1.18149-2.15639-.47454-2.95374v-.08716h5.16825l-7.26329,10.924Z"/><path class="cls-4" d="M40.256,133.06955a10.25744,10.25744,0,0,0-5.462-1.68508c-4.0739,0-6.90819,2.98279-6.90819,7.26651,0,4.34184,2.95051,8.20913,7.49894,8.20913a13.04324,13.04324,0,0,0,6.29162-1.86263h.08393l-1.50431,3.425a10.46372,10.46372,0,0,1-4.458.88451c-6.9663,0-11.27908-3.89635-11.27908-10.21379,0-6.11408,4.31278-10.15891,10.36552-10.15891a23.56536,23.56536,0,0,1,5.37161.73924Z"/><path class="cls-4" d="M46.92955,139.35729v5.34578c0,1.33-.17755,3.48315,1.30093,4.04808v.08393H42.62v-.08393c1.47525-.56493,1.29771-2.71809,1.29771-4.04808V133.54021c0-1.33.2066-3.48314-1.29771-4.04484v-.08716h5.61049v.08716c-1.47848.56169-1.30093,2.71485-1.30093,4.07712v3.6607H57.58882v-3.6607c0-1.36227.2066-3.51543-1.29771-4.07712v-.08716h5.63954v.08716c-1.50753.56169-1.33,2.71485-1.33,4.04484v11.16286c0,1.33-.17755,3.48315,1.33,4.04808v.08393H56.29111v-.08393c1.50431-.56493,1.29771-2.71809,1.29771-4.04808v-5.34578Z"/><path class="cls-4" d="M76.86978,141.54273l1.59469,4.16429c.79735,2.066,1.033,2.38881-.4132,3.04413v.08393H84.104v-.08393c-1.68185-.85868-2.21449-2.51149-2.89563-4.19657l-6.1399-15.14637H70.40384v.08716c1.41715.44548.85545,1.68508.44225,2.7439l-4.93258,12.31531c-.64885,1.68508-1.14921,3.33789-2.86335,4.19657v.08393h5.43294v-.08393c-1.41715-.53587-1.21055-1.39133-.58752-3.04413l1.53336-4.16429Zm-.85545-2.18544H70.19724l2.92145-7.4376Z"/><path class="cls-4" d="M102.67511,131.26631a5.20031,5.20031,0,0,0,.44225-1.83035v-.029h5.11012v.08715c-.71018.2066-.91356,1.06528-.91356,1.74319l1.94656,14.49752c.17755,1.3881.326,2.18544,1.50431,3.01507v.08716h-5.69764v-.08716c1.03623-.326,1.21055-1.21377,1.21055-2.21772l-1.68185-14.22958-6.61443,16.91861a7.15177,7.15177,0,0,1-2.59864-3.57354l-5.61049-13.31925-1.68185,12.69623c-.23888,1.80452-.44548,3.10546.94585,3.72526v.08716H84.2199v-.08716c1.24283-1.09433,1.42038-2.54376,1.6528-4.13523L87.55779,132.238c.11944-.82317.44225-2.00467-.91679-2.74391v-.08715h5.16823v.029a3.44616,3.44616,0,0,0,.4132,1.32676l5.55238,13.02549Z"/><path class="cls-4" d="M116.19805,137.2348v-5.79126l1.97884-.2066a3.112,3.112,0,0,1,3.66069,2.92468c0,2.4211-2.7439,3.07318-4.66464,3.07318Zm-3.01185,7.43761c0,1.359.17755,3.5122-1.29771,4.07713v.08715h4.87125c2.21771,0,4.54842.08716,6.61443-.91678a5.93719,5.93719,0,0,0,3.54448-5.165c0-2.89563-2.15639-4.66788-4.81314-5.22957,1.68185-.736,2.95374-1.8594,2.95374-3.83824,0-2.6277-2.27584-4.2805-6.17541-4.2805h-6.99535v.08715c1.50431.5617,1.29771,2.71809,1.29771,4.04484Zm3.01185,1.80129v-7.29234l2.06923-.11944c2.59864-.14849,5.3716,1.09434,5.3716,3.95768,0,2.80525-2.45015,3.92541-4.87124,3.68975Z"/><path class="cls-4" d="M133.44175,146.35652l3.75108.35187a7.35885,7.35885,0,0,0,5.462-1.74h.08715l-1.32676,3.8673H129.10314v-.08716c1.50431-.53264,1.32676-2.71485,1.32676-4.04484V133.57313c0-1.36227.17755-3.51543-1.32676-4.07713v-.08716h9.44872a3.06013,3.06013,0,0,0,1.3881-.14849h.08716v3.4541H139.94a4.14642,4.14642,0,0,0-3.48314-1.18149,16.63613,16.63613,0,0,0-3.01506.2066v5.49428h3.51542a2.9551,2.9551,0,0,0,1.29771-.18078h.09039v3.13129h-.09039c-.47131-.85546-1.7109-.8264-2.62769-.8264h-2.18544Z"/><path class="cls-4" d="M151.3953,129.40755c3.95445,0,6.11084,2.06923,6.11084,4.755,0,2.59864-2.2726,4.63236-4.69369,5.19405l4.25144,5.34578a20.61823,20.61823,0,0,0,4.78409,4.13523h-2.71808a3.87358,3.87358,0,0,1-3.425-1.47848l-3.60259-4.458-2.71808-4.16105c2.363-.35832,5.11013-1.44943,5.11013-4.22239a3.39307,3.39307,0,0,0-3.80919-3.27977,15.26523,15.26523,0,0,0-2.0079.23888v13.22564c0,1.359-.17755,3.5122,1.33,4.04807v.08716h-5.63954v-.08716c1.50431-.53587,1.29771-2.71808,1.29771-4.04807V133.57184c0-1.359.2066-3.51543-1.29771-4.07713v-.08716Z"/><path class="cls-4" d="M179.17947,128.90333c-6.20124-.14527-11.07248,4.54843-11.07248,10.15891,0,6.05274,4.93258,10.24608,10.77872,10.24608,5.87519,0,10.86587-4.37088,10.86587-10.39457a10.193,10.193,0,0,0-10.57211-10.01042m-.2066,2.12733c4.66464,0,7.40855,4.16429,7.40855,8.47383,0,4.39994-2.86013,7.67649-7.35045,7.67649-4.63559,0-7.56027-4.25144-7.56027-8.38345,0-4.46127,2.92468-7.76687,7.50217-7.76687"/><path class="cls-4" d="M195.83274,144.70372c0,1.33-.23566,3.48315,1.2396,4.04484v.08716H191.4909v-.08716c1.50753-.53264,1.33-2.71485,1.33-4.04484V133.57313c0-1.36227.17755-3.51543-1.33-4.07712v-.08716h9.45195a3.04592,3.04592,0,0,0,1.38487-.14849h.09039v3.425h-.09039a4.21244,4.21244,0,0,0-3.48314-1.15244,16.62069,16.62069,0,0,0-3.01184.2066v5.49427h3.54448a2.90139,2.90139,0,0,0,1.26865-.18077h.08716v3.13128h-.08716c-.47131-.88451-1.7109-.8264-2.63092-.8264h-2.18221Z"/><path class="cls-4" d="M227.45449,133.06955a10.26619,10.26619,0,0,0-5.462-1.68508c-4.0739,0-6.90819,2.98279-6.90819,7.26651,0,4.34184,2.95049,8.20913,7.49893,8.20913a13.04319,13.04319,0,0,0,6.29161-1.86263h.08716l-1.50752,3.425a10.47347,10.47347,0,0,1-4.45806.88451c-6.96629,0-11.27906-3.89635-11.27906-10.21379,0-6.11408,4.31277-10.15891,10.36551-10.15891a23.56543,23.56543,0,0,1,5.37161.73924Z"/><path class="cls-4" d="M240.59587,128.90333c-6.20122-.14527-11.0757,4.54843-11.0757,10.15891,0,6.05274,4.93258,10.24608,10.77871,10.24608,5.87522,0,10.86589-4.37088,10.86589-10.39457a10.1901,10.1901,0,0,0-10.5689-10.01042m-.20659,2.12733c4.66139,0,7.41177,4.16429,7.41177,8.47383,0,4.39994-2.86658,7.67649-7.35367,7.67649-4.63561,0-7.56028-4.25144-7.56028-8.38345,0-4.46127,2.92468-7.76687,7.50218-7.76687"/><path class="cls-4" d="M270.387,131.26631a5.20661,5.20661,0,0,0,.44546-1.83035v-.029h5.10367v.08715c-.70694.2066-.91355,1.06528-.91355,1.74319l1.94978,14.49752c.17755,1.3881.32606,2.18544,1.50432,3.01507v.08716H272.779v-.08716c1.033-.326,1.21055-1.21377,1.21055-2.21772l-1.68509-14.22958-6.61119,16.91861a7.177,7.177,0,0,1-2.60187-3.57354l-5.60726-13.31925L255.799,145.02459c-.23242,1.80452-.44226,3.10546.94584,3.72526v.08716h-4.81313v-.08716c1.23961-1.09433,1.41716-2.54376,1.6528-4.13523l1.68507-12.37664c.11622-.82317.44226-2.00467-.91355-2.74391v-.08715h5.165v.029a3.50215,3.50215,0,0,0,.4132,1.32676l5.55238,13.02549Z"/><path class="cls-4" d="M296.95964,131.26631a5.20661,5.20661,0,0,0,.44546-1.83035v-.029h5.1069v.08715c-.70694.2066-.91678,1.06528-.91678,1.74319l1.94978,14.49752c.17755,1.3881.32283,2.18544,1.50432,3.01507v.08716h-5.69764v-.08716c1.033-.326,1.21377-1.21377,1.21377-2.21772l-1.68832-14.22958-6.61119,16.91861a7.1518,7.1518,0,0,1-2.59864-3.57354l-5.61048-13.31925-1.68187,12.69623c-.23887,1.80452-.44226,3.10546.94584,3.72526v.08716h-4.81313v-.08716c1.23638-1.09433,1.41716-2.54376,1.6528-4.13523L281.8423,132.238c.11945-.82317.44548-2.00467-.91355-2.74391v-.08715h5.165v.029a3.50215,3.50215,0,0,0,.4132,1.32676l5.55238,13.02549Z"/><path class="cls-4" d="M310.60266,146.35652l3.75107.35187a7.36741,7.36741,0,0,0,5.462-1.74h.08716l-1.32677,3.8673H306.26405v-.08716c1.50429-.53264,1.32675-2.71485,1.32675-4.04484V133.57313c0-1.36227.17755-3.51543-1.32675-4.07713v-.08716h9.44871a3.07065,3.07065,0,0,0,1.3881-.14849h.08716v3.4541h-.08716c-.91678-1.062-2.12732-1.18149-3.48636-1.18149a16.62069,16.62069,0,0,0-3.01184.2066v5.49428h3.51542a2.94044,2.94044,0,0,0,1.29448-.18078h.09039v3.13129h-.09039c-.46809-.85546-1.70768-.8264-2.62771-.8264h-2.1822Z"/><path class="cls-4" d="M328.55493,129.40755c3.95768,0,6.11084,2.06923,6.11084,4.755,0,2.59864-2.27261,4.63236-4.6937,5.19405l4.25145,5.34578a20.68433,20.68433,0,0,0,4.78409,4.13523h-2.71809a3.88066,3.88066,0,0,1-3.425-1.47848l-3.60261-4.458-2.71807-4.16105c2.363-.35832,5.11013-1.44943,5.11013-4.22239a3.39307,3.39307,0,0,0-3.80919-3.27977,15.136,15.136,0,0,0-2.0079.23888v13.22564c0,1.359-.17432,3.5122,1.32675,4.04807v.08716h-5.63629v-.08716c1.50429-.53587,1.30093-2.71808,1.30093-4.04807V133.57184c0-1.359.20336-3.51543-1.30093-4.07713v-.08716Z"/><path class="cls-4" d="M352.64838,133.06955a10.27487,10.27487,0,0,0-5.462-1.68508c-4.0739,0-6.90819,2.98279-6.90819,7.26651,0,4.34184,2.95371,8.20913,7.49893,8.20913a13.0432,13.0432,0,0,0,6.29161-1.86263h.08716l-1.50752,3.425a10.47347,10.47347,0,0,1-4.45806.88451c-6.96629,0-11.27906-3.89635-11.27906-10.21379,0-6.11408,4.31277-10.15891,10.36229-10.15891a23.56846,23.56846,0,0,1,5.37484.73924Z"/><path class="cls-4" d="M359.616,146.35652l3.74784.35187a7.36642,7.36642,0,0,0,5.46522-1.74h.08716l-1.32677,3.8673H355.27414v-.08716c1.51075-.53264,1.33-2.71485,1.33-4.04484V133.57313c0-1.36227.18077-3.51543-1.33-4.07713v-.08716h9.44871a3.04954,3.04954,0,0,0,1.3881-.14849h.09039v3.4541h-.09039c-.91355-1.062-2.1241-1.18149-3.48313-1.18149a16.6207,16.6207,0,0,0-3.01184.2066v5.49428h3.51542a2.96228,2.96228,0,0,0,1.29771-.18078h.08716v3.13129h-.08716c-.47132-.85546-1.71413-.8264-2.62771-.8264H359.616Z"/><path class="cls-4" d="M374.13349,133.065h.75861c.86516,0,1.60116-.31636,1.60116-1.12985,0-.57784-.41965-1.15244-1.60116-1.15244a5.12529,5.12529,0,0,0-.75861.05165Zm0,3.64778h-1.05236V130.1242a11.98948,11.98948,0,0,1,1.86262-.155,3.47138,3.47138,0,0,1,2.04664.49714,1.57592,1.57592,0,0,1,.60367,1.36549,1.64334,1.64334,0,0,1-1.2848,1.60115v.05165c.57784.1033.97167.62948,1.10078,1.60115a5.54178,5.54178,0,0,0,.41967,1.627h-1.1008a4.8191,4.8191,0,0,1-.44548-1.68185,1.23155,1.23155,0,0,0-1.41713-1.15244h-.7328Zm1.1008-8.42541a5.00608,5.00608,0,0,0,.02584,9.99751,5.00682,5.00682,0,0,0,0-9.99751Zm.02584-.91679a5.86565,5.86565,0,1,1-.02584,0Z"/><path class="cls-3" d="M143.17616,183.89286c0-.40352-.57784-.86836-1.56242-1.33321a18.10217,18.10217,0,0,0-4.97777-1.09756c-.5165,0-.63271.34541-.86513.86837-.34542.63594-2.60187,6.47885-2.8924,7.28911-.22921.63594-.11622.86837.40352.86837a8.44377,8.44377,0,0,0,3.354-.75215c1.68185-.75215,6.54019-3.81887,6.54019-5.7848Zm-2.8924,13.24823c0-.694-.23242-1.217-1.73674-2.14348a12.30129,12.30129,0,0,0-6.07534-1.9627.911.911,0,0,0-.92324.5746,21.10562,21.10562,0,0,0-1.67863,5.26507,3.1146,3.1146,0,0,0,.05811,1.33,3.85066,3.85066,0,0,1,.05811,1.38809,2.48641,2.48641,0,0,1-.23243.98781c-.113.34541.05811.45839.63918.45839a11.60777,11.60777,0,0,0,3.99-.92325c2.25323-.86837,5.901-3.354,5.901-4.91644Zm6.24643-13.24823c0,1.50431-1.79161,3.354-3.354,4.51292a41.31644,41.31644,0,0,1-5.03588,2.94728c-.40352.23242-.3454.29053.06134.40674a21.77783,21.77783,0,0,1,4.16429,2.19513,3.86539,3.86539,0,0,1,1.27187,2.95374c0,1.15567-1.27187,2.72131-2.08213,3.64455a28.38426,28.38426,0,0,1-6.30454,4.22239,13.535,13.535,0,0,1-3.99319,1.10079,5.65317,5.65317,0,0,1-2.19835-.98458c-.22919-.11621-.46161-.17432-.98135.29053a1.15537,1.15537,0,0,1-.81026.34541c-.57783,0-1.911-1.4462-.694-6.24966.98135-3.81564,4.62591-13.70663,6.18832-17.35441.29053-.63271.23243-.92325-1.04268-.98135-.57461-.05811-.81026-.34541-.40352-.98458a2.91063,2.91063,0,0,1,2.31456-1.217c.29053,0,.46163-.2292.63594-.5165.29053-.69727.86837-1.56241,1.56242-1.56241a2.41991,2.41991,0,0,1,1.44621.694,1.1003,1.1003,0,0,1,.29053,1.09756c-.05811.34541.0581.34541.46161.46485a25.39887,25.39887,0,0,1,6.76938,2.08214,3.54834,3.54834,0,0,1,1.73351,2.8343Z"/><path class="cls-3" d="M152.60521,194.59539c2.77618,0,5.43939-2.25646,5.4975-4.571,0-1.39132-.81026-2.14025-1.56242-2.14025-1.50431,0-4.10618,3.93509-4.85834,6.13021-.17755.40675.113.58106.86514.58106Zm-5.7848,5.49427c0-2.54376,1.44619-6.42074,3.58644-9.65856,1.09756-1.68185,4.33861-5.7848,6.42075-5.7848a1.182,1.182,0,0,1,1.27511,1.03946c0,.17432.17108.40352.63271.51973a2.50082,2.50082,0,0,1,2.37268,2.77619,7.76,7.76,0,0,1-1.90782,4.91967,8.79118,8.79118,0,0,1-6.47885,3.29592,2.51253,2.51253,0,0,1-1.56242-.51973c-.23242-.17109-.40674-.17109-.57784.2292a7.80158,7.80158,0,0,0-.40674,2.547c0,2.31457,1.217,3.47024,2.8924,3.47024,4.28372,0,10.82069-4.80022,14.17472-8.561.34863-.34864.63594-.34864.81026.05811a2.6085,2.6085,0,0,1-.63918,1.84972c-3.64132,4.86156-10.52692,9.37125-15.67578,9.37125-2.25647,0-4.91643-1.21378-4.91643-5.49427Z"/><path class="cls-3" d="M192.86608,191.47024c.58106,0,.58106-.11621.58106-.51973-.05811-1.85294-.23242-3.241-.29053-5.26507-.05489-.75215-.22919-.81026-.86514-.05811-1.15889,1.27188-3.12482,3.93509-4.16427,5.38129-.34864.51973-.23243.75215.46161.63594,1.15568-.11621,2.8924-.17432,4.2224-.17432Zm3.53158-13.768c.40352,0,.92647.63594,1.21377,1.15567a1.10887,1.10887,0,0,1-.28731,1.33322c-.81026.694-1.21377,1.03946-1.27511,1.61729-.05811.92647.06134,4.51292.34864,8.90963.0581.46485.0581.694.46484.694,1.33,0,3.29269.11621,4.91645.2873,1.27187.17754.98134.75215-.23243,1.1589a21.98194,21.98194,0,0,1-4.45482.81026c-.40674,0-.51973.11621-.46161.57783a47.326,47.326,0,0,0,.86513,6.18832c.29053,1.04269.75216,1.10079,1.79485.87159.694-.17432.81026.40352.75215.86837a3.2626,3.2626,0,0,1-3.1216,3.1216c-.92971,0-1.79484-.57783-2.25647-2.8343-.23565-1.62052-.75215-4.97454-.92969-8.21558-.05811-.34541-.1711-.34541-.69082-.34541a35.86085,35.86085,0,0,0-6.42075.63594,4.28658,4.28658,0,0,0-2.72131,1.27188c-.40352.46162-3.58645,3.87375-3.93508,6.30776a11.6064,11.6064,0,0,0,.0581,1.33,1.47613,1.47613,0,0,1-.63271,1.38809,7.11952,7.11952,0,0,1-3.24427,1.4462,1.49657,1.49657,0,0,1-1.26865-1.62052c0-.694.5165-1.91105,2.25645-4.16751,1.6754-2.25323,2.77619-3.52511,4.16429-5.26185a1.26743,1.26743,0,0,0,.28731-.86837,1.6663,1.6663,0,0,1,.40674-1.10079A2.39256,2.39256,0,0,1,183.44,192.2224c.57783-.11621.86836-.46162,1.33321-1.03946,4.50969-5.67182,8.09292-10.29773,9.19371-11.68582,1.33322-1.62052,1.911-1.79484,2.37268-1.79484Z"/><path class="cls-3" d="M238.9163,185.57084c0,2.36945-2.95051,5.43617-4.80025,6.59184a34.08625,34.08625,0,0,1-6.42074,2.95051,4.34854,4.34854,0,0,1-1.1589.17755c-.40674,0-1.21377-.17755-1.21377-.58106a1.48782,1.48782,0,0,1,.46164-.98458,13.76079,13.76079,0,0,1,3.00861-1.84972c2.83429-1.4462,6.88236-2.95051,6.88236-6.47885,0-3.06672-3.47023-4.04807-5.60726-4.10618a1.0447,1.0447,0,0,0-1.1589.694c-.46484.92324-1.10078,2.66-2.6632,6.82426-1.03945,2.95051-2.89241,7.86695-4.16429,12.438-.29052.86837,0,1.09756.75216,1.33322a27.79679,27.79679,0,0,0,4.04806.45839c.87161.05811.87161.58106.11945,1.04269-.69729.57783-2.31458,1.04268-4.571,1.04268a2.5718,2.5718,0,0,0-1.67864.40352,2.43806,2.43806,0,0,1-1.50429.58106,3.15758,3.15758,0,0,1-2.71809-1.62052c-.40674-.75215-.1162-1.33322,1.44619-1.85295.51974-.17109.86838-.57783,1.15568-1.4462,1.44619-4.6259,4.05132-12.08934,6.13345-18.56819.1711-.63594.0581-.75215-.40674-.46162-2.08213,1.21055-2.94729,1.7335-3.29593,1.7335a1.23667,1.23667,0,0,1-1.04268-.523c-.29052-.34541-.29052-.86514.40674-1.4462a16.70476,16.70476,0,0,1,4.684-2.54376c.40674-.17432.58106-.29053.694-.57783.29054-.63594.92648-1.79484,1.62052-1.79484.51974,0,1.1008.46485,1.73674,1.4462.22919.29053.28729.34864.86836.34864,2.08216,0,5.95913,1.4462,7.28912,3.241a5.19971,5.19971,0,0,1,1.09758,3.47024Z"/><path class="cls-3" d="M248.40276,187.88476c-.81026,0-2.024,1.03946-3.58645,2.94728a26.22542,26.22542,0,0,0-4.97455,9.25827c-.34864,1.09756-.1162,1.96593.63916,1.96593a5.75132,5.75132,0,0,0,2.42757-1.62052,49.44445,49.44445,0,0,0,4.33858-5.26184c.69406-.98458,1.90783-3.47347,2.14025-3.88021a4.316,4.316,0,0,0,.28729-2.137c-.113-.694-.46161-1.27188-1.21377-1.27188Zm1.67864-3.12483c.57781,0,1.15565.694,1.50429,1.15567.0581.23242.29054.29053.51974.11621a.884.884,0,0,1,1.10078-.05811,1.11976,1.11976,0,0,1,.51974,1.67863c-1.73674,3.81887-2.83429,7.1729-2.83429,10.472,0,2.60187.34539,4.50969,1.73671,4.50969,2.42755,0,6.94048-5.207,9.71667-9.02261.34864-.57783.86836-.51973.86836-.05811a5.50372,5.50372,0,0,1-.51971,2.024c-2.14025,4.22562-8.21558,10.0653-11.22421,10.0653-1.38807,0-3.06671-1.79484-3.29913-4.16428-.113-1.21378-.1711-2.83429-.1711-3.47024,0-.40352-.11622-.46162-.46161-.11621a57.19728,57.19728,0,0,1-5.61371,6.014,5.58005,5.58005,0,0,1-3.354,1.73673,2.80293,2.80293,0,0,1-2.43077-2.8343c0-.98135.34862-2.8343,2.19835-6.30453a32.5588,32.5588,0,0,1,7.0599-9.31637c2.37268-2.137,3.99-2.42755,4.6259-2.42755Z"/><path class="cls-3" d="M275.36282,184.645a1.65528,1.65528,0,0,1,1.67862,2.024,4.57342,4.57342,0,0,1-1.1008,2.08214c-.46161.523-.98133.57783-1.33.2873a2.51,2.51,0,0,0-1.33-.5165c-.81026,0-1.96916,1.26866-3.29591,2.83107a57.52355,57.52355,0,0,0-7.81209,13.07714c-.34539.81026-.81026,1.09756-1.33,1.09756a1.67507,1.67507,0,0,1-1.33-.81026c-.40674-.51973-.34864-1.15567,0-2.024,1.04268-2.547,2.48565-10.29773,2.95051-13.07391.28729-2.024.51971-2.8924,1.03945-3.41213.46484-.523,1.3881-1.50431,1.96916-1.50431.807,0,1.33,1.15567,1.27187,1.84972a3.32487,3.32487,0,0,1-.51971,1.50431,30.67487,30.67487,0,0,0-2.02728,6.94048c-.1162.81026.11622.81026.636.11621a54.476,54.476,0,0,1,6.424-8.038c1.56242-1.56564,2.83429-2.43078,4.04806-2.43078Z"/><path class="cls-3" d="M284.15687,202.57887c2.54375,0,6.24642-2.43078,7.57639-3.29914.81351-.57783,1.0427.29053.46164.92647a23.62816,23.62816,0,0,1-8.27048,5.03265,5.37421,5.37421,0,0,1-2.08213.40352c-1.21377,0-3.241-1.04269-3.241-3.00862a8.57113,8.57113,0,0,1,.694-2.83107c.57784-1.62375,2.4889-7.69908,3.00861-8.85475.17432-.5165.11622-.63594-.40352-.57461-.694.05811-2.02726.22919-2.6051.2873a1.59411,1.59411,0,0,1-1.21055-.34864.95345.95345,0,0,1,.113-1.3881,2.38045,2.38045,0,0,1,1.56239-.807c.86838-.17755,1.90783-.34864,3.00864-.46485a1.14858,1.14858,0,0,0,.98133-.75215c.34864-.81026,2.14348-6.07211,2.71809-7.34722a2.96977,2.96977,0,0,1,2.25968-1.79161.96677.96677,0,0,1,.92325.63271,1.94405,1.94405,0,0,1,0,2.02726c-1.56242,3.06672-2.54377,5.84291-2.77619,6.36264-.17432.46485.11622.46485.57784.46485,1.73674-.06133,6.537-.40675,9.778-.40675,1.21377,0,.57784,1.04269-.40674,1.27511a90.13634,90.13634,0,0,1-10.41071,1.7335c-.63916.11621-.81026.17432-1.04268.75215a61.38582,61.38582,0,0,0-2.83432,9.08072c-.34539,2.02726.17432,2.89563,1.56242,2.89563Z"/><path class="cls-3" d="M321.99083,181.637c-1.1589,0-3.81887,1.7335-6.71126,5.66859-3.87377,5.49427-4.39671,9.48747-4.39671,11.27908,0,2.37267.92646,4.51292,3.41213,4.51292,1.3881,0,4.22239-1.10079,6.71126-3.23781,3.76077-3.354,7.75074-10.18151,7.75074-15.73712a3.8208,3.8208,0,0,0-1.443-3.06672c-.81026-.57783-1.217-.5165-1.1008-.05488a1.39114,1.39114,0,0,1-.29052,1.27188,2.52132,2.52132,0,0,1-1.73351.86837.82925.82925,0,0,1-.86836-.69727,1.423,1.423,0,0,0-1.27187-.807Zm2.83432-3.81888a6.888,6.888,0,0,1,5.55558,3.00862,8.8357,8.8357,0,0,1,1.15568,4.91644c0,6.13344-4.28049,12.26688-7.63774,15.38848-3.87377,3.47024-7.57642,4.51292-9.778,4.51292a7.5043,7.5043,0,0,1-5.02942-2.19835c-1.27512-1.217-1.73674-3.52834-1.73674-5.207,0-4.16428,3.00861-11.2242,8.32857-15.79523a14.05326,14.05326,0,0,1,6.54016-3.29592c.34542,0,.57784-.23243.86516-.57783a2.95409,2.95409,0,0,1,1.67862-.75216Z"/><path class="cls-3" d="M351.72222,171.10753a2.45749,2.45749,0,0,1,1.62052.46163c.40674.40674.40674,1.04268-.05812,1.73673a2.24051,2.24051,0,0,1-1.73349,1.04268c-4.80022-.05811-8.61912,4.3386-10.8207,12.08934-.1162.51973,0,.57783.40674.51973a45.27194,45.27194,0,0,0,9.31315-1.67862c1.2719-.40352,1.1008.46485.23242,1.04269-3.12481,1.91105-9.31313,3.18293-10.35583,3.354-.51971.11621-.57784.34864-.75213.92647-.28732,1.217-1.79161,6.42074-2.36945,8.73531a104.48274,104.48274,0,0,1-5.55561,17.24143c-1.56242,3.52834-3.99319,7.80561-7.57964,9.02262a4.17476,4.17476,0,0,1-1.44619.23242,1.64354,1.64354,0,0,1-1.09758-.29053c-.34864-.40675-.29052-1.03946.34542-1.85295.92646-1.27188,1.44942-1.61729,2.08213-1.79161,3.29916-1.03946,5.094-3.354,7.63777-11.91825.86836-2.71808,3.52833-13.41932,4.80022-19.43655.1162-.57783-.05812-.63594-.46487-.63594-1.443-.11621-1.96271-.81026-1.96271-1.217a1.39738,1.39738,0,0,1,.807-1.03946,5.1729,5.1729,0,0,1,2.14348-.46162c.29054,0,.40352-.17432.57784-.63594,1.90783-5.61371,4.33861-9.54557,7.867-12.325,2.54375-2.024,4.91642-3.1216,6.30774-3.1216Z"/><path class="cls-3" d="M369.59733,177.41368a1.83907,1.83907,0,0,1,1.56239,1.50431.51941.51941,0,0,0,.51974.51973,31.69512,31.69512,0,0,1,3.53158.694c.28729.05811.46161.2292.46161.40675,0,.63594-1.56242.92325-2.08213.92325h-2.71809c-.40674,0-.57784.23242-.92648.92647-2.19835,4.80023-6.82748,15.50469-7.40532,19.09114-.1162.51973-.1162.75215.34864.75215,1.90781,0,3.64132-.11621,4.28049-.11621a4.93724,4.93724,0,0,1,1.67541.11621c.63916.23243.51971.63594-.46164,1.09756a19.28463,19.28463,0,0,1-6.0721,1.27188c-.40674,0-.81348.63917-1.44942.86837a1.132,1.132,0,0,1-.57784.11621,1.28847,1.28847,0,0,1-.86838-.57783.82029.82029,0,0,0-.81026-.40675,9.62788,9.62788,0,0,0-2.14023.523c-.40352.11621-.636.05811-1.03948-.40674a1.01118,1.01118,0,0,1,.0549-1.56241,4.66137,4.66137,0,0,1,3.53155-1.09756c.28732,0,.40352-.05811.51974-.51973.92648-4.571,3.29916-10.75935,6.65316-19.20736.23245-.523.11622-.694-.46161-.63594a15.03352,15.03352,0,0,0-2.43077.2292c-.63594.11944-.92648,0-1.15568-.46162a1.12569,1.12569,0,0,1,.34542-1.62052,2.257,2.257,0,0,1,1.21377-.46162c.81026-.11621,2.547-.23242,3.241-.23242a1.01889,1.01889,0,0,0,.86838-.2873c.40674-.75216.75213-1.4462,1.73671-1.4462Z"/><path class="cls-3" d="M377.9879,202.57887c2.54375,0,6.24964-2.43078,7.57964-3.29914.81026-.57783,1.03945.29053.46161.92647a23.68836,23.68836,0,0,1-8.2737,5.03265,5.37421,5.37421,0,0,1-2.08213.40352c-1.21377,0-3.23781-1.04269-3.23781-3.00862a8.57113,8.57113,0,0,1,.694-2.83107c.57784-1.62375,2.48567-7.69908,3.00539-8.85475.17432-.5165.11622-.63594-.40352-.57461-.694.05811-2.024.22919-2.60187.2873a1.6101,1.6101,0,0,1-1.217-.34864.95655.95655,0,0,1,.11622-1.3881,2.38834,2.38834,0,0,1,1.56239-.807c.86838-.17755,1.91106-.34864,3.00864-.46485a1.15772,1.15772,0,0,0,.98458-.75215c.34539-.81026,2.14023-6.07211,2.71807-7.34722a2.97016,2.97016,0,0,1,2.25645-1.79161.96787.96787,0,0,1,.92648.63271,1.95834,1.95834,0,0,1,0,2.02726c-1.56242,3.06672-2.547,5.84291-2.77942,6.36264-.17432.46485.11622.46485.57784.46485,1.73674-.06133,6.537-.40675,9.778-.40675,1.217,0,.57784,1.04269-.40352,1.27511a90.24269,90.24269,0,0,1-10.41393,1.7335c-.63594.11621-.81026.17432-1.04268.75215a61.77318,61.77318,0,0,0-2.83432,9.08072c-.34539,2.02726.17432,2.89563,1.56242,2.89563Z"/><path class="cls-3" d="M398.40739,178.91606c1.10078,0,1.73674,1.50431,2.02726,2.547a2.18794,2.18794,0,0,1-.58106,2.14025,6.72357,6.72357,0,0,0-1.84971,2.8343c-.81026,1.7335-1.96593,4.34183-3.70267,9.08072-.46484,1.217-1.15568,1.50431-1.56242,1.50431-.51971,0-.86513-.63594-.23242-3.41213.29054-1.27188,2.43077-7.98316,4.16751-13.24823.34542-1.03946.92325-1.4462,1.67864-1.4462Zm-7.231,21.92544c1.38807,0,2.08213,1.96593,2.08213,2.89563a2.48339,2.48339,0,0,1-2.48565,2.36944c-1.3881,0-2.08216-1.61729-2.08216-2.6051a3.01568,3.01568,0,0,1,2.43077-2.66Z"/></g></svg>