<svg id="Layer_1" data-name="Layer 1" xmlns="http://www.w3.org/2000/svg" viewBox="0 0 200 200"><defs><style>.cls-1{fill:none}.cls-2{clip-path:url(#clip-path)}.cls-3{fill:#ffd64f}</style><clipPath id="clip-path"><path class="cls-1" d="M0 18.324h200v163.353H0z"/></clipPath></defs><title>icon-community</title><g class="cls-2"><path class="cls-3" d="M94.126 173.065h52.467v-20.128a4.305 4.305 0 0 1 4.305-4.305h20.366a3.84 3.84 0 0 0 3.834-3.84V120.36a4.309 4.309 0 0 1 4.308-4.309h10.31l-20.56-61.683a4.307 4.307 0 0 1 2.3-5.28 20.183 20.183 0 0 0 11.313-14.009h-68.08a69.712 69.712 0 0 1 22.042 35.34 4.31 4.31 0 0 1-4.175 5.38h-8.258l14.399 43.198a4.309 4.309 0 0 1-4.087 5.668h-11.982v20.126a12.462 12.462 0 0 1-12.448 12.45H94.126zm56.772 8.611H89.82a4.307 4.307 0 0 1-4.305-4.305v-24.434a4.305 4.305 0 0 1 4.305-4.305h20.36a3.84 3.84 0 0 0 3.834-3.84V120.36a4.31 4.31 0 0 1 4.308-4.309h10.312l-14.401-43.195a4.312 4.312 0 0 1 4.09-5.669h8.41a61.215 61.215 0 0 0-27.806-32.65 4.304 4.304 0 0 1 2.09-8.069h86.529a4.308 4.308 0 0 1 4.308 4.306 28.831 28.831 0 0 1-13.385 24.29l21.312 63.933a4.309 4.309 0 0 1-4.087 5.668h-11.982v20.126a12.464 12.464 0 0 1-12.448 12.45h-16.06v20.129a4.307 4.307 0 0 1-4.306 4.305"/><path class="cls-3" d="M37.113 173.065h48.401v-20.128a4.305 4.305 0 0 1 4.306-4.305h20.36a3.843 3.843 0 0 0 3.836-3.84V120.36a4.308 4.308 0 0 1 4.306-4.309h10.312l-14.402-43.195a4.312 4.312 0 0 1 4.09-5.669h8.41A60.844 60.844 0 0 0 8.614 87.782v60.85h24.193a4.305 4.305 0 0 1 4.306 4.305zm52.707 8.611H32.807a4.307 4.307 0 0 1-4.305-4.305v-20.128H4.305A4.307 4.307 0 0 1 0 152.937V87.782a69.47 69.47 0 0 1 136.73-17.363 4.31 4.31 0 0 1-4.17 5.38h-8.262l14.399 43.199a4.309 4.309 0 0 1-4.087 5.668h-11.983v20.126a12.462 12.462 0 0 1-12.448 12.45H94.126v20.129a4.307 4.307 0 0 1-4.306 4.305"/><path class="cls-3" d="M104.84 93.892A4.843 4.843 0 1 1 100 89.05a4.842 4.842 0 0 1 4.84 4.842m64.114 0a4.843 4.843 0 1 1-4.841-4.842 4.842 4.842 0 0 1 4.841 4.842"/></g></svg>