<svg id="Layer_1" xmlns="http://www.w3.org/2000/svg" viewBox="0 0 200 200"><style>.st0{display:none}.st0,.st1{fill:#fbaf17}</style><path class="st0" d="M167.5 90.5c.9.9 1.4 2.1 1.4 3.4 0 2.7-2.2 4.8-4.8 4.8-2.7 0-4.8-2.2-4.8-4.8 0-2.7 2.2-4.8 4.8-4.8 1.4-.1 2.6.5 3.4 1.4z"/><path class="st1" d="M169 93.9c0 2.7-2.2 4.8-4.8 4.8-2.7 0-4.8-2.2-4.8-4.8 0-2.7 2.2-4.8 4.8-4.8 1.3 0 2.5.5 3.4 1.4.8.8 1.4 2.1 1.4 3.4zm-55 26.5c0-.5.1-.9.2-1.3-.1.4-.2.8-.2 1.3v24.4c0 .4-.1.8-.2 1.1.1-.4.2-.7.2-1.1v-24.4zm11.2-57c-5.4-12.2-14.6-22.3-26.3-28.8-.2-.1-.3-.2-.5-.3 11.6 6.2 21.2 16.2 26.8 29.1zm74.6 55.6l-21.3-63.9c8.3-5.3 13.4-14.4 13.4-24.3 0-2.4-1.9-4.3-4.3-4.3h-85.5c4.5 2.4 8.7 5.3 12.6 8.6h68.1c-1.4 6.2-5.6 11.4-11.3 14-2 .9-3 3.2-2.3 5.3l20.6 61.7h-10.3c-2.4 0-4.3 1.9-4.3 4.3v24.4c0 2.1-1.7 3.8-3.8 3.8H151c-2.4 0-4.3 1.9-4.3 4.3V173H94.1v4.3c0 2.4-1.9 4.3-4.3 4.3h61.1c2.4 0 4.3-1.9 4.3-4.3v-20.1h16.1c6.9 0 12.4-5.6 12.5-12.5v-20.1h12c.5 0 .9-.1 1.4-.2 2.1-.7 3.3-3.1 2.6-5.4zm-67.5-60.9c0-.1 0-.1-.1-.2-.2-.5-.5-1.1-.8-1.6 0 .1.1.1.1.2.3.5.5 1.1.8 1.6zm-1.2-2.3c.1.2.2.4.3.5-.1-.2-.2-.4-.4-.7-.3-.5-.6-1-.8-1.6 0-.1-.1-.1-.1-.2.1.3.3.5.4.8l.6 1.2zm-1.1-2c.1 0 .1.1 0 0 .1 0 0 0 0 0-.3-.5-.6-1-.8-1.5-.1-.2-.2-.3-.3-.5-.3-.5-.7-1.1-1-1.6 0-.1-.1-.1-.1-.2 0 0 0 .1.1.1.2.4.5.8.7 1.1.1.2.3.4.4.7 0 .1.1.2.1.2.2.2.3.5.5.8.1.3.3.6.4.9zm-4.7-7.3c.9 1.2 1.7 2.4 2.5 3.6l-1.2-1.8c-.4-.6-.8-1.2-1.3-1.8zm-2.7-3.5c1 1.1 1.9 2.3 2.8 3.5-1-1.2-1.9-2.3-2.8-3.5zm-.9-1c.3.3.6.7.9 1.1-.4-.5-.8-.9-1.2-1.4-.6-.7-1.3-1.4-2-2.1l.4.4c.5.5.9.9 1.3 1.4.2.1.4.3.6.6zm-2.3-2.5l-1.1-1.1 1.1 1.1zm-1.4-1.4l.3.3c-.7-.7-1.5-1.5-2.3-2.2-.4-.4-.9-.8-1.3-1.2.3.3.7.6 1 .9.2.2.4.3.6.5.1.1.3.3.5.4.4.5.8.9 1.2 1.3zm-17-11.6h1.1c-9.8-5.2-20.9-8.1-32.6-8.1C31.1 18.3 0 49.4 0 87.8V153c0 2.4 1.9 4.3 4.3 4.3h24.2v20.1c0 2.4 1.9 4.3 4.3 4.3h57c-2.4 0-4.3-1.9-4.3-4.3v-4.3H37.1V153c0-2.4-1.9-4.3-4.3-4.3H8.6V87.8c0-25.7 16.1-48.7 40.3-57.3 16.9-6.1 34.8-4.2 49.5 3.8-1.7-1.3-2.2-3.6-1.2-5.5.8-1.5 2.3-2.3 3.8-2.3zm37.7 92.5l-14.4-43.2h8.3c.4 0 .7 0 1.1-.1 2.3-.6 3.7-2.9 3.1-5.2-.2-.9-.5-1.7-.7-2.6-.1-.4-.3-.8-.4-1.3-.1-.4-.3-.8-.4-1.3-.2-.4-.3-.8-.4-1.2-.4-1.2-.9-2.4-1.4-3.5-.1-.2-.2-.4-.3-.7-.3-.6-.5-1.2-.8-1.8 0-.1 0-.1-.1-.2-.2-.5-.5-.9-.7-1.4 0-.1-.1-.1-.1-.2-.1-.2-.2-.3-.3-.5-.2-.4-.4-.8-.6-1.1l-.3-.6c0-.1-.1-.2-.1-.2-.2-.3-.3-.6-.5-.9-.2-.2-.3-.5-.5-.8 0-.1-.1-.2-.1-.2-.1-.2-.3-.4-.4-.7-.2-.4-.5-.8-.7-1.1l-1.2-1.8c-.4-.6-.8-1.2-1.3-1.8-.9-1.2-1.8-2.3-2.8-3.5-.3-.4-.6-.7-.9-1.1l-.6-.6c-.4-.5-.9-1-1.3-1.4-.1-.2-.3-.3-.4-.4-.4-.5-.9-.9-1.3-1.4L117 37c-.2-.1-.3-.3-.5-.4-.2-.2-.4-.3-.6-.5-.3-.3-.7-.6-1-.9-3.9-3.3-8.1-6.2-12.6-8.6H101c-1.6 0-3 .9-3.8 2.2-1 1.9-.5 4.2 1.2 5.5 10.9 5.9 20 15.1 25.7 26.8.4.8.8 1.6 1.1 2.4.2.4.4.8.5 1.2.2.4.3.8.5 1.1.2.5.4 1 .5 1.5h-8.4c-.5 0-.9.1-1.4.2-2.3.8-3.5 3.2-2.7 5.5l14.4 43.2h-10.3c-1.2 0-2.3.5-3 1.3-.3.3-.5.6-.7 1-.1.2-.2.5-.3.8-.1.4-.2.8-.2 1.3V145c0 .4-.1.8-.2 1.1-.5 1.6-1.9 2.7-3.7 2.7H89.8c-2.4 0-4.3 1.9-4.3 4.3v24.4c0 2.4 1.9 4.3 4.3 4.3s4.3-1.9 4.3-4.3v-20.1h16c6.9 0 12.4-5.6 12.5-12.5v-20.1h12c.5 0 .9-.1 1.4-.2 2.2-.9 3.5-3.3 2.7-5.6zm-35.3-28.5c-.9-.9-2.1-1.4-3.4-1.4-2.7 0-4.8 2.2-4.8 4.8 0 2.7 2.2 4.8 4.8 4.8 2.7 0 4.8-2.2 4.8-4.8 0-1.3-.5-2.6-1.4-3.4z"/><path class="st0" d="M169 93.9c0 2.7-2.2 4.8-4.8 4.8-2.7 0-4.8-2.2-4.8-4.8 0-2.7 2.2-4.8 4.8-4.8 1.3 0 2.5.5 3.4 1.4.8.8 1.4 2.1 1.4 3.4z"/></svg>