<?xml version="1.0" standalone="no"?>
<!DOCTYPE svg PUBLIC "-//W3C//DTD SVG 20010904//EN"
 "http://www.w3.org/TR/2001/REC-SVG-20010904/DTD/svg10.dtd">
<svg version="1.0" xmlns="http://www.w3.org/2000/svg"
 width="128.000000pt" height="128.000000pt" viewBox="0 0 128.000000 128.000000"
 preserveAspectRatio="xMidYMid meet">
<metadata>
Created by potrace 1.11, written by Peter Selinger 2001-2013
</metadata>
<g transform="translate(0.000000,128.000000) scale(0.100000,-0.100000)"
fill="#000000" stroke="none">
<path d="M34 979 c-21 -8 -20 -8 16 -15 14 -2 30 -6 36 -8 8 -3 11 -92 11
-305 l0 -300 -39 -6 c-21 -4 -38 -11 -38 -17 0 -6 73 -8 208 -6 160 3 215 8
241 20 32 14 37 14 78 -4 47 -21 66 -22 303 -20 101 2 141 5 133 13 -5 5 -23
11 -39 13 l-29 3 -3 97 c-1 53 1 96 5 97 27 2 47 9 68 23 13 9 37 16 53 16 51
0 127 29 156 59 37 38 54 91 50 156 -5 79 -32 125 -95 160 -52 28 -55 28 -231
30 -139 1 -177 -2 -174 -12 4 -9 -1 -10 -20 -3 -38 15 -118 12 -171 -6 -44
-15 -51 -15 -98 2 -40 14 -83 18 -226 19 -97 0 -185 -2 -195 -6z m396 -34 c42
-21 52 -35 39 -51 -16 -19 -13 -87 5 -122 9 -17 29 -39 46 -49 43 -25 39 -52
-15 -85 -25 -15 -50 -40 -57 -55 -19 -48 -18 -124 3 -166 l20 -38 -43 -19
c-33 -15 -66 -20 -140 -20 l-98 0 0 313 0 314 103 -2 c76 -1 111 -6 137 -20z
m388 -31 l2 -39 -17 33 c-9 19 -22 36 -30 39 -25 10 -13 21 15 14 23 -6 27
-13 30 -47z m261 30 c40 -23 63 -73 66 -142 5 -110 -32 -184 -98 -196 -26 -5
-27 -4 -23 37 7 82 -52 137 -98 91 -15 -14 -16 -4 -16 109 l0 125 69 -3 c45
-2 80 -9 100 -21z m-347 -1 c22 -20 23 -43 3 -69 -20 -26 -19 -41 4 -54 28
-14 68 3 74 32 2 13 4 -32 4 -99 l-1 -123 -41 0 c-48 0 -102 -31 -123 -70 -12
-24 -12 -24 -7 10 3 19 7 48 9 65 3 24 9 31 35 36 44 9 49 17 15 24 -16 4 -34
8 -39 10 -6 1 -16 25 -23 51 -7 27 -29 72 -48 99 l-34 50 30 28 c24 21 40 27
77 27 29 0 53 -6 65 -17z m220 -275 c17 17 48 15 55 -4 8 -22 -16 -43 -60 -48
-37 -5 -37 -5 -37 31 0 31 2 34 15 23 12 -10 19 -10 27 -2z m-158 -118 c24 -9
25 -12 23 -86 -2 -72 -4 -78 -32 -100 -58 -46 -145 -41 -198 11 l-25 26 34 50
c19 28 34 55 34 60 0 22 16 6 18 -17 3 -33 18 -53 50 -65 49 -19 86 51 42 79
-11 7 -20 8 -20 3 0 -12 -35 -20 -50 -11 -7 4 -10 15 -7 24 12 31 81 45 131
26z"/>
</g>
</svg>
