<?xml version="1.0" encoding="utf-8"?>
<!-- Generator: Adobe Illustrator 21.0.0, SVG Export Plug-In . SVG Version: 6.00 Build 0)  -->
<!DOCTYPE svg PUBLIC "-//W3C//DTD SVG 1.1//EN" "http://www.w3.org/Graphics/SVG/1.1/DTD/svg11.dtd">
<svg version="1.1" id="Layer_1" xmlns="http://www.w3.org/2000/svg" xmlns:xlink="http://www.w3.org/1999/xlink" x="0px" y="0px"
	 viewBox="0 0 273.4 103.2" enable-background="new 0 0 273.4 103.2" xml:space="preserve">
<g>
	<g>
		<path fill="#FFFFFF" d="M39.3,74.3c12.8,0,23.2-10.4,23.2-23.2S52.2,27.9,39.3,27.9S16.1,38.3,16.1,51.1S26.5,74.3,39.3,74.3"/>
		<circle fill="none" stroke="#553C8B" stroke-width="1.5" cx="39.3" cy="51.1" r="23.2"/>
		<path fill="#6850A0" d="M48.3,49.9c1.5,1.4,1.4,2.3-0.2,3.3c1,1.3,1.1,1.5-0.1,2.9c-0.3,0.4,0,0.5,0.1,0.7
			c0.5,1.3-0.2,2.3-1.6,2.3c-3.4,0-6.8,0-10.1,0c-1.1,0-1.6-0.4-1.5-1.5c0-2.4,0-4.8,0-7.3c0-1.6,0.4-3.1,1.3-4.4
			c0.9-1.3,1.7-2.8,3-3.9c0.7-0.6,0.6-1.4,0.6-2.2c0-0.9,0-1.8,1.2-2c1.2-0.2,1.7,0.6,2,1.6c0.4,1.4,0.4,2.8-0.1,4.2
			c-0.3,0.8-0.7,1.6-1.1,2.6c1.8,0,3.5,0,5.3,0c1.1,0,1.9,0.3,2.2,1.4C49.6,48.5,49.3,49.3,48.3,49.9"/>
		<path fill="#6850A0" d="M33.4,54.7c0,1.5,0,3.1,0,4.6c0,1-0.4,1.5-1.4,1.4c-1.1,0-2.1,0-3.2,0c-0.9,0-1.4-0.3-1.4-1.3
			c0-3.1,0-6.3,0-9.4c0-1,0.4-1.4,1.4-1.4c1.1,0,2.2,0,3.3,0c1,0,1.4,0.5,1.3,1.4C33.3,51.6,33.4,53.1,33.4,54.7"/>
		<path fill="#FFFFFF" d="M182.3,62.4c12.8,0,23.2-10.4,23.2-23.2s-10.4-23.2-23.2-23.2c-12.8,0-23.2,10.4-23.2,23.2
			S169.5,62.4,182.3,62.4"/>
		<circle fill="none" stroke="#553C8B" stroke-width="1.5" cx="182.3" cy="39.2" r="23.2"/>
		<path fill="#6850A0" d="M182.3,34.1c1.5-2.8,3.6-3.9,6.3-3.4c3,0.5,4.9,3.1,4.7,6.4c-0.1,2.3-1.2,4.2-2.6,5.9
			c-2.2,2.7-4.9,4.7-7.9,6.5c-0.3,0.2-0.6,0.3-1,0.1c-3.4-2-6.5-4.4-8.8-7.7c-1.5-2.2-2.3-4.5-1.5-7.1c0.7-2.5,2.4-3.9,4.9-4.1
			c2.5-0.2,4.5,0.9,5.6,3.2C182.2,33.9,182.2,34,182.3,34.1"/>
		<path fill="#FFFFFF" d="M153,87.3c12.8,0,23.2-10.4,23.2-23.2S165.8,40.8,153,40.8c-12.8,0-23.2,10.4-23.2,23.2
			S140.2,87.3,153,87.3"/>
		<circle fill="none" stroke="#553C8B" stroke-width="1.5" cx="153" cy="64" r="23.2"/>
		<path fill="#BAB6DB" d="M164.1,70.3c-1.8,3.6-4.9,5.7-8.7,6.4c-5.1,0.9-9.4-0.7-12.7-4.9c-0.4-0.5-0.7-0.9-0.9-1.5
			c0.2-0.6,0.8-0.7,1.3-0.9c4.1-1.5,8.3-1.8,12.5-1.5c2.4,0.2,4.7,0.5,7,1.4C163.2,69.5,163.8,69.7,164.1,70.3"/>
		<path fill="#6850A0" d="M164.1,70.3c-2.7-1.4-5.6-1.9-8.5-2.1c-4.1-0.3-8.2,0-12.1,1.4c-0.5,0.2-1,0.5-1.6,0.7
			c-0.8-1.4-1.1-2.8-1.3-4.4c-0.1-0.7,0.1-0.9,0.8-0.8c2.8,0,5.5,0,8.3,0c4.9,0,9.9,0,14.8,0c0.8,0,1,0.2,0.9,1
			C165.2,67.5,164.9,69,164.1,70.3"/>
		<path fill="#6850A0" d="M161.3,58.1c1.2,0.6,2.3,1.1,3.3,1.6c0.5,0.3,0.9,0.6,0.6,1.3c-0.3,0.6-0.8,0.5-1.4,0.3
			c-1.6-0.8-3.1-1.5-4.7-2.2c-0.4-0.2-0.7-0.4-0.7-0.9c0-0.5,0.3-0.8,0.7-1c1.6-0.8,3.2-1.5,4.8-2.3c0.5-0.3,1-0.2,1.3,0.3
			c0.3,0.6,0,1-0.5,1.2C163.6,56.9,162.6,57.5,161.3,58.1"/>
		<path fill="#6850A0" d="M144.6,58.1c-1.2-0.6-2.2-1.1-3.2-1.5c-0.6-0.3-1-0.7-0.7-1.3c0.3-0.6,0.9-0.5,1.4-0.2
			c1.5,0.7,3.1,1.5,4.6,2.2c0.4,0.2,0.8,0.4,0.8,0.9c0,0.5-0.4,0.7-0.8,0.9c-1.6,0.7-3.1,1.5-4.7,2.2c-0.6,0.3-1.1,0.3-1.4-0.4
			c-0.3-0.6,0.1-1,0.6-1.2C142.4,59.1,143.5,58.6,144.6,58.1"/>
		<path fill="#FFFFFF" d="M234.1,74.3c12.8,0,23.2-10.4,23.2-23.2s-10.4-23.2-23.2-23.2c-12.8,0-23.2,10.4-23.2,23.2
			S221.2,74.3,234.1,74.3"/>
		<circle fill="none" stroke="#553C8B" stroke-width="1.5" cx="234.1" cy="51" r="23.2"/>
		<path fill="#BAB6DB" d="M246,44.3c-0.8,0.4-1.7,0.6-2.6,0.7c0.9-0.6,1.7-1.4,2-2.5c-0.9,0.5-1.8,0.9-2.9,1.1
			c-0.8-0.9-2-1.4-3.3-1.4c-2.5,0-4.5,2-4.5,4.5c0,0.4,0,0.7,0.1,1c-3.8-0.2-7.1-2-9.3-4.7c-0.4,0.7-0.6,1.4-0.6,2.3
			c0,1.6,0.8,3,2,3.8c-0.7,0-1.4-0.2-2.1-0.6v0.1c0,2.2,1.6,4,3.6,4.4c-0.4,0.1-0.8,0.2-1.2,0.2c-0.3,0-0.6,0-0.9-0.1
			c0.6,1.8,2.2,3.1,4.2,3.1c-1.6,1.2-3.5,1.9-5.6,1.9c-0.4,0-0.7,0-1.1-0.1c2,1.3,4.4,2,6.9,2c8.3,0,12.9-6.9,12.9-12.9
			c0-0.2,0-0.4,0-0.6C244.6,46,245.4,45.2,246,44.3"/>
		<path fill="#FFFFFF" d="M95.1,65.1c12.8,0,23.2-10.4,23.2-23.2c0-12.8-10.4-23.2-23.2-23.2S71.9,29.1,71.9,41.9
			C71.9,54.7,82.3,65.1,95.1,65.1"/>
		<circle fill="none" stroke="#553C8B" stroke-width="1.5" cx="95.1" cy="41.9" r="23.2"/>
		<path fill="#BAB6DB" d="M106.1,46.3v-7.9c0,0,0-3.8-3.8-3.8H87.9c0,0-3.8,0-3.8,3.8v7.9c0,0,0,3.8,3.8,3.8h14.5
			C102.3,50.1,106.1,50.1,106.1,46.3 M99.4,42.4l-7.2,4.2v-8.5L99.4,42.4z"/>
	</g>
	<line fill="none" stroke="#553C8B" stroke-width="1.5" x1="72.6" y1="70.4" x2="114.5" y2="70.4"/>
	<line fill="none" stroke="#553C8B" stroke-width="1.5" x1="104" y1="74.9" x2="123.2" y2="74.9"/>
	<line fill="none" stroke="#553C8B" stroke-width="1.5" x1="129.3" y1="36.8" x2="148.5" y2="36.8"/>
	<line fill="none" stroke="#553C8B" stroke-width="1.5" x1="185.4" y1="73.4" x2="206.3" y2="73.4"/>
	<line fill="none" stroke="#553C8B" stroke-width="1.5" x1="199.3" y1="68.8" x2="210.1" y2="68.8"/>
</g>
</svg>
