<svg id="Layer_1" data-name="Layer 1" xmlns="http://www.w3.org/2000/svg" xmlns:xlink="http://www.w3.org/1999/xlink" viewBox="0 0 200 200"><defs><style>.cls-1{fill:none;}.cls-2{clip-path:url(#clip-path);}.cls-3{fill:#543b8b;}</style><clipPath id="clip-path"><rect class="cls-1" x="24.35957" width="151.28086" height="200"/></clipPath></defs><title>icon-awards</title><g class="cls-2"><path class="cls-3" d="M99.9994,37.44672a36.47855,36.47855,0,1,0,35.36755,27.48837A36.44838,36.44838,0,0,0,99.9994,37.44672m0,81.17751a44.69013,44.69013,0,1,1,44.6878-44.68479,44.73528,44.73528,0,0,1-44.6878,44.68479m-60.29273-15.647,13.20718,3.559a6.6787,6.6787,0,0,1,2.60834,1.40195,4.11428,4.11428,0,0,1,1.39894,3.08368v79.53489L96.53364,170.057a7.53326,7.53326,0,0,1,6.93753,0l39.6095,20.49971V111.02182a4.11138,4.11138,0,0,1,1.39593-3.08368,6.69473,6.69473,0,0,1,2.58727-1.39593l13.23124-3.562-5.44231-12.54832a6.508,6.508,0,0,1,1.72385-7.53922l10.34313-8.95321-10.34914-8.9562A6.50609,6.50609,0,0,1,154.85281,57.45l5.44231-12.54833-13.21018-3.559a6.49256,6.49256,0,0,1-4.81956-6.06507l-.54453-13.65545L128.273,24.12822a6.5181,6.5181,0,0,1-6.96762-3.36046l-6.411-12.076-11.026,8.11083a6.50352,6.50352,0,0,1-7.73477.003l-11.026-8.11385-6.41706,12.079a6.45586,6.45586,0,0,1-6.96159,3.35445L58.281,21.62217l-.54454,13.6765a6.50012,6.50012,0,0,1-4.81656,6.044l-13.21319,3.556L45.149,57.447a6.517,6.517,0,0,1-1.72385,7.53922L33.082,73.93944l10.34913,8.95622A6.51517,6.51517,0,0,1,45.149,90.42887Zm15.283,97.02011a6.29112,6.29112,0,0,1-6.26363-6.27867V113.89491l-12.28358-3.31232A7.18022,7.18022,0,0,1,31.7252,100.787l5.41524-12.49417-10.301-8.9171a7.20029,7.20029,0,0,1,0-10.8726l10.301-8.9171L31.72219,47.08585a7.18248,7.18248,0,0,1,4.72029-9.79257l13.159-3.544L50.14,20.136A7.18626,7.18626,0,0,1,58.639,13.35489l13.38769,2.491,6.396-12.03086a7.17908,7.17908,0,0,1,10.60486-2.4128L99.9994,9.477l10.9779-8.07473a7.17267,7.17267,0,0,1,10.59883,2.4128l6.396,12.03386,13.39068-2.494a7.17838,7.17838,0,0,1,8.49592,6.78109l.54453,13.61333,13.156,3.547a7.17625,7.17625,0,0,1,4.71426,9.79558L162.86135,59.586l10.298,8.9171a7.19456,7.19456,0,0,1,0,10.8726l-10.298,8.9171,5.41826,12.5002a7.18249,7.18249,0,0,1-4.72029,9.79256l-12.28659,3.30931v79.82371a6.26749,6.26749,0,0,1-9.14876,5.56868L99.9994,177.48793,57.87481,199.28729a6.22575,6.22575,0,0,1-2.88512.71"/><path class="cls-3" d="M99.40252,87.773a8.14392,8.14392,0,0,1,3.44169.76114l7.98447,3.70343-.68292-8.77872a8.24087,8.24087,0,0,1,2.16008-6.19744l5.99588-6.45016-8.5621-2.06381a8.01855,8.01855,0,0,1-3.29428-1.66669,8.13735,8.13735,0,0,1-1.91639-2.27439l-4.2991-7.71673-4.609,7.50011a8.06376,8.06376,0,0,1-3.26419,2.99042,7.93252,7.93252,0,0,1-2.139.75512L81.59238,70.032l5.71308,6.70286h.006a8.19452,8.19452,0,0,1,1.88631,6.2877l-1.05,8.7366,8.14092-3.36648a8.12122,8.12122,0,0,1,3.11376-.61975m13.7096,13.9262a6.25389,6.25389,0,0,1-2.61436-.58063L99.3965,95.965,88.10572,100.6402a6.18581,6.18581,0,0,1-8.50494-6.4622l1.46212-12.13615-7.92732-9.3052a6.17745,6.17745,0,0,1,3.5169-10.08137l12.00078-2.36165,6.393-10.41833a5.88189,5.88189,0,0,1,5.3972-2.94529,6.12442,6.12442,0,0,1,5.27385,3.17394l5.95376,10.6921,11.88645,2.855a6.186,6.186,0,0,1,3.08369,10.22279l-8.32744,8.96524.95369,12.1843a6.20122,6.20122,0,0,1-6.15533,6.67579"/></g></svg>