<?xml version="1.0" encoding="utf-8"?>
<!-- Generator: Adobe Illustrator 21.0.0, SVG Export Plug-In . SVG Version: 6.00 Build 0)  -->
<svg version="1.1" id="Layer_1" xmlns="http://www.w3.org/2000/svg" xmlns:xlink="http://www.w3.org/1999/xlink" x="0px" y="0px"
	 viewBox="0 0 88 120" style="enable-background:new 0 0 88 120;" xml:space="preserve">
<style type="text/css">
	.st0{clip-path:url(#SVGID_2_);fill:#FFFFFF;}
	.st1{clip-path:url(#SVGID_2_);fill:none;stroke:#005089;stroke-width:1.5;}
	.st2{fill:none;stroke:#005089;stroke-width:2;stroke-linecap:round;stroke-linejoin:round;stroke-dasharray:0,4.175;}
	.st3{fill:none;stroke:#005089;stroke-width:2;stroke-linecap:round;stroke-linejoin:round;}
	.st4{clip-path:url(#SVGID_4_);fill:#FFFFFF;}
	.st5{clip-path:url(#SVGID_4_);fill:none;stroke:#005089;stroke-width:1.5;}
	.st6{fill:none;stroke:#005089;stroke-width:2;stroke-linecap:round;stroke-linejoin:round;stroke-dasharray:0,3.926;}
	.st7{fill:none;stroke:#005089;stroke-width:2;stroke-linecap:round;stroke-linejoin:round;stroke-dasharray:0,4.075;}
	.st8{fill:none;stroke:#005089;stroke-width:2;stroke-linecap:round;stroke-linejoin:round;stroke-dasharray:0,4.04;}
	.st9{fill:none;stroke:#005089;stroke-width:2;stroke-linecap:round;stroke-linejoin:round;stroke-dasharray:0,3.417;}
</style>
<g>
	<defs>
		<rect id="SVGID_1_" x="4" y="4.3" width="80.6" height="112.7"/>
	</defs>
	<clipPath id="SVGID_2_">
		<use xlink:href="#SVGID_1_"  style="overflow:visible;"/>
	</clipPath>
	<path class="st0" d="M80.9,13.7c-2.4,1-5.1,0-6.1-2.3c-1-2.3,0.1-5,2.5-6c2.4-1,5.1,0,6.1,2.3C84.5,10,83.3,12.7,80.9,13.7"/>
	<ellipse transform="matrix(0.9171 -0.3987 0.3987 0.9171 2.7495 32.3468)" class="st1" cx="79.1" cy="9.6" rx="4.7" ry="4.5"/>
	<path class="st0" d="M39.8,23.5c-2.4,1-5.1,0-6.1-2.3c-1-2.3,0.1-5,2.5-6c2.4-1,5.1,0,6.1,2.3C43.4,19.8,42.2,22.5,39.8,23.5"/>
	<ellipse transform="matrix(0.9171 -0.3987 0.3987 0.9171 -4.5646 16.7687)" class="st1" cx="38" cy="19.4" rx="4.7" ry="4.5"/>
	<path class="st0" d="M60.1,92.9c-2.4,1-5.1,0-6.1-2.3c-1-2.3,0.1-5,2.5-6c2.4-1,5.1,0,6.1,2.3C63.6,89.2,62.5,91.9,60.1,92.9"/>
	<ellipse transform="matrix(0.9171 -0.3987 0.3987 0.9171 -30.5643 30.5942)" class="st1" cx="58.3" cy="88.8" rx="4.7" ry="4.5"/>
	<path class="st0" d="M16.1,64.6c-4.2,1.8-8.9,0-10.7-4c-1.7-4,0.2-8.7,4.4-10.5s8.9,0,10.7,4C22.2,58.1,20.2,62.8,16.1,64.6"/>
	<ellipse transform="matrix(0.9171 -0.3987 0.3987 0.9171 -21.8218 9.9118)" class="st1" cx="12.9" cy="57.4" rx="8.2" ry="7.9"/>
	<path class="st0" d="M43.5,115.5c-4.2,1.8-8.9,0-10.7-4c-1.7-4,0.2-8.7,4.4-10.5c4.2-1.8,8.9,0,10.7,4
		C49.6,109,47.7,113.7,43.5,115.5"/>
	<ellipse transform="matrix(0.9171 -0.3987 0.3987 0.9171 -39.8418 25.0744)" class="st1" cx="40.4" cy="108.3" rx="8.2" ry="7.9"/>
</g>
<line class="st2" x1="74.6" y1="20.4" x2="67.5" y2="37.8"/>
<path class="st3" d="M66.7,39.8L66.7,39.8 M76.2,16.6L76.2,16.6"/>
<g>
	<defs>
		<rect id="SVGID_3_" x="4" y="4.3" width="80.6" height="112.7"/>
	</defs>
	<clipPath id="SVGID_4_">
		<use xlink:href="#SVGID_3_"  style="overflow:visible;"/>
	</clipPath>
	<path class="st4" d="M65.4,57.1c-4.2,1.8-8.9,0-10.7-4c-1.7-4,0.2-8.7,4.4-10.5s8.9,0,10.7,4C71.5,50.6,69.5,55.3,65.4,57.1"/>
	<ellipse transform="matrix(0.9171 -0.3987 0.3987 0.9171 -14.7136 28.9467)" class="st5" cx="62.2" cy="49.8" rx="8.2" ry="7.9"/>
</g>
<line class="st6" x1="47.3" y1="50.8" x2="26" y2="54.3"/>
<path class="st3" d="M24.1,54.6L24.1,54.6 M51.2,50.2L51.2,50.2"/>
<line class="st7" x1="23.7" y1="67.3" x2="49.1" y2="84.2"/>
<path class="st3" d="M50.8,85.4L50.8,85.4 M20.3,65.1L20.3,65.1"/>
<line class="st8" x1="52.3" y1="38.1" x2="43.3" y2="27.3"/>
<path class="st3" d="M42,25.7L42,25.7 M54.9,41.2L54.9,41.2"/>
<line class="st9" x1="51" y1="97.6" x2="52.2" y2="96.4"/>
<path class="st3" d="M53.4,95.1L53.4,95.1 M48.6,100L48.6,100"/>
</svg>
