<?xml version="1.0" encoding="utf-8"?>
<!-- Generator: Adobe Illustrator 21.0.0, SVG Export Plug-In . SVG Version: 6.00 Build 0)  -->
<svg version="1.1" id="Layer_1" xmlns="http://www.w3.org/2000/svg" xmlns:xlink="http://www.w3.org/1999/xlink" x="0px" y="0px"
	 viewBox="0 0 83 97" style="enable-background:new 0 0 83 97;" xml:space="preserve">
<style type="text/css">
	.st0{clip-path:url(#SVGID_2_);fill:none;stroke:#F26F21;stroke-width:1.41;stroke-linejoin:round;}
	.st1{clip-path:url(#SVGID_2_);fill:#FFFFFF;}
	.st2{clip-path:url(#SVGID_2_);fill:none;stroke:#F26F21;stroke-width:1.41;stroke-miterlimit:10;}
</style>
<g>
	<defs>
		<rect id="SVGID_1_" x="4.5" y="8.4" width="73.9" height="81.1"/>
	</defs>
	<clipPath id="SVGID_2_">
		<use xlink:href="#SVGID_1_"  style="overflow:visible;"/>
	</clipPath>
	<path class="st0" d="M15.8,26c0,0,2-0.7,4.4,2.8c2.3,3.5,10.4,21.6,10.4,21.6 M11.9,25.4c0,0,1-2.3,2.9-0.5
		c1.9,1.8,3.9,6.4,3.9,6.4 M9.1,25c0,0,1.1-2,2.9,0.3c1.8,2.3,3.9,6.9,3.9,6.9 M13.5,89.2l11-26.3c0,0-10.3-7.6-11-9.8
		C12.8,51,5.2,25.6,5.2,25.6s2.2-0.9,3.8,1.1c1.6,2,5.8,11.3,5.8,11.3 M34.3,89.2c0,0,4.7-27.1,3.1-31.5c-1.6-4.3-5.1-6.7-6.3-7.2
		C30,50.1,28,49.3,28,49.3s-5.6-11.3-6.9-13c-1.3-1.7-5.1-4.3-4.7-1.1c0.4,3.3,4.2,10.6,4.2,10.6 M67,26c0,0-1.9-0.7-4.3,2.8
		c-2.3,3.5-10.4,21.6-10.4,21.6 M71,25.4c0,0-1-2.3-2.9-0.5c-1.9,1.8-3.9,6.4-3.9,6.4 M73.8,25c0,0-1.1-2-2.9,0.3
		c-1.8,2.3-3.9,6.9-3.9,6.9 M69.5,89.2l-11-26.3c0,0,10.3-7.6,11-9.8s8.3-27.6,8.3-27.6s-2.2-0.9-3.8,1.1c-1.6,2-5.8,11.3-5.8,11.3
		 M48.7,89.2c0,0-4.7-27.1-3.1-31.5c1.6-4.3,5.1-6.7,6.3-7.2c1.1-0.4,3.1-1.3,3.1-1.3s5.6-11.3,6.9-13c1.3-1.7,5.1-4.3,4.7-1.1
		c-0.4,3.3-4.2,10.6-4.2,10.6"/>
	<path class="st1" d="M57.7,16.4c-0.5-3.4-2.4-6-5.7-7c-5.8-1.8-9.8,3.5-10.5,4.3c-0.7-0.8-4.7-6.1-10.5-4.3c-3.3,1-5.3,3.6-5.7,7
		c-0.3,2.5,0.4,4.8,1.8,7c1.4,2.2,14.1,13.9,14.5,14.3c0.4-0.3,13.1-12.1,14.5-14.3C57.3,21.3,58,18.9,57.7,16.4"/>
	<path class="st2" d="M57.7,16.4c-0.5-3.4-2.4-6-5.7-7c-5.8-1.8-9.8,3.5-10.5,4.3c-0.7-0.8-4.7-6.1-10.5-4.3c-3.3,1-5.3,3.6-5.7,7
		c-0.3,2.5,0.4,4.8,1.8,7c1.4,2.2,14.1,13.9,14.5,14.3c0.4-0.3,13.1-12.1,14.5-14.3C57.3,21.3,58,18.9,57.7,16.4z"/>
</g>
</svg>
