<svg id="Layer_1" data-name="Layer 1" xmlns="http://www.w3.org/2000/svg" xmlns:xlink="http://www.w3.org/1999/xlink" viewBox="0 0 300 300"><defs><style>.cls-1,.cls-10{fill:none;}.cls-2{fill:#bfd730;}.cls-3{fill:#1e8234;}.cls-4{fill:#6d9d31;}.cls-5{fill:#8dc63f;}.cls-10,.cls-11,.cls-6,.cls-8,.cls-9{stroke-linecap:round;stroke-linejoin:round;stroke-width:1.5px;}.cls-6{fill:url(#New_Pattern_Swatch_10);}.cls-10,.cls-11,.cls-6{stroke:url(#New_Pattern_Swatch_7);}.cls-7{fill:#8cc640;}.cls-8{fill:#fff;stroke:url(#New_Pattern_Swatch_7-13);}.cls-9{fill:url(#New_Pattern_Swatch_9);stroke:url(#New_Pattern_Swatch_7-15);}.cls-11{fill:url(#New_Pattern_Swatch_8);}</style><pattern id="New_Pattern_Swatch_10" data-name="New Pattern Swatch 10" width="28.8" height="28.8" patternTransform="translate(111.64481 133.88012) scale(3.15986 3.15986)" patternUnits="userSpaceOnUse" viewBox="0 0 28.8 28.8"><rect class="cls-1" width="28.8" height="28.8"/><rect class="cls-2" width="28.8" height="28.8"/></pattern><pattern id="New_Pattern_Swatch_7" data-name="New Pattern Swatch 7" width="28.8" height="28.8" patternTransform="translate(111.64481 133.88012) scale(3.15986 3.15986)" patternUnits="userSpaceOnUse" viewBox="0 0 28.8 28.8"><rect class="cls-1" width="28.8" height="28.8"/><rect class="cls-3" width="28.8" height="28.8"/></pattern><pattern id="New_Pattern_Swatch_7-13" data-name="New Pattern Swatch 7" width="28.8" height="28.8" patternTransform="translate(100.46463 43.81408) scale(2.38689 2.38689)" patternUnits="userSpaceOnUse" viewBox="0 0 28.8 28.8"><rect class="cls-1" width="28.8" height="28.8"/><rect class="cls-3" width="28.8" height="28.8"/></pattern><pattern id="New_Pattern_Swatch_9" data-name="New Pattern Swatch 9" width="28.8" height="28.8" patternTransform="translate(91.87184 52.40405) scale(2.38689 2.38689)" patternUnits="userSpaceOnUse" viewBox="0 0 28.8 28.8"><rect class="cls-1" width="28.8" height="28.8"/><rect class="cls-5" width="28.8" height="28.8"/></pattern><pattern id="New_Pattern_Swatch_7-15" data-name="New Pattern Swatch 7" width="28.8" height="28.8" patternTransform="translate(91.87184 52.40687) scale(2.38689 2.38689)" patternUnits="userSpaceOnUse" viewBox="0 0 28.8 28.8"><rect class="cls-1" width="28.8" height="28.8"/><rect class="cls-3" width="28.8" height="28.8"/></pattern><pattern id="New_Pattern_Swatch_8" data-name="New Pattern Swatch 8" width="28.8" height="28.8" patternTransform="translate(111.64481 133.87564) scale(3.15986 3.15986)" patternUnits="userSpaceOnUse" viewBox="0 0 28.8 28.8"><rect class="cls-1" width="28.8" height="28.8"/><rect class="cls-4" width="28.8" height="28.8"/></pattern></defs><title>icon-gov-building</title><rect class="cls-6" x="23.07549" y="138.46021" width="23.07937" height="138.46229"/><rect class="cls-6" x="69.23008" y="138.46021" width="23.07542" height="138.46229"/><rect class="cls-6" x="115.38487" y="138.46021" width="23.07547" height="138.46229"/><rect class="cls-6" x="161.53971" y="138.46021" width="23.07542" height="138.46229"/><rect class="cls-6" x="207.69055" y="138.46021" width="23.07938" height="138.46229"/><rect class="cls-6" x="253.84534" y="138.46021" width="23.07542" height="138.46229"/><polygon class="cls-7" points="46.155 184.615 23.075 161.54 46.155 161.54 46.155 184.615"/><polygon class="cls-7" points="92.305 184.615 69.23 161.54 92.305 161.54 92.305 184.615"/><polygon class="cls-7" points="138.46 184.615 115.385 161.54 138.46 161.54 138.46 184.615"/><polygon class="cls-7" points="184.615 184.615 161.54 161.54 184.615 161.54 184.615 184.615"/><polygon class="cls-7" points="230.77 184.615 207.691 161.54 230.77 161.54 230.77 184.615"/><polygon class="cls-7" points="276.921 184.615 253.845 161.54 276.921 161.54 276.921 184.615"/><polygon class="cls-8" points="150 0 11.54 138.46 288.46 138.46 150 0"/><circle class="cls-9" cx="149.99913" cy="80.76926" r="23.07693"/><rect class="cls-10" x="23.07549" y="138.46021" width="23.07937" height="138.46229"/><rect class="cls-10" x="69.23008" y="138.46021" width="23.07542" height="138.46229"/><rect class="cls-10" x="115.38487" y="138.46021" width="23.07547" height="138.46229"/><rect class="cls-10" x="161.53971" y="138.46021" width="23.07542" height="138.46229"/><rect class="cls-10" x="207.69055" y="138.46021" width="23.07938" height="138.46229"/><rect class="cls-10" x="253.84534" y="138.46021" width="23.07542" height="138.46229"/><polygon class="cls-11" points="11.54 138.46 11.54 150 11.54 161.54 288.46 161.54 288.46 150 288.46 138.46 11.54 138.46"/><rect class="cls-8" x="11.53966" y="276.9225" width="276.92068" height="23.0775"/></svg>