<svg id="Layer_1" data-name="Layer 1" xmlns="http://www.w3.org/2000/svg" xmlns:xlink="http://www.w3.org/1999/xlink" viewBox="0 0 200 200"><defs><style>.cls-1{fill:none;}.cls-2{clip-path:url(#clip-path);}.cls-3{fill:#ffd64f;}</style><clipPath id="clip-path"><rect class="cls-1" y="18.32372" width="200" height="163.35257"/></clipPath></defs><title>icon-community</title><g class="cls-2"><path class="cls-3" d="M94.12588,173.06517h52.467v-20.1281a4.30549,4.30549,0,0,1,4.30556-4.30556h20.36543a3.84061,3.84061,0,0,0,3.83393-3.84V120.36088a4.30873,4.30873,0,0,1,4.3086-4.3086h10.309L169.15517,54.36869a4.30738,4.30738,0,0,1,2.30034-5.27925,20.18314,20.18314,0,0,0,11.31313-14.009H114.6891a69.71162,69.71162,0,0,1,22.042,35.33905,4.3094,4.3094,0,0,1-4.17471,5.37966h-8.25815l14.39851,43.19859a4.30891,4.30891,0,0,1-4.08647,5.66873H122.62776V144.7915a12.462,12.462,0,0,1-12.44808,12.45113H94.12588Zm56.77251,8.61112H89.82033a4.30744,4.30744,0,0,1-4.30556-4.30556V152.93707a4.30549,4.30549,0,0,1,4.30556-4.30556h20.35936a3.8406,3.8406,0,0,0,3.83392-3.84V120.36088a4.31068,4.31068,0,0,1,4.3086-4.3086h10.312L114.23268,72.85673A4.3124,4.3124,0,0,1,118.3222,67.188h8.41029A61.21514,61.21514,0,0,0,98.92741,34.53879a4.30426,4.30426,0,0,1,2.0904-8.0695h86.528a4.30809,4.30809,0,0,1,4.3086,4.30556,28.83147,28.83147,0,0,1-13.38527,24.29064l21.31176,63.93221a4.30891,4.30891,0,0,1-4.08648,5.66873H183.71192V144.7915a12.464,12.464,0,0,1-12.44809,12.45113H155.20394v20.1281a4.30744,4.30744,0,0,1-4.30555,4.30556"/><path class="cls-3" d="M37.11269,173.06517H85.51446v-20.1281A4.30549,4.30549,0,0,1,89.82,148.63151h20.35936a3.8432,3.8432,0,0,0,3.837-3.84V120.36088a4.30809,4.30809,0,0,1,4.30556-4.3086h10.312L114.23238,72.85673A4.3124,4.3124,0,0,1,118.3219,67.188h8.41029A60.84371,60.84371,0,0,0,8.61385,87.78165v60.84986H32.80714a4.30549,4.30549,0,0,1,4.30555,4.30556ZM89.82,181.67628H32.80714a4.30744,4.30744,0,0,1-4.30556-4.30556v-20.1281H4.30525A4.30744,4.30744,0,0,1-.0003,152.93707V87.78165a69.46954,69.46954,0,0,1,136.73112-17.3622,4.3094,4.3094,0,0,1-4.17167,5.37966H124.298l14.39851,43.19859a4.30891,4.30891,0,0,1-4.08647,5.66873H122.62746V144.7915a12.462,12.462,0,0,1-12.44808,12.45113H94.12558v20.1281A4.30744,4.30744,0,0,1,89.82,181.67628"/><path class="cls-3" d="M104.84049,93.89159a4.84261,4.84261,0,1,1-4.8411-4.84109,4.84247,4.84247,0,0,1,4.8411,4.84109"/><path class="cls-3" d="M168.95405,93.89159a4.84262,4.84262,0,1,1-4.8411-4.84109,4.84247,4.84247,0,0,1,4.8411,4.84109"/></g></svg>