<?xml version="1.0" encoding="utf-8"?>
<!-- Generator: Adobe Illustrator 21.0.0, SVG Export Plug-In . SVG Version: 6.00 Build 0)  -->
<svg version="1.1" id="Layer_1" xmlns="http://www.w3.org/2000/svg" xmlns:xlink="http://www.w3.org/1999/xlink" x="0px" y="0px"
	 viewBox="0 0 75.7 68" style="enable-background:new 0 0 75.7 68;" xml:space="preserve">
<style type="text/css">
	.st0{fill:none;}
	.st1{fill:#F26F21;}
	.st2{fill:#FFEB94;}
	
		.st3{clip-path:url(#SVGID_2_);fill:none;stroke:url(#SVGID_3_);stroke-width:1.5;stroke-linecap:round;stroke-linejoin:round;stroke-miterlimit:10;}
	.st4{clip-path:url(#SVGID_5_);fill:#FFFFFF;}
	
		.st5{clip-path:url(#SVGID_7_);fill:none;stroke:url(#SVGID_8_);stroke-width:1.5;stroke-linecap:round;stroke-linejoin:round;stroke-miterlimit:10;}
	.st6{clip-path:url(#SVGID_10_);fill:#FFFFFF;}
	
		.st7{clip-path:url(#SVGID_12_);fill:none;stroke:url(#SVGID_13_);stroke-width:1.5;stroke-linecap:round;stroke-linejoin:round;stroke-miterlimit:10;}
	
		.st8{clip-path:url(#SVGID_15_);fill:none;stroke:url(#SVGID_16_);stroke-width:1.5;stroke-linecap:round;stroke-linejoin:round;stroke-miterlimit:10;}
	
		.st9{clip-path:url(#SVGID_15_);fill:none;stroke:url(#SVGID_17_);stroke-width:1.5;stroke-linecap:round;stroke-linejoin:round;stroke-miterlimit:10;}
	
		.st10{clip-path:url(#SVGID_15_);fill:none;stroke:url(#SVGID_18_);stroke-width:1.5;stroke-linecap:round;stroke-linejoin:round;stroke-miterlimit:10;}
	
		.st11{clip-path:url(#SVGID_15_);fill:none;stroke:url(#SVGID_19_);stroke-width:1.5;stroke-linecap:round;stroke-linejoin:round;stroke-miterlimit:10;}
	
		.st12{clip-path:url(#SVGID_15_);fill:none;stroke:url(#SVGID_20_);stroke-width:1.5;stroke-linecap:round;stroke-linejoin:round;stroke-miterlimit:10;}
	
		.st13{clip-path:url(#SVGID_15_);fill:none;stroke:url(#SVGID_21_);stroke-width:1.5;stroke-linecap:round;stroke-linejoin:round;stroke-miterlimit:10;}
	
		.st14{clip-path:url(#SVGID_15_);fill:none;stroke:url(#SVGID_22_);stroke-width:1.5;stroke-linecap:round;stroke-linejoin:round;stroke-miterlimit:10;}
	
		.st15{clip-path:url(#SVGID_15_);fill:none;stroke:url(#SVGID_23_);stroke-width:1.5;stroke-linecap:round;stroke-linejoin:round;stroke-miterlimit:10;}
</style>
<pattern  x="-233.6" y="-146" width="28.8" height="28.8" patternUnits="userSpaceOnUse" id="Unnamed_Pattern_11" viewBox="0 -28.8 28.8 28.8" style="overflow:visible;">
	<g>
		<rect y="-28.8" class="st0" width="28.8" height="28.8"/>
		<rect y="-28.8" class="st1" width="28.8" height="28.8"/>
	</g>
</pattern>
<polygon class="st2" points="9.2,14.3 9.2,53.3 31.7,53.3 42.8,53.3 66.1,53.3 66.1,14.3 "/>
<g>
	<defs>
		<rect id="SVGID_1_" x="8.4" y="5.8" width="58.4" height="48.2"/>
	</defs>
	<clipPath id="SVGID_2_">
		<use xlink:href="#SVGID_1_"  style="overflow:visible;"/>
	</clipPath>
	<pattern  id="SVGID_3_" xlink:href="#Unnamed_Pattern_11" patternTransform="matrix(0.8867 0 0 -0.8867 326.4856 615.3474)">
	</pattern>
	<polyline class="st3" points="31.7,53.3 9.1,53.3 9.1,14.3 66.1,14.3 66.1,53.3 42.8,53.3 	"/>
</g>
<g>
	<defs>
		<rect id="SVGID_4_" x="8.4" y="5.8" width="58.4" height="48.2"/>
	</defs>
	<clipPath id="SVGID_5_">
		<use xlink:href="#SVGID_4_"  style="overflow:visible;"/>
	</clipPath>
	<path class="st4" d="M37.6,52.9c0,0-7.4-8.6-21.9-6.5c-0.3-5.2,0.1-34.4,0-39.9c15-0.7,21.9,6.5,21.9,6.5V52.9z"/>
</g>
<g>
	<defs>
		<rect id="SVGID_6_" x="8.4" y="5.8" width="58.4" height="48.2"/>
	</defs>
	<clipPath id="SVGID_7_">
		<use xlink:href="#SVGID_6_"  style="overflow:visible;"/>
	</clipPath>
	<pattern  id="SVGID_8_" xlink:href="#Unnamed_Pattern_11" patternTransform="matrix(0.8867 0 0 -0.8867 326.4856 615.3474)">
	</pattern>
	<path class="st5" d="M37.6,52.9c0,0-7.4-8.6-21.9-6.5c-0.3-5.2,0.1-34.4,0-39.9c15-0.7,21.9,6.5,21.9,6.5V52.9z"/>
</g>
<g>
	<defs>
		<rect id="SVGID_9_" x="8.4" y="5.8" width="58.4" height="48.2"/>
	</defs>
	<clipPath id="SVGID_10_">
		<use xlink:href="#SVGID_9_"  style="overflow:visible;"/>
	</clipPath>
	<path class="st6" d="M37.6,53.1c0,0,7.4-8.6,21.9-6.5c0.3-5.2-0.1-34.4,0-39.9c-15-0.7-21.9,6.5-21.9,6.5V53.1z"/>
</g>
<g>
	<defs>
		<rect id="SVGID_11_" x="8.4" y="5.8" width="58.4" height="48.2"/>
	</defs>
	<clipPath id="SVGID_12_">
		<use xlink:href="#SVGID_11_"  style="overflow:visible;"/>
	</clipPath>
	<pattern  id="SVGID_13_" xlink:href="#Unnamed_Pattern_11" patternTransform="matrix(0.8867 0 0 -0.8867 326.4856 615.3474)">
	</pattern>
	<path class="st7" d="M37.6,53.1c0,0,7.4-8.6,21.9-6.5c0.3-5.2-0.1-34.4,0-39.9c-15-0.7-21.9,6.5-21.9,6.5V53.1z"/>
</g>
<g>
	<defs>
		<rect id="SVGID_14_" x="8.4" y="5.8" width="58.4" height="48.2"/>
	</defs>
	<clipPath id="SVGID_15_">
		<use xlink:href="#SVGID_14_"  style="overflow:visible;"/>
	</clipPath>
	<pattern  id="SVGID_16_" xlink:href="#Unnamed_Pattern_11" patternTransform="matrix(0.8867 0 0 -0.8867 326.4856 609.5192)">
	</pattern>
	<path class="st8" d="M41.8,38c0,0,5.5-3,13.1-2.6"/>
	<pattern  id="SVGID_17_" xlink:href="#Unnamed_Pattern_11" patternTransform="matrix(0.8867 0 0 -0.8867 326.4856 603.0388)">
	</pattern>
	<path class="st9" d="M41.8,31.5c0,0,5.5-3,13.1-2.6"/>
	<pattern  id="SVGID_18_" xlink:href="#Unnamed_Pattern_11" patternTransform="matrix(0.8867 0 0 -0.8867 326.4856 622.0974)">
	</pattern>
	<path class="st10" d="M41.8,25c0,0,5.5-3,13.1-2.6"/>
	<pattern  id="SVGID_19_" xlink:href="#Unnamed_Pattern_11" patternTransform="matrix(0.8867 0 0 -0.8867 326.4856 615.6276)">
	</pattern>
	<path class="st11" d="M41.8,18.5c0,0,5.5-3,13.1-2.6"/>
	<pattern  id="SVGID_20_" xlink:href="#Unnamed_Pattern_11" patternTransform="matrix(-0.8867 0 0 -0.8867 759.3776 609.5192)">
	</pattern>
	<path class="st12" d="M33.1,38c0,0-5.5-3-13.1-2.6"/>
	<pattern  id="SVGID_21_" xlink:href="#Unnamed_Pattern_11" patternTransform="matrix(-0.8867 0 0 -0.8867 759.3776 603.0388)">
	</pattern>
	<path class="st13" d="M33.1,31.5c0,0-5.5-3-13.1-2.6"/>
	<pattern  id="SVGID_22_" xlink:href="#Unnamed_Pattern_11" patternTransform="matrix(-0.8867 0 0 -0.8867 759.3776 622.0974)">
	</pattern>
	<path class="st14" d="M33.1,25c0,0-5.5-3-13.1-2.6"/>
	<pattern  id="SVGID_23_" xlink:href="#Unnamed_Pattern_11" patternTransform="matrix(-0.8867 0 0 -0.8867 759.3776 615.6276)">
	</pattern>
	<path class="st15" d="M33.1,18.5c0,0-5.5-3-13.1-2.6"/>
</g>
</svg>
