<svg id="Layer_1" data-name="Layer 1" xmlns="http://www.w3.org/2000/svg" xmlns:xlink="http://www.w3.org/1999/xlink" viewBox="0 0 200 200"><defs><style>.cls-1{fill:none;}.cls-2{clip-path:url(#clip-path);}.cls-3{fill:#53b7e8;}</style><clipPath id="clip-path"><rect class="cls-1" y="33.97106" width="200" height="132.05788"/></clipPath></defs><title>icon-engage</title><g class="cls-2"><path class="cls-3" d="M164.14231,166.02894,151.38962,138.903a89.88619,89.88619,0,0,1-12.42752.878c-33.65671,0-61.04275-18.35131-61.04275-40.90835s27.386-40.90293,61.04275-40.90293c33.65129,0,61.03734,18.34589,61.03734,40.90293,0,11.078-6.3628,21.35928-17.94483,29.05534Zm-8.0104-36.1498,8.0104,17.04515,11.5495-24.57861.99183-.62869c9.7935-6.21647,15.18616-14.32985,15.18616-22.84429,0-18.0749-23.73855-32.77329-52.9077-32.77329-29.17457,0-52.91311,14.69839-52.91311,32.77329s23.73855,32.77871,52.91311,32.77871a82.97831,82.97831,0,0,0,14.11847-1.24113Z"/><path class="cls-3" d="M35.85714,142.03132,17.93941,103.9304C6.3628,96.23434,0,85.95306,0,74.87507,0,52.318,27.386,33.97214,61.03734,33.97214c33.65671,0,61.04276,18.34589,61.04276,40.90294,0,25.2886-34.75151,45.39049-73.47027,40.03034ZM61.03734,42.10178c-29.16915,0-52.9077,14.69839-52.9077,32.7733,0,8.51444,5.38724,16.62782,15.18075,22.84429l.99182.62869,11.55493,24.57861,8.0104-17.04515,3.05132.53114a82.97863,82.97863,0,0,0,14.11848,1.24113c29.17456,0,52.91312-14.70381,52.91312-32.77871S90.2119,42.10178,61.03734,42.10178"/></g></svg>