<?xml version="1.0" encoding="utf-8"?>
<!-- Generator: Adobe Illustrator 21.0.0, SVG Export Plug-In . SVG Version: 6.00 Build 0)  -->
<svg version="1.1" id="Layer_1" xmlns="http://www.w3.org/2000/svg" xmlns:xlink="http://www.w3.org/1999/xlink" x="0px" y="0px"
	 viewBox="0 0 200 200" style="enable-background:new 0 0 200 200;" xml:space="preserve">
<style type="text/css">
	.st0{display:none;fill:#FBAF17;}
	.st1{fill:#FBAF17;}
</style>
<path class="st0" d="M167.5,90.5c0.9,0.9,1.4,2.1,1.4,3.4c0,2.7-2.2,4.8-4.8,4.8c-2.7,0-4.8-2.2-4.8-4.8c0-2.7,2.2-4.8,4.8-4.8
	C165.5,89,166.7,89.6,167.5,90.5z"/>
<path class="st1" d="M169,93.9c0,2.7-2.2,4.8-4.8,4.8c-2.7,0-4.8-2.2-4.8-4.8c0-2.7,2.2-4.8,4.8-4.8c1.3,0,2.5,0.5,3.4,1.4
	C168.4,91.3,169,92.6,169,93.9z M114,120.4c0-0.5,0.1-0.9,0.2-1.3C114.1,119.5,114,119.9,114,120.4l0,24.4c0,0.4-0.1,0.8-0.2,1.1
	c0.1-0.4,0.2-0.7,0.2-1.1V120.4z M125.2,63.4c-5.4-12.2-14.6-22.3-26.3-28.8c-0.2-0.1-0.3-0.2-0.5-0.3
	C110,40.5,119.6,50.5,125.2,63.4z M199.8,119l-21.3-63.9c8.3-5.3,13.4-14.4,13.4-24.3c0-2.4-1.9-4.3-4.3-4.3h-85.5
	c4.5,2.4,8.7,5.3,12.6,8.6h68.1c-1.4,6.2-5.6,11.4-11.3,14c-2,0.9-3,3.2-2.3,5.3l20.6,61.7h-10.3c-2.4,0-4.3,1.9-4.3,4.3v24.4
	c0,2.1-1.7,3.8-3.8,3.8h-20.4c-2.4,0-4.3,1.9-4.3,4.3v20.1H94.1v4.3c0,2.4-1.9,4.3-4.3,4.3h61.1c2.4,0,4.3-1.9,4.3-4.3v-20.1h16.1
	c6.9,0,12.4-5.6,12.5-12.5v-20.1h12c0.5,0,0.9-0.1,1.4-0.2C199.3,123.7,200.5,121.3,199.8,119z M132.3,58.1c0-0.1,0-0.1-0.1-0.2
	c-0.2-0.5-0.5-1.1-0.8-1.6c0,0.1,0.1,0.1,0.1,0.2C131.8,57,132,57.6,132.3,58.1z M131.1,55.8c0.1,0.2,0.2,0.4,0.3,0.5
	c-0.1-0.2-0.2-0.4-0.4-0.7c-0.3-0.5-0.6-1-0.8-1.6c0-0.1-0.1-0.1-0.1-0.2c0.1,0.3,0.3,0.5,0.4,0.8C130.7,55,130.9,55.4,131.1,55.8z
	 M130,53.8C130.1,53.8,130.1,53.9,130,53.8C130.1,53.8,130,53.8,130,53.8c-0.3-0.5-0.6-1-0.8-1.5c-0.1-0.2-0.2-0.3-0.3-0.5
	c-0.3-0.5-0.7-1.1-1-1.6c0-0.1-0.1-0.1-0.1-0.2c0,0,0,0.1,0.1,0.1c0.2,0.4,0.5,0.8,0.7,1.1c0.1,0.2,0.3,0.4,0.4,0.7
	c0,0.1,0.1,0.2,0.1,0.2c0.2,0.2,0.3,0.5,0.5,0.8C129.7,53.2,129.9,53.5,130,53.8z M125.3,46.5c0.9,1.2,1.7,2.4,2.5,3.6
	c-0.4-0.6-0.8-1.2-1.2-1.8C126.2,47.7,125.8,47.1,125.3,46.5z M122.6,43c1,1.1,1.9,2.3,2.8,3.5C124.4,45.3,123.5,44.2,122.6,43z
	 M121.7,42c0.3,0.3,0.6,0.7,0.9,1.1c-0.4-0.5-0.8-0.9-1.2-1.4c-0.6-0.7-1.3-1.4-2-2.1c0.1,0.1,0.3,0.3,0.4,0.4
	c0.5,0.5,0.9,0.9,1.3,1.4C121.3,41.5,121.5,41.7,121.7,42z M119.4,39.5C119.4,39.5,119.4,39.5,119.4,39.5c-0.4-0.4-0.7-0.7-1.1-1.1
	C118.7,38.8,119,39.1,119.4,39.5z M118,38.1c0.1,0.1,0.2,0.2,0.3,0.3c-0.7-0.7-1.5-1.5-2.3-2.2c-0.4-0.4-0.9-0.8-1.3-1.2h0
	c0.3,0.3,0.7,0.6,1,0.9c0,0,0,0,0,0c0.2,0.2,0.4,0.3,0.6,0.5c0.1,0.1,0.3,0.3,0.5,0.4C117.2,37.3,117.6,37.7,118,38.1z M101,26.5
	h1.1c-9.8-5.2-20.9-8.1-32.6-8.1C31.1,18.3,0,49.4,0,87.8v65.2c0,2.4,1.9,4.3,4.3,4.3h24.2v20.1c0,2.4,1.9,4.3,4.3,4.3h57
	c-2.4,0-4.3-1.9-4.3-4.3v-4.3H37.1v-20.1c0-2.4-1.9-4.3-4.3-4.3H8.6V87.8c0-25.7,16.1-48.7,40.3-57.3c16.9-6.1,34.8-4.2,49.5,3.8
	c-1.7-1.3-2.2-3.6-1.2-5.5C98,27.3,99.5,26.5,101,26.5z M138.7,119l-14.4-43.2h8.3c0.4,0,0.7,0,1.1-0.1c2.3-0.6,3.7-2.9,3.1-5.2
	c-0.2-0.9-0.5-1.7-0.7-2.6c-0.1-0.4-0.3-0.8-0.4-1.3c-0.1-0.4-0.3-0.8-0.4-1.3c-0.2-0.4-0.3-0.8-0.4-1.2c-0.4-1.2-0.9-2.4-1.4-3.5
	c-0.1-0.2-0.2-0.4-0.3-0.7c-0.3-0.6-0.5-1.2-0.8-1.8c0-0.1,0-0.1-0.1-0.2c-0.2-0.5-0.5-0.9-0.7-1.4c0-0.1-0.1-0.1-0.1-0.2
	c-0.1-0.2-0.2-0.3-0.3-0.5c-0.2-0.4-0.4-0.8-0.6-1.1c-0.1-0.2-0.2-0.4-0.3-0.6c0-0.1-0.1-0.2-0.1-0.2c-0.2-0.3-0.3-0.6-0.5-0.9
	c-0.2-0.2-0.3-0.5-0.5-0.8c0-0.1-0.1-0.2-0.1-0.2c-0.1-0.2-0.3-0.4-0.4-0.7c-0.2-0.4-0.5-0.8-0.7-1.1c-0.4-0.6-0.8-1.2-1.2-1.8
	c-0.4-0.6-0.8-1.2-1.3-1.8c-0.9-1.2-1.8-2.3-2.8-3.5c-0.3-0.4-0.6-0.7-0.9-1.1c-0.2-0.2-0.4-0.4-0.6-0.6c-0.4-0.5-0.9-1-1.3-1.4
	c-0.1-0.2-0.3-0.3-0.4-0.4c-0.4-0.5-0.9-0.9-1.3-1.4c-0.4-0.4-0.8-0.8-1.2-1.2c-0.2-0.1-0.3-0.3-0.5-0.4c-0.2-0.2-0.4-0.3-0.6-0.5
	c0,0,0,0,0,0c-0.3-0.3-0.7-0.6-1-0.9h0c-3.9-3.3-8.1-6.2-12.6-8.6H101c-1.6,0-3,0.9-3.8,2.2c-1,1.9-0.5,4.2,1.2,5.5c0,0,0,0,0,0
	c10.9,5.9,20,15.1,25.7,26.8c0.4,0.8,0.8,1.6,1.1,2.4c0.2,0.4,0.4,0.8,0.5,1.2c0.2,0.4,0.3,0.8,0.5,1.1c0.2,0.5,0.4,1,0.5,1.5h-8.4
	c-0.5,0-0.9,0.1-1.4,0.2c-2.3,0.8-3.5,3.2-2.7,5.5l14.4,43.2h-10.3c-1.2,0-2.3,0.5-3,1.3c-0.3,0.3-0.5,0.6-0.7,1
	c-0.1,0.2-0.2,0.5-0.3,0.8c-0.1,0.4-0.2,0.8-0.2,1.3v24.4c0,0.4-0.1,0.8-0.2,1.1c-0.5,1.6-1.9,2.7-3.7,2.7H89.8
	c-2.4,0-4.3,1.9-4.3,4.3v24.4c0,2.4,1.9,4.3,4.3,4.3s4.3-1.9,4.3-4.3v-20.1h16c6.9,0,12.4-5.6,12.5-12.5v-20.1h12
	c0.5,0,0.9-0.1,1.4-0.2C138.2,123.7,139.5,121.3,138.7,119z M103.4,90.5c-0.9-0.9-2.1-1.4-3.4-1.4c-2.7,0-4.8,2.2-4.8,4.8
	c0,2.7,2.2,4.8,4.8,4.8c2.7,0,4.8-2.2,4.8-4.8C104.8,92.6,104.3,91.3,103.4,90.5z"/>
<path class="st0" d="M169,93.9c0,2.7-2.2,4.8-4.8,4.8c-2.7,0-4.8-2.2-4.8-4.8c0-2.7,2.2-4.8,4.8-4.8c1.3,0,2.5,0.5,3.4,1.4
	C168.4,91.3,169,92.6,169,93.9z"/>
</svg>
