<svg id="Layer_1" data-name="Layer 1" xmlns="http://www.w3.org/2000/svg" xmlns:xlink="http://www.w3.org/1999/xlink" viewBox="0 0 300 300"><defs><style>.cls-1,.cls-10,.cls-11,.cls-12,.cls-5,.cls-6,.cls-7,.cls-8,.cls-9{fill:none;}.cls-2{fill:#f37021;}.cls-3{fill:#feec95;}.cls-10,.cls-11,.cls-12,.cls-3,.cls-4,.cls-5,.cls-6,.cls-7,.cls-8,.cls-9{stroke-linecap:round;stroke-linejoin:round;stroke-width:1.5px;}.cls-3,.cls-4{stroke:url(#New_Pattern_Swatch_14);}.cls-4{fill:#fff;}.cls-5{stroke:url(#New_Pattern_Swatch_14-7);}.cls-6{stroke:url(#New_Pattern_Swatch_14-9);}.cls-7{stroke:url(#New_Pattern_Swatch_14-11);}.cls-8{stroke:url(#New_Pattern_Swatch_14-13);}.cls-9{stroke:url(#New_Pattern_Swatch_14-15);}.cls-10{stroke:url(#New_Pattern_Swatch_14-17);}.cls-11{stroke:url(#New_Pattern_Swatch_14-19);}.cls-12{stroke:url(#New_Pattern_Swatch_14-21);}</style><pattern id="New_Pattern_Swatch_14" data-name="New Pattern Swatch 14" width="28.8" height="28.8" patternTransform="translate(-251.40752 -274.58106) scale(4.67177)" patternUnits="userSpaceOnUse" viewBox="0 0 28.8 28.8"><rect class="cls-1" width="28.8" height="28.8"/><rect class="cls-2" width="28.8" height="28.8"/></pattern><pattern id="New_Pattern_Swatch_14-7" data-name="New Pattern Swatch 14" width="28.8" height="28.8" patternTransform="translate(-251.40752 -305.29394) scale(4.67177)" patternUnits="userSpaceOnUse" viewBox="0 0 28.8 28.8"><rect class="cls-1" width="28.8" height="28.8"/><rect class="cls-2" width="28.8" height="28.8"/></pattern><pattern id="New_Pattern_Swatch_14-9" data-name="New Pattern Swatch 14" width="28.8" height="28.8" patternTransform="translate(-251.40752 -339.41936) scale(4.67177)" patternUnits="userSpaceOnUse" viewBox="0 0 28.8 28.8"><rect class="cls-1" width="28.8" height="28.8"/><rect class="cls-2" width="28.8" height="28.8"/></pattern><pattern id="New_Pattern_Swatch_14-11" data-name="New Pattern Swatch 14" width="28.8" height="28.8" patternTransform="translate(-251.40752 -373.54479) scale(4.67177)" patternUnits="userSpaceOnUse" viewBox="0 0 28.8 28.8"><rect class="cls-1" width="28.8" height="28.8"/><rect class="cls-2" width="28.8" height="28.8"/></pattern><pattern id="New_Pattern_Swatch_14-13" data-name="New Pattern Swatch 14" width="28.8" height="28.8" patternTransform="translate(-251.40752 -407.67021) scale(4.67177)" patternUnits="userSpaceOnUse" viewBox="0 0 28.8 28.8"><rect class="cls-1" width="28.8" height="28.8"/><rect class="cls-2" width="28.8" height="28.8"/></pattern><pattern id="New_Pattern_Swatch_14-15" data-name="New Pattern Swatch 14" width="28.8" height="28.8" patternTransform="matrix(-4.67177, 0, 0, 4.67177, 216.82427, -305.29394)" patternUnits="userSpaceOnUse" viewBox="0 0 28.8 28.8"><rect class="cls-1" width="28.8" height="28.8"/><rect class="cls-2" width="28.8" height="28.8"/></pattern><pattern id="New_Pattern_Swatch_14-17" data-name="New Pattern Swatch 14" width="28.8" height="28.8" patternTransform="matrix(-4.67177, 0, 0, 4.67177, 216.82427, -339.41936)" patternUnits="userSpaceOnUse" viewBox="0 0 28.8 28.8"><rect class="cls-1" width="28.8" height="28.8"/><rect class="cls-2" width="28.8" height="28.8"/></pattern><pattern id="New_Pattern_Swatch_14-19" data-name="New Pattern Swatch 14" width="28.8" height="28.8" patternTransform="matrix(-4.67177, 0, 0, 4.67177, 216.82427, -373.54478)" patternUnits="userSpaceOnUse" viewBox="0 0 28.8 28.8"><rect class="cls-1" width="28.8" height="28.8"/><rect class="cls-2" width="28.8" height="28.8"/></pattern><pattern id="New_Pattern_Swatch_14-21" data-name="New Pattern Swatch 14" width="28.8" height="28.8" patternTransform="matrix(-4.67177, 0, 0, 4.67177, 216.82427, -407.67021)" patternUnits="userSpaceOnUse" viewBox="0 0 28.8 28.8"><rect class="cls-1" width="28.8" height="28.8"/><rect class="cls-2" width="28.8" height="28.8"/></pattern></defs><title>icon-book</title><polyline class="cls-3" points="119.066 273.067 0 273.067 0 67.756 300 67.756 300 273.067 177.034 273.067"/><path class="cls-4" d="M149.75423,271.29893S111.008,225.99725,34.21751,237.17351c-1.59151-27.60864.39788-181.11193,0-210.00094C113.39523,23.59168,149.75423,61.298,149.75423,61.298Z"/><path class="cls-4" d="M149.63876,272.46742S188.385,227.16574,265.17548,238.342c1.59151-27.60864-.39788-181.11193,0-210.00094-79.17772-3.5809-115.53672,34.12542-115.53672,34.12542Z"/><path class="cls-5" d="M171.88329,192.49452s29.14838-15.86562,69.08347-13.64253"/><path class="cls-6" d="M171.88329,158.3691s29.14838-15.86562,69.08347-13.64253"/><path class="cls-7" d="M171.88329,124.24368s29.14838-15.86562,69.08347-13.64253"/><path class="cls-8" d="M171.88329,90.11826s29.14838-15.86562,69.08347-13.64253"/><path class="cls-9" d="M126.26893,192.49452S97.12055,176.6289,57.18546,178.852"/><path class="cls-10" d="M126.26893,158.3691s-29.14838-15.86562-69.08347-13.64253"/><path class="cls-11" d="M126.26893,124.24368s-29.14838-15.86562-69.08347-13.64253"/><path class="cls-12" d="M126.26893,90.11826S97.12055,74.25263,57.18546,76.47573"/></svg>