<?xml version="1.0" encoding="utf-8"?>
<!-- Generator: Adobe Illustrator 21.0.0, SVG Export Plug-In . SVG Version: 6.00 Build 0)  -->
<svg version="1.1" id="Layer_1" xmlns="http://www.w3.org/2000/svg" xmlns:xlink="http://www.w3.org/1999/xlink" x="0px" y="0px"
	 viewBox="0 0 190 118.8" style="enable-background:new 0 0 190 118.8;" xml:space="preserve">
<style type="text/css">
	.st0{fill:none;}
	.st1{fill:#F26F21;}
	.st2{clip-path:url(#SVGID_2_);fill:#FFFFFF;}
	
		.st3{clip-path:url(#SVGID_4_);fill:none;stroke:url(#SVGID_5_);stroke-width:1.698;stroke-linecap:round;stroke-linejoin:round;stroke-miterlimit:10;}
	.st4{clip-path:url(#SVGID_7_);fill:#FFFFFF;}
	
		.st5{clip-path:url(#SVGID_9_);fill:none;stroke:url(#SVGID_10_);stroke-width:1.698;stroke-linecap:round;stroke-linejoin:round;stroke-miterlimit:10;}
	.st6{clip-path:url(#SVGID_12_);fill:#FFFFFF;}
	
		.st7{clip-path:url(#SVGID_14_);fill:none;stroke:url(#SVGID_15_);stroke-width:1.698;stroke-linecap:round;stroke-linejoin:round;stroke-miterlimit:10;}
	
		.st8{clip-path:url(#SVGID_17_);fill:none;stroke:url(#SVGID_18_);stroke-width:1.698;stroke-linecap:round;stroke-linejoin:round;stroke-miterlimit:10;}
	
		.st9{clip-path:url(#SVGID_17_);fill:none;stroke:url(#SVGID_19_);stroke-width:1.698;stroke-linecap:round;stroke-linejoin:round;stroke-miterlimit:10;}
	.st10{clip-path:url(#SVGID_17_);fill:#FFFFFF;}
	
		.st11{clip-path:url(#SVGID_17_);fill:none;stroke:url(#SVGID_20_);stroke-width:1.698;stroke-linecap:round;stroke-linejoin:round;stroke-miterlimit:10;}
	
		.st12{clip-path:url(#SVGID_22_);fill:none;stroke:url(#SVGID_23_);stroke-width:1.698;stroke-linecap:round;stroke-linejoin:round;stroke-miterlimit:10;}
	.st13{clip-path:url(#SVGID_25_);fill:#FFD44E;}
	
		.st14{clip-path:url(#SVGID_27_);fill:none;stroke:url(#SVGID_28_);stroke-width:1.698;stroke-linecap:round;stroke-linejoin:round;stroke-miterlimit:10;}
	.st15{clip-path:url(#SVGID_30_);fill:#FFFFFF;}
	
		.st16{clip-path:url(#SVGID_32_);fill:none;stroke:url(#SVGID_33_);stroke-width:1.698;stroke-linecap:round;stroke-linejoin:round;stroke-miterlimit:10;}
	.st17{clip-path:url(#SVGID_35_);fill:#FFFFFF;}
	
		.st18{clip-path:url(#SVGID_35_);fill:none;stroke:url(#SVGID_36_);stroke-width:1.698;stroke-linecap:round;stroke-linejoin:round;stroke-miterlimit:10;}
	.st19{clip-path:url(#SVGID_35_);fill:#FFEB94;}
	
		.st20{clip-path:url(#SVGID_38_);fill:none;stroke:url(#SVGID_39_);stroke-width:1.698;stroke-linecap:round;stroke-linejoin:round;stroke-miterlimit:10;}
	
		.st21{clip-path:url(#SVGID_41_);fill:none;stroke:url(#SVGID_42_);stroke-width:1.698;stroke-linecap:round;stroke-linejoin:round;stroke-miterlimit:10;}
	
		.st22{clip-path:url(#SVGID_41_);fill:none;stroke:url(#SVGID_43_);stroke-width:1.698;stroke-linecap:round;stroke-linejoin:round;stroke-miterlimit:10;}
	.st23{clip-path:url(#SVGID_41_);fill:#FFFFFF;}
	
		.st24{clip-path:url(#SVGID_41_);fill:none;stroke:url(#SVGID_44_);stroke-width:1.698;stroke-linecap:round;stroke-linejoin:round;stroke-miterlimit:10;}
	.st25{clip-path:url(#SVGID_41_);fill:#FFEB94;}
	
		.st26{clip-path:url(#SVGID_41_);fill:none;stroke:url(#SVGID_45_);stroke-width:1.698;stroke-linecap:round;stroke-linejoin:round;stroke-miterlimit:10;}
	
		.st27{clip-path:url(#SVGID_41_);fill:none;stroke:url(#SVGID_46_);stroke-width:1.698;stroke-linecap:round;stroke-linejoin:round;stroke-miterlimit:10;}
	
		.st28{clip-path:url(#SVGID_41_);fill:none;stroke:url(#SVGID_47_);stroke-width:1.698;stroke-linecap:round;stroke-linejoin:round;stroke-miterlimit:10;}
	
		.st29{clip-path:url(#SVGID_41_);fill:none;stroke:url(#SVGID_48_);stroke-width:1.698;stroke-linecap:round;stroke-linejoin:round;stroke-miterlimit:10;}
	.st30{clip-path:url(#SVGID_41_);fill:#FFD44E;}
	
		.st31{clip-path:url(#SVGID_50_);fill:none;stroke:url(#SVGID_51_);stroke-width:1.698;stroke-linecap:round;stroke-linejoin:round;stroke-miterlimit:10;}
	
		.st32{clip-path:url(#SVGID_53_);fill:none;stroke:url(#SVGID_54_);stroke-width:1.698;stroke-linecap:round;stroke-linejoin:round;stroke-miterlimit:10;}
	
		.st33{clip-path:url(#SVGID_53_);fill:none;stroke:url(#SVGID_55_);stroke-width:1.698;stroke-linecap:round;stroke-linejoin:round;stroke-miterlimit:10;}
	
		.st34{clip-path:url(#SVGID_53_);fill:none;stroke:url(#SVGID_56_);stroke-width:1.698;stroke-linecap:round;stroke-linejoin:round;stroke-miterlimit:10;}
	.st35{clip-path:url(#SVGID_53_);fill:#FFFFFF;}
	
		.st36{clip-path:url(#SVGID_53_);fill:none;stroke:url(#SVGID_57_);stroke-width:1.698;stroke-linecap:round;stroke-linejoin:round;stroke-miterlimit:10;}
	
		.st37{clip-path:url(#SVGID_53_);fill:none;stroke:url(#SVGID_58_);stroke-width:1.698;stroke-linecap:round;stroke-linejoin:round;stroke-miterlimit:10;}
	
		.st38{clip-path:url(#SVGID_53_);fill:none;stroke:url(#SVGID_59_);stroke-width:1.698;stroke-linecap:round;stroke-linejoin:round;stroke-miterlimit:10;}
	.st39{clip-path:url(#SVGID_53_);fill:#FFEB94;}
	
		.st40{clip-path:url(#SVGID_61_);fill:none;stroke:url(#SVGID_62_);stroke-width:1.698;stroke-linecap:round;stroke-linejoin:round;stroke-miterlimit:10;}
	.st41{clip-path:url(#SVGID_64_);fill:#FFEB94;}
	
		.st42{clip-path:url(#SVGID_66_);fill:none;stroke:url(#SVGID_67_);stroke-width:1.698;stroke-linecap:round;stroke-linejoin:round;stroke-miterlimit:10;}
	.st43{clip-path:url(#SVGID_69_);fill:#FFFFFF;}
	
		.st44{clip-path:url(#SVGID_69_);fill:none;stroke:url(#SVGID_70_);stroke-width:1.698;stroke-linecap:round;stroke-linejoin:round;stroke-miterlimit:10;}
	
		.st45{clip-path:url(#SVGID_72_);fill:none;stroke:url(#SVGID_73_);stroke-width:1.698;stroke-linecap:round;stroke-linejoin:round;stroke-miterlimit:10;}
	.st46{clip-path:url(#SVGID_75_);fill:#FFFFFF;}
	
		.st47{clip-path:url(#SVGID_77_);fill:none;stroke:url(#SVGID_78_);stroke-width:1.698;stroke-linecap:round;stroke-linejoin:round;stroke-miterlimit:10;}
	.st48{clip-path:url(#SVGID_80_);fill:#FFFFFF;}
	
		.st49{clip-path:url(#SVGID_82_);fill:none;stroke:url(#SVGID_83_);stroke-width:1.698;stroke-linecap:round;stroke-linejoin:round;stroke-miterlimit:10;}
	.st50{clip-path:url(#SVGID_85_);fill:#FFFFFF;}
	
		.st51{clip-path:url(#SVGID_87_);fill:none;stroke:url(#SVGID_88_);stroke-width:1.698;stroke-linecap:round;stroke-linejoin:round;stroke-miterlimit:10;}
	.st52{clip-path:url(#SVGID_90_);fill:#FFFFFF;}
	
		.st53{clip-path:url(#SVGID_90_);fill:none;stroke:url(#SVGID_91_);stroke-width:1.698;stroke-linecap:round;stroke-linejoin:round;stroke-miterlimit:10;}
	
		.st54{clip-path:url(#SVGID_90_);fill:none;stroke:url(#SVGID_92_);stroke-width:1.698;stroke-linecap:round;stroke-linejoin:round;stroke-miterlimit:10;}
	
		.st55{clip-path:url(#SVGID_90_);fill:none;stroke:url(#SVGID_93_);stroke-width:1.698;stroke-linecap:round;stroke-linejoin:round;stroke-miterlimit:10;}
	.st56{clip-path:url(#SVGID_90_);fill:#FFEB94;}
	
		.st57{clip-path:url(#SVGID_95_);fill:none;stroke:url(#SVGID_96_);stroke-width:1.698;stroke-linecap:round;stroke-linejoin:round;stroke-miterlimit:10;}
	
		.st58{clip-path:url(#SVGID_95_);fill:none;stroke:url(#SVGID_97_);stroke-width:1.698;stroke-linecap:round;stroke-linejoin:round;stroke-miterlimit:10;}
	.st59{clip-path:url(#SVGID_99_);fill:#FFEB94;}
	
		.st60{clip-path:url(#SVGID_101_);fill:none;stroke:url(#SVGID_102_);stroke-width:1.698;stroke-linecap:round;stroke-linejoin:round;stroke-miterlimit:10;}
	
		.st61{clip-path:url(#SVGID_101_);fill:none;stroke:url(#SVGID_103_);stroke-width:1.698;stroke-linecap:round;stroke-linejoin:round;stroke-miterlimit:10;}
	
		.st62{clip-path:url(#SVGID_101_);fill:none;stroke:url(#SVGID_104_);stroke-width:1.698;stroke-linecap:round;stroke-linejoin:round;stroke-miterlimit:10;}
	.st63{clip-path:url(#SVGID_106_);fill:#FFFFFF;}
	
		.st64{clip-path:url(#SVGID_106_);fill:none;stroke:url(#SVGID_107_);stroke-width:1.698;stroke-linecap:round;stroke-linejoin:round;stroke-miterlimit:10;}
	
		.st65{clip-path:url(#SVGID_109_);fill:none;stroke:url(#SVGID_110_);stroke-width:1.698;stroke-linecap:round;stroke-linejoin:round;stroke-miterlimit:10;}
	
		.st66{clip-path:url(#SVGID_109_);fill:none;stroke:url(#SVGID_111_);stroke-width:1.698;stroke-linecap:round;stroke-linejoin:round;stroke-miterlimit:10;}
	
		.st67{clip-path:url(#SVGID_109_);fill:none;stroke:url(#SVGID_112_);stroke-width:1.698;stroke-linecap:round;stroke-linejoin:round;stroke-miterlimit:10;}
	
		.st68{clip-path:url(#SVGID_109_);fill:none;stroke:url(#SVGID_113_);stroke-width:1.698;stroke-linecap:round;stroke-linejoin:round;stroke-miterlimit:10;}
</style>
<pattern  x="-193" y="-120.6" width="28.8" height="28.8" patternUnits="userSpaceOnUse" id="Unnamed_Pattern_45" viewBox="0 -28.8 28.8 28.8" style="overflow:visible;">
	<g>
		<rect y="-28.8" class="st0" width="28.8" height="28.8"/>
		<rect y="-28.8" class="st1" width="28.8" height="28.8"/>
	</g>
</pattern>
<g>
	<defs>
		<rect id="SVGID_1_" x="5" y="6.1" width="179.9" height="106.2"/>
	</defs>
	<clipPath id="SVGID_2_">
		<use xlink:href="#SVGID_1_"  style="overflow:visible;"/>
	</clipPath>
	<path class="st2" d="M5.8,110.5C9.9,100,20,92.7,31.9,92.7c11.6,0,21.5,7,25.7,17.1"/>
</g>
<g>
	<defs>
		<rect id="SVGID_3_" x="5" y="6.1" width="179.9" height="106.2"/>
	</defs>
	<clipPath id="SVGID_4_">
		<use xlink:href="#SVGID_3_"  style="overflow:visible;"/>
	</clipPath>
	<pattern  id="SVGID_5_" xlink:href="#Unnamed_Pattern_45" patternTransform="matrix(1.5511 0 0 -1.5511 276.3936 1011.7687)">
	</pattern>
	<path class="st3" d="M5.8,110.5C9.9,100,20,92.7,31.9,92.7c11.6,0,21.5,7,25.7,17.1"/>
</g>
<g>
	<defs>
		<rect id="SVGID_6_" x="5" y="6.1" width="179.9" height="106.2"/>
	</defs>
	<clipPath id="SVGID_7_">
		<use xlink:href="#SVGID_6_"  style="overflow:visible;"/>
	</clipPath>
	<path class="st4" d="M67.6,110.5c4.1-10.4,14.2-17.8,26-17.8c11.6,0,21.5,7,25.7,17.1"/>
</g>
<g>
	<defs>
		<rect id="SVGID_8_" x="5" y="6.1" width="179.9" height="106.2"/>
	</defs>
	<clipPath id="SVGID_9_">
		<use xlink:href="#SVGID_8_"  style="overflow:visible;"/>
	</clipPath>
	<pattern  id="SVGID_10_" xlink:href="#Unnamed_Pattern_45" patternTransform="matrix(1.5511 0 0 -1.5511 276.3936 1011.7687)">
	</pattern>
	<path class="st5" d="M67.6,110.5c4.1-10.4,14.2-17.8,26-17.8c11.6,0,21.5,7,25.7,17.1"/>
</g>
<g>
	<defs>
		<rect id="SVGID_11_" x="5" y="6.1" width="179.9" height="106.2"/>
	</defs>
	<clipPath id="SVGID_12_">
		<use xlink:href="#SVGID_11_"  style="overflow:visible;"/>
	</clipPath>
	<path class="st6" d="M129.4,110.5c4.1-10.4,14.2-17.8,26-17.8c11.6,0,21.5,7,25.7,17.1"/>
</g>
<g>
	<defs>
		<rect id="SVGID_13_" x="5" y="6.1" width="179.9" height="106.2"/>
	</defs>
	<clipPath id="SVGID_14_">
		<use xlink:href="#SVGID_13_"  style="overflow:visible;"/>
	</clipPath>
	<pattern  id="SVGID_15_" xlink:href="#Unnamed_Pattern_45" patternTransform="matrix(1.5511 0 0 -1.5511 276.3936 1011.7687)">
	</pattern>
	<path class="st7" d="M129.4,110.5c4.1-10.4,14.2-17.8,26-17.8c11.6,0,21.5,7,25.7,17.1"/>
</g>
<g>
	<defs>
		<rect id="SVGID_16_" x="5" y="6.1" width="179.9" height="106.2"/>
	</defs>
	<clipPath id="SVGID_17_">
		<use xlink:href="#SVGID_16_"  style="overflow:visible;"/>
	</clipPath>
	<pattern  id="SVGID_18_" xlink:href="#Unnamed_Pattern_45" patternTransform="matrix(1.5511 0 0 -1.5511 276.3936 1011.7687)">
	</pattern>
	<path class="st8" d="M99.1,56.9c4.1-10.4,14.2-17.8,26-17.8c11.6,0,21.5,7,25.7,17.1"/>
	<pattern  id="SVGID_19_" xlink:href="#Unnamed_Pattern_45" patternTransform="matrix(1.5511 0 0 -1.5511 276.3936 1011.7687)">
	</pattern>
	<path class="st9" d="M33.9,56.9c4.1-10.4,14.2-17.8,26-17.8c11.6,0,22.3,8.9,26.6,18.9"/>
	<polygon class="st10" points="62.5,70.1 59.8,72.4 57,70.1 57,31.1 62.5,31.1 	"/>
	<pattern  id="SVGID_20_" xlink:href="#Unnamed_Pattern_45" patternTransform="matrix(1.5511 0 0 -1.5511 276.3936 1011.7687)">
	</pattern>
	<polygon class="st11" points="62.5,70.1 59.8,72.4 57,70.1 57,31.1 62.5,31.1 	"/>
	<path class="st10" d="M53.9,78.7c0,12.1-9.8,21.9-21.9,21.9c-12.1,0-21.9-9.8-21.9-21.9c0-12.1,9.8-21.9,21.9-21.9
		C44.1,56.8,53.9,66.6,53.9,78.7"/>
</g>
<g>
	<defs>
		<rect id="SVGID_21_" x="5" y="6.1" width="179.9" height="106.2"/>
	</defs>
	<clipPath id="SVGID_22_">
		<use xlink:href="#SVGID_21_"  style="overflow:visible;"/>
	</clipPath>
	<pattern  id="SVGID_23_" xlink:href="#Unnamed_Pattern_45" patternTransform="matrix(1.5511 0 0 -1.5511 276.3936 1011.7687)">
	</pattern>
	<circle class="st12" cx="32" cy="78.7" r="21.9"/>
</g>
<g>
	<defs>
		<rect id="SVGID_24_" x="5" y="6.1" width="179.9" height="106.2"/>
	</defs>
	<clipPath id="SVGID_25_">
		<use xlink:href="#SVGID_24_"  style="overflow:visible;"/>
	</clipPath>
	<path class="st13" d="M81.7,31.1c0,12.1-9.8,21.9-21.9,21.9s-21.9-9.8-21.9-21.9c0-12.1,9.8-21.9,21.9-21.9S81.7,19,81.7,31.1"/>
</g>
<g>
	<defs>
		<rect id="SVGID_26_" x="5" y="6.1" width="179.9" height="106.2"/>
	</defs>
	<clipPath id="SVGID_27_">
		<use xlink:href="#SVGID_26_"  style="overflow:visible;"/>
	</clipPath>
	<pattern  id="SVGID_28_" xlink:href="#Unnamed_Pattern_45" patternTransform="matrix(1.5511 0 0 -1.5511 276.3936 1011.7687)">
	</pattern>
	<circle class="st14" cx="59.8" cy="31.1" r="21.9"/>
</g>
<g>
	<defs>
		<rect id="SVGID_29_" x="5" y="6.1" width="179.9" height="106.2"/>
	</defs>
	<clipPath id="SVGID_30_">
		<use xlink:href="#SVGID_29_"  style="overflow:visible;"/>
	</clipPath>
	<path class="st15" d="M146.9,31.1c0,12.1-9.8,21.9-21.9,21.9c-12.1,0-21.9-9.8-21.9-21.9c0-12.1,9.8-21.9,21.9-21.9
		C137.1,9.2,146.9,19,146.9,31.1"/>
</g>
<g>
	<defs>
		<rect id="SVGID_31_" x="5" y="6.1" width="179.9" height="106.2"/>
	</defs>
	<clipPath id="SVGID_32_">
		<use xlink:href="#SVGID_31_"  style="overflow:visible;"/>
	</clipPath>
	<pattern  id="SVGID_33_" xlink:href="#Unnamed_Pattern_45" patternTransform="matrix(1.5511 0 0 -1.5511 276.3936 1011.7687)">
	</pattern>
	<circle class="st16" cx="125" cy="31.1" r="21.9"/>
</g>
<g>
	<defs>
		<rect id="SVGID_34_" x="5" y="6.1" width="179.9" height="106.2"/>
	</defs>
	<clipPath id="SVGID_35_">
		<use xlink:href="#SVGID_34_"  style="overflow:visible;"/>
	</clipPath>
	<path class="st17" d="M115.4,78.7c0,12.1-9.8,21.9-21.9,21.9c-12.1,0-21.9-9.8-21.9-21.9c0-12.1,9.8-21.9,21.9-21.9
		C105.6,56.8,115.4,66.6,115.4,78.7"/>
	<pattern  id="SVGID_36_" xlink:href="#Unnamed_Pattern_45" patternTransform="matrix(1.5511 0 0 -1.5511 276.3936 1011.7687)">
	</pattern>
	<circle class="st18" cx="93.5" cy="78.7" r="21.9"/>
	<path class="st19" d="M176.7,78.7c0,12.1-9.8,21.9-21.9,21.9c-12.1,0-21.9-9.8-21.9-21.9c0-11.1,8.3-20.3,19-21.7
		c0.9-0.1,1.9-0.2,2.9-0.2C166.9,56.8,176.7,66.6,176.7,78.7"/>
</g>
<g>
	<defs>
		<rect id="SVGID_37_" x="5" y="6.1" width="179.9" height="106.2"/>
	</defs>
	<clipPath id="SVGID_38_">
		<use xlink:href="#SVGID_37_"  style="overflow:visible;"/>
	</clipPath>
	<pattern  id="SVGID_39_" xlink:href="#Unnamed_Pattern_45" patternTransform="matrix(1.5511 0 0 -1.5511 276.3936 1011.7687)">
	</pattern>
	<path class="st20" d="M176.7,78.7c0,12.1-9.8,21.9-21.9,21.9c-12.1,0-21.9-9.8-21.9-21.9c0-11.1,8.3-20.3,19-21.7
		c0.9-0.1,1.9-0.2,2.9-0.2C166.9,56.8,176.7,66.6,176.7,78.7z"/>
</g>
<g>
	<defs>
		<rect id="SVGID_40_" x="5" y="6.1" width="179.9" height="106.2"/>
	</defs>
	<clipPath id="SVGID_41_">
		<use xlink:href="#SVGID_40_"  style="overflow:visible;"/>
	</clipPath>
	<pattern  id="SVGID_42_" xlink:href="#Unnamed_Pattern_45" patternTransform="matrix(1.5511 0 0 -1.5511 276.3936 1011.7687)">
	</pattern>
	<line class="st21" x1="32" y1="66.9" x2="32" y2="84.4"/>
	<pattern  id="SVGID_43_" xlink:href="#Unnamed_Pattern_45" patternTransform="matrix(1.5511 0 0 -1.5511 276.3936 1011.7687)">
	</pattern>
	<line class="st22" x1="28.3" y1="84.4" x2="35.7" y2="84.4"/>
	<line class="st23" x1="56.1" y1="35" x2="63.5" y2="35"/>
	<pattern  id="SVGID_44_" xlink:href="#Unnamed_Pattern_45" patternTransform="matrix(1.5511 0 0 -1.5511 276.3936 1011.7687)">
	</pattern>
	<line class="st24" x1="56.1" y1="35" x2="63.5" y2="35"/>
	<rect x="68.5" y="69.4" class="st25" width="21.1" height="11.9"/>
	<pattern  id="SVGID_45_" xlink:href="#Unnamed_Pattern_45" patternTransform="matrix(1.5511 0 0 -1.5511 276.3936 1011.7687)">
	</pattern>
	<rect x="68.5" y="69.4" class="st26" width="21.1" height="11.9"/>
	<rect x="97.4" y="69.4" class="st25" width="21.1" height="11.9"/>
	<pattern  id="SVGID_46_" xlink:href="#Unnamed_Pattern_45" patternTransform="matrix(1.5511 0 0 -1.5511 276.3936 1011.7687)">
	</pattern>
	<rect x="97.4" y="69.4" class="st27" width="21.1" height="11.9"/>
	<line class="st23" x1="89.6" y1="75.4" x2="97.4" y2="75.4"/>
	<pattern  id="SVGID_47_" xlink:href="#Unnamed_Pattern_45" patternTransform="matrix(1.5511 0 0 -1.5511 276.3936 1011.7687)">
	</pattern>
	<line class="st28" x1="89.6" y1="75.4" x2="97.4" y2="75.4"/>
	<pattern  id="SVGID_48_" xlink:href="#Unnamed_Pattern_45" patternTransform="matrix(1.5511 0 0 -1.5511 276.3936 1011.7687)">
	</pattern>
	<path class="st29" d="M151.4,77.7c0,2.5-2,4.5-4.5,4.5c-2.5,0-4.5-2-4.5-4.5"/>
	<path class="st30" d="M103.6,95.9c0,5.6-4.5,10.1-10.1,10.1c-5.6,0-10.1-4.5-10.1-10.1c0-5.6,4.5-10.1,10.1-10.1
		C99.1,85.9,103.6,90.4,103.6,95.9"/>
</g>
<g>
	<defs>
		<rect id="SVGID_49_" x="5" y="6.1" width="179.9" height="106.2"/>
	</defs>
	<clipPath id="SVGID_50_">
		<use xlink:href="#SVGID_49_"  style="overflow:visible;"/>
	</clipPath>
	<pattern  id="SVGID_51_" xlink:href="#Unnamed_Pattern_45" patternTransform="matrix(1.5511 0 0 -1.5511 276.3936 1011.7687)">
	</pattern>
	<circle class="st31" cx="93.5" cy="95.9" r="10.1"/>
</g>
<g>
	<defs>
		<rect id="SVGID_52_" x="5" y="6.1" width="179.9" height="106.2"/>
	</defs>
	<clipPath id="SVGID_53_">
		<use xlink:href="#SVGID_52_"  style="overflow:visible;"/>
	</clipPath>
	<pattern  id="SVGID_54_" xlink:href="#Unnamed_Pattern_45" patternTransform="matrix(1.5511 0 0 -1.5511 276.3936 1011.7687)">
	</pattern>
	<path class="st32" d="M98,92.5c0,2.5-2,4.5-4.5,4.5c-2.5,0-4.5-2-4.5-4.5"/>
	<pattern  id="SVGID_55_" xlink:href="#Unnamed_Pattern_45" patternTransform="matrix(1.5511 0 0 -1.5511 276.3936 1011.7687)">
	</pattern>
	<path class="st33" d="M159.8,90.3c0,2.5-2,4.5-4.5,4.5c-2.5,0-4.5-2-4.5-4.5"/>
	<pattern  id="SVGID_56_" xlink:href="#Unnamed_Pattern_45" patternTransform="matrix(1.5511 0 0 -1.5511 276.3936 1011.7687)">
	</pattern>
	<path class="st34" d="M36.5,90.3c0,2.5-2,4.5-4.5,4.5c-2.5,0-4.5-2-4.5-4.5"/>
	<path class="st35" d="M130.1,40.2c0,2.5-2,4.5-4.5,4.5c-2.5,0-4.5-2-4.5-4.5"/>
	<pattern  id="SVGID_57_" xlink:href="#Unnamed_Pattern_45" patternTransform="matrix(1.5511 0 0 -1.5511 276.3936 1011.7687)">
	</pattern>
	<path class="st36" d="M130.1,40.2c0,2.5-2,4.5-4.5,4.5c-2.5,0-4.5-2-4.5-4.5"/>
	<pattern  id="SVGID_58_" xlink:href="#Unnamed_Pattern_45" patternTransform="matrix(1.5511 0 0 -1.5511 276.3936 1011.7687)">
	</pattern>
	<path class="st37" d="M64.3,40.2c0,2.5-2,4.5-4.5,4.5c-2.5,0-4.5-2-4.5-4.5"/>
	<pattern  id="SVGID_59_" xlink:href="#Unnamed_Pattern_45" patternTransform="matrix(1.5511 0 0 -1.5511 276.3936 1011.7687)">
	</pattern>
	<path class="st38" d="M167.3,77.7c0,2.5-2,4.5-4.5,4.5c-2.5,0-4.5-2-4.5-4.5"/>
	<polygon class="st39" points="24.4,102.9 31.9,107.2 24.4,111.5 	"/>
</g>
<g>
	<defs>
		<rect id="SVGID_60_" x="5" y="6.1" width="179.9" height="106.2"/>
	</defs>
	<clipPath id="SVGID_61_">
		<use xlink:href="#SVGID_60_"  style="overflow:visible;"/>
	</clipPath>
	<pattern  id="SVGID_62_" xlink:href="#Unnamed_Pattern_45" patternTransform="matrix(1.5511 0 0 -1.5511 276.3936 1011.7687)">
	</pattern>
	<polygon class="st40" points="24.4,102.9 31.9,107.2 24.4,111.5 	"/>
</g>
<g>
	<defs>
		<rect id="SVGID_63_" x="5" y="6.1" width="179.9" height="106.2"/>
	</defs>
	<clipPath id="SVGID_64_">
		<use xlink:href="#SVGID_63_"  style="overflow:visible;"/>
	</clipPath>
	<polygon class="st41" points="39.5,111.5 32,107.2 39.5,102.9 	"/>
</g>
<g>
	<defs>
		<rect id="SVGID_65_" x="5" y="6.1" width="179.9" height="106.2"/>
	</defs>
	<clipPath id="SVGID_66_">
		<use xlink:href="#SVGID_65_"  style="overflow:visible;"/>
	</clipPath>
	<pattern  id="SVGID_67_" xlink:href="#Unnamed_Pattern_45" patternTransform="matrix(1.5511 0 0 -1.5511 276.3936 1011.7687)">
	</pattern>
	<polygon class="st42" points="39.5,111.5 32,107.2 39.5,102.9 	"/>
</g>
<g>
	<defs>
		<rect id="SVGID_68_" x="5" y="6.1" width="179.9" height="106.2"/>
	</defs>
	<clipPath id="SVGID_69_">
		<use xlink:href="#SVGID_68_"  style="overflow:visible;"/>
	</clipPath>
	<line class="st43" x1="59.8" y1="25.7" x2="59.8" y2="35"/>
	<pattern  id="SVGID_70_" xlink:href="#Unnamed_Pattern_45" patternTransform="matrix(1.5511 0 0 -1.5511 276.3936 1011.7687)">
	</pattern>
	<line class="st44" x1="59.8" y1="25.7" x2="59.8" y2="35"/>
	<path class="st43" d="M66.1,14.6c1-1.9,2.1-3.9,3.5-5.9"/>
</g>
<g>
	<defs>
		<rect id="SVGID_71_" x="5" y="6.1" width="179.9" height="106.2"/>
	</defs>
	<clipPath id="SVGID_72_">
		<use xlink:href="#SVGID_71_"  style="overflow:visible;"/>
	</clipPath>
	<pattern  id="SVGID_73_" xlink:href="#Unnamed_Pattern_45" patternTransform="matrix(1.5511 0 0 -1.5511 276.3936 1011.7687)">
	</pattern>
	<path class="st45" d="M66.1,14.6c1-1.9,2.1-3.9,3.5-5.9"/>
</g>
<g>
	<defs>
		<rect id="SVGID_74_" x="5" y="6.1" width="179.9" height="106.2"/>
	</defs>
	<clipPath id="SVGID_75_">
		<use xlink:href="#SVGID_74_"  style="overflow:visible;"/>
	</clipPath>
	<path class="st46" d="M62,14.6c1.2-2.2,2.6-4.6,4.3-7"/>
</g>
<g>
	<defs>
		<rect id="SVGID_76_" x="5" y="6.1" width="179.9" height="106.2"/>
	</defs>
	<clipPath id="SVGID_77_">
		<use xlink:href="#SVGID_76_"  style="overflow:visible;"/>
	</clipPath>
	<pattern  id="SVGID_78_" xlink:href="#Unnamed_Pattern_45" patternTransform="matrix(1.5511 0 0 -1.5511 276.3936 1011.7687)">
	</pattern>
	<path class="st47" d="M62,14.6c1.2-2.2,2.6-4.6,4.3-7"/>
</g>
<g>
	<defs>
		<rect id="SVGID_79_" x="5" y="6.1" width="179.9" height="106.2"/>
	</defs>
	<clipPath id="SVGID_80_">
		<use xlink:href="#SVGID_79_"  style="overflow:visible;"/>
	</clipPath>
	<path class="st48" d="M57.5,14.6c1.3-2.4,2.8-5,4.8-7.7"/>
</g>
<g>
	<defs>
		<rect id="SVGID_81_" x="5" y="6.1" width="179.9" height="106.2"/>
	</defs>
	<clipPath id="SVGID_82_">
		<use xlink:href="#SVGID_81_"  style="overflow:visible;"/>
	</clipPath>
	<pattern  id="SVGID_83_" xlink:href="#Unnamed_Pattern_45" patternTransform="matrix(1.5511 0 0 -1.5511 276.3936 1011.7687)">
	</pattern>
	<path class="st49" d="M57.5,14.6c1.3-2.4,2.8-5,4.8-7.7"/>
</g>
<g>
	<defs>
		<rect id="SVGID_84_" x="5" y="6.1" width="179.9" height="106.2"/>
	</defs>
	<clipPath id="SVGID_85_">
		<use xlink:href="#SVGID_84_"  style="overflow:visible;"/>
	</clipPath>
	<path class="st50" d="M53,14.6c1.2-2.4,2.8-4.9,4.7-7.5"/>
</g>
<g>
	<defs>
		<rect id="SVGID_86_" x="5" y="6.1" width="179.9" height="106.2"/>
	</defs>
	<clipPath id="SVGID_87_">
		<use xlink:href="#SVGID_86_"  style="overflow:visible;"/>
	</clipPath>
	<pattern  id="SVGID_88_" xlink:href="#Unnamed_Pattern_45" patternTransform="matrix(1.5511 0 0 -1.5511 276.3936 1011.7687)">
	</pattern>
	<path class="st51" d="M53,14.6c1.2-2.4,2.8-4.9,4.7-7.5"/>
</g>
<g>
	<defs>
		<rect id="SVGID_89_" x="5" y="6.1" width="179.9" height="106.2"/>
	</defs>
	<clipPath id="SVGID_90_">
		<use xlink:href="#SVGID_89_"  style="overflow:visible;"/>
	</clipPath>
	<path class="st52" d="M57.5,25.7c0,2.3-2.7,4.2-6,4.2c-3.3,0-6-1.9-6-4.2c0-2.3,2.7-4.2,6-4.2C54.8,21.5,57.5,23.4,57.5,25.7"/>
	<pattern  id="SVGID_91_" xlink:href="#Unnamed_Pattern_45" patternTransform="matrix(1.5511 0 0 -1.5511 276.3936 1011.7687)">
	</pattern>
	<ellipse class="st53" cx="51.5" cy="25.7" rx="6" ry="4.2"/>
	<path class="st52" d="M74,25.7c0,2.3-2.7,4.2-6,4.2c-3.3,0-6-1.9-6-4.2c0-2.3,2.7-4.2,6-4.2C71.4,21.5,74,23.4,74,25.7"/>
	<pattern  id="SVGID_92_" xlink:href="#Unnamed_Pattern_45" patternTransform="matrix(1.5511 0 0 -1.5511 276.3936 1011.7687)">
	</pattern>
	<ellipse class="st54" cx="68" cy="25.7" rx="6" ry="4.2"/>
	<line class="st52" x1="57.5" y1="25.7" x2="62" y2="25.7"/>
	<pattern  id="SVGID_93_" xlink:href="#Unnamed_Pattern_45" patternTransform="matrix(1.5511 0 0 -1.5511 276.3936 1011.7687)">
	</pattern>
	<line class="st55" x1="57.5" y1="25.7" x2="62" y2="25.7"/>
	<path class="st56" d="M14.7,66c0,0,13.8,2.8,19.6,0.5c5.7-2.3,10.2-5.8,9.2-6.3c-1-0.6-8.3-3.1-8.3-3.1l-9.3,0.6l-7.8,4.1l-3.4,3
		V66z"/>
</g>
<g>
	<defs>
		<rect id="SVGID_94_" x="5" y="6.1" width="179.9" height="106.2"/>
	</defs>
	<clipPath id="SVGID_95_">
		<use xlink:href="#SVGID_94_"  style="overflow:visible;"/>
	</clipPath>
	<pattern  id="SVGID_96_" xlink:href="#Unnamed_Pattern_45" patternTransform="matrix(1.5511 0 0 -1.5511 276.3936 1011.7687)">
	</pattern>
	<path class="st57" d="M42.6,60.4c0,3.8-7.5,7-16.7,7c-9.2,0-16.7-3.1-16.7-7"/>
	<pattern  id="SVGID_97_" xlink:href="#Unnamed_Pattern_45" patternTransform="matrix(1.5511 0 0 -1.5511 276.3936 1011.7687)">
	</pattern>
	<circle class="st58" cx="32" cy="78.7" r="21.9"/>
</g>
<g>
	<defs>
		<rect id="SVGID_98_" x="5" y="6.1" width="179.9" height="106.2"/>
	</defs>
	<clipPath id="SVGID_99_">
		<use xlink:href="#SVGID_98_"  style="overflow:visible;"/>
	</clipPath>
	<polygon class="st59" points="104.6,37.3 112.2,36.1 119.4,30.5 123.3,24.2 125.5,16.9 125.5,11.7 125.5,9.2 118.4,10.6 
		111.7,13.6 107.1,18.5 103.8,25.4 103.1,31.1 	"/>
	<polygon class="st59" points="146.4,37.3 139.1,35.4 131.7,30.5 127.7,24.2 125.5,16.9 125.6,11.7 125.5,9.2 132.7,10.6 
		139.3,13.6 143.8,18.7 146.7,25.7 147.4,31.1 	"/>
</g>
<g>
	<defs>
		<rect id="SVGID_100_" x="5" y="6.1" width="179.9" height="106.2"/>
	</defs>
	<clipPath id="SVGID_101_">
		<use xlink:href="#SVGID_100_"  style="overflow:visible;"/>
	</clipPath>
	<pattern  id="SVGID_102_" xlink:href="#Unnamed_Pattern_45" patternTransform="matrix(1.5511 0 0 -1.5511 276.3936 1011.7687)">
	</pattern>
	<path class="st60" d="M155.6,34.5c-2.6,1.3-5.5,2-8.6,2c-11.4,0-20.8-10.1-21.5-22.9c0-0.5,0-1,0-1.6"/>
	<pattern  id="SVGID_103_" xlink:href="#Unnamed_Pattern_45" patternTransform="matrix(1.5511 0 0 -1.5511 276.3936 1011.7687)">
	</pattern>
	<path class="st61" d="M95.5,35.9c2.6,1.3,5.5,2,8.6,2c11.9,0,21.5-11,21.5-24.5c0-0.9,0-1.9-0.1-2.8"/>
	<pattern  id="SVGID_104_" xlink:href="#Unnamed_Pattern_45" patternTransform="matrix(1.5511 0 0 -1.5511 276.3936 1011.7687)">
	</pattern>
	<circle class="st62" cx="125" cy="31.1" r="21.9"/>
</g>
<g>
	<defs>
		<rect id="SVGID_105_" x="5" y="6.1" width="179.9" height="106.2"/>
	</defs>
	<clipPath id="SVGID_106_">
		<use xlink:href="#SVGID_105_"  style="overflow:visible;"/>
	</clipPath>
	<polygon class="st63" points="133.6,73.2 137.4,73.7 143.8,73.1 150.3,69.4 152.9,66.4 154.8,63.7 157.1,68.1 162.2,72 167.9,73.7 
		172.6,73.7 175.8,72.6 174.3,68.7 171.9,65 168.8,61.9 165.7,59.7 161.2,58 156.9,56.9 151.1,57.1 146,58.6 142.4,60.7 139,63.6 
		135.6,68.1 134.1,70.6 	"/>
	<pattern  id="SVGID_107_" xlink:href="#Unnamed_Pattern_45" patternTransform="matrix(1.5511 0 0 -1.5511 276.3936 1011.7687)">
	</pattern>
	<path class="st64" d="M173.8,67.9c-0.7,0.2,0,0-0.8,0.1c-0.7,0.1-1.4,0.1-2.2,0.1c-7.5,0-14-4.2-15.8-9.9"/>
</g>
<g>
	<defs>
		<rect id="SVGID_108_" x="5" y="6.1" width="179.9" height="106.2"/>
	</defs>
	<clipPath id="SVGID_109_">
		<use xlink:href="#SVGID_108_"  style="overflow:visible;"/>
	</clipPath>
	<pattern  id="SVGID_110_" xlink:href="#Unnamed_Pattern_45" patternTransform="matrix(1.5511 0 0 -1.5511 276.3936 1011.7687)">
	</pattern>
	<path class="st65" d="M135.9,68.1c0.3,0,2.5,0,2.9,0c6.5,0,12.1-3.2,14.6-7.7c0.4-0.8,0.9-1.3,1.2-2.2"/>
	<pattern  id="SVGID_111_" xlink:href="#Unnamed_Pattern_45" patternTransform="matrix(1.5511 0 0 -1.5511 276.3936 1011.7687)">
	</pattern>
	<path class="st66" d="M184.1,68c0,0-3.3,4.8-11.1,5.7c-0.7,0.1-1.4,0.1-2.2,0.1c-8.8,0-16-5.9-16-13.1c0-0.8,0.1-1.6,0.3-2.4"/>
	<pattern  id="SVGID_112_" xlink:href="#Unnamed_Pattern_45" patternTransform="matrix(1.5511 0 0 -1.5511 276.3936 1011.7687)">
	</pattern>
	<path class="st67" d="M125.5,68c0,0,3.3,4.8,11.1,5.7c0.7,0.1,1.4,0.1,2.2,0.1c8.8,0,16-5.9,16-13.1c0-0.8-0.1-1.6-0.3-2.4"/>
	<pattern  id="SVGID_113_" xlink:href="#Unnamed_Pattern_45" patternTransform="matrix(1.5511 0 0 -1.5511 276.3936 1011.7687)">
	</pattern>
	<path class="st68" d="M176.7,78.7c0,12.1-9.8,21.9-21.9,21.9c-12.1,0-21.9-9.8-21.9-21.9c0-11.1,8.3-20.3,19-21.7
		c0.9-0.1,1.9-0.2,2.9-0.2C166.9,56.8,176.7,66.6,176.7,78.7z"/>
</g>
</svg>
