<?xml version="1.0" encoding="utf-8"?>
<!-- Generator: Adobe Illustrator 21.0.0, SVG Export Plug-In . SVG Version: 6.00 Build 0)  -->
<svg version="1.1" id="Layer_1" xmlns="http://www.w3.org/2000/svg" xmlns:xlink="http://www.w3.org/1999/xlink" x="0px" y="0px"
	 viewBox="0 0 136 112" style="enable-background:new 0 0 136 112;" xml:space="preserve">
<style type="text/css">
	.st0{clip-path:url(#SVGID_2_);fill:#FFFFFF;}
	
		.st1{clip-path:url(#SVGID_2_);fill:none;stroke:#005089;stroke-width:1.5;stroke-linecap:round;stroke-linejoin:round;stroke-miterlimit:10;}
</style>
<g>
	<defs>
		<rect id="SVGID_1_" x="5" y="6.8" width="125" height="99.2"/>
	</defs>
	<clipPath id="SVGID_2_">
		<use xlink:href="#SVGID_1_"  style="overflow:visible;"/>
	</clipPath>
	<path class="st0" d="M93.7,104.8c0.2-1.9,0.5-5,0.6-6.7c0.5-4.3,0.5-7.3,0.3-9.2c-0.4-4.6-2.8-8.1-4.5-10c-1-1.2-5.2-5.5-6.9-8.6
		c-0.9-1.7-2.3-5.3-3.4-7.2c-1.5-2.5-1-3.5,0.2-4.1c1-0.5,4.4-0.1,6.2,3.4c1.3,2.5,2.4,3.7,3.6,5.1c0.3,0.4,2,1.6,2.9-0.5
		c0.7-1.7,1.4-3.5,2.1-5.3c0.9-2.1,0.6-4.5,0.6-4.5l-1.3-17.1c-0.1-1.4,0.9-2.6,2.3-2.7c1.4-0.1,2.6,0.9,2.7,2.3l1.4,19.4
		c0.7-0.1,1.4-0.1,2-0.1c0.1-2.4,0.4-6.4,0.6-10.4c0.3-4.9,0.6-9.8,0.7-11.5c0.1-1.4,1.3-2.5,2.7-2.4c1.4,0.1,2.5,1.3,2.4,2.6
		c-0.1,1-0.2,3.1-0.3,5.5c-0.3,5.5-0.8,13.3-1,16.8c0.5,0.1,1,0.3,1.5,0.5l7.3-19.8c0.5-1.3,1.9-2,3.2-1.5c1.3,0.5,2,1.9,1.5,3.2
		l-7.5,20.4c0.5,0.3,0.9,0.7,1.3,1l10.6-12.3c0.9-1.1,2.5-1.2,3.6-0.3c1.1,0.9,1.2,2.5,0.3,3.6l-11.1,12.9c-0.1,5.8-3.5,12.9-5.7,17
		c-2.2,3.4-1.1,12.9-1.1,12.9l0.8,7.6 M121.1,38.1L121.1,38.1L121.1,38.1L121.1,38.1z M54.5,104.4c0.5-6.1,2.4-29.8,2.6-33.5
		c0.5-4.3,0.5-7.3,0.3-9.2c-0.4-4.6-2.8-8-4.5-10c-1-1.2-5.2-5.5-6.9-8.6c-0.9-1.7-2.3-5.3-3.4-7.2c-1.5-2.5-1-3.5,0.2-4.1
		c1-0.5,4.4-0.1,6.2,3.4c1.3,2.5,2.4,3.7,3.6,5.1c0.3,0.4,2,1.6,2.9-0.5c0.7-1.7,1.4-3.5,2.1-5.3c0.9-2.1,0.6-4.5,0.6-4.5L57,12.9
		c-0.1-1.4,0.9-2.6,2.3-2.7c1.4-0.1,2.6,0.9,2.7,2.3l1.4,19.4c0.7-0.1,1.4-0.1,2-0.1c0.1-2.4,0.4-6.4,0.6-10.4
		c0.3-4.9,0.6-9.8,0.7-11.5c0.1-1.4,1.3-2.5,2.7-2.4c1.4,0.1,2.5,1.3,2.4,2.6c-0.1,1-0.2,3.1-0.3,5.5c-0.3,5.5-0.8,13.3-1,16.8
		c0.5,0.1,1,0.3,1.5,0.5l7.3-19.8c0.5-1.3,1.9-2,3.2-1.5c1.3,0.5,2,1.9,1.5,3.2l-7.5,20.4c0.5,0.3,0.9,0.7,1.3,1l10.6-12.3
		c0.9-1.1,2.5-1.2,3.6-0.3c1.1,0.9,1.2,2.5,0.3,3.6L81.1,40.3c-0.1,5.8-3.5,12.9-5.7,17c-2.2,3.4-1.1,12.9-1.1,12.9l0.9,34.1
		 M71.3,85.1L71.3,85.1L71.3,85.1L71.3,85.1z M19,105.3c0.2-1.4,0.4-3.8,0.6-6.2c0.4-3.9,0.4-6.5,0.3-8.3c-0.3-4.1-2.5-7.2-4-9
		c-0.9-1.1-4.7-4.9-6.2-7.8c-0.8-1.5-2-4.8-3.1-6.5c-1.4-2.3-0.9-3.1,0.2-3.7c0.9-0.5,3.9-0.1,5.6,3.1c1.2,2.3,2.2,3.3,3.2,4.6
		c0.3,0.3,1.8,1.5,2.6-0.5c0.6-1.5,1.3-3.2,1.9-4.8c0.8-1.9,0.5-4,0.5-4l-1.1-15.4c-0.1-1.2,0.8-2.3,2.1-2.4
		c1.3-0.1,2.3,0.8,2.4,2.1l1.3,17.4c0.6-0.1,1.2-0.1,1.8-0.1c0.1-2.2,0.4-5.8,0.6-9.3c0.3-4.4,0.5-8.8,0.6-10.4
		c0.1-1.2,1.1-2.2,2.4-2.1c1.2,0.1,2.2,1.1,2.1,2.4c0,0.9-0.2,2.8-0.3,5c-0.3,5-0.7,12-0.9,15.1c0.5,0.1,0.9,0.3,1.3,0.4l6.6-17.8
		c0.4-1.2,1.7-1.8,2.9-1.3c1.2,0.4,1.8,1.7,1.3,2.9L37,67.1c0.4,0.3,0.8,0.6,1.2,0.9l9.5-11.1c0.8-1,2.2-1.1,3.2-0.2
		c1,0.8,1.1,2.2,0.2,3.2l-10,11.6C41,76.7,38,83.1,36,86.7c-1.9,3-0.9,11.6-0.9,11.6l0.7,6.7"/>
	<path class="st1" d="M93.7,104.8c0.2-1.9,0.5-5,0.6-6.7c0.5-4.3,0.5-7.3,0.3-9.2c-0.4-4.6-2.8-8.1-4.5-10c-1-1.2-5.2-5.5-6.9-8.6
		c-0.9-1.7-2.3-5.3-3.4-7.2c-1.5-2.5-1-3.5,0.2-4.1c1-0.5,4.4-0.1,6.2,3.4c1.3,2.5,2.4,3.7,3.6,5.1c0.3,0.4,2,1.6,2.9-0.5
		c0.7-1.7,1.4-3.5,2.1-5.3c0.9-2.1,0.6-4.5,0.6-4.5l-1.3-17.1c-0.1-1.4,0.9-2.6,2.3-2.7c1.4-0.1,2.6,0.9,2.7,2.3l1.4,19.4
		c0.7-0.1,1.4-0.1,2-0.1c0.1-2.4,0.4-6.4,0.6-10.4c0.3-4.9,0.6-9.8,0.7-11.5c0.1-1.4,1.3-2.5,2.7-2.4c1.4,0.1,2.5,1.3,2.4,2.6
		c-0.1,1-0.2,3.1-0.3,5.5c-0.3,5.5-0.8,13.3-1,16.8c0.5,0.1,1,0.3,1.5,0.5l7.3-19.8c0.5-1.3,1.9-2,3.2-1.5c1.3,0.5,2,1.9,1.5,3.2
		l-7.5,20.4c0.5,0.3,0.9,0.7,1.3,1l10.6-12.3c0.9-1.1,2.5-1.2,3.6-0.3c1.1,0.9,1.2,2.5,0.3,3.6l-11.1,12.9c-0.1,5.8-3.5,12.9-5.7,17
		c-2.2,3.4-1.1,12.9-1.1,12.9l0.8,7.6 M54.5,104.4c0.5-6.1,2.4-29.8,2.6-33.5c0.5-4.3,0.5-7.3,0.3-9.2c-0.4-4.6-2.8-8-4.5-10
		c-1-1.2-5.2-5.5-6.9-8.6c-0.9-1.7-2.3-5.3-3.4-7.2c-1.5-2.5-1-3.5,0.2-4.1c1-0.5,4.4-0.1,6.2,3.4c1.3,2.5,2.4,3.7,3.6,5.1
		c0.3,0.4,2,1.6,2.9-0.5c0.7-1.7,1.4-3.5,2.1-5.3c0.9-2.1,0.6-4.5,0.6-4.5L57,12.9c-0.1-1.4,0.9-2.6,2.3-2.7
		c1.4-0.1,2.6,0.9,2.7,2.3l1.4,19.4c0.7-0.1,1.4-0.1,2-0.1c0.1-2.4,0.4-6.4,0.6-10.4c0.3-4.9,0.6-9.8,0.7-11.5
		c0.1-1.4,1.3-2.5,2.7-2.4c1.4,0.1,2.5,1.3,2.4,2.6c-0.1,1-0.2,3.1-0.3,5.5c-0.3,5.5-0.8,13.3-1,16.8c0.5,0.1,1,0.3,1.5,0.5
		l7.3-19.8c0.5-1.3,1.9-2,3.2-1.5c1.3,0.5,2,1.9,1.5,3.2l-7.5,20.4c0.5,0.3,0.9,0.7,1.3,1l10.6-12.3c0.9-1.1,2.5-1.2,3.6-0.3
		c1.1,0.9,1.2,2.5,0.3,3.6L81.1,40.3c-0.1,5.8-3.5,12.9-5.7,17c-2.2,3.4-1.1,12.9-1.1,12.9l0.9,34.1 M19,105.3
		c0.2-1.4,0.4-3.8,0.6-6.2c0.4-3.9,0.4-6.5,0.3-8.3c-0.3-4.1-2.5-7.2-4-9c-0.9-1.1-4.7-4.9-6.2-7.8c-0.8-1.5-2-4.8-3.1-6.5
		c-1.4-2.3-0.9-3.1,0.2-3.7c0.9-0.5,3.9-0.1,5.6,3.1c1.2,2.3,2.2,3.3,3.2,4.6c0.3,0.3,1.8,1.5,2.6-0.5c0.6-1.5,1.3-3.2,1.9-4.8
		c0.8-1.9,0.5-4,0.5-4l-1.1-15.4c-0.1-1.2,0.8-2.3,2.1-2.4c1.3-0.1,2.3,0.8,2.4,2.1l1.3,17.4c0.6-0.1,1.2-0.1,1.8-0.1
		c0.1-2.2,0.4-5.8,0.6-9.3c0.3-4.4,0.5-8.8,0.6-10.4c0.1-1.2,1.1-2.2,2.4-2.1c1.2,0.1,2.2,1.1,2.1,2.4c0,0.9-0.2,2.8-0.3,5
		c-0.3,5-0.7,12-0.9,15.1c0.5,0.1,0.9,0.3,1.3,0.4l6.6-17.8c0.4-1.2,1.7-1.8,2.9-1.3c1.2,0.4,1.8,1.7,1.3,2.9L37,67.1
		c0.4,0.3,0.8,0.6,1.2,0.9l9.5-11.1c0.8-1,2.2-1.1,3.2-0.2c1,0.8,1.1,2.2,0.2,3.2l-10,11.6C41,76.7,38,83.1,36,86.7
		c-1.9,3-0.9,11.6-0.9,11.6l0.7,6.7"/>
</g>
</svg>
