<?xml version="1.0" encoding="utf-8"?>
<!-- Generator: Adobe Illustrator 21.0.0, SVG Export Plug-In . SVG Version: 6.00 Build 0)  -->
<!DOCTYPE svg PUBLIC "-//W3C//DTD SVG 1.1//EN" "http://www.w3.org/Graphics/SVG/1.1/DTD/svg11.dtd">
<svg version="1.1" id="Layer_1" xmlns="http://www.w3.org/2000/svg" xmlns:xlink="http://www.w3.org/1999/xlink" x="0px" y="0px"
	 viewBox="0 0 144 144" enable-background="new 0 0 144 144" xml:space="preserve">
<pattern  width="28.8" height="28.8" patternUnits="userSpaceOnUse" id="New_Pattern_Swatch_14" viewBox="0 -28.8 28.8 28.8" overflow="visible">
	<g>
		<rect y="-28.8" fill="none" width="28.8" height="28.8"/>
		<rect y="-28.8" fill="#F37021" width="28.8" height="28.8"/>
	</g>
</pattern>
<pattern  width="28.8" height="28.8" patternUnits="userSpaceOnUse" id="New_Pattern_Swatch_16" viewBox="0 -28.8 28.8 28.8" overflow="visible">
	<g>
		<rect y="-28.8" fill="none" width="28.8" height="28.8"/>
		<rect y="-28.8" fill="#FFD64F" width="28.8" height="28.8"/>
	</g>
</pattern>
<pattern  width="28.8" height="28.8" patternUnits="userSpaceOnUse" id="New_Pattern_Swatch_17" viewBox="0 -28.8 28.8 28.8" overflow="visible">
	<g>
		<rect y="-28.8" fill="none" width="28.8" height="28.8"/>
		<rect y="-28.8" fill="#FFEB95" width="28.8" height="28.8"/>
	</g>
</pattern>
<g>
	<g>
		<pattern  id="SVGID_1_" xlink:href="#New_Pattern_Swatch_14" patternTransform="matrix(1.3701 0 0 1.3701 2988.6318 2906.2488)">
		</pattern>
		
			<path fill-rule="evenodd" clip-rule="evenodd" fill="#FEEC95" stroke="url(#SVGID_1_)" stroke-width="1.5" stroke-linecap="round" stroke-linejoin="round" stroke-miterlimit="10" d="
			M127.6,36.1c0-3.2-2.6-5.9-5.9-5.9H22.4c-3.2,0-5.9,2.6-5.9,5.9v68.2h111V36.1z"/>
	</g>
	<rect x="22.4" y="36.1" fill="#FFFFFF" width="99.9" height="65.5"/>
	<pattern  id="SVGID_2_" xlink:href="#New_Pattern_Swatch_17" patternTransform="matrix(1.3701 0 0 1.3701 2951.9133 2932.5547)">
	</pattern>
	<rect x="30.9" y="52.3" fill="url(#SVGID_2_)" width="36.8" height="22.4"/>
	<pattern  id="SVGID_3_" xlink:href="#New_Pattern_Swatch_17" patternTransform="matrix(1.3701 0 0 1.3701 2951.9133 2932.5547)">
	</pattern>
	<rect x="76.3" y="86" fill="url(#SVGID_3_)" width="37.7" height="10.1"/>
	<pattern  id="SVGID_4_" xlink:href="#New_Pattern_Swatch_16" patternTransform="matrix(1.3701 0 0 1.3701 2951.9133 2932.5554)">
	</pattern>
	<rect x="23" y="36.5" fill="url(#SVGID_4_)" width="98.1" height="9.4"/>
	<g>
		<pattern  id="SVGID_5_" xlink:href="#New_Pattern_Swatch_14" patternTransform="matrix(1.3701 0 0 1.3701 2988.6318 2906.2488)">
		</pattern>
		
			<path fill-rule="evenodd" clip-rule="evenodd" fill="#FEEC95" stroke="url(#SVGID_5_)" stroke-width="1.5" stroke-linecap="round" stroke-linejoin="round" stroke-miterlimit="10" d="
			M4.3,104.3v4.1c0,3.1,2.5,5.5,5.5,5.5h124.5c3.1,0,5.5-2.5,5.5-5.5v-4.1H4.3z"/>
	</g>
	<pattern  id="SVGID_6_" xlink:href="#New_Pattern_Swatch_14" patternTransform="matrix(1.3701 0 0 1.3701 2988.6318 2906.2488)">
	</pattern>
	
		<rect x="22.4" y="36.1" fill-rule="evenodd" clip-rule="evenodd" fill="none" stroke="url(#SVGID_6_)" stroke-width="1.5" stroke-linecap="round" stroke-linejoin="round" stroke-miterlimit="10" width="99.3" height="65"/>
	<g>
		<pattern  id="SVGID_7_" xlink:href="#New_Pattern_Swatch_14" patternTransform="matrix(1.3701 0 0 1.3701 2988.6318 2906.2488)">
		</pattern>
		
			<rect x="22.4" y="81.1" fill="none" stroke="url(#SVGID_7_)" stroke-width="1.5" stroke-linecap="round" stroke-linejoin="round" stroke-miterlimit="10" width="99.3" height="20"/>
		<pattern  id="SVGID_8_" xlink:href="#New_Pattern_Swatch_14" patternTransform="matrix(1.3701 0 0 1.3701 2988.6318 2906.2488)">
		</pattern>
		
			<rect x="22.4" y="46.1" fill="none" stroke="url(#SVGID_8_)" stroke-width="1.5" stroke-linecap="round" stroke-linejoin="round" stroke-miterlimit="10" width="99.3" height="35"/>
		<pattern  id="SVGID_9_" xlink:href="#New_Pattern_Swatch_14" patternTransform="matrix(1.3701 0 0 1.3701 2988.6318 2906.2488)">
		</pattern>
		
			<rect x="22.4" y="36.1" fill="none" stroke="url(#SVGID_9_)" stroke-width="1.5" stroke-linecap="round" stroke-linejoin="round" stroke-miterlimit="10" width="99.3" height="10"/>
		<pattern  id="SVGID_10_" xlink:href="#New_Pattern_Swatch_14" patternTransform="matrix(1.3701 0 0 1.3701 2988.6318 2906.2488)">
		</pattern>
		
			<path fill="none" stroke="url(#SVGID_10_)" stroke-width="1.5" stroke-linecap="round" stroke-linejoin="round" stroke-miterlimit="10" d="
			M112.7,86.1H77.2c-0.6,0-1.2,0.5-1.2,1.2V95c0,0.6,0.5,1.2,1.2,1.2h35.4c0.6,0,1.2-0.5,1.2-1.2v-7.7
			C113.8,86.6,113.3,86.1,112.7,86.1z"/>
		<g>
			
				<pattern  id="SVGID_11_" xlink:href="#New_Pattern_Swatch_14" patternTransform="matrix(1.3701 0 0 1.3701 2988.6318 2906.2488)">
			</pattern>
			
				<rect x="30.3" y="93.3" fill="none" stroke="url(#SVGID_11_)" stroke-width="1.5" stroke-linecap="round" stroke-linejoin="round" stroke-miterlimit="10" width="32.1" height="2.7"/>
			
				<pattern  id="SVGID_12_" xlink:href="#New_Pattern_Swatch_14" patternTransform="matrix(1.3701 0 0 1.3701 2988.6318 2906.2488)">
			</pattern>
			
				<rect x="30.3" y="86.2" fill="none" stroke="url(#SVGID_12_)" stroke-width="1.5" stroke-linecap="round" stroke-linejoin="round" stroke-miterlimit="10" width="37.8" height="4"/>
		</g>
		<g>
			
				<pattern  id="SVGID_13_" xlink:href="#New_Pattern_Swatch_14" patternTransform="matrix(1.3701 0 0 1.3701 2988.6318 2906.2488)">
			</pattern>
			
				<rect x="76.1" y="53.6" fill="none" stroke="url(#SVGID_13_)" stroke-width="1.5" stroke-linecap="round" stroke-linejoin="round" stroke-miterlimit="10" width="37.8" height="4"/>
		</g>
		<g>
			
				<pattern  id="SVGID_14_" xlink:href="#New_Pattern_Swatch_14" patternTransform="matrix(1.3701 0 0 1.3701 2988.6318 2906.2488)">
			</pattern>
			
				<rect x="76.1" y="62.7" fill="none" stroke="url(#SVGID_14_)" stroke-width="1.5" stroke-linecap="round" stroke-linejoin="round" stroke-miterlimit="10" width="37.8" height="4"/>
		</g>
		<pattern  id="SVGID_15_" xlink:href="#New_Pattern_Swatch_14" patternTransform="matrix(1.3701 0 0 1.3701 2988.6318 2906.2488)">
		</pattern>
		
			<path fill="none" stroke="url(#SVGID_15_)" stroke-width="1.5" stroke-linecap="round" stroke-linejoin="round" stroke-miterlimit="10" d="
			M66.9,52.6H31.5c-0.6,0-1.2,0.5-1.2,1.2v19.7c0,0.6,0.5,1.2,1.2,1.2h35.4c0.6,0,1.2-0.5,1.2-1.2V53.8
			C68.1,53.1,67.6,52.6,66.9,52.6z"/>
	</g>
	<g>
		<pattern  id="SVGID_16_" xlink:href="#New_Pattern_Swatch_14" patternTransform="matrix(1.3701 0 0 1.3701 2988.6318 2906.2488)">
		</pattern>
		
			<path fill-rule="evenodd" clip-rule="evenodd" fill="#FFFFFF" stroke="url(#SVGID_16_)" stroke-width="1.5" stroke-linecap="round" stroke-linejoin="round" stroke-miterlimit="10" d="
			M78.2,109.2c0,0.7-0.6,1.3-1.3,1.3h-9.5c-0.7,0-1.3-0.6-1.3-1.3v-0.1c0-0.7,0.6-1.3,1.3-1.3h9.5c0.7,0,1.3,0.6,1.3,1.3V109.2z"/>
	</g>
</g>
</svg>
