<?xml version="1.0" encoding="utf-8"?>
<!-- Generator: Adobe Illustrator 21.0.0, SVG Export Plug-In . SVG Version: 6.00 Build 0)  -->
<!DOCTYPE svg PUBLIC "-//W3C//DTD SVG 1.1//EN" "http://www.w3.org/Graphics/SVG/1.1/DTD/svg11.dtd">
<svg version="1.1" id="Layer_1" xmlns="http://www.w3.org/2000/svg" xmlns:xlink="http://www.w3.org/1999/xlink" x="0px" y="0px"
	 viewBox="0 0 144 144" enable-background="new 0 0 144 144" xml:space="preserve">
<pattern  width="28.8" height="28.8" patternUnits="userSpaceOnUse" id="New_Pattern_Swatch_10" viewBox="0 -28.8 28.8 28.8" overflow="visible">
	<g>
		<rect y="-28.8" fill="none" width="28.8" height="28.8"/>
		<rect y="-28.8" fill="#BFD730" width="28.8" height="28.8"/>
	</g>
</pattern>
<pattern  width="28.8" height="28.8" patternUnits="userSpaceOnUse" id="New_Pattern_Swatch_7" viewBox="0 -28.8 28.8 28.8" overflow="visible">
	<g>
		<rect y="-28.8" fill="none" width="28.8" height="28.8"/>
		<rect y="-28.8" fill="#1E8234" width="28.8" height="28.8"/>
	</g>
</pattern>
<pattern  width="28.8" height="28.8" patternUnits="userSpaceOnUse" id="New_Pattern_Swatch_8" viewBox="0 -28.8 28.8 28.8" overflow="visible">
	<g>
		<rect y="-28.8" fill="none" width="28.8" height="28.8"/>
		<rect y="-28.8" fill="#6D9D31" width="28.8" height="28.8"/>
	</g>
</pattern>
<pattern  width="28.8" height="28.8" patternUnits="userSpaceOnUse" id="New_Pattern_Swatch_9" viewBox="0 -28.8 28.8 28.8" overflow="visible">
	<g>
		<rect y="-28.8" fill="none" width="28.8" height="28.8"/>
		<rect y="-28.8" fill="#8DC63F" width="28.8" height="28.8"/>
	</g>
</pattern>
<g>
	<path fill="#FFFFFF" d="M111.7,79.4c-29.3,1.2-54.1-21.5-55.3-50.8c-0.3-7.5,0.9-14.7,3.5-21.3c-17.9,9.1-29.9,28-29,49.4
		c0.5,10.7,4.1,20.6,9.9,28.7c2,2.8,4.3,5.4,6.8,7.8c5.6,5.2,12.2,9.2,19.6,11.6c5.9,1.9,12.2,2.9,18.8,2.6
		c21.6-0.9,39.6-14.6,47-33.5C126.5,77.2,119.3,79.1,111.7,79.4z"/>
	<pattern  id="SVGID_1_" xlink:href="#New_Pattern_Swatch_7" patternTransform="matrix(1.5167 0 0 1.5167 4220.041 4115.272)">
	</pattern>
	
		<path fill="none" stroke="url(#SVGID_1_)" stroke-width="1.5" stroke-linecap="round" stroke-linejoin="round" stroke-miterlimit="10" d="
		M67.2,104.8c5.9,1.9,12.2,2.9,18.8,2.6c21.6-0.9,39.6-14.6,47-33.5c-6.5,3.2-13.7,5.1-21.3,5.5c-29.3,1.2-54.1-21.5-55.3-50.8
		c-0.3-7.5,0.9-14.7,3.5-21.3c-17.9,9.1-29.9,28-29,49.4c0.5,10.7,4.1,20.6,9.9,28.7"/>
</g>
<pattern  id="SVGID_2_" xlink:href="#New_Pattern_Swatch_10" patternTransform="matrix(1.481 0.3275 -0.3275 1.481 1331.7769 6479.2695)">
</pattern>
<pattern  id="SVGID_3_" xlink:href="#New_Pattern_Swatch_7" patternTransform="matrix(1.481 0.3275 -0.3275 1.481 1331.7769 6479.2695)">
</pattern>
<polygon fill="url(#SVGID_2_)" stroke="url(#SVGID_3_)" stroke-width="1.5" stroke-linecap="round" stroke-linejoin="round" stroke-miterlimit="10" points="
	56.2,85.9 56.9,93.6 64.5,95.3 57.4,98.4 58.1,106.1 53,100.3 45.9,103.4 49.8,96.7 44.6,90.9 52.2,92.6 "/>
<pattern  id="SVGID_4_" xlink:href="#New_Pattern_Swatch_9" patternTransform="matrix(1.2074 -0.918 0.918 1.2074 9006.9395 -5698.834)">
</pattern>
<pattern  id="SVGID_5_" xlink:href="#New_Pattern_Swatch_7" patternTransform="matrix(1.2074 -0.918 0.918 1.2074 9006.9395 -5698.834)">
</pattern>
<polygon fill="url(#SVGID_4_)" stroke="url(#SVGID_5_)" stroke-width="1.5" stroke-linecap="round" stroke-linejoin="round" stroke-miterlimit="10" points="
	53.9,112.8 60.3,117.2 66.5,112.5 64.2,119.9 70.6,124.4 62.8,124.5 60.6,132 58,124.6 50.3,124.8 56.5,120.1 "/>
<pattern  id="SVGID_6_" xlink:href="#New_Pattern_Swatch_8" patternTransform="matrix(1.5167 0 0 1.5167 4182.6772 4114.103)">
</pattern>
<pattern  id="SVGID_7_" xlink:href="#New_Pattern_Swatch_7" patternTransform="matrix(1.5167 0 0 1.5167 4182.6772 4114.104)">
</pattern>
<polygon fill="url(#SVGID_6_)" stroke="url(#SVGID_7_)" stroke-width="1.5" stroke-linecap="round" stroke-linejoin="round" stroke-miterlimit="10" points="
	27.5,91.2 29.9,98.6 37.7,98.6 31.4,103.2 33.8,110.6 27.5,106 21.2,110.6 23.6,103.2 17.3,98.6 25.1,98.6 "/>
</svg>
