<?xml version="1.0" encoding="utf-8"?>
<!-- Generator: Adobe Illustrator 21.0.0, SVG Export Plug-In . SVG Version: 6.00 Build 0)  -->
<svg version="1.1" id="Layer_1" xmlns="http://www.w3.org/2000/svg" xmlns:xlink="http://www.w3.org/1999/xlink" x="0px" y="0px"
	 viewBox="0 0 114 107" style="enable-background:new 0 0 114 107;" xml:space="preserve">
<style type="text/css">
	.st0{fill:none;}
	.st1{fill:#8BC53F;}
	.st2{fill:#1D8134;}
	.st3{clip-path:url(#SVGID_2_);fill:url(#SVGID_3_);}
	
		.st4{clip-path:url(#SVGID_2_);fill:none;stroke:url(#SVGID_4_);stroke-width:1.194;stroke-linecap:round;stroke-linejoin:round;stroke-miterlimit:10;}
	
		.st5{clip-path:url(#SVGID_6_);fill:none;stroke:url(#SVGID_7_);stroke-width:1.194;stroke-linecap:round;stroke-linejoin:round;stroke-miterlimit:10;}
	
		.st6{clip-path:url(#SVGID_6_);fill:none;stroke:url(#SVGID_8_);stroke-width:1.109;stroke-linecap:round;stroke-linejoin:round;stroke-miterlimit:10;}
	
		.st7{clip-path:url(#SVGID_6_);fill:none;stroke:url(#SVGID_9_);stroke-width:1.194;stroke-linecap:round;stroke-linejoin:round;stroke-miterlimit:10;}
	
		.st8{clip-path:url(#SVGID_6_);fill:none;stroke:url(#SVGID_10_);stroke-width:1.131;stroke-linecap:round;stroke-linejoin:round;stroke-miterlimit:10;}
	
		.st9{clip-path:url(#SVGID_6_);fill:none;stroke:url(#SVGID_11_);stroke-width:1.194;stroke-linecap:round;stroke-linejoin:round;stroke-miterlimit:10;}
	.st10{clip-path:url(#SVGID_6_);fill:#FFFFFF;}
	
		.st11{clip-path:url(#SVGID_13_);fill:none;stroke:url(#SVGID_14_);stroke-width:1.194;stroke-linecap:round;stroke-linejoin:round;stroke-miterlimit:10;}
	.st12{clip-path:url(#SVGID_16_);fill:#FFFFFF;}
	
		.st13{clip-path:url(#SVGID_18_);fill:none;stroke:url(#SVGID_19_);stroke-width:1.194;stroke-linecap:round;stroke-linejoin:round;stroke-miterlimit:10;}
	.st14{clip-path:url(#SVGID_21_);fill:#FFFFFF;}
	
		.st15{clip-path:url(#SVGID_23_);fill:none;stroke:url(#SVGID_24_);stroke-width:1.194;stroke-linecap:round;stroke-linejoin:round;stroke-miterlimit:10;}
	.st16{clip-path:url(#SVGID_26_);fill:#FFFFFF;}
	
		.st17{clip-path:url(#SVGID_28_);fill:none;stroke:url(#SVGID_29_);stroke-width:1.194;stroke-linecap:round;stroke-linejoin:round;stroke-miterlimit:10;}
</style>
<pattern  x="-231" y="-126.5" width="28.8" height="28.8" patternUnits="userSpaceOnUse" id="Unnamed_Pattern" viewBox="0 -28.8 28.8 28.8" style="overflow:visible;">
	<g>
		<rect y="-28.8" class="st0" width="28.8" height="28.8"/>
		<rect y="-28.8" class="st1" width="28.8" height="28.8"/>
	</g>
</pattern>
<pattern  x="-231" y="-126.5" width="28.8" height="28.8" patternUnits="userSpaceOnUse" id="Unnamed_Pattern_11" viewBox="0 -28.8 28.8 28.8" style="overflow:visible;">
	<g>
		<rect y="-28.8" class="st0" width="28.8" height="28.8"/>
		<rect y="-28.8" class="st2" width="28.8" height="28.8"/>
	</g>
</pattern>
<g>
	<defs>
		<rect id="SVGID_1_" x="5" y="3.5" width="105" height="100"/>
	</defs>
	<clipPath id="SVGID_2_">
		<use xlink:href="#SVGID_1_"  style="overflow:visible;"/>
	</clipPath>
	<pattern  id="SVGID_3_" xlink:href="#Unnamed_Pattern" patternTransform="matrix(0.9123 0 0 -0.9123 313.6047 737.9077)">
	</pattern>
	<path class="st3" d="M87.7,20.8c-0.3-0.3-0.7-0.4-1-0.2l-7.8,2.6c-1.5,0.5-2.9,1.4-4,2.5L58.5,42L13.2,30.7c-1.2-0.3-2.4,0-3.2,0.9
		l-3.3,3.3c-0.8,0.8-1.1,1.8-1,2.9c0.2,1.1,0.8,2,1.7,2.5l34.4,18.5L27.6,72.9H14.9c-0.3,0-0.5,0.1-0.7,0.3l-3.3,3.3
		c-0.2,0.2-0.3,0.6-0.3,0.9c0,0.3,0.3,0.6,0.5,0.7L22.9,84c0,0,0.1,0,0.1,0.1l1.4,1.4c0,0,0,0.1,0.1,0.1l5.9,11.8
		c0.1,0.3,0.4,0.5,0.7,0.5c0.1,0,0.1,0,0.2,0c0.3,0,0.5-0.1,0.7-0.3l3.3-3.3c0.2-0.2,0.3-0.4,0.3-0.7V80.9l14.2-14.2l18.5,34.3
		c1.5,2.5,4.3,2,5.4,0.8l3.3-3.3c0.9-0.9,1.2-2.1,0.9-3.2L66.5,50l16.4-16.4c1.1-1.1,2-2.5,2.5-4l2.6-7.8
		C88.1,21.5,88,21.1,87.7,20.8"/>
	<pattern  id="SVGID_4_" xlink:href="#Unnamed_Pattern_11" patternTransform="matrix(0.9123 0 0 -0.9123 312.6924 751.9572)">
	</pattern>
	<path class="st4" d="M87.7,20.8c-0.3-0.3-0.7-0.4-1-0.2l-7.8,2.6c-1.5,0.5-2.9,1.4-4,2.5L58.5,42L13.2,30.7c-1.2-0.3-2.4,0-3.2,0.9
		l-3.3,3.3c-0.8,0.8-1.1,1.8-1,2.9c0.2,1.1,0.8,2,1.7,2.5l34.4,18.5L27.6,72.9H14.9c-0.3,0-0.5,0.1-0.7,0.3l-3.3,3.3
		c-0.2,0.2-0.3,0.6-0.3,0.9c0,0.3,0.3,0.6,0.5,0.7L22.9,84c0,0,0.1,0,0.1,0.1l1.4,1.4c0,0,0,0.1,0.1,0.1l5.9,11.8
		c0.1,0.3,0.4,0.5,0.7,0.5c0.1,0,0.1,0,0.2,0c0.3,0,0.5-0.1,0.7-0.3l3.3-3.3c0.2-0.2,0.3-0.4,0.3-0.7V80.9l14.2-14.2l18.5,34.3
		c1.5,2.5,4.3,2,5.4,0.8l3.3-3.3c0.9-0.9,1.2-2.1,0.9-3.2L66.5,50l16.4-16.4c1.1-1.1,2-2.5,2.5-4l2.6-7.8
		C88.1,21.5,88,21.1,87.7,20.8z"/>
</g>
<g>
	<defs>
		<rect id="SVGID_5_" x="5" y="3.5" width="105" height="100"/>
	</defs>
	<clipPath id="SVGID_6_">
		<use xlink:href="#SVGID_5_"  style="overflow:visible;"/>
	</clipPath>
	
		<pattern  id="SVGID_7_" xlink:href="#Unnamed_Pattern_11" patternTransform="matrix(0.6451 -0.6451 -0.6451 -0.6451 732.0359 741.901)">
	</pattern>
	<path class="st5" d="M75.2,66.6l-9.9,9.9c-1.3,1.3-3.5,1.3-4.8,0l-2.2-2.2c-1.3-1.3-1.3-3.5,0-4.8l9.9-9.9c1.3-1.3,3.5-1.3,4.8,0
		l2.2,2.2C76.5,63.1,76.5,65.3,75.2,66.6z"/>
	
		<pattern  id="SVGID_8_" xlink:href="#Unnamed_Pattern_11" patternTransform="matrix(0.5561 -0.5561 -0.6451 -0.6451 727.9951 728.9301)">
	</pattern>
	<path class="st6" d="M79.1,82.8l-7.9,7.9c-1.3,1.3-3.5,1.3-4.8,0l-2.2-2.2c-1.3-1.3-1.3-3.5,0-4.8l7.9-7.9c1.3-1.3,3.5-1.3,4.8,0
		l2.2,2.2C80.4,79.4,80.4,81.5,79.1,82.8z"/>
	
		<pattern  id="SVGID_9_" xlink:href="#Unnamed_Pattern_11" patternTransform="matrix(0.6451 -0.6451 -0.6451 -0.6451 724.6551 733.7155)">
	</pattern>
	<path class="st7" d="M49.2,39.8l-9.9,9.9c-1.3,1.3-3.5,1.3-4.8,0l-2.2-2.2c-1.3-1.3-1.3-3.5,0-4.8l9.9-9.9c1.3-1.3,3.5-1.3,4.8,0
		l2.2,2.2C50.6,36.4,50.6,38.5,49.2,39.8z"/>
	
		<pattern  id="SVGID_10_" xlink:href="#Unnamed_Pattern_11" patternTransform="matrix(0.578 -0.578 -0.6451 -0.6451 734.8459 741.0207)">
	</pattern>
	<path class="st8" d="M32.8,36.6L24.4,45c-1.3,1.3-3.5,1.3-4.8,0l-2.2-2.2c-1.3-1.3-1.3-3.5,0-4.8l8.4-8.4c1.3-1.3,3.5-1.3,4.8,0
		l2.2,2.2C34.2,33.1,34.2,35.2,32.8,36.6z"/>
	<pattern  id="SVGID_11_" xlink:href="#Unnamed_Pattern_11" patternTransform="matrix(0.9123 0 0 -0.9123 298.7183 749.091)">
	</pattern>
	<line class="st9" x1="30.9" y1="77.5" x2="21.2" y2="87.2"/>
	<path class="st10" d="M13.2,30.7c-1.2-0.3-2.4,0-3.2,0.9l-3.3,3.3c-0.8,0.8-1.1,1.8-1,2.9c0.2,1.1,0.8,2,1.7,2.5l34.3,18.5L58.5,42
		L13.2,30.7z"/>
</g>
<g>
	<defs>
		<rect id="SVGID_12_" x="5" y="3.5" width="105" height="100"/>
	</defs>
	<clipPath id="SVGID_13_">
		<use xlink:href="#SVGID_12_"  style="overflow:visible;"/>
	</clipPath>
	<pattern  id="SVGID_14_" xlink:href="#Unnamed_Pattern_11" patternTransform="matrix(0.9123 0 0 -0.9123 289.7027 748.673)">
	</pattern>
	<path class="st11" d="M13.2,30.7c-1.2-0.3-2.4,0-3.2,0.9l-3.3,3.3c-0.8,0.8-1.1,1.8-1,2.9c0.2,1.1,0.8,2,1.7,2.5l34.3,18.5L58.5,42
		L13.2,30.7z"/>
</g>
<g>
	<defs>
		<rect id="SVGID_15_" x="5" y="3.5" width="105" height="100"/>
	</defs>
	<clipPath id="SVGID_16_">
		<use xlink:href="#SVGID_15_"  style="overflow:visible;"/>
	</clipPath>
	<path class="st12" d="M77.8,95.4L66.5,50.1L49.8,66.9l18.4,34.2c1.3,2.3,3.7,2,5,1.1l4.1-4.1C77.9,97.4,78.1,96.3,77.8,95.4"/>
</g>
<g>
	<defs>
		<rect id="SVGID_17_" x="5" y="3.5" width="105" height="100"/>
	</defs>
	<clipPath id="SVGID_18_">
		<use xlink:href="#SVGID_17_"  style="overflow:visible;"/>
	</clipPath>
	<pattern  id="SVGID_19_" xlink:href="#Unnamed_Pattern_11" patternTransform="matrix(0.9123 0 0 -0.9123 289.7027 748.673)">
	</pattern>
	<path class="st13" d="M77.8,95.4L66.5,50.1L49.8,66.9l18.4,34.2c1.3,2.3,3.7,2,5,1.1l4.1-4.1C77.9,97.4,78.1,96.3,77.8,95.4z"/>
</g>
<g>
	<defs>
		<rect id="SVGID_20_" x="5" y="3.5" width="105" height="100"/>
	</defs>
	<clipPath id="SVGID_21_">
		<use xlink:href="#SVGID_20_"  style="overflow:visible;"/>
	</clipPath>
	<path class="st14" d="M56.1,15.2H31.8c-1.3,0-2.3-1-2.3-2.3s1-2.3,2.3-2.3h3.7v0c0-2.6,2.3-4.7,5.1-4.7c1.2,0,2.4,0.4,3.3,1.1
		c1.2-1.7,3.4-2.8,5.8-2.8c3.7,0,6.7,2.5,6.7,5.6c0,0.3,0,0.6-0.1,0.9c1.2,0.1,2,1.1,2,2.3C58.5,14.2,57.4,15.2,56.1,15.2"/>
</g>
<g>
	<defs>
		<rect id="SVGID_22_" x="5" y="3.5" width="105" height="100"/>
	</defs>
	<clipPath id="SVGID_23_">
		<use xlink:href="#SVGID_22_"  style="overflow:visible;"/>
	</clipPath>
	<pattern  id="SVGID_24_" xlink:href="#Unnamed_Pattern_11" patternTransform="matrix(0.9123 0 0 -0.9123 307.7334 751.0617)">
	</pattern>
	<path class="st15" d="M56.1,15.2H31.8c-1.3,0-2.3-1-2.3-2.3s1-2.3,2.3-2.3h3.7v0c0-2.6,2.3-4.7,5.1-4.7c1.2,0,2.4,0.4,3.3,1.1
		c1.2-1.7,3.4-2.8,5.8-2.8c3.7,0,6.7,2.5,6.7,5.6c0,0.3,0,0.6-0.1,0.9c1.2,0.1,2,1.1,2,2.3C58.5,14.2,57.4,15.2,56.1,15.2z"/>
</g>
<g>
	<defs>
		<rect id="SVGID_25_" x="5" y="3.5" width="105" height="100"/>
	</defs>
	<clipPath id="SVGID_26_">
		<use xlink:href="#SVGID_25_"  style="overflow:visible;"/>
	</clipPath>
	<path class="st16" d="M107.7,54.8H104c0-0.1,0-0.3,0-0.4c0-2.1-1.9-3.8-4.1-3.8c-1.2,0-2.3,0.5-3,1.2c-0.9-1.6-2.8-2.7-5.1-2.7
		c-3.1,0-5.6,2-5.6,4.6c0,0.4,0.1,0.8,0.2,1.1h-0.2c-0.9,0-1.7,0.8-1.7,1.7c0,0.9,0.8,1.7,1.7,1.7h21.5c0.9,0,1.7-0.8,1.7-1.7
		C109.4,55.6,108.6,54.8,107.7,54.8"/>
</g>
<g>
	<defs>
		<rect id="SVGID_27_" x="5" y="3.5" width="105" height="100"/>
	</defs>
	<clipPath id="SVGID_28_">
		<use xlink:href="#SVGID_27_"  style="overflow:visible;"/>
	</clipPath>
	<pattern  id="SVGID_29_" xlink:href="#Unnamed_Pattern_11" patternTransform="matrix(0.9123 0 0 -0.9123 297.9336 759.9533)">
	</pattern>
	<path class="st17" d="M107.7,54.8H104c0-0.1,0-0.3,0-0.4c0-2.1-1.9-3.8-4.1-3.8c-1.2,0-2.3,0.5-3,1.2c-0.9-1.6-2.8-2.7-5.1-2.7
		c-3.1,0-5.6,2-5.6,4.6c0,0.4,0.1,0.8,0.2,1.1h-0.2c-0.9,0-1.7,0.8-1.7,1.7c0,0.9,0.8,1.7,1.7,1.7h21.5c0.9,0,1.7-0.8,1.7-1.7
		C109.4,55.6,108.6,54.8,107.7,54.8z"/>
</g>
</svg>
