<?xml version="1.0" encoding="utf-8"?>
<!-- Generator: Adobe Illustrator 21.0.0, SVG Export Plug-In . SVG Version: 6.00 Build 0)  -->
<svg version="1.1" id="Layer_1" xmlns="http://www.w3.org/2000/svg" xmlns:xlink="http://www.w3.org/1999/xlink" x="0px" y="0px"
	 viewBox="0 0 206 131.3" style="enable-background:new 0 0 206 131.3;" xml:space="preserve">
<style type="text/css">
	.st0{fill:none;}
	.st1{fill:#005089;}
	.st2{fill:#007BB4;}
	.st3{fill:#53B7E8;}
	.st4{fill:#FFFFFF;}
	.st5{fill:url(#SVGID_1_);}
	.st6{fill:url(#SVGID_2_);}
	.st7{fill:url(#SVGID_3_);}
	.st8{fill:none;stroke:url(#SVGID_4_);stroke-width:1.5;stroke-linecap:round;stroke-linejoin:round;stroke-miterlimit:10;}
	.st9{fill:none;stroke:url(#SVGID_5_);stroke-width:1.5;stroke-linecap:round;stroke-linejoin:round;stroke-miterlimit:10;}
	.st10{fill:none;stroke:url(#SVGID_6_);stroke-width:1.5;stroke-linecap:round;stroke-linejoin:round;stroke-miterlimit:10;}
	.st11{fill:none;stroke:url(#SVGID_7_);stroke-width:1.5;stroke-linecap:round;stroke-linejoin:round;stroke-miterlimit:10;}
	.st12{fill:#FFFFFF;stroke:url(#SVGID_8_);stroke-miterlimit:10;}
	.st13{font-family:'GothamRounded-Medium';}
	.st14{font-size:27.2139px;}
	.st15{fill:none;stroke:url(#SVGID_10_);stroke-width:1.5;stroke-linecap:round;stroke-linejoin:round;stroke-miterlimit:10;}
	.st16{fill:none;stroke:url(#SVGID_11_);stroke-width:1.5;stroke-linecap:round;stroke-linejoin:round;stroke-miterlimit:10;}
	.st17{fill:none;stroke:url(#SVGID_12_);stroke-width:1.5;stroke-linecap:round;stroke-linejoin:round;stroke-miterlimit:10;}
	.st18{fill:none;stroke:url(#SVGID_13_);stroke-width:1.5;stroke-linecap:round;stroke-linejoin:round;stroke-miterlimit:10;}
	.st19{fill:none;stroke:url(#SVGID_14_);stroke-width:1.5;stroke-linecap:round;stroke-linejoin:round;stroke-miterlimit:10;}
	.st20{fill:none;stroke:url(#SVGID_15_);stroke-width:1.5;stroke-linecap:round;stroke-linejoin:round;stroke-miterlimit:10;}
	.st21{fill:url(#SVGID_16_);stroke:url(#SVGID_17_);stroke-width:1.5;stroke-miterlimit:10;}
</style>
<pattern  x="31" y="0.3" width="28.8" height="28.8" patternUnits="userSpaceOnUse" id="New_Pattern_Swatch_4" viewBox="0 -28.8 28.8 28.8" style="overflow:visible;">
	<g>
		<rect y="-28.8" class="st0" width="28.8" height="28.8"/>
		<rect y="-28.8" class="st1" width="28.8" height="28.8"/>
	</g>
</pattern>
<pattern  x="31" y="0.3" width="28.8" height="28.8" patternUnits="userSpaceOnUse" id="New_Pattern_Swatch_5" viewBox="0 -28.8 28.8 28.8" style="overflow:visible;">
	<g>
		<rect y="-28.8" class="st0" width="28.8" height="28.8"/>
		<rect y="-28.8" class="st2" width="28.8" height="28.8"/>
	</g>
</pattern>
<pattern  x="31" y="0.3" width="28.8" height="28.8" patternUnits="userSpaceOnUse" id="New_Pattern_Swatch_6" viewBox="0 -28.8 28.8 28.8" style="overflow:visible;">
	<g>
		<rect y="-28.8" class="st0" width="28.8" height="28.8"/>
		<rect y="-28.8" class="st3" width="28.8" height="28.8"/>
	</g>
</pattern>
<g>
	<path class="st4" d="M198.8,68.3l-6.5-8l-8.9-3.3c0,0-7.9,0.6-8.5,0.8c-0.6,0.2-8.3,4.1-8.3,4.1l-3.6,5.5l-8.3-2.2L143,61.9
		l-9-16.2l-12.9-21.9l-2.2,0.3l-1.2,2.4L121,33L131,57.7l-33-8.5l-2.4,1.4l0.9,2.4l39.6,15.6l9,20l-1.4,0.8l-3.6,3.3l-1.5,3.1
		l-1.8,4.3l-0.7,5.3l1.7,6.9l4.4,6.7l6.2,3.9l7.7,1l7.9-3.9l4-5.7l1.7-8.1l-1.8-7.3l-4.1-6.8l-6.9-4.7l-7-0.9l-0.4-4.4l-1.2-9.4
		c0,0,8.5,0.1,8.7,0.1c0.2,0.1,4.9,0.1,4.9,0.1l1.8,3.7l1,4.5l6.1,5.6c0,0,10.9,2.6,11,2.6c0.2,0,7.9-1.5,7.9-1.5l7.9-6l1.8-7.7
		L198.8,68.3z M150,91.9l6.6,0.8l3.8,2l4.7,9l-0.3,6.5l-2.7,6l-5.4,3.1c0,0-6,0.2-7.2-0.3s-7.6-6.9-7.6-6.9l-1.7-7.4
		c0,0,1.3-5.3,1.7-5.8c0.3-0.5,2.3-4,2.3-4L150,91.9z M194.6,78.5l-6.1,5.7c0,0-7.6,1.3-7.9,1.3s-8.3-2.7-8.5-2.8
		c-0.2-0.2-3.7-4.8-3.7-4.8l-1.3-8.2l4.6-6.1l8-2.8l5.8,1.2l6.5,3.9l3.4,5.6L194.6,78.5z"/>
	<pattern  id="SVGID_1_" xlink:href="#New_Pattern_Swatch_5" patternTransform="matrix(1.2587 0 0 1.2587 2004.0457 1955.1888)">
	</pattern>
	<path class="st5" d="M129.1,37.4l8-0.5l16.2-2.2l9-3l4.5-3.7l1.5-6.7l0.1-4l-2.8-6.9l3.3,0.1l4.9,1.9l3.8,2l3.6-3.4l4-4l1.6-0.3
		l1.1,7.9c0,0,0.3,13.1,0.3,13.3c0,0.2-2.3,7.4-2.3,7.4l-4.2,5.1l-6.9,3.6l-10,1.8l-10.9,0.8L142.6,47l-6.7,1.6L129.1,37.4z"/>
	<pattern  id="SVGID_2_" xlink:href="#New_Pattern_Swatch_5" patternTransform="matrix(1.2587 0 0 1.2587 2004.0457 1955.1888)">
	</pattern>
	<polygon class="st6" points="123.7,39 129.1,52 125.9,54 115.1,43.3 	"/>
	<pattern  id="SVGID_3_" xlink:href="#New_Pattern_Swatch_5" patternTransform="matrix(1.2587 0 0 1.2587 2004.0457 1955.1888)">
	</pattern>
	<path class="st7" d="M74.3,93.4c0,0,10.9-3.5,16.4-11.2s8.8-15.7,8.8-15.7l5-11.2l4.1-6.8l5.3,1.2l7.2,3l3.2,2l-4.5,7.5l-4.1,8.9
		l-4.4,15.5l-6.7,11.3l-5.3,7.9c0,0-10,3.6-11,3.5c-1-0.1-14.3-9.8-14.3-9.8L74.3,93.4z"/>
	<g>
		<pattern  id="SVGID_4_" xlink:href="#New_Pattern_Swatch_4" patternTransform="matrix(1.2587 0 0 1.2587 2013.1086 1959.7208)">
		</pattern>
		<path class="st8" d="M149.1,91.7c3.1-0.9,6.5-0.3,9.5,1.6c3,1.9,5.2,5,6.3,8.7c1.4,5,0.4,10.2-2.6,13.7c-1.4,1.6-3.3,2.8-5.3,3.4
			c-6.5,1.9-13.6-2.8-15.7-10.3c-1.4-5-0.4-10.2,2.6-13.7C145.2,93.5,147.1,92.3,149.1,91.7z"/>
		<pattern  id="SVGID_5_" xlink:href="#New_Pattern_Swatch_4" patternTransform="matrix(1.2587 0 0 1.2587 2013.1086 1959.7208)">
		</pattern>
		<path class="st9" d="M98.9,106c5.6-6.1,10.5-15,12.2-19.8c1.1-3,1.9-6,2.7-9c1.4-5,2.8-10.2,5.4-14.8c1.5,0.6,13.7,5.5,17.1,6.9
			l8.4,19.5c-1.5,0.8-2.9,1.9-4,3.3c-4,4.6-5.4,11.5-3.5,18c1.4,4.8,4.3,8.8,8.2,11.4c3.9,2.6,8.4,3.3,12.7,2.1
			c2.7-0.8,5.2-2.3,7.1-4.5c4-4.6,5.4-11.5,3.5-18c-1.4-4.8-4.3-8.8-8.2-11.4c-3.3-2.1-6.9-3-10.4-2.6c-0.2-3.1-0.7-9.2-1.9-14.2
			c5.1,0.5,11.2,0.2,14.3,0c0,3.6,1.4,7,4,10c3.1,3.5,7.5,5.9,12.4,6.6c6.7,0.9,13.3-1.3,17.3-5.9c1.9-2.2,3.1-4.8,3.5-7.6
			c0.6-4.4-0.7-8.7-3.8-12.3c-3.1-3.5-7.5-5.9-12.4-6.6c-6.7-0.9-13.3,1.3-17.3,5.9c-1.2,1.3-2.1,2.8-2.7,4.4L143,61.6
			c-1.8-3.2-7.1-12.5-7.4-12.9c6.1-1.9,12.9-2.1,19.8-2.3c2.7-0.1,5.6-0.1,8.4-0.3c6.3-0.4,17.7-2.4,22.8-11.5
			c3.9-7,0.4-27.6,0.3-27.7l-0.2-0.4l-0.4,0.1c-3.2,0.7-8.5,7.6-8.5,7.6s-8.2-4.4-11.5-3.9l-0.9,0.1l0.4,0.8
			c3.8,6.8,3.2,15.6-1.4,19.2c-5.6,4.4-16.7,5.2-24.8,5.8c-1.9,0.1-3.8,0.3-5.4,0.4c-1.7,0.2-3.4,0.5-5.1,0.9c-3-5.3-5.6-9.8-6.9-12
			l-0.5-0.9c-0.3-0.5-0.8-0.9-1.4-0.9c-0.7-0.1-1.3,0.2-1.7,0.8c-0.6,0.9-0.8,2.1-0.3,3.1l5.1,11.8c-2.4,0.9-4.9,2.1-7.3,3.4
			c0,0-1.1,0.7-1.1,0.7l11.2,10.2l0.5-0.4v0c0.7-0.6,1.4-1,2.2-1.5l2.9,6.7l-8.2-2.3c0,0,0,0,0,0c0.8-0.9,0.5-2.2-0.6-2.7l-11.9-4.9
			c-1.1-0.5-2.4-0.2-3.2,0.7c-0.5,0.6-1,1.2-1.5,1.9c0,0.1-0.1,0.1-0.1,0.2l-7.1-2c-1.1-0.3-2.2,0-3,0.7c-0.5,0.4-0.7,1.1-0.5,1.7
			c0.1,0.6,0.5,1.1,1.1,1.3l1,0.4c1.3,0.5,3.4,1.4,6,2.4c-0.7,1.6-1.3,3.1-1.9,4.7l-0.5,1.2c-2.6,6.9-6.4,15.7-12.8,22.6
			c-3.3,3.6-7.7,6.4-11.7,8.3"/>
		<pattern  id="SVGID_6_" xlink:href="#New_Pattern_Swatch_4" patternTransform="matrix(1.2587 0 0 1.2587 2013.1086 1959.7208)">
		</pattern>
		<path class="st10" d="M195.2,75.1c-0.3,2.1-1.2,4.1-2.6,5.7c-3,3.5-8.1,5.2-13.2,4.5c-3.8-0.5-7.2-2.3-9.5-5
			c-2.3-2.7-3.3-5.9-2.9-9.2c0.3-2.1,1.2-4.1,2.6-5.7c3-3.5,8.1-5.2,13.2-4.5C190.6,62.1,196.2,68.4,195.2,75.1z"/>
		<pattern  id="SVGID_7_" xlink:href="#New_Pattern_Swatch_4" patternTransform="matrix(1.2587 0 0 1.2587 2013.1086 1959.7208)">
		</pattern>
		<path class="st11" d="M141.1,66.6c-0.5,0.5-1.3,0.6-1.8,0.1c-0.5-0.5-0.6-1.3-0.1-1.8c0.5-0.5,1.3-0.6,1.8-0.1
			C141.5,65.3,141.5,66.1,141.1,66.6z"/>
	</g>
	<pattern  id="SVGID_8_" xlink:href="#New_Pattern_Swatch_4" patternTransform="matrix(1.2587 0 0 1.2587 2013.1086 1959.7208)">
	</pattern>
	<text transform="matrix(1 0 0 1 49.314 116.6589)" class="st12 st13 st14">	<pattern  id="SVGID_9_" xlink:href="#New_Pattern_Swatch_4" patternTransform="matrix(1.2587 0 0 1.2587 2013.1086 1959.7208)">
	</pattern>
 </text>
	<pattern  id="SVGID_10_" xlink:href="#New_Pattern_Swatch_4" patternTransform="matrix(1.2587 0 0 1.2587 2013.1086 1959.7208)">
	</pattern>
	<line class="st15" x1="103.8" y1="56.1" x2="106.3" y2="51.5"/>
	<pattern  id="SVGID_11_" xlink:href="#New_Pattern_Swatch_4" patternTransform="matrix(1.2587 0 0 1.2587 2013.1086 1959.7208)">
	</pattern>
	<line class="st16" x1="119.3" y1="62.3" x2="123.6" y2="56.2"/>
	<pattern  id="SVGID_12_" xlink:href="#New_Pattern_Swatch_4" patternTransform="matrix(1.2587 0 0 1.2587 2013.1086 1959.7208)">
	</pattern>
	<line class="st17" x1="123.5" y1="39.4" x2="128.9" y2="51.8"/>
	<pattern  id="SVGID_13_" xlink:href="#New_Pattern_Swatch_4" patternTransform="matrix(1.2587 0 0 1.2587 2013.1086 1959.7208)">
	</pattern>
	<line class="st18" x1="129.3" y1="37.6" x2="135.6" y2="48.7"/>
	<pattern  id="SVGID_14_" xlink:href="#New_Pattern_Swatch_4" patternTransform="matrix(1.2587 0 0 1.2587 2013.1086 1959.7208)">
	</pattern>
	<line class="st19" x1="131.8" y1="58.5" x2="143" y2="61.6"/>
	<pattern  id="SVGID_15_" xlink:href="#New_Pattern_Swatch_4" patternTransform="matrix(1.2587 0 0 1.2587 2013.1086 1959.7208)">
	</pattern>
	<line class="st20" x1="136.4" y1="69.2" x2="148.2" y2="72.8"/>
	<pattern  id="SVGID_16_" xlink:href="#New_Pattern_Swatch_6" patternTransform="matrix(1.2587 0 0 1.2587 2004.0457 1955.1888)">
	</pattern>
	<pattern  id="SVGID_17_" xlink:href="#New_Pattern_Swatch_4" patternTransform="matrix(1.1488 0 0 1.1488 1168.3885 1106.4706)">
	</pattern>
	<path class="st21" d="M98.9,106c0,0-15.7,5.5-27.9-24.5S29.5,41.6,6.8,43.7c-0.2,5,8.6,13,8.6,13c-2.5,6.1-7.3,13.8-6.1,16.8
		c0,0,20.8-10.3,34,5.9S65.4,140.6,98.9,106z"/>
</g>
</svg>
