<svg id="Layer_1" data-name="Layer 1" xmlns="http://www.w3.org/2000/svg" xmlns:xlink="http://www.w3.org/1999/xlink" viewBox="0 0 512.99767 301.5"><defs><style>.cls-1,.cls-4{fill:none;}.cls-2{fill:#f37021;}.cls-3,.cls-8{fill:#fff;}.cls-3,.cls-4,.cls-5,.cls-6{stroke-linecap:round;stroke-linejoin:round;stroke-width:1.5px;stroke:url(#New_Pattern_Swatch_14);}.cls-5{fill:#ffd54f;}.cls-6,.cls-7{fill:#feec95;}</style><pattern id="New_Pattern_Swatch_14" data-name="New Pattern Swatch 14" width="28.8" height="28.8" patternTransform="translate(-220.40857 -638.02164) scale(4.45101)" patternUnits="userSpaceOnUse" viewBox="0 0 28.8 28.8"><rect class="cls-1" width="28.8" height="28.8"/><rect class="cls-2" width="28.8" height="28.8"/></pattern></defs><title>icon-people</title><path class="cls-3" d="M.75,297.70851a80.16807,80.16807,0,0,1,148.55064-2.16091"/><path class="cls-3" d="M177.92176,297.70851A80.16807,80.16807,0,0,1,326.4724,295.5476"/><path class="cls-3" d="M355.29385,297.70851a80.16807,80.16807,0,0,1,148.55064-2.16091"/><path class="cls-4" d="M268.28132,143.88432A80.16807,80.16807,0,0,1,416.832,141.7234"/><path class="cls-4" d="M81.18009,143.88432a80.16313,80.16313,0,0,1,74.71377-51.10326c33.19267,0,64.0472,25.50831,76.21224,54.26968"/><polygon class="cls-3" points="163.374 182.006 155.455 188.503 147.537 182.006 147.537 69.926 163.374 69.926 163.374 182.006"/><circle class="cls-3" cx="75.69126" cy="206.53815" r="62.8079"/><circle class="cls-5" cx="155.45541" cy="69.92599" r="62.8079"/><circle class="cls-3" cx="342.55663" cy="69.92599" r="62.8079"/><circle class="cls-3" cx="252.25139" cy="206.53815" r="62.8079"/><path class="cls-6" d="M491.0131,206.53815a62.85887,62.85887,0,1,1-62.8079-62.8079A62.8079,62.8079,0,0,1,491.0131,206.53815Z"/><line class="cls-4" x1="75.69126" y1="172.80628" x2="75.69126" y2="222.78157"/><line class="cls-4" x1="65.08135" y1="222.78157" x2="86.30117" y2="222.78157"/><line class="cls-3" x1="144.8455" y1="81.05771" x2="166.06532" y2="81.05771"/><rect class="cls-6" x="180.54861" y="180.00722" width="60.45548" height="34.11119"/><rect class="cls-6" x="263.39006" y="180.00722" width="60.45548" height="34.11119"/><line class="cls-3" x1="241.0041" y1="197.06282" x2="263.39006" y2="197.06282"/><path class="cls-4" d="M418.45915,203.57808a12.99474,12.99474,0,0,1-25.98948,0"/><circle class="cls-5" cx="252.25139" cy="256.02363" r="28.87873"/><path class="cls-4" d="M265.24612,246.27757a12.99474,12.99474,0,0,1-25.98948,0"/><path class="cls-4" d="M442.56391,239.7802a12.99474,12.99474,0,1,1-25.98948,0"/><path class="cls-4" d="M88.686,239.7802a12.99474,12.99474,0,0,1-25.98948,0"/><path class="cls-3" d="M357.15747,96.02973a12.99474,12.99474,0,1,1-25.98948,0"/><path class="cls-4" d="M168.45014,96.02973a12.99474,12.99474,0,1,1-25.98948,0"/><path class="cls-4" d="M463.94073,203.57808a12.99474,12.99474,0,0,1-25.98948,0"/><polygon class="cls-6" points="54.03 276 75.464 288.375 54.03 300.75 54.03 276"/><polygon class="cls-6" points="97.353 300.75 75.919 288.375 97.353 276 97.353 300.75"/><line class="cls-3" x1="155.45541" y1="54.45826" x2="155.45541" y2="81.05771"/><path class="cls-3" d="M173.65532,22.75222A157.8329,157.8329,0,0,1,183.79238,5.8398"/><path class="cls-3" d="M161.95277,22.75222A160.49958,160.49958,0,0,1,174.37284,2.58805"/><path class="cls-3" d="M148.958,22.75222A161.92694,161.92694,0,0,1,162.71826.75"/><path class="cls-3" d="M135.9633,22.75222A161.49542,161.49542,0,0,1,149.30892,1.31334"/><ellipse class="cls-3" cx="131.7189" cy="54.45826" rx="17.23914" ry="12.12127"/><ellipse class="cls-3" cx="179.19191" cy="54.45826" rx="17.23914" ry="12.12127"/><line class="cls-3" x1="148.95804" y1="54.45826" x2="161.95277" y2="54.45826"/><path class="cls-7" d="M26.26621,170.06558s39.65091,8.01264,56.1231,1.37132,29.28831-16.57857,26.51871-18.21248-23.7997-8.79147-23.7997-8.79147l-26.68325,1.71053L35.96661,157.89172l-9.7004,8.59816Z"/><path class="cls-4" d="M106.22124,154.16032c0,11.03048-21.39907,19.97245-47.79617,19.97245s-47.79617-8.942-47.79617-19.97245"/><circle class="cls-4" cx="75.69126" cy="206.53815" r="62.8079"/><polygon class="cls-7" points="284.198 87.845 305.904 84.178 326.537 68.326 337.799 50.263 344.163 29.165 344.015 14.296 344.163 7.118 323.589 11.08 304.597 19.887 291.212 33.744 281.894 53.605 279.749 69.926 284.198 87.845"/><polygon class="cls-7" points="404.127 87.845 383.08 82.362 361.788 68.326 350.526 50.263 344.163 29.165 344.311 14.296 344.163 7.118 364.737 11.08 383.728 19.887 396.481 34.377 404.806 54.41 406.836 69.926 404.127 87.845"/><path class="cls-4" d="M430.43251,79.75348a55.17711,55.17711,0,0,1-24.53472,5.77117c-32.75932,0-59.559-29.05889-61.609-65.77755q-.1254-2.24623-.126-4.52922"/><path class="cls-4" d="M257.893,83.67513a55.17711,55.17711,0,0,0,24.53472,5.77117c34.09533,0,61.73506-31.47741,61.73506-70.30677q0-4.08817-.40119-8.05934"/><circle class="cls-4" cx="342.55663" cy="69.92599" r="62.8079"/><polygon class="cls-8" points="367.363 190.886 378.207 192.321 396.705 190.415 415.296 180.007 422.606 171.228 428.205 163.377 434.653 176.199 449.272 187.336 465.651 192.321 479.213 192.093 488.565 189.123 484.09 177.849 477.253 167.306 468.395 158.271 459.414 152.024 446.429 147.051 434.247 144.019 417.65 144.615 402.97 149.009 392.47 154.883 382.767 163.176 373.198 176.199 368.867 183.275 367.363 190.886"/><path class="cls-4" d="M482.60856,175.61054c-1.97431.44456,0,0-2.22723.247a56.40414,56.40414,0,0,1-6.217.34191c-21.53426,0-40.22279-11.99541-45.20859-28.38915"/><path class="cls-4" d="M374.011,176.19945c.98281.05145,7.2364,0,8.23505,0,18.57679,0,34.57934-9.03861,41.82525-22.04576,1.25731-2.257,2.68564-3.87391,3.38334-6.34339"/><path class="cls-4" d="M512.24767,175.72975s-9.4242,13.76042-31.86634,16.2492a56.40416,56.40416,0,0,1-6.217.34191c-25.38254,0-45.95916-16.87449-45.95916-37.69023a31.30318,31.30318,0,0,1,.75056-6.82033"/><path class="cls-4" d="M344.16273,175.72975s9.4242,13.76042,31.86634,16.2492a56.40416,56.40416,0,0,0,6.217.34191c25.38254,0,45.95916-16.87449,45.95916-37.69023a31.30318,31.30318,0,0,0-.75056-6.82033"/><path class="cls-4" d="M491.0131,206.53815a62.85887,62.85887,0,1,1-62.8079-62.8079A62.8079,62.8079,0,0,1,491.0131,206.53815Z"/></svg>