<svg id="Layer_1" data-name="Layer 1" xmlns="http://www.w3.org/2000/svg" xmlns:xlink="http://www.w3.org/1999/xlink" viewBox="0 0 300 300"><defs><style>.cls-1,.cls-5,.cls-6,.cls-7,.cls-8,.cls-9{fill:none;}.cls-2{fill:#1e8234;}.cls-3{fill:#8dc63f;}.cls-10,.cls-11,.cls-12,.cls-4,.cls-5,.cls-6,.cls-7,.cls-8,.cls-9{stroke-linecap:round;stroke-linejoin:round;}.cls-10,.cls-11,.cls-12,.cls-4,.cls-5,.cls-7,.cls-9{stroke-width:1.5px;}.cls-4{fill:url(#New_Pattern_Swatch_9);stroke:url(#New_Pattern_Swatch_7);}.cls-5{stroke:url(#New_Pattern_Swatch_7-3);}.cls-6{stroke-width:1.3927px;stroke:url(#New_Pattern_Swatch_7-5);}.cls-7{stroke:url(#New_Pattern_Swatch_7-7);}.cls-8{stroke-width:1.4199px;stroke:url(#New_Pattern_Swatch_7-9);}.cls-9{stroke:url(#New_Pattern_Swatch_7-11);}.cls-10,.cls-11,.cls-12{fill:#fff;}.cls-10{stroke:url(#New_Pattern_Swatch_7-13);}.cls-11{stroke:url(#New_Pattern_Swatch_7-17);}.cls-12{stroke:url(#New_Pattern_Swatch_7-19);}</style><pattern id="New_Pattern_Swatch_9" data-name="New Pattern Swatch 9" width="28.8" height="28.8" patternTransform="translate(-54.57073 32.37521) scale(2.63673)" patternUnits="userSpaceOnUse" viewBox="0 0 28.8 28.8"><rect class="cls-1" width="28.8" height="28.8"/><rect class="cls-3" width="28.8" height="28.8"/></pattern><pattern id="New_Pattern_Swatch_7" data-name="New Pattern Swatch 7" width="28.8" height="28.8" patternTransform="translate(-54.57073 32.37855) scale(2.63673)" patternUnits="userSpaceOnUse" viewBox="0 0 28.8 28.8"><rect class="cls-1" width="28.8" height="28.8"/><rect class="cls-2" width="28.8" height="28.8"/></pattern><pattern id="New_Pattern_Swatch_7-3" data-name="New Pattern Swatch 7" width="28.8" height="28.8" patternTransform="translate(-54.97956 109.29655) rotate(-45) scale(2.63673)" patternUnits="userSpaceOnUse" viewBox="0 0 28.8 28.8"><rect class="cls-1" width="28.8" height="28.8"/><rect class="cls-2" width="28.8" height="28.8"/></pattern><pattern id="New_Pattern_Swatch_7-5" data-name="New Pattern Swatch 7" width="28.8" height="28.8" patternTransform="translate(-76.07868 188.63295) rotate(-45) scale(2.273 2.63673)" patternUnits="userSpaceOnUse" viewBox="0 0 28.8 28.8"><rect class="cls-1" width="28.8" height="28.8"/><rect class="cls-2" width="28.8" height="28.8"/></pattern><pattern id="New_Pattern_Swatch_7-7" data-name="New Pattern Swatch 7" width="28.8" height="28.8" patternTransform="translate(-76.32544 85.63277) rotate(-45) scale(2.63673)" patternUnits="userSpaceOnUse" viewBox="0 0 28.8 28.8"><rect class="cls-1" width="28.8" height="28.8"/><rect class="cls-2" width="28.8" height="28.8"/></pattern><pattern id="New_Pattern_Swatch_7-9" data-name="New Pattern Swatch 7" width="28.8" height="28.8" patternTransform="matrix(1.67064, -1.67064, 1.86445, 1.86445, -161.34491, 113.86364)" patternUnits="userSpaceOnUse" viewBox="0 0 28.8 28.8"><rect class="cls-1" width="28.8" height="28.8"/><rect class="cls-2" width="28.8" height="28.8"/></pattern><pattern id="New_Pattern_Swatch_7-11" data-name="New Pattern Swatch 7" width="28.8" height="28.8" patternTransform="translate(-19.02022 24.09417) scale(2.63673)" patternUnits="userSpaceOnUse" viewBox="0 0 28.8 28.8"><rect class="cls-1" width="28.8" height="28.8"/><rect class="cls-2" width="28.8" height="28.8"/></pattern><pattern id="New_Pattern_Swatch_7-13" data-name="New Pattern Swatch 7" width="28.8" height="28.8" patternTransform="translate(-45.07851 22.88634) scale(2.63673)" patternUnits="userSpaceOnUse" viewBox="0 0 28.8 28.8"><rect class="cls-1" width="28.8" height="28.8"/><rect class="cls-2" width="28.8" height="28.8"/></pattern><pattern id="New_Pattern_Swatch_7-17" data-name="New Pattern Swatch 7" width="28.8" height="28.8" patternTransform="translate(-68.90361 29.79054) scale(2.63673)" patternUnits="userSpaceOnUse" viewBox="0 0 28.8 28.8"><rect class="cls-1" width="28.8" height="28.8"/><rect class="cls-2" width="28.8" height="28.8"/></pattern><pattern id="New_Pattern_Swatch_7-19" data-name="New Pattern Swatch 7" width="28.8" height="28.8" patternTransform="translate(-21.28903 55.48952) scale(2.63673)" patternUnits="userSpaceOnUse" viewBox="0 0 28.8 28.8"><rect class="cls-1" width="28.8" height="28.8"/><rect class="cls-2" width="28.8" height="28.8"/></pattern></defs><title>icon-airplane</title><path class="cls-4" d="M237.32955,55.42063a2.92592,2.92592,0,0,0-2.97247-.70356L211.903,62.20554a29.65734,29.65734,0,0,0-11.56181,7.14234l-47.45309,47.4523L21.89426,84.05231a9.54706,9.54706,0,0,0-9.372,2.54714l-9.6669,9.66118a9.77761,9.77761,0,0,0,2.28623,15.50991l99.2865,53.48926L63.50061,206.18671h-36.699a2.90266,2.90266,0,0,0-2.05378.851l-9.4796,9.4796a2.90747,2.90747,0,0,0,.7546,4.6518l33.959,16.97364c.11213.05614.21111.13471.32108.19488l4.10738,4.10738c.06016.11.13873.20895.195.32124l16.97378,33.95873a2.89893,2.89893,0,0,0,2.13311,1.56565,2.56824,2.56824,0,0,0,.46523.03975,2.89861,2.89861,0,0,0,2.05377-.851l9.4796-9.4796a2.90252,2.90252,0,0,0,.8508-2.05361V229.24742l40.92769-40.92691L180.979,287.59433a9.74469,9.74469,0,0,0,15.51007,2.29752l9.65576-9.66118a9.584,9.584,0,0,0,2.57529-9.298L175.94908,139.861l47.45322-47.4523a29.70123,29.70123,0,0,0,7.14806-11.56167l7.48275-22.45381A2.91024,2.91024,0,0,0,237.32955,55.42063Z"/><path class="cls-5" d="M205.08511,183.90515l-36.5899,36.5899a4.25977,4.25977,0,0,1-6.02422,0l-14.25846-14.25846a4.25977,4.25977,0,0,1,0-6.02422l36.5899-36.5899a4.25977,4.25977,0,0,1,6.02422,0l14.25846,14.25846A4.25977,4.25977,0,0,1,205.08511,183.90515Z"/><path class="cls-6" d="M216.38488,230.84267,185.6735,261.554a4.25977,4.25977,0,0,1-6.02422,0l-14.25846-14.25846a4.25977,4.25977,0,0,1,0-6.02422L196.1022,210.56a4.25977,4.25977,0,0,1,6.02422,0l14.25846,14.25846A4.25977,4.25977,0,0,1,216.38488,230.84267Z"/><path class="cls-7" d="M130.043,106.54516l-36.5899,36.5899a4.25977,4.25977,0,0,1-6.02422,0L73.17045,128.87659a4.25977,4.25977,0,0,1,0-6.02422l36.5899-36.5899a4.25977,4.25977,0,0,1,6.02422,0L130.043,100.52094A4.25977,4.25977,0,0,1,130.043,106.54516Z"/><path class="cls-8" d="M82.67089,97.12868,50.51083,129.28875a4.25977,4.25977,0,0,1-6.02422,0L30.22815,115.03029a4.25977,4.25977,0,0,1,0-6.02422L62.38821,76.846a4.25977,4.25977,0,0,1,6.02422,0L82.67089,91.10446A4.25977,4.25977,0,0,1,82.67089,97.12868Z"/><line class="cls-9" x1="73.01324" y1="219.45708" x2="44.98111" y2="247.48922"/><path class="cls-10" d="M21.89432,84.05228a9.54677,9.54677,0,0,0-9.37195,2.54716L2.85545,96.26063A9.77753,9.77753,0,0,0,5.1417,111.77055l99.23441,53.46118L152.82372,116.784Z"/><path class="cls-10" d="M208.72023,270.93262l-32.66468-130.646-48.37981,48.37981,53.3033,98.92787a9.71307,9.71307,0,0,0,14.38584,3.258l11.731-11.731A9.487,9.487,0,0,0,208.72023,270.93262Z"/><path class="cls-11" d="M146.06336,39.3573H75.86612a6.76037,6.76037,0,1,1,0-13.52073H86.61573v-.13148c0-7.529,6.58282-13.65333,14.67593-13.65333a15.16587,15.16587,0,0,1,9.56969,3.30489c3.42738-4.96914,9.88659-8.11334,16.88294-8.11334,10.70916,0,19.42257,7.20312,19.42257,16.057a13.55964,13.55964,0,0,1-.25172,2.58908,6.76093,6.76093,0,0,1-.85179,13.46792Z"/><path class="cls-12" d="M295.03317,153.68746H284.43493a10.36083,10.36083,0,0,0,.06231-1.13528c0-6.11318-5.36109-11.06892-11.97432-11.06892a12.41453,12.41453,0,0,0-8.7,3.46779c-2.54958-4.55654-8.17967-7.72507-14.72047-7.72507-8.93467,0-16.17765,5.90876-16.17765,13.19756a10.93187,10.93187,0,0,0,.4996,3.26392h-.541a4.96682,4.96682,0,0,0,0,9.93364h62.14974a4.96682,4.96682,0,1,0,0-9.93364Z"/></svg>