<?xml version="1.0" encoding="utf-8"?>
<!-- Generator: Adobe Illustrator 21.0.0, SVG Export Plug-In . SVG Version: 6.00 Build 0)  -->
<!DOCTYPE svg PUBLIC "-//W3C//DTD SVG 1.1//EN" "http://www.w3.org/Graphics/SVG/1.1/DTD/svg11.dtd">
<svg version="1.1" id="Layer_1" xmlns="http://www.w3.org/2000/svg" xmlns:xlink="http://www.w3.org/1999/xlink" x="0px" y="0px"
	 viewBox="0 0 144 144" enable-background="new 0 0 144 144" xml:space="preserve">
<pattern  width="28.8" height="28.8" patternUnits="userSpaceOnUse" id="New_Pattern_Swatch_4" viewBox="0 -28.8 28.8 28.8" overflow="visible">
	<g>
		<rect y="-28.8" fill="none" width="28.8" height="28.8"/>
		<rect y="-28.8" fill="#005089" width="28.8" height="28.8"/>
	</g>
</pattern>
<pattern  width="28.8" height="28.8" patternUnits="userSpaceOnUse" id="New_Pattern_Swatch_5" viewBox="0 -28.8 28.8 28.8" overflow="visible">
	<g>
		<rect y="-28.8" fill="none" width="28.8" height="28.8"/>
		<rect y="-28.8" fill="#007BB4" width="28.8" height="28.8"/>
	</g>
</pattern>
<pattern  width="28.8" height="28.8" patternUnits="userSpaceOnUse" id="New_Pattern_Swatch_6" viewBox="0 -28.8 28.8 28.8" overflow="visible">
	<g>
		<rect y="-28.8" fill="none" width="28.8" height="28.8"/>
		<rect y="-28.8" fill="#53B7E8" width="28.8" height="28.8"/>
	</g>
</pattern>
<g>
	<g>
		<g>
			
				<pattern  id="SVGID_1_" xlink:href="#New_Pattern_Swatch_5" patternTransform="matrix(0.3912 -0.3912 0.3912 0.3912 -1798.2103 -8041.4863)">
			</pattern>
			
				<pattern  id="SVGID_2_" xlink:href="#New_Pattern_Swatch_4" patternTransform="matrix(0.3912 -0.3912 0.3912 0.3912 -1798.2115 -8041.4873)">
			</pattern>
			
				<polygon fill="url(#SVGID_1_)" stroke="url(#SVGID_2_)" stroke-width="1.5" stroke-linecap="round" stroke-linejoin="round" stroke-miterlimit="10" points="
				102.2,30.2 104.9,40.1 117.4,27.6 114.8,17.7 			"/>
		</g>
	</g>
	<g>
		<g>
			
				<pattern  id="SVGID_3_" xlink:href="#New_Pattern_Swatch_5" patternTransform="matrix(0.3912 -0.3912 0.3912 0.3912 -1798.2103 -8041.4863)">
			</pattern>
			
				<pattern  id="SVGID_4_" xlink:href="#New_Pattern_Swatch_4" patternTransform="matrix(0.3912 -0.3912 0.3912 0.3912 -1798.2115 -8041.4873)">
			</pattern>
			
				<polygon fill="url(#SVGID_3_)" stroke="url(#SVGID_4_)" stroke-width="1.5" stroke-linecap="round" stroke-linejoin="round" stroke-miterlimit="10" points="
				104.9,40.1 117.4,27.6 127.3,30.2 114.8,42.8 			"/>
		</g>
	</g>
	<g>
		<g>
			<g>
				
					<pattern  id="SVGID_5_" xlink:href="#New_Pattern_Swatch_6" patternTransform="matrix(0.3912 -0.3912 0.3912 0.3912 -1798.2103 -8041.4863)">
				</pattern>
				
					<pattern  id="SVGID_6_" xlink:href="#New_Pattern_Swatch_4" patternTransform="matrix(0.3912 -0.3912 0.3912 0.3912 -1798.2115 -8041.4873)">
				</pattern>
				
					<path fill="url(#SVGID_5_)" stroke="url(#SVGID_6_)" stroke-width="1.5" stroke-linecap="round" stroke-linejoin="round" stroke-miterlimit="10" d="
					M23.5,58.9c17.3-17.3,45.3-17.3,62.6,0c17.3,17.3,17.3,45.3,0,62.6c-17.3,17.3-45.3,17.3-62.6,0C6.2,104.2,6.2,76.2,23.5,58.9
					L23.5,58.9z"/>
			</g>
		</g>
		<g>
			<g>
				
					<pattern  id="SVGID_7_" xlink:href="#New_Pattern_Swatch_5" patternTransform="matrix(0.3912 -0.3912 0.3912 0.3912 -1798.2103 -8041.4863)">
				</pattern>
				
					<pattern  id="SVGID_8_" xlink:href="#New_Pattern_Swatch_4" patternTransform="matrix(0.3912 -0.3912 0.3912 0.3912 -1798.2115 -8041.4873)">
				</pattern>
				
					<path fill="url(#SVGID_7_)" stroke="url(#SVGID_8_)" stroke-width="1.5" stroke-linecap="round" stroke-linejoin="round" stroke-miterlimit="10" d="
					M36,71.4c10.4-10.4,27.2-10.4,37.6,0c10.4,10.4,10.4,27.2,0,37.6s-27.2,10.4-37.6,0C25.7,98.6,25.7,81.8,36,71.4L36,71.4z
					 M29.8,65.2c-13.8,13.8-13.8,36.3,0,50.1s36.3,13.8,50.1,0s13.8-36.3,0-50.1S43.6,51.3,29.8,65.2L29.8,65.2z"/>
			</g>
		</g>
		<g>
			<g>
				
					<pattern  id="SVGID_9_" xlink:href="#New_Pattern_Swatch_5" patternTransform="matrix(0.3912 -0.3912 0.3912 0.3912 -1798.2103 -8041.4863)">
				</pattern>
				
					<pattern  id="SVGID_10_" xlink:href="#New_Pattern_Swatch_4" patternTransform="matrix(0.3912 -0.3912 0.3912 0.3912 -1798.2115 -8041.4873)">
				</pattern>
				
					<path fill="url(#SVGID_9_)" stroke="url(#SVGID_10_)" stroke-width="1.5" stroke-linecap="round" stroke-linejoin="round" stroke-miterlimit="10" d="
					M48.5,83.9c3.5-3.5,9.1-3.5,12.5,0c3.5,3.5,3.5,9.1,0,12.5c-3.5,3.5-9.1,3.5-12.5,0S45.1,87.4,48.5,83.9L48.5,83.9z M42.3,77.7
					c-6.9,6.9-6.9,18.1,0,25c6.9,6.9,18.1,6.9,25,0c6.9-6.9,6.9-18.1,0-25C60.4,70.8,49.2,70.8,42.3,77.7L42.3,77.7z"/>
			</g>
		</g>
	</g>
	<g>
		<g>
			
				<pattern  id="SVGID_11_" xlink:href="#New_Pattern_Swatch_4" patternTransform="matrix(0.3912 -0.3912 0.3912 0.3912 -1793.9861 -8042.896)">
			</pattern>
			
				<path fill="#FFFFFF" stroke="url(#SVGID_11_)" stroke-width="1.5" stroke-linecap="round" stroke-linejoin="round" stroke-miterlimit="10" d="
				M119,29.2L56.4,91.8c-0.9,0.9-2.3,0.9-3.1,0s-0.9-2.3,0-3.1L115.8,26c0.9-0.9,2.3-0.9,3.1,0C119.8,26.9,119.8,28.3,119,29.2z"/>
		</g>
	</g>
</g>
</svg>
