<svg id="Layer_1" data-name="Layer 1" xmlns="http://www.w3.org/2000/svg" xmlns:xlink="http://www.w3.org/1999/xlink" viewBox="0 0 300 300"><defs><style>.cls-1{fill:none;}.cls-2{fill:#005089;}.cls-3{fill:#007bb4;}.cls-4{fill:#53b7e8;}.cls-5{fill:#005597;}.cls-10,.cls-11,.cls-6,.cls-8,.cls-9{stroke-linecap:round;stroke-linejoin:round;stroke-width:1.5px;}.cls-6{fill:url(#New_Pattern_Swatch_5);}.cls-11,.cls-6{stroke:url(#New_Pattern_Swatch_4);}.cls-7{fill:url(#New_Pattern_Swatch_4);}.cls-8{fill:url(#New_Pattern_Swatch_5-3);stroke:url(#New_Pattern_Swatch_4-5);}.cls-9{fill:#fff;stroke:url(#New_Pattern_Swatch_4-7);}.cls-10{fill:url(#New_Pattern_Swatch_5-5);stroke:url(#New_Pattern_Swatch_4-9);}.cls-11{fill:url(#New_Pattern_Swatch_6);}</style><pattern id="New_Pattern_Swatch_5" data-name="New Pattern Swatch 5" width="28.8" height="28.8" patternTransform="translate(-61.04432 6.01062) scale(1.91822)" patternUnits="userSpaceOnUse" viewBox="0 0 28.8 28.8"><rect class="cls-1" width="28.8" height="28.8"/><rect class="cls-3" width="28.8" height="28.8"/></pattern><pattern id="New_Pattern_Swatch_4" data-name="New Pattern Swatch 4" width="28.8" height="28.8" patternTransform="translate(-61.04432 6.01251) scale(1.91822)" patternUnits="userSpaceOnUse" viewBox="0 0 28.8 28.8"><rect class="cls-1" width="28.8" height="28.8"/><rect class="cls-2" width="28.8" height="28.8"/></pattern><pattern id="New_Pattern_Swatch_5-3" data-name="New Pattern Swatch 5" width="28.8" height="28.8" patternTransform="translate(-47.23311 12.91629) scale(1.91822)" patternUnits="userSpaceOnUse" viewBox="0 0 28.8 28.8"><rect class="cls-1" width="28.8" height="28.8"/><rect class="cls-3" width="28.8" height="28.8"/></pattern><pattern id="New_Pattern_Swatch_4-5" data-name="New Pattern Swatch 4" width="28.8" height="28.8" patternTransform="translate(-47.23311 12.91806) scale(1.91822)" patternUnits="userSpaceOnUse" viewBox="0 0 28.8 28.8"><rect class="cls-1" width="28.8" height="28.8"/><rect class="cls-2" width="28.8" height="28.8"/></pattern><pattern id="New_Pattern_Swatch_4-7" data-name="New Pattern Swatch 4" width="28.8" height="28.8" patternTransform="translate(37.69347 80.4241) scale(1.58078)" patternUnits="userSpaceOnUse" viewBox="0 0 28.8 28.8"><rect class="cls-1" width="28.8" height="28.8"/><rect class="cls-2" width="28.8" height="28.8"/></pattern><pattern id="New_Pattern_Swatch_5-5" data-name="New Pattern Swatch 5" width="28.8" height="28.8" patternTransform="translate(-30.75367 24.95544) scale(1.33612)" patternUnits="userSpaceOnUse" viewBox="0 0 28.8 28.8"><rect class="cls-1" width="28.8" height="28.8"/><rect class="cls-3" width="28.8" height="28.8"/></pattern><pattern id="New_Pattern_Swatch_4-9" data-name="New Pattern Swatch 4" width="28.8" height="28.8" patternTransform="translate(-30.75367 24.95613) scale(1.33612)" patternUnits="userSpaceOnUse" viewBox="0 0 28.8 28.8"><rect class="cls-1" width="28.8" height="28.8"/><rect class="cls-2" width="28.8" height="28.8"/></pattern><pattern id="New_Pattern_Swatch_6" data-name="New Pattern Swatch 6" width="28.8" height="28.8" patternTransform="translate(-61.04432 6.01062) scale(1.91822)" patternUnits="userSpaceOnUse" viewBox="0 0 28.8 28.8"><rect class="cls-1" width="28.8" height="28.8"/><rect class="cls-4" width="28.8" height="28.8"/></pattern></defs><title>icon-search</title><path class="cls-5" d="M101.20661,6.17222A101.20661,101.20661,0,1,0,202.41322,107.37884,101.31825,101.31825,0,0,0,101.20661,6.17222Zm-5.68376,5.11856A128.1747,128.1747,0,0,0,62.42027,57.27552,123.04118,123.04118,0,0,1,31.01888,41.59033,96.02153,96.02153,0,0,1,95.52285,11.29078Zm-67.815,34.01094a127.97823,127.97823,0,0,0,32.87848,16.561,128.35982,128.35982,0,0,0-8.2808,43.04777H4.99945A95.80862,95.80862,0,0,1,27.70785,45.30172Zm0,124.15423a95.80862,95.80862,0,0,1-22.7084-59.60872H52.30552a128.35639,128.35639,0,0,0,8.28,43.04593A128.02394,128.02394,0,0,0,27.70785,169.45595Zm3.311,3.71139A123.04557,123.04557,0,0,1,62.42,157.48216a128.12572,128.12572,0,0,0,33.10889,45.98513A96.021,96.021,0,0,1,31.01888,173.16734Zm67.71934,26.54807a123.1741,123.1741,0,0,1-31.57241-43.70167,123.33887,123.33887,0,0,1,31.57241-4.75842Zm0-53.39687a128.2547,128.2547,0,0,0-33.43367,5.0991,123.42191,123.42191,0,0,1-8.062-41.57042H98.73822Zm0-41.40809H57.24257a123.4186,123.4186,0,0,1,8.06288-41.57252,128.26935,128.26935,0,0,0,33.43278,5.09634Zm0-41.40809a123.33887,123.33887,0,0,1-31.57241-4.75842,123.22016,123.22016,0,0,1,31.57241-43.7064Zm75.9671-18.20063a95.80862,95.80862,0,0,1,22.7084,59.60872H150.10765a128.36456,128.36456,0,0,0-8.2808-43.0479A127.97523,127.97523,0,0,0,174.70532,45.30172Zm-3.31116-3.71139A123.04132,123.04132,0,0,1,139.993,57.27552a128.12378,128.12378,0,0,0-33.10876-45.98513A96.02024,96.02024,0,0,1,171.39416,41.59033ZM103.675,15.04226a123.17461,123.17461,0,0,1,31.57236,43.70167A123.33968,123.33968,0,0,1,103.675,63.50235Zm0,53.392a128.26929,128.26929,0,0,0,33.43272-5.09634,123.42177,123.42177,0,0,1,8.06275,41.57252H103.675Zm0,41.413h41.49547a123.41726,123.41726,0,0,1-8.062,41.57042,128.24279,128.24279,0,0,0-33.43351-5.0991Zm0,41.40809a123.33968,123.33968,0,0,1,31.57236,4.75842,123.22228,123.22228,0,0,1-31.57236,43.7064Zm3.21532,52.21157a128.17628,128.17628,0,0,0,33.10258-45.98474,123.03738,123.03738,0,0,1,31.40126,15.68518A96.02094,96.02094,0,0,1,106.89032,203.46689Zm67.815-34.01094a128.02428,128.02428,0,0,0-32.87782-16.56279,128.36028,128.36028,0,0,0,8.28015-43.04593h47.30607A95.80862,95.80862,0,0,1,174.70532,169.45595Z"/><path class="cls-6" d="M297.5372,279.549,260.192,242.20378a8.33006,8.33006,0,0,0-5.89645-2.43969,8.09345,8.09345,0,0,0-4.2384,1.16442l-.30743.16343-2.48557,2.48892-.16678.30743a8.21587,8.21587,0,0,0-1.16106,4.2384,8.30306,8.30306,0,0,0,2.43968,5.8931L285.7212,291.365a8.35521,8.35521,0,1,0,11.816-11.816Z"/><polygon class="cls-7" points="235.317 231.637 237.806 229.148 249.75 241.092 247.264 243.581 235.317 231.637"/><path class="cls-8" d="M144.43683,137.91127a65.53876,65.53876,0,1,0,92.6858,0A65.53876,65.53876,0,0,0,144.43683,137.91127Z"/><path class="cls-9" d="M152.58934,146.06364a54.00947,54.00947,0,1,0,76.38092,0A54.00947,54.00947,0,0,0,152.58934,146.06364Z"/><path class="cls-10" d="M207.48015,204.14965l-.11878-1.27479a14.21067,14.21067,0,0,0-1.74711-5.578l-1.38957-2.51832,2.83926.45281a11.21341,11.21341,0,0,0,1.76408.13962,12.08138,12.08138,0,0,0,7.23777-2.51178l.64724-.49183.74887.31706c4.90343,2.07072,8.10679,5.65634,8.79048,9.83426l.26749,1.631Z"/><path class="cls-11" d="M156.07206,204.14965l.1618-1.54883a16.6753,16.6753,0,0,1,3.96267-8.97313,24.931,24.931,0,0,1,9.74046-6.84375l.75812-.30784.64189.50759a17.55386,17.55386,0,0,0,22.3044,0l.642-.50759.758.30784a25.37417,25.37417,0,0,1,9.09324,6.113c.2218.23756.44359.48541.65376.73727a19.38594,19.38594,0,0,1,1.3074,1.75232,15.99258,15.99258,0,0,1,2.65006,7.21305l.1618,1.55Z"/><ellipse class="cls-11" cx="182.48953" cy="167.93574" rx="13.16882" ry="16.46075"/><ellipse class="cls-10" cx="208.82803" cy="180.0075" rx="8.78006" ry="10.9747"/></svg>